# Mesh: cube_tree

# List of geometric vertices
v -0.1730 -0.2952 0.0977
v -0.1730 -0.2952 -0.1100
v -0.1730 -1.0571 -0.1100
v -0.1730 -1.0571 0.0977
v 0.0347 -0.2952 -0.1100
v 0.0347 -1.0571 -0.1100
v 0.0347 -0.2952 0.0977
v 0.0347 -1.0571 0.0977
v 0.0347 -0.1113 0.0977
v 0.0347 -0.1113 0.5514
v 0.0347 -0.2952 0.5514
v -0.1730 -0.1113 0.0977
v 0.0347 0.0800 0.0977
v -0.1730 0.0800 0.0977
v 0.0347 -0.1113 -0.1100
v -0.1730 -0.1113 -0.1100
v -0.1730 -0.1113 -0.6066
v -0.1730 -0.2952 -0.6066
v -0.5715 -0.2952 -0.1100
v -0.5715 -0.1113 -0.1100
v 0.0347 0.3008 0.0977
v -0.1730 0.3008 0.0977
v 0.0347 0.0800 -0.1100
v 0.5375 0.0800 -0.1100
v 0.5375 -0.1113 -0.1100
v -0.1730 0.0800 -0.1100
v 0.0347 0.4995 0.0977
v -0.1730 0.4995 0.0977
v 0.0347 0.3008 -0.1100
v -0.1730 0.3008 -0.1100
v 0.0347 0.7791 0.0977
v -0.1730 0.7791 0.0977
v 0.0347 0.4995 -0.1100
v -0.1730 0.4995 -0.1100
v -0.4612 0.3008 -0.1100
v -0.4612 0.4995 -0.1100
v 0.0347 0.7791 -0.1100
v -0.1730 0.7791 -0.1100
v 0.0347 -0.1113 0.7292
v 0.0347 -0.2952 0.7292
v -0.1730 -0.2952 0.5514
v -0.1730 -0.1113 0.5514
v -0.1730 -0.2952 0.7292
v -0.1730 -0.1113 0.7292
v -0.1730 0.0972 0.7292
v -0.1730 0.0972 0.5514
v 0.0347 0.0972 0.5514
v 0.0347 0.0972 0.7292
v 0.7459 0.0800 -0.1100
v 0.7459 -0.1113 -0.1100
v 0.5375 -0.1113 0.0977
v 0.5375 0.0800 0.0977
v 0.7459 -0.1113 0.0977
v 0.7459 0.0800 0.0977
v 0.7459 0.3560 0.0977
v 0.5375 0.3560 0.0977
v 0.5375 0.3560 -0.1100
v 0.7459 0.3560 -0.1100
v -0.1730 -0.1113 -0.8212
v -0.1730 -0.2952 -0.8212
v 0.0347 -0.2952 -0.6066
v 0.0347 -0.1113 -0.6066
v 0.0347 -0.2952 -0.8212
v 0.0347 -0.1113 -0.8212
v 0.0347 0.1095 -0.8212
v 0.0347 0.1095 -0.6066
v -0.1730 0.1095 -0.6066
v -0.1730 0.1095 -0.8212
v -0.7493 -0.2952 -0.1100
v -0.7493 -0.1113 -0.1100
v -0.5715 -0.1113 0.0977
v -0.5715 -0.2952 0.0977
v -0.7493 -0.2952 0.0977
v -0.7493 -0.1113 0.0977
v -0.5715 0.1095 0.0977
v -0.7493 0.1095 0.0977
v -0.5715 0.1095 -0.1100
v -0.7493 0.1095 -0.1100
v -0.6696 0.3008 -0.1100
v -0.6696 0.4995 -0.1100
v -0.4612 0.4995 0.0977
v -0.4612 0.3008 0.0977
v -0.6696 0.3008 0.0977
v -0.6696 0.4995 0.0977
v -0.4612 0.7018 0.0977
v -0.6696 0.7018 0.0977
v -0.4612 0.7018 -0.1100
v -0.6696 0.7018 -0.1100
v -0.3199 0.5542 0.8383
v -0.3199 0.5542 0.3052
v -0.3199 0.0211 0.3052
v -0.3199 0.0211 0.8383
v 0.2132 0.5542 0.3052
v 0.2132 0.0211 0.3052
v 0.2132 0.5542 0.8383
v 0.2132 0.0211 0.8383
v -0.3199 0.5542 -0.3052
v -0.3199 0.5542 -0.8383
v -0.3199 0.0211 -0.8383
v -0.3199 0.0211 -0.3052
v 0.2132 0.5542 -0.8383
v 0.2132 0.0211 -0.8383
v 0.2132 0.5542 -0.3052
v 0.2132 0.0211 -0.3052
v -0.2499 1.0571 0.1833
v -0.2499 1.0571 -0.1956
v -0.2499 0.6782 -0.1956
v -0.2499 0.6782 0.1833
v 0.1290 1.0571 -0.1956
v 0.1290 0.6782 -0.1956
v 0.1290 1.0571 0.1833
v 0.1290 0.6782 0.1833
v -0.8905 0.8185 0.2633
v -0.8905 0.8185 -0.2756
v -0.8905 0.2796 -0.2756
v -0.8905 0.2796 0.2633
v -0.3516 0.8185 -0.2756
v -0.3516 0.2796 -0.2756
v -0.3516 0.8185 0.2633
v -0.3516 0.2796 0.2633
v 0.4007 0.6832 0.2387
v 0.4007 0.6832 -0.2510
v 0.4007 0.1935 -0.2510
v 0.4007 0.1935 0.2387
v 0.8905 0.6832 -0.2510
v 0.8905 0.1935 -0.2510
v 0.8905 0.6832 0.2387
v 0.8905 0.1935 0.2387
v -0.8445 0.2750 0.1534
v -0.8445 0.2750 -0.1657
v -0.8445 -0.0441 -0.1657
v -0.8445 -0.0441 0.1534
v -0.5254 0.2750 -0.1657
v -0.5254 -0.0441 -0.1657
v -0.5254 0.2750 0.1534
v -0.5254 -0.0441 0.1534

# List of vertex normals
vn -1.0000 0.0000 0.0000
vn 0.0000 0.0000 -1.0000
vn 0.0000 -0.0000 1.0000
vn 0.0000 -1.0000 0.0000
vn 0.0000 1.0000 0.0000
vn 1.0000 0.0000 0.0000
vn 0.7071 -0.0000 0.7071
vn -0.7071 0.0002 0.7071
vn 0.7071 -0.0003 -0.7071
vn -0.7071 -0.7071 -0.0002
vn -0.0000 -0.7071 -0.7071
vn -0.7071 0.0000 -0.7071
vn 0.7071 0.0003 -0.7071
vn -0.7071 0.0000 0.7071
vn -0.7071 0.0002 -0.7071
vn -0.0000 -0.7071 0.7071
vn -0.0002 -0.7071 0.7071
vn -0.7071 -0.7071 0.0000

# List of texture coordinates
vt 0.1145 0.5129
vt 0.1139 0.5058
vt 0.1139 0.5125
vt 0.1163 0.5128
vt 0.1145 0.5062
vt 0.1157 0.5056
vt 0.1157 0.5123
vt 0.1163 0.5222
vt 0.1139 0.5219
vt 0.1157 0.5218
vt 0.1139 0.5195
vt 0.1145 0.5224
vt 0.1145 0.5199
vt 0.1139 0.5141
vt 0.1144 0.5129
vt 0.1157 0.5139
vt 0.1126 0.5149
vt 0.1139 0.5143
vt 0.1144 0.5147
vt 0.1126 0.5130
vt 0.1157 0.5156
vt 0.1207 0.5157
vt 0.1163 0.5161
vt 0.1201 0.5176
vt 0.1225 0.5180
vt 0.1207 0.5181
vt 0.1201 0.5152
vt 0.1163 0.5144
vt 0.1160 0.5157
vt 0.1145 0.5146
vt 0.1178 0.5175
vt 0.1166 0.5181
vt 0.1160 0.5176
vt 0.1178 0.5155
vt 0.1105 0.5144
vt 0.1111 0.5168
vt 0.1090 0.5165
vt 0.1105 0.5163
vt 0.1111 0.5149
vt 0.1114 0.5197
vt 0.1121 0.5219
vt 0.1096 0.5216
vt 0.1114 0.5215
vt 0.7355 0.8910
vt 0.7400 0.8844
vt 0.7355 0.8820
vt 0.7483 0.8921
vt 0.7400 0.8934
vt 0.7437 0.8897
vt 0.7483 0.8831
vt 0.7437 0.8807
vt 0.7498 0.8984
vt 0.7452 0.8871
vt 0.7452 0.8961
vt 0.7580 0.8971
vt 0.7498 0.8894
vt 0.7535 0.8858
vt 0.7580 0.8881
vt 0.7535 0.8948
vt 0.7454 0.9039
vt 0.7421 0.8958
vt 0.7421 0.9022
vt 0.7512 0.9030
vt 0.7454 0.8975
vt 0.7480 0.8949
vt 0.7512 0.8966
vt 0.7480 0.9013
vt 0.7362 0.9018
vt 0.7316 0.8903
vt 0.7316 0.8994
vt 0.7445 0.9005
vt 0.7362 0.8927
vt 0.7399 0.8890
vt 0.7445 0.8914
vt 0.7399 0.8981
vt 0.7559 0.8963
vt 0.7517 0.8858
vt 0.7517 0.8941
vt 0.7635 0.8951
vt 0.7559 0.8880
vt 0.7593 0.8846
vt 0.7635 0.8868
vt 0.7593 0.8929
vt 0.7332 0.8906
vt 0.7359 0.8866
vt 0.7332 0.8852
vt 0.7409 0.8912
vt 0.7359 0.8920
vt 0.7381 0.8898
vt 0.7409 0.8858
vt 0.7381 0.8844
vt 0.1163 0.5061
vt 0.1121 0.5145
vt 0.1219 0.5175
vt 0.1184 0.5180
vt 0.1096 0.5170
vt 0.1121 0.5202
vt 0.1103 0.5221
vt 0.1144 0.5113
vt 0.1139 0.5158
vt 0.1160 0.5141
vt 0.1139 0.5177
vt 0.1207 0.5140
vt 0.1145 0.5163
vt 0.1157 0.5176
vt 0.1163 0.5180
vt 0.1145 0.5182
vt 0.1157 0.5193
vt 0.1163 0.5198
vt 0.1139 0.5109
vt 0.1126 0.5114
vt 0.1121 0.5126
vt 0.1121 0.5110
vt 0.1225 0.5138
vt 0.1201 0.5135
vt 0.1219 0.5151
vt 0.1219 0.5134
vt 0.1225 0.5155
vt 0.1166 0.5146
vt 0.1178 0.5139
vt 0.1184 0.5160
vt 0.1184 0.5144
vt 0.1166 0.5162
vt 0.1111 0.5133
vt 0.1096 0.5150
vt 0.1105 0.5128
vt 0.1090 0.5129
vt 0.1096 0.5134
vt 0.1090 0.5145
vt 0.1121 0.5184
vt 0.1103 0.5203
vt 0.1114 0.5179
vt 0.1103 0.5186
vt 0.1096 0.5199
vt 0.1096 0.5181

# List of polygonal faces
f 2/1/1 4/2/1 1/3/1
f 5/4/2 3/5/2 2/1/2
f 1/3/3 8/6/3 7/7/3
f 3/5/4 8/6/4 4/2/4
f 37/8/5 32/9/5 31/10/5
f 28/11/1 38/12/1 34/13/1
f 12/14/5 10/15/5 9/16/5
f 46/17/5 48/18/5 47/19/5
f 42/20/2 47/19/2 10/15/2
f 13/21/5 24/22/5 23/23/5
f 56/24/5 58/25/5 57/26/5
f 52/27/1 57/26/1 24/22/1
f 15/28/5 17/29/5 16/30/5
f 66/31/5 68/32/5 67/33/5
f 62/34/3 67/33/3 17/29/3
f 16/30/5 71/35/5 12/14/5
f 77/36/5 76/37/5 75/38/5
f 20/39/6 75/38/6 71/35/6
f 34/13/5 81/40/5 28/11/5
f 87/41/5 86/42/5 85/43/5
f 81/40/6 87/41/6 85/43/6
f 89/44/1 91/45/1 92/46/1
f 93/47/2 91/45/2 90/48/2
f 95/49/6 94/50/6 93/47/6
f 89/44/3 96/51/3 95/49/3
f 91/45/4 96/51/4 92/46/4
f 93/47/5 89/44/5 95/49/5
f 98/52/1 100/53/1 97/54/1
f 101/55/2 99/56/2 98/52/2
f 101/55/6 104/57/6 102/58/6
f 97/54/3 104/57/3 103/59/3
f 99/56/4 104/57/4 100/53/4
f 101/55/5 97/54/5 103/59/5
f 106/60/1 108/61/1 105/62/1
f 109/63/2 107/64/2 106/60/2
f 109/63/6 112/65/6 110/66/6
f 105/62/3 112/65/3 111/67/3
f 107/64/4 112/65/4 108/61/4
f 109/63/5 105/62/5 111/67/5
f 114/68/1 116/69/1 113/70/1
f 117/71/2 115/72/2 114/68/2
f 117/71/6 120/73/6 118/74/6
f 113/70/3 120/73/3 119/75/3
f 115/72/4 120/73/4 116/69/4
f 117/71/5 113/70/5 119/75/5
f 122/76/1 124/77/1 121/78/1
f 125/79/2 123/80/2 122/76/2
f 125/79/6 128/81/6 126/82/6
f 121/78/3 128/81/3 127/83/3
f 123/80/4 128/81/4 124/77/4
f 125/79/5 121/78/5 127/83/5
f 129/84/1 131/85/1 132/86/1
f 133/87/2 131/85/2 130/88/2
f 135/89/6 134/90/6 133/87/6
f 129/84/3 136/91/3 135/89/3
f 131/85/4 136/91/4 132/86/4
f 133/87/5 129/84/5 135/89/5
f 2/1/1 3/5/1 4/2/1
f 5/4/2 6/92/2 3/5/2
f 1/3/3 4/2/3 8/6/3
f 3/5/4 6/92/4 8/6/4
f 37/8/5 38/12/5 32/9/5
f 28/11/1 32/9/1 38/12/1
f 12/14/5 42/20/5 10/15/5
f 46/17/5 45/93/5 48/18/5
f 42/20/2 46/17/2 47/19/2
f 13/21/5 52/27/5 24/22/5
f 56/24/5 55/94/5 58/25/5
f 52/27/1 56/24/1 57/26/1
f 15/28/5 62/34/5 17/29/5
f 66/31/5 65/95/5 68/32/5
f 62/34/3 66/31/3 67/33/3
f 16/30/5 20/39/5 71/35/5
f 77/36/5 78/96/5 76/37/5
f 20/39/6 77/36/6 75/38/6
f 34/13/5 36/97/5 81/40/5
f 87/41/5 88/98/5 86/42/5
f 81/40/6 36/97/6 87/41/6
f 89/44/1 90/48/1 91/45/1
f 93/47/2 94/50/2 91/45/2
f 95/49/6 96/51/6 94/50/6
f 89/44/3 92/46/3 96/51/3
f 91/45/4 94/50/4 96/51/4
f 93/47/5 90/48/5 89/44/5
f 98/52/1 99/56/1 100/53/1
f 101/55/2 102/58/2 99/56/2
f 101/55/6 103/59/6 104/57/6
f 97/54/3 100/53/3 104/57/3
f 99/56/4 102/58/4 104/57/4
f 101/55/5 98/52/5 97/54/5
f 106/60/1 107/64/1 108/61/1
f 109/63/2 110/66/2 107/64/2
f 109/63/6 111/67/6 112/65/6
f 105/62/3 108/61/3 112/65/3
f 107/64/4 110/66/4 112/65/4
f 109/63/5 106/60/5 105/62/5
f 114/68/1 115/72/1 116/69/1
f 117/71/2 118/74/2 115/72/2
f 117/71/6 119/75/6 120/73/6
f 113/70/3 116/69/3 120/73/3
f 115/72/4 118/74/4 120/73/4
f 117/71/5 114/68/5 113/70/5
f 122/76/1 123/80/1 124/77/1
f 125/79/2 126/82/2 123/80/2
f 125/79/6 127/83/6 128/81/6
f 121/78/3 124/77/3 128/81/3
f 123/80/4 126/82/4 128/81/4
f 125/79/5 122/76/5 121/78/5
f 129/84/1 130/88/1 131/85/1
f 133/87/2 134/90/2 131/85/2
f 135/89/6 136/91/6 134/90/6
f 129/84/3 132/86/3 136/91/3
f 131/85/4 134/90/4 136/91/4
f 133/87/5 130/88/5 129/84/5
f 7/7/6 6/92/6 5/4/6
f 9/16/7 11/99/6 7/7/6
f 9/16/7 14/100/3 12/14/8
f 7/7/6 15/28/9 9/16/7
f 2/1/10 17/29/1 18/101/1
f 2/1/11 20/39/2 16/30/12
f 13/21/3 22/102/3 14/100/3
f 23/23/2 25/103/2 15/28/13
f 16/30/12 23/23/2 15/28/13
f 12/14/14 26/104/1 16/30/15
f 21/105/3 28/11/3 22/102/3
f 23/23/6 21/105/6 13/21/6
f 26/104/2 29/106/2 23/23/2
f 14/100/1 30/107/1 26/104/1
f 27/108/3 32/9/3 28/11/3
f 29/106/6 27/108/6 21/105/6
f 30/107/2 33/109/2 29/106/2
f 30/107/2 36/97/2 34/13/2
f 27/108/6 37/8/6 31/10/6
f 34/13/2 37/8/2 33/109/2
f 11/99/6 39/3/6 40/110/6
f 12/14/14 41/111/1 42/20/1
f 7/7/4 41/111/4 1/3/16
f 40/110/3 44/112/3 43/113/3
f 41/111/1 44/112/1 42/20/1
f 44/112/1 46/17/1 42/20/1
f 11/99/4 43/113/4 41/111/4
f 10/15/6 48/18/6 39/3/6
f 39/3/3 45/93/3 44/112/3
f 24/22/2 50/114/2 25/103/2
f 9/16/7 52/27/3 13/21/3
f 15/28/4 51/115/4 9/16/4
f 50/114/6 54/116/6 53/117/6
f 51/115/3 54/116/3 52/27/3
f 54/116/3 56/24/3 52/27/3
f 25/103/4 53/117/4 51/115/4
f 24/22/2 58/25/2 49/118/2
f 49/118/6 55/94/6 54/116/6
f 17/29/1 60/119/1 18/101/1
f 15/28/9 61/120/6 62/34/6
f 2/1/11 61/120/4 5/4/4
f 60/119/2 64/121/2 63/122/2
f 62/34/6 63/122/6 64/121/6
f 64/121/6 66/31/6 62/34/6
f 18/101/4 63/122/4 61/120/4
f 59/123/1 67/33/1 68/32/1
f 59/123/2 65/95/2 64/121/2
f 19/124/2 70/125/2 20/39/2
f 12/14/14 72/126/3 1/3/17
f 1/3/18 19/124/4 2/1/18
f 73/127/1 70/125/1 69/128/1
f 71/35/3 73/127/3 72/126/3
f 71/35/3 76/37/3 74/129/3
f 72/126/4 69/128/4 19/124/4
f 70/125/2 77/36/2 20/39/2
f 74/129/1 78/96/1 70/125/1
f 35/130/2 80/131/2 36/97/2
f 28/11/3 82/132/3 22/102/3
f 22/102/4 35/130/4 30/107/4
f 79/133/1 84/134/1 80/131/1
f 81/40/3 83/135/3 82/132/3
f 81/40/3 86/42/3 84/134/3
f 82/132/4 79/133/4 35/130/4
f 80/131/2 87/41/2 36/97/2
f 84/134/1 88/98/1 80/131/1
f 7/7/6 8/6/6 6/92/6
f 9/16/7 10/15/6 11/99/6
f 9/16/7 13/21/3 14/100/3
f 7/7/6 5/4/6 15/28/9
f 2/1/10 16/30/12 17/29/1
f 2/1/11 19/124/2 20/39/2
f 13/21/3 21/105/3 22/102/3
f 23/23/2 24/22/2 25/103/2
f 16/30/12 26/104/2 23/23/2
f 12/14/14 14/100/1 26/104/1
f 21/105/3 27/108/3 28/11/3
f 23/23/6 29/106/6 21/105/6
f 26/104/2 30/107/2 29/106/2
f 14/100/1 22/102/1 30/107/1
f 27/108/3 31/10/3 32/9/3
f 29/106/6 33/109/6 27/108/6
f 30/107/2 34/13/2 33/109/2
f 30/107/2 35/130/2 36/97/2
f 27/108/6 33/109/6 37/8/6
f 34/13/2 38/12/2 37/8/2
f 11/99/6 10/15/6 39/3/6
f 12/14/14 1/3/18 41/111/1
f 7/7/4 11/99/4 41/111/4
f 40/110/3 39/3/3 44/112/3
f 41/111/1 43/113/1 44/112/1
f 44/112/1 45/93/1 46/17/1
f 11/99/4 40/110/4 43/113/4
f 10/15/6 47/19/6 48/18/6
f 39/3/3 48/18/3 45/93/3
f 24/22/2 49/118/2 50/114/2
f 9/16/7 51/115/3 52/27/3
f 15/28/4 25/103/4 51/115/4
f 50/114/6 49/118/6 54/116/6
f 51/115/3 53/117/3 54/116/3
f 54/116/3 55/94/3 56/24/3
f 25/103/4 50/114/4 53/117/4
f 24/22/2 57/26/2 58/25/2
f 49/118/6 58/25/6 55/94/6
f 17/29/1 59/123/1 60/119/1
f 15/28/9 5/4/6 61/120/6
f 2/1/11 18/101/4 61/120/4
f 60/119/2 59/123/2 64/121/2
f 62/34/6 61/120/6 63/122/6
f 64/121/6 65/95/6 66/31/6
f 18/101/4 60/119/4 63/122/4
f 59/123/1 17/29/1 67/33/1
f 59/123/2 68/32/2 65/95/2
f 19/124/2 69/128/2 70/125/2
f 12/14/14 71/35/3 72/126/3
f 1/3/18 72/126/4 19/124/4
f 73/127/1 74/129/1 70/125/1
f 71/35/3 74/129/3 73/127/3
f 71/35/3 75/38/3 76/37/3
f 72/126/4 73/127/4 69/128/4
f 70/125/2 78/96/2 77/36/2
f 74/129/1 76/37/1 78/96/1
f 35/130/2 79/133/2 80/131/2
f 28/11/3 81/40/3 82/132/3
f 22/102/4 82/132/4 35/130/4
f 79/133/1 83/135/1 84/134/1
f 81/40/3 84/134/3 83/135/3
f 81/40/3 85/43/3 86/42/3
f 82/132/4 83/135/4 79/133/4
f 80/131/2 88/98/2 87/41/2
f 84/134/1 86/42/1 88/98/1
