# Mesh: grass_fence

# List of geometric vertices
v -0.2625 0.3150 1.8373
v -0.2625 0.3150 -1.8373
v -0.2625 -0.3150 -1.8373
v -0.2625 -0.3150 1.8373
v 0.2625 0.3150 -1.8373
v 0.2625 -0.3150 -1.8373
v 0.2625 0.3150 1.8373
v 0.2625 -0.3150 1.8373

# List of vertex normals
vn -1.0000 0.0000 0.0000
vn 0.0000 0.0000 -1.0000
vn 1.0000 0.0000 0.0000
vn 0.0000 0.0000 1.0000
vn 0.0000 -1.0000 0.0000
vn 0.0000 1.0000 -0.0000

# List of texture coordinates
vt 0.4973 0.8320
vt 0.5223 0.8570
vt 0.4973 0.8570
vt 0.5223 0.8320

# List of polygonal faces
f 1/1/1 3/2/1 4/3/1
f 5/4/2 3/3/2 2/1/2
f 7/4/3 6/3/3 5/1/3
f 1/4/4 8/3/4 7/1/4
f 3/4/5 8/3/5 4/1/5
f 5/4/6 1/3/6 7/1/6
f 1/1/1 2/4/1 3/2/1
f 5/4/2 6/2/2 3/3/2
f 7/4/3 8/2/3 6/3/3
f 1/4/4 4/2/4 8/3/4
f 3/4/5 6/2/5 8/3/5
f 5/4/6 2/2/6 1/3/6
