# Mesh: house_floor

# List of geometric vertices
v -0.7874 0.0525 2.6247
v -0.7874 0.0525 -2.6247
v -0.7874 -0.0525 -2.6247
v -0.7874 -0.0525 2.6247
v 0.7874 0.0525 -2.6247
v 0.7874 -0.0525 -2.6247
v 0.7874 0.0525 2.6247
v 0.7874 -0.0525 2.6247

# List of vertex normals
vn -1.0000 0.0000 0.0000
vn 0.0000 0.0000 -1.0000
vn 1.0000 0.0000 0.0000
vn 0.0000 0.0000 1.0000
vn 0.0000 -1.0000 -0.0000
vn 0.0000 1.0000 0.0000

# List of texture coordinates
vt 0.1189 0.3893
vt 0.1031 0.3399
vt 0.1031 0.3406
vt 0.1367 0.3854
vt 0.1189 0.3886
vt 0.1209 0.3367
vt 0.1367 0.3847
vt 0.1209 0.3360

# List of polygonal faces
f 2/1/1 4/2/1 1/3/1
f 5/4/2 3/5/2 2/1/2
f 7/6/3 6/7/3 5/4/3
f 1/3/4 8/8/4 7/6/4
f 3/5/5 8/8/5 4/2/5
f 5/4/6 1/3/6 7/6/6
f 2/1/1 3/5/1 4/2/1
f 5/4/2 6/7/2 3/5/2
f 7/6/3 8/8/3 6/7/3
f 1/3/4 4/2/4 8/8/4
f 3/5/5 6/7/5 8/8/5
f 5/4/6 2/1/6 1/3/6
