# Mesh: pot_bush_small

# List of geometric vertices
v -0.1911 -0.0345 0.1911
v -0.1911 -0.0345 -0.1911
v -0.1575 -0.2445 -0.1575
v -0.1575 -0.2445 0.1575
v 0.1911 -0.0345 -0.1911
v 0.1575 -0.2445 -0.1575
v 0.1911 -0.0345 0.1911
v 0.1575 -0.2445 0.1575
v 0.1470 -0.0345 0.1470
v -0.1470 -0.0345 0.1470
v 0.1470 -0.0864 0.1470
v -0.1470 -0.0864 0.1470
v 0.1470 -0.0345 -0.1470
v -0.1470 -0.0345 -0.1470
v 0.1470 -0.0864 -0.1470
v -0.1470 -0.0864 -0.1470
v -0.0000 -0.1182 -0.0000
v 0.1312 -0.0180 0.0953
v -0.0501 -0.0180 0.1543
v 0.1312 -0.0180 -0.0953
v -0.1622 -0.0180 0.0000
v -0.0501 -0.0180 -0.1543
v 0.1622 0.1442 0.0000
v 0.0501 0.1442 0.1543
v -0.1312 0.1442 0.0953
v -0.1312 0.1442 -0.0953
v 0.0501 0.1442 -0.1543
v -0.0000 0.2445 0.0000

# List of vertex normals
vn -0.9874 -0.1583 -0.0000
vn 0.0000 -0.1583 -0.9874
vn 0.9874 -0.1583 -0.0000
vn 0.0000 -0.1583 0.9874
vn 0.0000 -1.0000 -0.0000
vn 0.0000 0.0000 -1.0000
vn 0.0000 1.0000 0.0000
vn -1.0000 0.0000 0.0000
vn 0.0000 0.0000 1.0000
vn 1.0000 0.0000 0.0000
vn 0.1876 -0.7947 0.5774
vn 0.6071 -0.7947 -0.0000
vn -0.4911 -0.7947 0.3568
vn -0.4911 -0.7947 -0.3568
vn 0.1876 -0.7947 -0.5774
vn 0.9822 -0.1876 -0.0000
vn 0.3035 -0.1876 0.9342
vn -0.7947 -0.1876 0.5774
vn -0.7947 -0.1876 -0.5774
vn 0.3035 -0.1876 -0.9342
vn 0.7946 0.1876 0.5774
vn -0.3035 0.1876 0.9342
vn -0.9822 0.1876 0.0000
vn -0.3035 0.1876 -0.9342
vn 0.7946 0.1876 -0.5774
vn 0.4911 0.7947 0.3568
vn -0.1876 0.7947 0.5774
vn -0.6071 0.7947 0.0000
vn -0.1876 0.7947 -0.5774
vn 0.4911 0.7947 -0.3568

# List of texture coordinates
vt 0.1510 0.6374
vt 0.1010 0.6874
vt 0.1010 0.6374
vt 0.3274 0.8638
vt 0.3774 0.8638
vt 0.3774 0.9138
vt 0.1510 0.6874

# List of polygonal faces
f 2/1/1 4/2/1 1/3/1
f 5/1/2 3/2/2 2/3/2
f 7/1/3 6/2/3 5/3/3
f 1/1/4 8/2/4 7/3/4
f 3/1/5 8/2/5 4/3/5
f 9/1/6 12/2/6 10/3/6
f 15/1/7 12/2/7 11/3/7
f 13/1/8 11/2/8 9/3/8
f 14/1/9 15/2/9 13/3/9
f 10/1/10 16/2/10 14/3/10
f 17/4/11 18/5/11 19/6/11
f 18/4/12 17/5/12 20/6/12
f 17/4/13 19/5/13 21/6/13
f 17/4/14 21/5/14 22/6/14
f 17/4/15 22/5/15 20/6/15
f 18/4/16 20/5/16 23/6/16
f 19/4/17 18/5/17 24/6/17
f 21/4/18 19/5/18 25/6/18
f 22/4/19 21/5/19 26/6/19
f 20/4/20 22/5/20 27/6/20
f 18/4/21 23/5/21 24/6/21
f 19/4/22 24/5/22 25/6/22
f 21/4/23 25/5/23 26/6/23
f 22/4/24 26/5/24 27/6/24
f 20/4/25 27/5/25 23/6/25
f 24/4/26 23/5/26 28/6/26
f 25/4/27 24/5/27 28/6/27
f 26/4/28 25/5/28 28/6/28
f 27/4/29 26/5/29 28/6/29
f 23/4/30 27/5/30 28/6/30
f 2/1/1 3/7/1 4/2/1
f 5/1/2 6/7/2 3/2/2
f 7/1/3 8/7/3 6/2/3
f 1/1/4 4/7/4 8/2/4
f 3/1/5 6/7/5 8/2/5
f 9/1/6 11/7/6 12/2/6
f 15/1/7 16/7/7 12/2/7
f 13/1/8 15/7/8 11/2/8
f 14/1/9 16/7/9 15/2/9
f 10/1/10 12/7/10 16/2/10
f 7/1/7 10/2/7 1/3/7
f 5/1/7 9/2/7 7/3/7
f 2/1/7 13/2/7 5/3/7
f 1/1/7 14/2/7 2/3/7
f 7/1/7 9/7/7 10/2/7
f 5/1/7 13/7/7 9/2/7
f 2/1/7 14/7/7 13/2/7
f 1/1/7 10/7/7 14/2/7
