# Mesh: bench_2

# List of geometric vertices
v 0.8394 -0.2677 0.2367
v 0.8394 -0.2677 0.1833
v 0.8136 -0.4673 0.1575
v 0.8136 -0.4673 0.2625
v 0.8929 -0.2677 0.1833
v 0.9186 -0.4673 0.1575
v 0.8929 -0.2677 0.2367
v 0.9186 -0.4673 0.2625
v 0.8394 -0.2677 -0.1830
v 0.8394 -0.2677 -0.2364
v 0.8136 -0.4672 -0.2622
v 0.8136 -0.4672 -0.1572
v 0.8929 -0.2677 -0.2364
v 0.9186 -0.4672 -0.2622
v 0.8929 -0.2677 -0.1830
v 0.9186 -0.4672 -0.1572
v -0.8929 -0.2677 -0.1830
v -0.8929 -0.2677 -0.2364
v -0.9186 -0.4672 -0.2622
v -0.9186 -0.4672 -0.1572
v -0.8394 -0.2677 -0.2364
v -0.8136 -0.4672 -0.2622
v -0.8394 -0.2677 -0.1830
v -0.8136 -0.4672 -0.1572
v -0.8929 -0.2677 0.2367
v -0.8929 -0.2677 0.1833
v -0.9186 -0.4673 0.1575
v -0.9186 -0.4673 0.2625
v -0.8394 -0.2677 0.1833
v -0.8136 -0.4673 0.1575
v -0.8394 -0.2677 0.2367
v -0.8136 -0.4673 0.2625
v -1.0499 -0.1627 -0.2625
v -1.0499 0.4673 -0.2625
v -1.0499 0.4673 -0.3675
v -1.0499 -0.1627 -0.3675
v 1.0499 0.4673 -0.2625
v 1.0499 0.4673 -0.3675
v 1.0499 -0.1627 -0.2625
v 1.0499 -0.1627 -0.3675
v -1.0499 -0.1627 0.3675
v -1.0499 -0.2677 -0.3675
v -1.0499 -0.2677 0.3675
v 1.0499 -0.2677 -0.3675
v 1.0499 -0.1627 0.3675
v 1.0499 -0.2677 0.3675

# List of vertex normals
vn -0.9918 0.1281 0.0000
vn 0.0000 0.1281 -0.9918
vn 0.9918 0.1281 0.0000
vn 0.0000 0.1281 0.9918
vn 0.0000 -1.0000 0.0000
vn 0.0000 1.0000 0.0000
vn -1.0000 0.0000 0.0000
vn 1.0000 0.0000 0.0000
vn 0.0000 0.0000 -1.0000
vn 0.0000 -0.0000 1.0000

# List of texture coordinates
vt 0.2523 0.3461
vt 0.3023 0.3961
vt 0.2523 0.3961
vt 0.3023 0.3461
vt 0.0304 0.7395
vt 0.0304 0.5316
vt 0.7235 0.7395
vt 0.7235 0.5316
vt 0.4828 0.5345

# List of polygonal faces
f 1/1/1 3/2/1 4/3/1
f 2/1/2 6/2/2 3/3/2
f 7/4/3 6/3/3 5/1/3
f 1/4/4 8/3/4 7/1/4
f 3/4/5 8/3/5 4/1/5
f 5/4/6 1/3/6 7/1/6
f 10/4/1 12/3/1 9/1/1
f 10/1/2 14/2/2 11/3/2
f 15/4/3 14/3/3 13/1/3
f 9/4/4 16/3/4 15/1/4
f 11/4/5 16/3/5 12/1/5
f 13/4/6 9/3/6 15/1/6
f 17/1/1 19/2/1 20/3/1
f 21/4/2 19/3/2 18/1/2
f 23/4/3 22/3/3 21/1/3
f 17/4/4 24/3/4 23/1/4
f 19/4/5 24/3/5 20/1/5
f 21/4/6 17/3/6 23/1/6
f 26/4/1 28/3/1 25/1/1
f 26/1/2 30/2/2 27/3/2
f 29/1/3 32/2/3 30/3/3
f 25/4/4 32/3/4 31/1/4
f 27/4/5 32/3/5 28/1/5
f 29/4/6 25/3/6 31/1/6
f 34/5/7 36/6/7 33/6/7
f 37/7/6 35/5/6 34/5/6
f 39/8/8 38/7/8 37/7/8
f 33/6/5 40/8/5 39/8/5
f 35/5/9 40/8/9 36/6/9
f 37/7/10 33/6/10 39/8/10
f 36/9/7 43/9/7 41/9/7
f 40/9/9 42/9/9 36/9/9
f 45/9/8 44/9/8 40/9/8
f 41/9/10 46/9/10 45/9/10
f 42/9/5 46/9/5 43/9/5
f 40/9/6 41/9/6 45/9/6
f 1/1/1 2/4/1 3/2/1
f 2/1/2 5/4/2 6/2/2
f 7/4/3 8/2/3 6/3/3
f 1/4/4 4/2/4 8/3/4
f 3/4/5 6/2/5 8/3/5
f 5/4/6 2/2/6 1/3/6
f 10/4/1 11/2/1 12/3/1
f 10/1/2 13/4/2 14/2/2
f 15/4/3 16/2/3 14/3/3
f 9/4/4 12/2/4 16/3/4
f 11/4/5 14/2/5 16/3/5
f 13/4/6 10/2/6 9/3/6
f 17/1/1 18/4/1 19/2/1
f 21/4/2 22/2/2 19/3/2
f 23/4/3 24/2/3 22/3/3
f 17/4/4 20/2/4 24/3/4
f 19/4/5 22/2/5 24/3/5
f 21/4/6 18/2/6 17/3/6
f 26/4/1 27/2/1 28/3/1
f 26/1/2 29/4/2 30/2/2
f 29/1/3 31/4/3 32/2/3
f 25/4/4 28/2/4 32/3/4
f 27/4/5 30/2/5 32/3/5
f 29/4/6 26/2/6 25/3/6
f 34/5/7 35/5/7 36/6/7
f 37/7/6 38/7/6 35/5/6
f 39/8/8 40/8/8 38/7/8
f 33/6/5 36/6/5 40/8/5
f 35/5/9 38/7/9 40/8/9
f 37/7/10 34/5/10 33/6/10
f 36/9/7 42/9/7 43/9/7
f 40/9/9 44/9/9 42/9/9
f 45/9/8 46/9/8 44/9/8
f 41/9/10 43/9/10 46/9/10
f 42/9/5 44/9/5 46/9/5
f 40/9/6 36/9/6 41/9/6
