# Mesh: billboard_medium

# List of geometric vertices
v -0.7553 1.4123 -0.1337
v -0.7553 1.4123 -0.2229
v -0.7553 -0.0374 -0.2229
v -0.7553 -0.0374 -0.1337
v 0.7474 1.4123 -0.2229
v 0.7474 -0.0374 -0.2229
v 0.7474 1.4123 -0.1337
v 0.7474 -0.0374 -0.1337
v -0.6627 1.3279 -0.1290
v -0.6627 1.3279 -0.2182
v -0.6627 0.0005 -0.2182
v -0.6627 0.0005 -0.1290
v 0.6548 1.3279 -0.2182
v 0.6548 0.0005 -0.2182
v 0.6548 1.3279 -0.1290
v 0.6548 0.0005 -0.1290
v 0.4733 -1.2757 -0.1554
v 0.4733 -1.2757 -0.2487
v 0.3754 -1.4123 -0.3466
v 0.3754 -1.4123 -0.0575
v 0.5666 -1.2757 -0.2487
v 0.6646 -1.4123 -0.3466
v 0.5666 -1.2757 -0.1554
v 0.6646 -1.4123 -0.0575
v 0.6513 -0.0981 -0.0707
v 0.6513 -0.0981 -0.3334
v 0.3886 -0.0981 -0.3334
v 0.3886 -0.0981 -0.0707
v 0.4733 -0.2021 -0.1554
v 0.5666 -0.2021 -0.1554
v 0.5666 -0.2021 -0.2487
v 0.4733 -0.2021 -0.2487
v 0.8047 -0.0201 -0.0635
v 0.8047 -0.0201 -0.3405
v -0.8047 -0.0201 -0.3405
v -0.8047 -0.0201 -0.0635
v 0.8047 -0.1134 -0.3405
v -0.8047 -0.1134 -0.3405
v 0.8047 -0.1134 -0.0635
v -0.8047 -0.1134 -0.0635
v -0.5710 -1.2757 -0.1554
v -0.5710 -1.2757 -0.2487
v -0.6689 -1.4123 -0.3466
v -0.6689 -1.4123 -0.0575
v -0.4777 -1.2757 -0.2487
v -0.3797 -1.4123 -0.3466
v -0.4777 -1.2757 -0.1554
v -0.3797 -1.4123 -0.0575
v -0.3929 -0.0981 -0.0707
v -0.3929 -0.0981 -0.3334
v -0.6557 -0.0981 -0.3334
v -0.6557 -0.0981 -0.0707
v -0.5710 -0.2021 -0.1554
v -0.4777 -0.2021 -0.1554
v -0.4777 -0.2021 -0.2487
v -0.5710 -0.2021 -0.2487
v -0.4906 1.3538 0.0545
v -0.4906 1.3538 -0.2107
v -0.4906 1.4014 -0.2107
v -0.4906 1.4014 0.0545
v -0.5383 1.3538 -0.2107
v -0.5383 1.4014 -0.2107
v -0.5383 1.3538 0.0545
v -0.5383 1.4014 0.0545
v -0.5383 1.3346 0.1684
v -0.4906 1.3346 0.1684
v -0.5683 1.3319 0.1903
v -0.4607 1.3319 0.1903
v -0.4906 1.2869 0.1684
v -0.5383 1.2869 0.1684
v -0.5915 1.2561 0.3190
v -0.4375 1.2561 0.3190
v -0.4607 1.2692 0.1903
v -0.5683 1.2692 0.1903
v -0.5644 1.2236 0.3466
v -0.4646 1.2236 0.3466
v -0.4375 1.1934 0.3190
v -0.5915 1.1934 0.3190
v -0.5644 1.1830 0.3466
v -0.4646 1.1830 0.3466
v 0.5441 1.3538 0.0545
v 0.5441 1.3538 -0.2107
v 0.5441 1.4014 -0.2107
v 0.5441 1.4014 0.0545
v 0.4965 1.3538 -0.2107
v 0.4965 1.4014 -0.2107
v 0.4965 1.3538 0.0545
v 0.4965 1.4014 0.0545
v 0.4965 1.3346 0.1684
v 0.5441 1.3346 0.1684
v 0.4665 1.3319 0.1903
v 0.5741 1.3319 0.1903
v 0.5441 1.2869 0.1684
v 0.4965 1.2869 0.1684
v 0.4433 1.2561 0.3190
v 0.5973 1.2561 0.3190
v 0.5741 1.2692 0.1903
v 0.4665 1.2692 0.1903
v 0.4704 1.2236 0.3466
v 0.5702 1.2236 0.3466
v 0.5973 1.1934 0.3190
v 0.4433 1.1934 0.3190
v 0.4704 1.1830 0.3466
v 0.5702 1.1830 0.3466

# List of vertex normals
vn -1.0000 -0.0000 0.0000
vn 0.0000 0.0000 -1.0000
vn 1.0000 -0.0000 0.0000
vn 0.0000 -0.0000 1.0000
vn -0.0000 -1.0000 0.0000
vn 0.0000 1.0000 0.0000
vn -0.8127 0.5827 0.0000
vn 0.0000 0.5827 -0.8127
vn 0.8127 0.5827 0.0000
vn 0.0000 0.5827 0.8127
vn 0.0000 -0.6318 0.7752
vn 0.7752 -0.6318 0.0000
vn 0.0000 -0.6318 -0.7752
vn -0.7752 -0.6318 -0.0000
vn -0.8127 0.5826 0.0000
vn 0.0000 0.8625 0.5061
vn 0.0000 0.9926 0.1215
vn 0.0000 -0.8625 -0.5061
vn 0.0000 0.8616 0.5076
vn 0.0000 -0.7781 -0.6282
vn -0.5909 0.0000 -0.8067
vn 0.5909 0.0000 -0.8067
vn 0.0000 0.6474 0.7621
vn 0.0000 -0.8616 -0.5076
vn -0.9841 0.0000 -0.1774
vn 0.9841 0.0000 -0.1774
vn 0.0000 -0.9353 -0.3538
vn -0.7138 0.0000 0.7003
vn 0.7138 0.0000 0.7003
vn -0.7139 0.0000 0.7003
vn 0.0000 0.6474 0.7622

# List of texture coordinates
vt 0.1641 0.1484
vt 0.0035 0.9953
vt 0.0035 0.4801
vt 0.5149 0.9953
vt 0.5149 0.4801
vt 0.1465 0.1113

# List of polygonal faces
f 2/1/1 4/1/1 1/1/1
f 5/1/2 3/1/2 2/1/2
f 7/1/3 6/1/3 5/1/3
f 7/1/4 4/1/4 8/1/4
f 3/1/5 8/1/5 4/1/5
f 5/1/6 1/1/6 7/1/6
f 10/2/1 12/3/1 9/2/1
f 13/4/2 11/3/2 10/2/2
f 15/4/3 14/5/3 13/4/3
f 9/2/4 16/5/4 15/4/4
f 11/3/5 16/5/5 12/3/5
f 13/4/6 9/2/6 15/4/6
f 18/1/7 20/1/7 17/1/7
f 21/1/8 19/1/8 18/1/8
f 21/1/9 24/1/9 22/1/9
f 17/1/10 24/1/10 23/1/10
f 19/1/5 24/1/5 20/1/5
f 26/1/6 28/1/6 25/1/6
f 25/1/11 29/1/11 30/1/11
f 29/1/4 23/1/4 30/1/4
f 26/1/12 30/1/12 31/1/12
f 30/1/3 21/1/3 31/1/3
f 26/1/13 32/1/13 27/1/13
f 31/1/2 18/1/2 32/1/2
f 27/1/14 29/1/14 28/1/14
f 29/1/1 18/1/1 17/1/1
f 34/1/6 36/1/6 33/1/6
f 37/1/2 35/1/2 34/1/2
f 39/1/5 38/1/5 37/1/5
f 33/1/4 40/1/4 39/1/4
f 35/1/1 40/1/1 36/1/1
f 37/1/3 33/1/3 39/1/3
f 42/1/15 44/1/15 41/1/15
f 45/1/8 43/1/8 42/1/8
f 45/1/9 48/1/9 46/1/9
f 47/1/10 44/1/10 48/1/10
f 43/1/5 48/1/5 44/1/5
f 50/1/6 52/1/6 49/1/6
f 52/1/11 54/1/11 49/1/11
f 53/1/4 47/1/4 54/1/4
f 50/1/12 54/1/12 55/1/12
f 54/1/3 45/1/3 55/1/3
f 51/1/13 55/1/13 56/1/13
f 55/1/2 42/1/2 56/1/2
f 51/1/14 53/1/14 52/1/14
f 53/1/1 42/1/1 41/1/1
f 61/6/2 59/6/2 58/6/2
f 64/6/16 66/6/16 60/6/16
f 59/6/6 64/6/6 60/6/6
f 61/6/5 57/6/5 63/6/5
f 65/6/17 68/6/17 66/6/17
f 57/6/18 70/6/18 63/6/18
f 68/6/19 71/6/19 72/6/19
f 69/6/20 74/6/20 70/6/20
f 70/6/21 67/6/21 65/6/21
f 69/6/22 68/6/22 73/6/22
f 71/6/23 76/6/23 72/6/23
f 73/6/24 78/6/24 74/6/24
f 74/6/25 71/6/25 67/6/25
f 73/6/26 72/6/26 77/6/26
f 80/6/4 75/6/4 79/6/4
f 78/6/27 80/6/27 79/6/27
f 78/6/28 75/6/28 71/6/28
f 77/6/29 76/6/29 80/6/29
f 85/6/2 83/6/2 82/6/2
f 88/6/16 90/6/16 84/6/16
f 83/6/6 88/6/6 84/6/6
f 85/6/5 81/6/5 87/6/5
f 89/6/17 92/6/17 90/6/17
f 81/6/18 94/6/18 87/6/18
f 92/6/19 95/6/19 96/6/19
f 93/6/20 98/6/20 94/6/20
f 94/6/21 91/6/21 89/6/21
f 93/6/22 92/6/22 97/6/22
f 95/6/23 100/6/23 96/6/23
f 97/6/24 102/6/24 98/6/24
f 98/6/25 95/6/25 91/6/25
f 97/6/26 96/6/26 101/6/26
f 104/6/4 99/6/4 103/6/4
f 102/6/27 104/6/27 103/6/27
f 102/6/30 99/6/30 95/6/30
f 101/6/29 100/6/29 104/6/29
f 2/1/1 3/1/1 4/1/1
f 5/1/2 6/1/2 3/1/2
f 7/1/3 8/1/3 6/1/3
f 7/1/4 1/1/4 4/1/4
f 3/1/5 6/1/5 8/1/5
f 5/1/6 2/1/6 1/1/6
f 10/2/1 11/3/1 12/3/1
f 13/4/2 14/5/2 11/3/2
f 15/4/3 16/5/3 14/5/3
f 9/2/4 12/3/4 16/5/4
f 11/3/5 14/5/5 16/5/5
f 13/4/6 10/2/6 9/2/6
f 18/1/7 19/1/7 20/1/7
f 21/1/8 22/1/8 19/1/8
f 21/1/9 23/1/9 24/1/9
f 17/1/10 20/1/10 24/1/10
f 19/1/5 22/1/5 24/1/5
f 26/1/6 27/1/6 28/1/6
f 25/1/11 28/1/11 29/1/11
f 29/1/4 17/1/4 23/1/4
f 26/1/12 25/1/12 30/1/12
f 30/1/3 23/1/3 21/1/3
f 26/1/13 31/1/13 32/1/13
f 31/1/2 21/1/2 18/1/2
f 27/1/14 32/1/14 29/1/14
f 29/1/1 32/1/1 18/1/1
f 34/1/6 35/1/6 36/1/6
f 37/1/2 38/1/2 35/1/2
f 39/1/5 40/1/5 38/1/5
f 33/1/4 36/1/4 40/1/4
f 35/1/1 38/1/1 40/1/1
f 37/1/3 34/1/3 33/1/3
f 42/1/15 43/1/15 44/1/15
f 45/1/8 46/1/8 43/1/8
f 45/1/9 47/1/9 48/1/9
f 47/1/10 41/1/10 44/1/10
f 43/1/5 46/1/5 48/1/5
f 50/1/6 51/1/6 52/1/6
f 52/1/11 53/1/11 54/1/11
f 53/1/4 41/1/4 47/1/4
f 50/1/12 49/1/12 54/1/12
f 54/1/3 47/1/3 45/1/3
f 51/1/13 50/1/13 55/1/13
f 55/1/2 45/1/2 42/1/2
f 51/1/14 56/1/14 53/1/14
f 53/1/1 56/1/1 42/1/1
f 61/6/2 62/6/2 59/6/2
f 64/6/16 65/6/16 66/6/16
f 59/6/6 62/6/6 64/6/6
f 61/6/5 58/6/5 57/6/5
f 65/6/17 67/6/17 68/6/17
f 57/6/18 69/6/18 70/6/18
f 68/6/19 67/6/19 71/6/19
f 69/6/20 73/6/20 74/6/20
f 70/6/21 74/6/21 67/6/21
f 69/6/22 66/6/22 68/6/22
f 71/6/31 75/6/31 76/6/31
f 73/6/24 77/6/24 78/6/24
f 74/6/25 78/6/25 71/6/25
f 73/6/26 68/6/26 72/6/26
f 80/6/4 76/6/4 75/6/4
f 78/6/27 77/6/27 80/6/27
f 78/6/28 79/6/28 75/6/28
f 77/6/29 72/6/29 76/6/29
f 85/6/2 86/6/2 83/6/2
f 88/6/16 89/6/16 90/6/16
f 83/6/6 86/6/6 88/6/6
f 85/6/5 82/6/5 81/6/5
f 89/6/17 91/6/17 92/6/17
f 81/6/18 93/6/18 94/6/18
f 92/6/19 91/6/19 95/6/19
f 93/6/20 97/6/20 98/6/20
f 94/6/21 98/6/21 91/6/21
f 93/6/22 90/6/22 92/6/22
f 95/6/23 99/6/23 100/6/23
f 97/6/24 101/6/24 102/6/24
f 98/6/25 102/6/25 95/6/25
f 97/6/26 92/6/26 96/6/26
f 104/6/4 100/6/4 99/6/4
f 102/6/27 101/6/27 104/6/27
f 102/6/30 103/6/30 99/6/30
f 101/6/29 96/6/29 100/6/29
f 58/6/3 60/6/3 57/6/3
f 61/6/1 64/6/1 62/6/1
f 63/6/1 65/6/1 64/6/1
f 57/6/3 66/6/3 69/6/3
f 82/6/3 84/6/3 81/6/3
f 85/6/1 88/6/1 86/6/1
f 87/6/1 89/6/1 88/6/1
f 81/6/3 90/6/3 93/6/3
f 58/6/3 59/6/3 60/6/3
f 61/6/1 63/6/1 64/6/1
f 63/6/1 70/6/1 65/6/1
f 57/6/3 60/6/3 66/6/3
f 82/6/3 83/6/3 84/6/3
f 85/6/1 87/6/1 88/6/1
f 87/6/1 94/6/1 89/6/1
f 81/6/3 84/6/3 90/6/3
