# Mesh: bus_stop

# List of geometric vertices
v 1.5748 1.1585 -0.4654
v -1.5748 1.1585 -0.4654
v -1.5748 0.9663 -0.8061
v 1.5748 1.2288 0.0000
v -1.5748 1.2288 0.0000
v 1.5748 1.1585 0.4654
v -1.5748 1.1585 0.4654
v 1.5748 0.9663 0.8061
v -1.5748 0.9663 0.8061
v 1.5748 0.7794 0.9214
v -1.5748 0.7794 0.9214
v -1.5748 1.0435 0.9092
v -1.5748 0.7810 1.0499
v 1.5748 0.7810 1.0499
v 1.5748 1.0435 0.9092
v -1.5748 1.2356 -0.5249
v 1.5748 1.3059 0.0000
v 1.5748 0.9663 -0.8061
v -1.5748 0.7794 -0.9214
v -1.5748 0.7810 -1.0499
v -1.5748 1.0435 -0.9092
v 1.5748 1.0435 -0.9092
v 1.5748 1.2356 -0.5249
v -1.5748 -1.3043 -1.0499
v 1.5748 -1.3043 -1.0499
v 1.5748 -1.3059 -0.9214
v 1.5748 0.7794 -0.9214
v -1.5748 -1.3059 -0.9214
v 1.5748 0.7810 -1.0499
v 1.5748 1.2356 0.5249
v -1.5748 1.2356 0.5249
v -1.5748 1.3059 0.0000

# List of vertex normals
vn 0.0000 -0.8710 0.4912
vn 0.0000 -0.9888 0.1494
vn 0.0000 -0.9888 -0.1494
vn 0.0000 -0.8710 -0.4912
vn 0.0000 -0.5252 -0.8510
vn 0.0000 0.4723 0.8814
vn 0.0000 0.8944 0.4472
vn -0.0000 0.9911 -0.1328
vn 0.0000 -0.5252 0.8510
vn -0.0000 0.4723 -0.8814
vn 0.0000 0.8944 -0.4472
vn -1.0000 -0.0000 0.0000
vn 0.0000 -0.9999 0.0124
vn 0.0000 -0.9999 -0.0124
vn 0.0000 -0.0000 1.0000
vn 0.0000 0.0000 -1.0000
vn -0.0000 0.9911 0.1328
vn 1.0000 -0.0000 0.0000

# List of texture coordinates
vt 0.4117 0.3148
vt 0.3617 0.3148
vt 0.3617 0.3648
vt 0.2694 0.6990
vt 0.2343 0.6990
vt 0.2343 0.7341
vt 0.3230 0.6995
vt 0.2902 0.6995
vt 0.2902 0.7323
vt 0.2888 0.7044
vt 0.2614 0.7044
vt 0.2614 0.7318
vt 0.4117 0.3648
vt 0.2694 0.7341
vt 0.3230 0.7323
vt 0.2888 0.7318
vt 0.2941 0.7131
vt 0.2941 0.7339
vt 0.3149 0.7339
vt 0.3149 0.7131

# List of polygonal faces
f 1/1/1 2/2/1 3/3/1
f 4/1/2 5/2/2 2/3/2
f 6/1/3 7/2/3 5/3/3
f 8/1/4 9/2/4 7/3/4
f 10/4/5 11/5/5 9/6/5
f 12/4/6 13/5/6 14/6/6
f 31/1/7 12/2/7 15/3/7
f 16/1/8 32/2/8 17/3/8
f 18/1/9 3/2/9 19/3/9
f 20/1/10 21/2/10 22/3/10
f 21/1/11 16/2/11 23/3/11
f 32/7/12 16/8/12 2/9/12
f 14/10/13 13/11/13 11/12/13
f 24/1/14 25/2/14 26/3/14
f 27/1/15 19/2/15 28/3/15
f 20/1/16 29/2/16 25/3/16
f 1/1/1 3/3/1 18/13/1
f 4/1/2 2/3/2 1/13/2
f 6/1/3 5/3/3 4/13/3
f 8/1/4 7/3/4 6/13/4
f 10/4/5 9/6/5 8/14/5
f 12/4/6 14/6/6 15/14/6
f 31/1/7 15/3/7 30/13/7
f 32/1/17 30/3/17 17/13/17
f 16/1/8 17/3/8 23/13/8
f 18/1/9 19/3/9 27/13/9
f 20/1/10 22/3/10 29/13/10
f 21/1/11 23/3/11 22/13/11
f 32/7/12 2/9/12 5/15/12
f 14/10/13 11/12/13 10/16/13
f 24/1/14 26/3/14 28/13/14
f 27/1/15 28/3/15 26/13/15
f 20/1/16 25/3/16 24/13/16
f 30/1/17 32/3/17 31/13/17
f 22/17/18 18/18/18 27/19/18
f 21/7/12 20/8/12 19/9/12
f 23/17/18 1/18/18 18/19/18
f 16/7/12 21/8/12 3/9/12
f 17/17/18 4/18/18 1/19/18
f 17/20/18 30/17/18 6/18/18
f 32/8/12 5/9/12 7/15/12
f 30/20/18 15/17/18 8/18/18
f 31/8/12 7/9/12 9/15/12
f 15/20/18 14/17/18 10/18/18
f 12/8/12 9/9/12 11/15/12
f 19/7/12 20/8/12 24/9/12
f 27/17/18 26/18/18 25/19/18
f 22/17/18 27/19/18 29/20/18
f 21/7/12 19/9/12 3/15/12
f 23/17/18 18/19/18 22/20/18
f 16/7/12 3/9/12 2/15/12
f 17/17/18 1/19/18 23/20/18
f 17/20/18 6/18/18 4/19/18
f 32/8/12 7/15/12 31/7/12
f 30/20/18 8/18/18 6/19/18
f 31/8/12 9/15/12 12/7/12
f 15/20/18 10/18/18 8/19/18
f 12/8/12 11/15/12 13/7/12
f 19/7/12 24/9/12 28/15/12
f 27/17/18 25/19/18 29/20/18
