# Mesh: coffee_chair

# List of geometric vertices
v -0.2463 -0.4493 -0.1823
v -0.2463 -0.4493 -0.1298
v -0.1938 -0.4493 -0.1298
v -0.1938 -0.4493 -0.1823
v -0.2463 -0.7165 -0.1298
v -0.1938 -0.7165 -0.1298
v -0.2463 -0.7165 -0.1823
v -0.1938 -0.7165 -0.1823
v -0.2463 -0.4471 0.1292
v -0.2463 -0.4471 0.1817
v -0.1938 -0.4471 0.1817
v -0.1938 -0.4471 0.1292
v -0.2463 -0.7165 0.1817
v -0.1938 -0.7165 0.1817
v -0.2463 -0.7165 0.1292
v -0.1938 -0.7165 0.1292
v -0.5678 -0.3694 0.1292
v -0.5678 -0.3694 0.1817
v -0.5153 -0.3694 0.1817
v -0.5153 -0.3694 0.1292
v -0.5678 -0.7165 0.1817
v -0.5153 -0.7165 0.1817
v -0.5678 -0.7165 0.1292
v -0.5153 -0.7165 0.1292
v -0.5678 -0.3694 -0.1823
v -0.5678 -0.3694 -0.1298
v -0.5153 -0.3694 -0.1298
v -0.5153 -0.3694 -0.1823
v -0.5678 -0.7165 -0.1298
v -0.5153 -0.7165 -0.1298
v -0.5678 -0.7165 -0.1823
v -0.5153 -0.7165 -0.1823
v -0.5678 -0.0608 -0.1837
v -0.5678 -0.0608 0.1837
v -0.5153 -0.0608 0.1837
v -0.5153 -0.0608 -0.1837
v -0.5678 -0.4808 0.1837
v -0.5153 -0.4808 0.1837
v -0.5678 -0.4808 -0.1837
v -0.5153 -0.4808 -0.1837
v -0.1928 -0.4367 -0.1837
v -0.1928 -0.4367 0.1837
v -0.1928 -0.4892 0.1837
v -0.1928 -0.4892 -0.1837
v -0.5701 -0.4367 0.1837
v -0.5701 -0.4892 0.1837
v -0.5701 -0.4367 -0.1837
v -0.5701 -0.4892 -0.1837
v 0.2479 -0.4493 0.1823
v 0.2479 -0.4493 0.1298
v 0.1954 -0.4493 0.1298
v 0.1954 -0.4493 0.1823
v 0.2479 -0.7165 0.1298
v 0.1954 -0.7165 0.1298
v 0.2479 -0.7165 0.1823
v 0.1954 -0.7165 0.1823
v 0.2479 -0.4471 -0.1292
v 0.2479 -0.4471 -0.1817
v 0.1954 -0.4471 -0.1817
v 0.1954 -0.4471 -0.1292
v 0.2479 -0.7165 -0.1817
v 0.1954 -0.7165 -0.1817
v 0.2479 -0.7165 -0.1292
v 0.1954 -0.7165 -0.1292
v 0.5694 -0.3694 -0.1292
v 0.5694 -0.3694 -0.1817
v 0.5169 -0.3694 -0.1817
v 0.5169 -0.3694 -0.1292
v 0.5694 -0.7165 -0.1817
v 0.5169 -0.7165 -0.1817
v 0.5694 -0.7165 -0.1292
v 0.5169 -0.7165 -0.1292
v 0.5694 -0.3694 0.1823
v 0.5694 -0.3694 0.1298
v 0.5169 -0.3694 0.1298
v 0.5169 -0.3694 0.1823
v 0.5694 -0.7165 0.1298
v 0.5169 -0.7165 0.1298
v 0.5694 -0.7165 0.1823
v 0.5169 -0.7165 0.1823
v 0.5694 -0.0608 0.1837
v 0.5694 -0.0608 -0.1837
v 0.5169 -0.0608 -0.1837
v 0.5169 -0.0608 0.1837
v 0.5694 -0.4808 -0.1837
v 0.5169 -0.4808 -0.1837
v 0.5694 -0.4808 0.1837
v 0.5169 -0.4808 0.1837
v 0.1943 -0.4367 0.1837
v 0.1943 -0.4367 -0.1837
v 0.1943 -0.4892 -0.1837
v 0.1943 -0.4892 0.1837
v 0.5717 -0.4367 -0.1837
v 0.5717 -0.4892 -0.1837
v 0.5717 -0.4367 0.1837
v 0.5717 -0.4892 0.1837
v -0.0279 0.5051 0.0279
v -0.0279 0.5051 -0.0279
v -0.0279 -0.7169 -0.0279
v -0.0279 -0.7169 0.0279
v 0.0279 0.5051 -0.0279
v 0.0279 -0.7169 -0.0279
v 0.0279 0.5051 0.0279
v 0.0279 -0.7169 0.0279
v -0.0000 0.5029 -0.6106
v -0.0000 0.7169 -0.1245
v 0.0732 0.7169 -0.1008
v 0.3589 0.5029 -0.4940
v 0.1184 0.7169 -0.0385
v 0.5807 0.5029 -0.1887
v 0.1184 0.7169 0.0385
v 0.5807 0.5029 0.1887
v 0.0732 0.7169 0.1008
v 0.3589 0.5029 0.4940
v -0.0000 0.7169 0.1245
v -0.0000 0.5029 0.6106
v -0.0732 0.7169 0.1008
v -0.3589 0.5029 0.4940
v -0.1184 0.7169 0.0385
v -0.5807 0.5029 0.1887
v -0.1184 0.7169 -0.0385
v -0.5807 0.5029 -0.1887
v -0.0732 0.7169 -0.1008
v -0.3589 0.5029 -0.4940
v -0.0000 0.4335 -0.6919
v -0.4067 0.4335 -0.5597
v -0.0000 0.2674 -0.7322
v -0.4304 0.2674 -0.5924
v -0.6580 0.4335 -0.2138
v -0.6580 0.4335 0.2138
v -0.4067 0.4335 0.5597
v -0.0000 0.4335 0.6919
v 0.4067 0.4335 0.5597
v 0.6580 0.4335 0.2138
v 0.6580 0.4335 -0.2138
v 0.4067 0.4335 -0.5597
v 0.4304 0.2674 -0.5924
v 0.6964 0.2674 -0.2263
v 0.6964 0.2674 0.2263
v 0.4304 0.2674 0.5924
v -0.0000 0.2674 0.7322
v -0.4304 0.2674 0.5924
v -0.6964 0.2674 0.2263
v -0.6964 0.2674 -0.2263

# List of vertex normals
vn 0.0000 1.0000 0.0000
vn 0.0000 -0.0000 1.0000
vn 0.0000 -1.0000 0.0000
vn 0.0000 0.0000 -1.0000
vn 1.0000 -0.0000 0.0000
vn -1.0000 0.0000 0.0000
vn 0.1298 0.9075 -0.3995
vn 0.3398 0.9075 -0.2469
vn 0.4200 0.9075 0.0000
vn 0.3398 0.9075 0.2469
vn 0.1298 0.9075 0.3995
vn -0.1298 0.9075 0.3995
vn -0.3398 0.9075 0.2469
vn -0.4200 0.9075 0.0000
vn -0.1298 0.9075 -0.3995
vn -0.3398 0.9075 -0.2469
vn -0.2066 0.7437 -0.6358
vn -0.3011 0.2253 -0.9266
vn -0.5409 0.7437 -0.3930
vn -0.6685 0.7437 0.0000
vn -0.5409 0.7437 0.3930
vn -0.2066 0.7437 0.6358
vn 0.2066 0.7437 0.6358
vn 0.5409 0.7437 0.3930
vn 0.6685 0.7437 0.0000
vn 0.5409 0.7437 -0.3930
vn 0.2066 0.7437 -0.6358
vn -0.7882 0.2253 -0.5727
vn -0.9743 0.2253 0.0000
vn -0.7882 0.2253 0.5727
vn -0.3011 0.2253 0.9266
vn 0.3011 0.2253 0.9266
vn 0.7882 0.2253 0.5727
vn 0.9743 0.2253 0.0000
vn 0.7882 0.2253 -0.5727
vn 0.3011 0.2253 -0.9266

# List of texture coordinates
vt 0.8173 0.8995
vt 0.7998 0.9169
vt 0.7998 0.8995
vt 0.8173 0.9169
vt 0.7142 0.4371
vt 0.7018 0.4496
vt 0.7018 0.4371
vt 0.7235 0.4258
vt 0.7380 0.4403
vt 0.7235 0.4403
vt 0.7455 0.4302
vt 0.7619 0.4466
vt 0.7455 0.4466
vt 0.7380 0.4258
vt 0.7619 0.4302
vt 0.7331 0.4528
vt 0.7361 0.4436
vt 0.7283 0.4544
vt 0.7331 0.4395
vt 0.7283 0.4380
vt 0.7235 0.4395
vt 0.7205 0.4436
vt 0.7235 0.4528
vt 0.7537 0.4466
vt 0.7615 0.4409
vt 0.7615 0.4358
vt 0.7537 0.4302
vt 0.7459 0.4358
vt 0.7459 0.4409
vt 0.7489 0.4450
vt 0.7142 0.4496
vt 0.7361 0.4487
vt 0.7205 0.4487
vt 0.7585 0.4450
vt 0.7585 0.4317
vt 0.7489 0.4317

# List of polygonal faces
f 2/1/1 4/2/1 1/3/1
f 5/1/2 3/2/2 2/3/2
f 7/1/3 6/2/3 5/3/3
f 1/1/4 8/2/4 7/3/4
f 3/1/5 8/2/5 4/3/5
f 5/1/6 1/2/6 7/3/6
f 10/1/1 12/2/1 9/3/1
f 13/1/2 11/2/2 10/3/2
f 15/1/3 14/2/3 13/3/3
f 9/1/4 16/2/4 15/3/4
f 12/3/5 14/4/5 16/2/5
f 13/1/6 9/2/6 15/3/6
f 18/1/1 20/2/1 17/3/1
f 21/1/2 19/2/2 18/3/2
f 23/1/3 22/2/3 21/3/3
f 17/1/4 24/2/4 23/3/4
f 19/1/5 24/2/5 20/3/5
f 21/1/6 17/2/6 23/3/6
f 26/1/1 28/2/1 25/3/1
f 29/1/2 27/2/2 26/3/2
f 31/1/3 30/2/3 29/3/3
f 25/1/4 32/2/4 31/3/4
f 27/1/5 32/2/5 28/3/5
f 29/1/6 25/2/6 31/3/6
f 34/1/1 36/2/1 33/3/1
f 37/1/2 35/2/2 34/3/2
f 39/1/3 38/2/3 37/3/3
f 33/1/4 40/2/4 39/3/4
f 36/3/5 38/4/5 40/2/5
f 37/1/6 33/2/6 39/3/6
f 42/1/5 44/2/5 41/3/5
f 45/1/2 43/2/2 42/3/2
f 47/1/6 46/2/6 45/3/6
f 41/1/4 48/2/4 47/3/4
f 43/1/3 48/2/3 44/3/3
f 45/1/1 41/2/1 47/3/1
f 50/1/1 52/2/1 49/3/1
f 53/1/4 51/2/4 50/3/4
f 55/1/3 54/2/3 53/3/3
f 49/1/2 56/2/2 55/3/2
f 51/1/6 56/2/6 52/3/6
f 53/1/5 49/2/5 55/3/5
f 58/1/1 60/2/1 57/3/1
f 61/1/4 59/2/4 58/3/4
f 63/1/3 62/2/3 61/3/3
f 57/1/2 64/2/2 63/3/2
f 59/1/6 64/2/6 60/3/6
f 63/3/5 58/4/5 57/2/5
f 66/1/1 68/2/1 65/3/1
f 69/1/4 67/2/4 66/3/4
f 71/1/3 70/2/3 69/3/3
f 65/1/2 72/2/2 71/3/2
f 67/1/6 72/2/6 68/3/6
f 71/3/5 66/4/5 65/2/5
f 74/1/1 76/2/1 73/3/1
f 77/1/4 75/2/4 74/3/4
f 79/1/3 78/2/3 77/3/3
f 73/1/2 80/2/2 79/3/2
f 75/1/6 80/2/6 76/3/6
f 77/1/5 73/2/5 79/3/5
f 82/1/1 84/2/1 81/3/1
f 85/1/4 83/2/4 82/3/4
f 87/1/3 86/2/3 85/3/3
f 81/1/2 88/2/2 87/3/2
f 83/1/6 88/2/6 84/3/6
f 85/1/5 81/2/5 87/3/5
f 90/1/6 92/2/6 89/3/6
f 93/1/4 91/2/4 90/3/4
f 95/1/5 94/2/5 93/3/5
f 89/1/2 96/2/2 95/3/2
f 91/1/3 96/2/3 92/3/3
f 93/1/1 89/2/1 95/3/1
f 98/5/6 100/6/6 97/7/6
f 101/5/4 99/6/4 98/7/4
f 103/5/5 102/6/5 101/7/5
f 97/5/2 104/6/2 103/7/2
f 99/5/3 104/6/3 100/7/3
f 101/5/1 97/6/1 103/7/1
f 105/8/7 107/9/7 108/10/7
f 108/11/8 109/12/8 110/13/8
f 109/14/9 112/10/9 110/8/9
f 111/15/10 114/13/10 112/11/10
f 113/14/11 116/10/11 114/8/11
f 116/11/12 117/12/12 118/13/12
f 117/14/13 120/10/13 118/8/13
f 119/15/14 122/13/14 120/11/14
f 106/16/1 121/17/1 107/18/1
f 107/18/1 119/19/1 117/20/1
f 107/18/1 115/21/1 113/22/1
f 113/22/1 109/23/1 107/18/1
f 123/15/15 105/13/15 124/11/15
f 122/8/16 123/9/16 124/10/16
f 105/15/17 126/13/17 124/11/17
f 126/11/18 127/12/18 128/13/18
f 124/14/19 129/10/19 122/8/19
f 120/11/20 129/12/20 130/13/20
f 118/8/21 130/9/21 131/10/21
f 116/11/22 131/12/22 132/13/22
f 116/14/23 133/10/23 114/8/23
f 112/11/24 133/12/24 134/13/24
f 112/14/25 135/10/25 110/8/25
f 110/15/26 136/13/26 108/11/26
f 105/8/27 136/9/27 125/10/27
f 127/24/3 138/25/3 139/26/3
f 139/26/3 141/27/3 127/24/3
f 141/27/3 143/28/3 127/24/3
f 127/24/3 144/29/3 128/30/3
f 126/14/28 144/10/28 129/8/28
f 129/15/29 143/13/29 130/11/29
f 131/8/30 143/9/30 142/10/30
f 131/15/31 141/13/31 132/11/31
f 132/14/32 140/10/32 133/8/32
f 133/15/33 139/13/33 134/11/33
f 134/14/34 138/10/34 135/8/34
f 136/11/35 138/12/35 137/13/35
f 125/8/36 137/9/36 127/10/36
f 2/1/1 3/4/1 4/2/1
f 5/1/2 6/4/2 3/2/2
f 7/1/3 8/4/3 6/2/3
f 1/1/4 4/4/4 8/2/4
f 3/1/5 6/4/5 8/2/5
f 5/1/6 2/4/6 1/2/6
f 10/1/1 11/4/1 12/2/1
f 13/1/2 14/4/2 11/2/2
f 15/1/3 16/4/3 14/2/3
f 9/1/4 12/4/4 16/2/4
f 12/3/5 11/1/5 14/4/5
f 13/1/6 10/4/6 9/2/6
f 18/1/1 19/4/1 20/2/1
f 21/1/2 22/4/2 19/2/2
f 23/1/3 24/4/3 22/2/3
f 17/1/4 20/4/4 24/2/4
f 19/1/5 22/4/5 24/2/5
f 21/1/6 18/4/6 17/2/6
f 26/1/1 27/4/1 28/2/1
f 29/1/2 30/4/2 27/2/2
f 31/1/3 32/4/3 30/2/3
f 25/1/4 28/4/4 32/2/4
f 27/1/5 30/4/5 32/2/5
f 29/1/6 26/4/6 25/2/6
f 34/1/1 35/4/1 36/2/1
f 37/1/2 38/4/2 35/2/2
f 39/1/3 40/4/3 38/2/3
f 33/1/4 36/4/4 40/2/4
f 36/3/5 35/1/5 38/4/5
f 37/1/6 34/4/6 33/2/6
f 42/1/5 43/4/5 44/2/5
f 45/1/2 46/4/2 43/2/2
f 47/1/6 48/4/6 46/2/6
f 41/1/4 44/4/4 48/2/4
f 43/1/3 46/4/3 48/2/3
f 45/1/1 42/4/1 41/2/1
f 50/1/1 51/4/1 52/2/1
f 53/1/4 54/4/4 51/2/4
f 55/1/3 56/4/3 54/2/3
f 49/1/2 52/4/2 56/2/2
f 51/1/6 54/4/6 56/2/6
f 53/1/5 50/4/5 49/2/5
f 58/1/1 59/4/1 60/2/1
f 61/1/4 62/4/4 59/2/4
f 63/1/3 64/4/3 62/2/3
f 57/1/2 60/4/2 64/2/2
f 59/1/6 62/4/6 64/2/6
f 63/3/5 61/1/5 58/4/5
f 66/1/1 67/4/1 68/2/1
f 69/1/4 70/4/4 67/2/4
f 71/1/3 72/4/3 70/2/3
f 65/1/2 68/4/2 72/2/2
f 67/1/6 70/4/6 72/2/6
f 71/3/5 69/1/5 66/4/5
f 74/1/1 75/4/1 76/2/1
f 77/1/4 78/4/4 75/2/4
f 79/1/3 80/4/3 78/2/3
f 73/1/2 76/4/2 80/2/2
f 75/1/6 78/4/6 80/2/6
f 77/1/5 74/4/5 73/2/5
f 82/1/1 83/4/1 84/2/1
f 85/1/4 86/4/4 83/2/4
f 87/1/3 88/4/3 86/2/3
f 81/1/2 84/4/2 88/2/2
f 83/1/6 86/4/6 88/2/6
f 85/1/5 82/4/5 81/2/5
f 90/1/6 91/4/6 92/2/6
f 93/1/4 94/4/4 91/2/4
f 95/1/5 96/4/5 94/2/5
f 89/1/2 92/4/2 96/2/2
f 91/1/3 94/4/3 96/2/3
f 93/1/1 90/4/1 89/2/1
f 98/5/6 99/31/6 100/6/6
f 101/5/4 102/31/4 99/6/4
f 103/5/5 104/31/5 102/6/5
f 97/5/2 100/31/2 104/6/2
f 99/5/3 102/31/3 104/6/3
f 101/5/1 98/31/1 97/6/1
f 105/8/7 106/14/7 107/9/7
f 108/11/8 107/15/8 109/12/8
f 109/14/9 111/9/9 112/10/9
f 111/15/10 113/12/10 114/13/10
f 113/14/11 115/9/11 116/10/11
f 116/11/12 115/15/12 117/12/12
f 117/14/13 119/9/13 120/10/13
f 119/15/14 121/12/14 122/13/14
f 106/16/1 123/32/1 121/17/1
f 107/18/1 121/17/1 119/19/1
f 107/18/1 117/20/1 115/21/1
f 113/22/1 111/33/1 109/23/1
f 123/15/15 106/12/15 105/13/15
f 122/8/16 121/14/16 123/9/16
f 105/15/17 125/12/17 126/13/17
f 126/11/18 125/15/18 127/12/18
f 124/14/19 126/9/19 129/10/19
f 120/11/20 122/15/20 129/12/20
f 118/8/21 120/14/21 130/9/21
f 116/11/22 118/15/22 131/12/22
f 116/14/23 132/9/23 133/10/23
f 112/11/24 114/15/24 133/12/24
f 112/14/25 134/9/25 135/10/25
f 110/15/26 135/12/26 136/13/26
f 105/8/27 108/14/27 136/9/27
f 127/24/3 137/34/3 138/25/3
f 139/26/3 140/35/3 141/27/3
f 141/27/3 142/36/3 143/28/3
f 127/24/3 143/28/3 144/29/3
f 126/14/28 128/9/28 144/10/28
f 129/15/29 144/12/29 143/13/29
f 131/8/30 130/14/30 143/9/30
f 131/15/31 142/12/31 141/13/31
f 132/14/32 141/9/32 140/10/32
f 133/15/33 140/12/33 139/13/33
f 134/14/34 139/9/34 138/10/34
f 136/11/35 135/15/35 138/12/35
f 125/8/36 136/14/36 137/9/36
