# Mesh: hydrant

# List of geometric vertices
v 0.0000 0.0594 0.1142
v 0.0000 0.0594 -0.1142
v -0.0099 0.0553 -0.1142
v -0.0099 0.0553 0.1142
v -0.0140 0.0454 -0.1142
v -0.0140 0.0454 0.1142
v -0.0099 0.0355 -0.1142
v -0.0099 0.0355 0.1142
v 0.0000 0.0314 -0.1142
v 0.0000 0.0314 0.1142
v 0.0099 0.0355 -0.1142
v 0.0099 0.0355 0.1142
v 0.0140 0.0454 -0.1142
v 0.0140 0.0454 0.1142
v 0.0099 0.0553 -0.1142
v 0.0099 0.0553 0.1142
v -0.1142 0.0594 0.0000
v 0.1142 0.0594 0.0000
v 0.1142 0.0553 -0.0099
v -0.1142 0.0553 -0.0099
v 0.1142 0.0454 -0.0140
v -0.1142 0.0454 -0.0140
v 0.1142 0.0355 -0.0099
v -0.1142 0.0355 -0.0099
v 0.1142 0.0314 0.0000
v -0.1142 0.0314 0.0000
v 0.1142 0.0355 0.0099
v -0.1142 0.0355 0.0099
v 0.1142 0.0454 0.0140
v -0.1142 0.0454 0.0140
v 0.1142 0.0553 0.0099
v -0.1142 0.0553 0.0099
v -0.1024 0.1013 0.0000
v 0.1024 0.1013 0.0000
v 0.1024 0.0849 -0.0395
v -0.1024 0.0849 -0.0395
v 0.1024 0.0454 -0.0559
v -0.1024 0.0454 -0.0559
v 0.1024 0.0059 -0.0395
v -0.1024 0.0059 -0.0395
v 0.1024 -0.0105 -0.0000
v -0.1024 -0.0105 -0.0000
v 0.1024 0.0059 0.0395
v -0.1024 0.0059 0.0395
v 0.1024 0.0454 0.0559
v -0.1024 0.0454 0.0559
v 0.1024 0.0849 0.0395
v -0.1024 0.0849 0.0395
v 0.0000 0.1013 -0.1024
v 0.0000 0.1013 0.1024
v 0.0395 0.0849 0.1024
v 0.0395 0.0849 -0.1024
v 0.0559 0.0454 0.1024
v 0.0559 0.0454 -0.1024
v 0.0395 0.0059 0.1024
v 0.0395 0.0059 -0.1024
v 0.0000 -0.0105 0.1024
v 0.0000 -0.0105 -0.1024
v -0.0395 0.0059 0.1024
v -0.0395 0.0059 -0.1024
v -0.0559 0.0454 0.1024
v -0.0559 0.0454 -0.1024
v -0.0395 0.0849 0.1024
v -0.0395 0.0849 -0.1024
v 0.0000 0.1501 -0.1049
v 0.0000 0.1705 -0.1049
v 0.0742 0.1705 -0.0742
v 0.0742 0.1501 -0.0742
v 0.1049 0.1705 0.0000
v 0.1049 0.1501 0.0000
v 0.0742 0.1705 0.0742
v 0.0742 0.1501 0.0742
v 0.0000 0.1705 0.1049
v 0.0000 0.1501 0.1049
v -0.0742 0.1705 0.0742
v -0.0742 0.1501 0.0742
v -0.1049 0.1705 0.0000
v -0.1049 0.1501 0.0000
v -0.0742 0.1705 -0.0742
v -0.0742 0.1501 -0.0742
v 0.0000 -0.2678 -0.1049
v 0.0000 -0.2119 -0.1049
v 0.0742 -0.2119 -0.0742
v 0.0742 -0.2678 -0.0742
v 0.1049 -0.2119 -0.0000
v 0.1049 -0.2678 -0.0000
v 0.0742 -0.2119 0.0742
v 0.0742 -0.2678 0.0742
v 0.0000 -0.2119 0.1049
v 0.0000 -0.2678 0.1049
v -0.0742 -0.2119 0.0742
v -0.0742 -0.2678 0.0742
v -0.1049 -0.2119 -0.0000
v -0.1049 -0.2678 -0.0000
v -0.0742 -0.2119 -0.0742
v -0.0742 -0.2678 -0.0742
v 0.0000 -0.2364 -0.0787
v 0.0000 0.1703 -0.0787
v 0.0557 0.1703 -0.0557
v 0.0557 -0.2364 -0.0557
v 0.0787 0.1703 0.0000
v 0.0787 -0.2364 -0.0000
v 0.0557 0.1703 0.0557
v 0.0557 -0.2364 0.0557
v 0.0000 0.1703 0.0787
v 0.0000 -0.2364 0.0787
v -0.0557 0.1703 0.0557
v -0.0557 -0.2364 0.0557
v -0.0787 0.1703 0.0000
v -0.0787 -0.2364 -0.0000
v -0.0557 0.1703 -0.0557
v -0.0071 0.2553 -0.0071
v 0.0000 0.2553 -0.0101
v -0.0557 -0.2364 -0.0557
v -0.0071 0.2678 -0.0071
v 0.0000 0.2678 -0.0101
v -0.0101 0.2553 0.0000
v -0.0071 0.2553 0.0071
v 0.0000 0.2553 0.0101
v 0.0071 0.2553 0.0071
v 0.0101 0.2553 0.0000
v 0.0071 0.2553 -0.0071
v 0.0071 0.2678 -0.0071
v -0.0101 0.2678 0.0000
v -0.0071 0.2678 0.0071
v 0.0000 0.2678 0.0101
v 0.0071 0.2678 0.0071
v 0.0101 0.2678 0.0000

# List of vertex normals
vn -0.3826 0.9239 0.0000
vn -0.9239 0.3827 0.0000
vn -0.9239 -0.3827 -0.0000
vn -0.3827 -0.9239 -0.0000
vn 0.3827 -0.9239 -0.0000
vn 0.9239 -0.3827 -0.0000
vn 0.0000 0.0000 -1.0000
vn 0.3826 0.9239 0.0000
vn 0.9239 0.3827 0.0000
vn 0.0000 0.0000 1.0000
vn 0.0000 0.9239 -0.3826
vn 0.0000 0.3827 -0.9239
vn 0.0000 -0.3827 -0.9239
vn 0.0000 -0.9239 -0.3827
vn 0.0000 -0.9239 0.3827
vn 0.0000 -0.3827 0.9239
vn 1.0000 -0.0000 0.0000
vn 0.0000 0.9239 0.3826
vn 0.0000 0.3827 0.9239
vn -1.0000 -0.0000 0.0000
vn 0.0000 0.9239 -0.3827
vn 0.0000 0.9239 0.3827
vn 0.3827 0.9239 0.0000
vn -0.3827 0.9239 0.0000
vn 0.3827 0.0000 -0.9239
vn 0.9239 0.0000 -0.3827
vn 0.9239 0.0000 0.3827
vn 0.3827 -0.0000 0.9239
vn -0.3827 -0.0000 0.9239
vn -0.9239 0.0000 0.3827
vn 0.0000 1.0000 0.0000
vn -0.3827 0.0000 -0.9239
vn -0.9239 -0.0000 -0.3827
vn 0.0000 -1.0000 -0.0000
vn -0.3068 0.5978 -0.7406
vn -0.7406 0.5978 -0.3068
vn -0.7406 0.5978 0.3068
vn -0.3068 0.5978 0.7406
vn 0.3068 0.5978 0.7406
vn 0.7406 0.5978 0.3068
vn 0.7406 0.5978 -0.3068
vn 0.3068 0.5978 -0.7406

# List of texture coordinates
vt 0.7278 0.0570
vt 0.7778 0.1070
vt 0.7278 0.1070
vt 0.7778 0.0570
vt 0.7704 0.0997
vt 0.7704 0.0643
vt 0.7528 0.1070
vt 0.7528 0.0570
vt 0.7351 0.0643
vt 0.7278 0.0820
vt 0.7351 0.0997
vt 0.7778 0.0820

# List of polygonal faces
f 1/1/1 3/2/1 4/3/1
f 3/4/2 6/3/2 4/1/2
f 5/4/3 8/3/3 6/1/3
f 7/4/4 10/3/4 8/1/4
f 9/4/5 12/3/5 10/1/5
f 11/4/6 14/3/6 12/1/6
f 2/5/7 13/6/7 3/7/7
f 3/7/7 11/8/7 9/9/7
f 3/7/7 7/10/7 5/11/7
f 15/4/8 1/3/8 16/1/8
f 13/4/9 16/3/9 14/1/9
f 1/7/10 6/12/10 8/6/10
f 8/6/10 12/9/10 1/7/10
f 1/7/10 14/10/10 16/11/10
f 18/4/11 20/3/11 17/1/11
f 19/4/12 22/3/12 20/1/12
f 21/4/13 24/3/13 22/1/13
f 23/4/14 26/3/14 24/1/14
f 25/4/15 28/3/15 26/1/15
f 27/4/16 30/3/16 28/1/16
f 18/5/17 29/6/17 19/7/17
f 19/7/17 27/8/17 25/9/17
f 19/7/17 23/10/17 21/11/17
f 31/4/18 17/3/18 32/1/18
f 29/4/19 32/3/19 30/1/19
f 17/7/20 22/12/20 24/6/20
f 24/6/20 28/9/20 17/7/20
f 17/7/20 30/10/20 32/11/20
f 34/4/21 36/3/21 33/1/21
f 35/4/12 38/3/12 36/1/12
f 37/4/13 40/3/13 38/1/13
f 39/4/14 42/3/14 40/1/14
f 41/4/15 44/3/15 42/1/15
f 43/4/16 46/3/16 44/1/16
f 34/5/17 45/6/17 35/7/17
f 45/6/17 41/9/17 35/7/17
f 41/9/17 37/11/17 35/7/17
f 47/4/22 33/3/22 48/1/22
f 45/4/19 48/3/19 46/1/19
f 33/7/20 38/12/20 40/6/20
f 40/6/20 44/9/20 33/7/20
f 33/7/20 46/10/20 48/11/20
f 50/4/23 52/3/23 49/1/23
f 51/4/9 54/3/9 52/1/9
f 53/4/6 56/3/6 54/1/6
f 55/4/5 58/3/5 56/1/5
f 57/4/4 60/3/4 58/1/4
f 60/1/3 61/2/3 62/3/3
f 50/5/10 61/6/10 51/7/10
f 61/6/10 57/9/10 51/7/10
f 57/9/10 53/11/10 51/7/10
f 64/1/24 50/2/24 49/3/24
f 61/4/2 64/3/2 62/1/2
f 49/7/7 54/12/7 56/6/7
f 56/6/7 60/9/7 49/7/7
f 49/7/7 62/10/7 64/11/7
f 66/4/25 68/3/25 65/1/25
f 67/4/26 70/3/26 68/1/26
f 69/4/27 72/3/27 70/1/27
f 71/4/28 74/3/28 72/1/28
f 73/4/29 76/3/29 74/1/29
f 75/4/30 78/3/30 76/1/30
f 67/7/31 79/12/31 77/6/31
f 67/7/31 75/8/31 73/9/31
f 67/7/31 71/10/31 69/11/31
f 79/4/32 65/3/32 80/1/32
f 77/4/33 80/3/33 78/1/33
f 68/5/34 72/6/34 65/7/34
f 72/6/34 76/9/34 65/7/34
f 76/9/34 80/11/34 65/7/34
f 82/4/25 84/3/25 81/1/25
f 83/4/26 86/3/26 84/1/26
f 85/4/27 88/3/27 86/1/27
f 87/4/28 90/3/28 88/1/28
f 89/4/29 92/3/29 90/1/29
f 91/4/30 94/3/30 92/1/30
f 83/7/31 95/12/31 93/6/31
f 83/7/31 91/8/31 89/9/31
f 83/7/31 87/10/31 85/11/31
f 96/1/32 82/2/32 81/3/32
f 93/4/33 96/3/33 94/1/33
f 84/5/34 88/6/34 81/7/34
f 88/6/34 92/9/34 81/7/34
f 92/9/34 96/11/34 81/7/34
f 98/4/25 100/3/25 97/1/25
f 99/4/26 102/3/26 100/1/26
f 101/4/27 104/3/27 102/1/27
f 103/4/28 106/3/28 104/1/28
f 106/1/29 107/2/29 108/3/29
f 108/1/30 109/2/30 110/3/30
f 111/4/35 113/3/35 98/1/35
f 111/4/32 97/3/32 114/1/32
f 109/4/33 114/3/33 110/1/33
f 100/5/34 104/6/34 97/7/34
f 104/6/34 108/9/34 97/7/34
f 108/9/34 114/11/34 97/7/34
f 112/4/32 116/3/32 113/1/32
f 111/1/36 117/2/36 112/3/36
f 107/4/37 117/3/37 109/1/37
f 107/1/38 119/2/38 118/3/38
f 103/4/39 119/3/39 105/1/39
f 103/1/40 121/2/40 120/3/40
f 99/4/41 121/3/41 101/1/41
f 99/1/42 113/2/42 122/3/42
f 123/7/31 115/12/31 124/6/31
f 123/7/31 125/8/31 126/9/31
f 123/7/31 127/10/31 128/11/31
f 117/4/33 115/3/33 112/1/33
f 118/4/30 124/3/30 117/1/30
f 119/4/29 125/3/29 118/1/29
f 119/1/28 127/2/28 126/3/28
f 120/1/27 128/2/27 127/3/27
f 122/4/26 128/3/26 121/1/26
f 122/1/25 116/2/25 123/3/25
f 1/1/1 2/4/1 3/2/1
f 3/4/2 5/2/2 6/3/2
f 5/4/3 7/2/3 8/3/3
f 7/4/4 9/2/4 10/3/4
f 9/4/5 11/2/5 12/3/5
f 11/4/6 13/2/6 14/3/6
f 2/5/7 15/12/7 13/6/7
f 3/7/7 13/6/7 11/8/7
f 3/7/7 9/9/7 7/10/7
f 15/4/8 2/2/8 1/3/8
f 13/4/9 15/2/9 16/3/9
f 1/7/10 4/5/10 6/12/10
f 8/6/10 10/8/10 12/9/10
f 1/7/10 12/9/10 14/10/10
f 18/4/11 19/2/11 20/3/11
f 19/4/12 21/2/12 22/3/12
f 21/4/13 23/2/13 24/3/13
f 23/4/14 25/2/14 26/3/14
f 25/4/15 27/2/15 28/3/15
f 27/4/16 29/2/16 30/3/16
f 18/5/17 31/12/17 29/6/17
f 19/7/17 29/6/17 27/8/17
f 19/7/17 25/9/17 23/10/17
f 31/4/18 18/2/18 17/3/18
f 29/4/19 31/2/19 32/3/19
f 17/7/20 20/5/20 22/12/20
f 24/6/20 26/8/20 28/9/20
f 17/7/20 28/9/20 30/10/20
f 34/4/21 35/2/21 36/3/21
f 35/4/12 37/2/12 38/3/12
f 37/4/13 39/2/13 40/3/13
f 39/4/14 41/2/14 42/3/14
f 41/4/15 43/2/15 44/3/15
f 43/4/16 45/2/16 46/3/16
f 34/5/17 47/12/17 45/6/17
f 45/6/17 43/8/17 41/9/17
f 41/9/17 39/10/17 37/11/17
f 47/4/22 34/2/22 33/3/22
f 45/4/19 47/2/19 48/3/19
f 33/7/20 36/5/20 38/12/20
f 40/6/20 42/8/20 44/9/20
f 33/7/20 44/9/20 46/10/20
f 50/4/23 51/2/23 52/3/23
f 51/4/9 53/2/9 54/3/9
f 53/4/6 55/2/6 56/3/6
f 55/4/5 57/2/5 58/3/5
f 57/4/4 59/2/4 60/3/4
f 60/1/3 59/4/3 61/2/3
f 50/5/10 63/12/10 61/6/10
f 61/6/10 59/8/10 57/9/10
f 57/9/10 55/10/10 53/11/10
f 64/1/24 63/4/24 50/2/24
f 61/4/2 63/2/2 64/3/2
f 49/7/7 52/5/7 54/12/7
f 56/6/7 58/8/7 60/9/7
f 49/7/7 60/9/7 62/10/7
f 66/4/25 67/2/25 68/3/25
f 67/4/26 69/2/26 70/3/26
f 69/4/27 71/2/27 72/3/27
f 71/4/28 73/2/28 74/3/28
f 73/4/29 75/2/29 76/3/29
f 75/4/30 77/2/30 78/3/30
f 67/7/31 66/5/31 79/12/31
f 67/7/31 77/6/31 75/8/31
f 67/7/31 73/9/31 71/10/31
f 79/4/32 66/2/32 65/3/32
f 77/4/33 79/2/33 80/3/33
f 68/5/34 70/12/34 72/6/34
f 72/6/34 74/8/34 76/9/34
f 76/9/34 78/10/34 80/11/34
f 82/4/25 83/2/25 84/3/25
f 83/4/26 85/2/26 86/3/26
f 85/4/27 87/2/27 88/3/27
f 87/4/28 89/2/28 90/3/28
f 89/4/29 91/2/29 92/3/29
f 91/4/30 93/2/30 94/3/30
f 83/7/31 82/5/31 95/12/31
f 83/7/31 93/6/31 91/8/31
f 83/7/31 89/9/31 87/10/31
f 96/1/32 95/4/32 82/2/32
f 93/4/33 95/2/33 96/3/33
f 84/5/34 86/12/34 88/6/34
f 88/6/34 90/8/34 92/9/34
f 92/9/34 94/10/34 96/11/34
f 98/4/25 99/2/25 100/3/25
f 99/4/26 101/2/26 102/3/26
f 101/4/27 103/2/27 104/3/27
f 103/4/28 105/2/28 106/3/28
f 106/1/29 105/4/29 107/2/29
f 108/1/30 107/4/30 109/2/30
f 111/4/35 112/2/35 113/3/35
f 111/4/32 98/2/32 97/3/32
f 109/4/33 111/2/33 114/3/33
f 100/5/34 102/12/34 104/6/34
f 104/6/34 106/8/34 108/9/34
f 108/9/34 110/10/34 114/11/34
f 112/4/32 115/2/32 116/3/32
f 111/1/36 109/4/36 117/2/36
f 107/4/37 118/2/37 117/3/37
f 107/1/38 105/4/38 119/2/38
f 103/4/39 120/2/39 119/3/39
f 103/1/40 101/4/40 121/2/40
f 99/4/41 122/2/41 121/3/41
f 99/1/42 98/4/42 113/2/42
f 123/7/31 116/5/31 115/12/31
f 123/7/31 124/6/31 125/8/31
f 123/7/31 126/9/31 127/10/31
f 117/4/33 124/2/33 115/3/33
f 118/4/30 125/2/30 124/3/30
f 119/4/29 126/2/29 125/3/29
f 119/1/28 120/4/28 127/2/28
f 120/1/27 121/4/27 128/2/27
f 122/4/26 123/2/26 128/3/26
f 122/1/25 113/4/25 116/2/25
