# Mesh: roof_solar_panel

# List of geometric vertices
v -0.8566 -0.0363 0.5359
v -0.8566 0.1647 -0.5359
v -0.8566 -0.1647 -0.5359
v -0.8566 -0.1647 0.5359
v 0.8566 0.1647 -0.5359
v 0.8566 -0.1647 -0.5359
v 0.8566 -0.0363 0.5359
v 0.8566 -0.1647 0.5359
v 0.7788 -0.0272 0.4872
v -0.7788 -0.0272 0.4872
v 0.7788 -0.0448 0.4872
v -0.7788 -0.0448 0.4872
v 0.7788 0.1556 -0.4872
v -0.7788 0.1556 -0.4872
v 0.7788 0.1380 -0.4872
v -0.7788 0.1380 -0.4872

# List of vertex normals
vn -1.0000 0.0000 0.0000
vn 0.0000 0.0000 -1.0000
vn 1.0000 0.0000 0.0000
vn 0.0000 0.0000 1.0000
vn 0.0000 -1.0000 -0.0000
vn 0.0000 0.9829 0.1843

# List of texture coordinates
vt 0.4750 0.4750
vt 0.5250 0.5250
vt 0.4750 0.5250
vt 0.5250 0.4750
vt 0.3965 0.9401
vt 0.0400 0.7339
vt 0.3965 0.7339
vt 0.0400 0.9401

# List of polygonal faces
f 1/1/1 3/2/1 4/3/1
f 5/4/2 3/3/2 2/1/2
f 7/4/3 6/3/3 5/1/3
f 1/4/4 8/3/4 7/1/4
f 3/4/5 8/3/5 4/1/5
f 9/4/2 12/3/2 10/1/2
f 15/5/6 12/6/6 11/7/6
f 9/1/1 15/2/1 11/3/1
f 14/4/4 15/3/4 13/1/4
f 10/4/3 16/3/3 14/1/3
f 1/1/1 2/4/1 3/2/1
f 5/4/2 6/2/2 3/3/2
f 7/4/3 8/2/3 6/3/3
f 1/4/4 4/2/4 8/3/4
f 3/4/5 6/2/5 8/3/5
f 9/4/2 11/2/2 12/3/2
f 15/5/6 16/8/6 12/6/6
f 9/1/1 13/4/1 15/2/1
f 14/4/4 16/2/4 15/3/4
f 10/4/3 12/2/3 16/3/3
f 7/4/6 10/3/6 1/1/6
f 5/4/6 9/3/6 7/1/6
f 2/4/6 13/3/6 5/1/6
f 1/4/6 14/3/6 2/1/6
f 7/4/6 9/2/6 10/3/6
f 5/4/6 13/2/6 9/3/6
f 2/4/6 14/2/6 13/3/6
f 1/4/6 10/2/6 14/3/6
