# Mesh: traffic_signal_small

# List of geometric vertices
v 0.0004 1.4605 0.0775
v 0.0664 1.4390 0.0763
v 0.0664 1.4390 0.1383
v 0.0004 1.4605 0.1395
v 0.1072 1.3828 0.0587
v 0.1072 1.3828 0.1207
v 0.1072 1.3134 0.0347
v 0.1072 1.3134 0.0967
v -0.1065 1.3134 0.0347
v -0.1065 1.3828 0.0587
v -0.1065 1.3828 0.1207
v -0.1065 1.3134 0.0967
v -0.0657 1.4390 0.0763
v -0.0657 1.4390 0.1383
v 0.0004 1.4499 0.0775
v 0.0004 1.4499 0.1395
v 0.0597 1.4285 0.1372
v 0.0597 1.4285 0.0751
v 0.0964 1.3723 0.1207
v 0.0964 1.3723 0.0587
v 0.0964 1.3134 0.0967
v 0.0964 1.3134 0.0347
v -0.0956 1.3134 0.0347
v -0.0956 1.3134 0.0967
v -0.0956 1.3723 0.1207
v -0.0956 1.3723 0.0587
v -0.0589 1.4285 0.0751
v -0.0589 1.4285 0.1372
v 0.0004 1.0005 0.0775
v 0.0664 0.9791 0.0763
v 0.0664 0.9791 0.1383
v 0.0004 1.0005 0.1395
v 0.1072 0.9229 0.0587
v 0.1072 0.9229 0.1207
v 0.1072 0.8534 0.0347
v 0.1072 0.8534 0.0967
v -0.1065 0.8534 0.0347
v -0.1065 0.9229 0.0587
v -0.1065 0.9229 0.1207
v -0.1065 0.8534 0.0967
v -0.0657 0.9791 0.0763
v -0.0657 0.9791 0.1383
v 0.0004 0.9900 0.0775
v 0.0004 0.9900 0.1395
v 0.0597 0.9685 0.1372
v 0.0597 0.9685 0.0751
v 0.0964 0.9123 0.1207
v 0.0964 0.9123 0.0587
v 0.0964 0.8534 0.0967
v 0.0964 0.8534 0.0347
v -0.0956 0.8534 0.0347
v -0.0956 0.8534 0.0967
v -0.0956 0.9123 0.1207
v -0.0956 0.9123 0.0587
v -0.0589 0.9685 0.0751
v -0.0589 0.9685 0.1372
v 0.0004 1.2275 0.0775
v 0.0664 1.2060 0.0763
v 0.0664 1.2060 0.1383
v 0.0004 1.2275 0.1395
v 0.1072 1.1499 0.0587
v 0.1072 1.1499 0.1207
v 0.1072 1.0804 0.0347
v 0.1072 1.0804 0.0967
v -0.1065 1.0804 0.0347
v -0.1065 1.1499 0.0587
v -0.1065 1.1499 0.1207
v -0.1065 1.0804 0.0967
v -0.0657 1.2060 0.0763
v -0.0657 1.2060 0.1383
v 0.0004 1.2169 0.0775
v 0.0004 1.2169 0.1395
v 0.0597 1.1955 0.1372
v 0.0597 1.1955 0.0751
v 0.0964 1.1393 0.1207
v 0.0964 1.1393 0.0587
v 0.0964 1.0804 0.0967
v 0.0964 1.0804 0.0347
v -0.0956 1.0804 0.0347
v -0.0956 1.0804 0.0967
v -0.0956 1.1393 0.1207
v -0.0956 1.1393 0.0587
v -0.0589 1.1955 0.0751
v -0.0589 1.1955 0.1372
v 0.1449 1.4774 0.0871
v 0.1449 1.4774 -0.0940
v -0.1449 1.4774 -0.0940
v -0.1449 1.4774 0.0871
v 0.1449 0.7529 -0.0940
v -0.1449 0.7529 -0.0940
v 0.1449 0.7529 0.0871
v -0.1449 0.7529 0.0871
v -0.0827 1.3129 0.0865
v -0.0631 1.2836 0.0865
v -0.0631 1.2958 0.1009
v -0.0827 1.3195 0.0943
v -0.0338 1.2640 0.0865
v -0.0338 1.2800 0.1054
v 0.0008 1.2571 0.0865
v 0.0008 1.2744 0.1069
v 0.0354 1.2640 0.0865
v 0.0354 1.2800 0.1054
v 0.0647 1.2836 0.0865
v 0.0647 1.2958 0.1009
v 0.0843 1.3129 0.0865
v 0.0843 1.3195 0.0943
v -0.0631 1.3278 0.1099
v -0.0827 1.3368 0.0992
v -0.0338 1.3217 0.1170
v 0.0008 1.3196 0.1195
v 0.0354 1.3217 0.1170
v 0.0647 1.3278 0.1099
v 0.0843 1.3368 0.0992
v -0.0631 1.3673 0.1099
v -0.0827 1.3582 0.0992
v -0.0338 1.3733 0.1170
v 0.0008 1.3754 0.1195
v 0.0354 1.3733 0.1170
v 0.0647 1.3673 0.1099
v 0.0843 1.3582 0.0992
v -0.0631 1.3992 0.1009
v -0.0827 1.3755 0.0943
v -0.0338 1.4151 0.1054
v 0.0008 1.4206 0.1069
v 0.0354 1.4151 0.1054
v 0.0647 1.3992 0.1009
v 0.0843 1.3755 0.0943
v 0.0354 1.4310 0.0865
v 0.0647 1.4114 0.0865
v 0.0843 1.3821 0.0865
v 0.0912 1.3475 0.0865
v -0.0896 1.3475 0.0865
v -0.0827 1.3821 0.0865
v -0.0631 1.4114 0.0865
v -0.0338 1.4310 0.0865
v 0.0008 1.4379 0.0865
v -0.0827 0.8527 0.0865
v -0.0631 0.8234 0.0865
v -0.0631 0.8356 0.1009
v -0.0827 0.8593 0.0943
v -0.0338 0.8038 0.0865
v -0.0338 0.8198 0.1054
v 0.0008 0.7969 0.0865
v 0.0008 0.8142 0.1069
v 0.0354 0.8038 0.0865
v 0.0354 0.8198 0.1054
v 0.0647 0.8234 0.0865
v 0.0647 0.8356 0.1009
v 0.0843 0.8527 0.0865
v 0.0843 0.8593 0.0943
v -0.0631 0.8676 0.1099
v -0.0827 0.8766 0.0992
v -0.0338 0.8615 0.1170
v 0.0008 0.8594 0.1195
v 0.0354 0.8615 0.1170
v 0.0647 0.8676 0.1099
v 0.0843 0.8766 0.0992
v -0.0631 0.9071 0.1099
v -0.0827 0.8980 0.0992
v -0.0338 0.9131 0.1170
v 0.0008 0.9153 0.1195
v 0.0354 0.9131 0.1170
v 0.0647 0.9071 0.1099
v 0.0843 0.8980 0.0992
v -0.0631 0.9390 0.1009
v -0.0827 0.9153 0.0943
v -0.0338 0.9549 0.1054
v 0.0008 0.9604 0.1069
v 0.0354 0.9549 0.1054
v 0.0647 0.9390 0.1009
v 0.0843 0.9153 0.0943
v 0.0354 0.9708 0.0865
v 0.0647 0.9512 0.0865
v 0.0843 0.9219 0.0865
v 0.0912 0.8873 0.0865
v -0.0896 0.8873 0.0865
v -0.0827 0.9219 0.0865
v -0.0631 0.9512 0.0865
v -0.0338 0.9708 0.0865
v 0.0008 0.9777 0.0865
v -0.0827 1.0800 0.0865
v -0.0631 1.0507 0.0865
v -0.0631 1.0629 0.1009
v -0.0827 1.0866 0.0943
v -0.0338 1.0311 0.0865
v -0.0338 1.0470 0.1054
v 0.0008 1.0242 0.0865
v 0.0008 1.0415 0.1069
v 0.0354 1.0311 0.0865
v 0.0354 1.0470 0.1054
v 0.0647 1.0507 0.0865
v 0.0647 1.0629 0.1009
v 0.0843 1.0800 0.0865
v 0.0843 1.0866 0.0943
v -0.0631 1.0948 0.1099
v -0.0827 1.1039 0.0992
v -0.0338 1.0888 0.1170
v 0.0008 1.0866 0.1195
v 0.0354 1.0888 0.1170
v 0.0647 1.0948 0.1099
v 0.0843 1.1039 0.0992
v -0.0631 1.1343 0.1099
v -0.0827 1.1253 0.0992
v -0.0338 1.1404 0.1170
v 0.0008 1.1425 0.1195
v 0.0354 1.1404 0.1170
v 0.0647 1.1343 0.1099
v 0.0843 1.1253 0.0992
v -0.0631 1.1663 0.1009
v -0.0827 1.1426 0.0943
v -0.0338 1.1821 0.1054
v 0.0008 1.1877 0.1069
v 0.0354 1.1821 0.1054
v 0.0647 1.1663 0.1009
v 0.0843 1.1426 0.0943
v 0.0354 1.1981 0.0865
v 0.0647 1.1785 0.0865
v 0.0843 1.1492 0.0865
v 0.0912 1.1146 0.0865
v -0.0896 1.1146 0.0865
v -0.0827 1.1492 0.0865
v -0.0631 1.1785 0.0865
v -0.0338 1.1981 0.0865
v 0.0008 1.2050 0.0865
v 0.0004 -1.4774 -0.1575
v 0.0004 -1.3829 -0.1575
v 0.1368 -1.3829 -0.0787
v 0.1368 -1.4774 -0.0787
v 0.1368 -1.3829 0.0787
v 0.1368 -1.4774 0.0787
v 0.0004 -1.3829 0.1575
v 0.0004 -1.4774 0.1575
v -0.1360 -1.3829 0.0787
v -0.1360 -1.4774 0.0787
v -0.1360 -1.3829 -0.0787
v -0.0929 -1.3829 -0.0539
v 0.0004 -1.3829 -0.1078
v -0.1360 -1.4774 -0.0787
v -0.0929 -0.9132 -0.0539
v 0.0004 -0.9132 -0.1078
v -0.0929 -1.3829 0.0539
v 0.0004 -1.3829 0.1078
v 0.0937 -1.3829 0.0539
v 0.0937 -1.3829 -0.0539
v -0.0478 -0.9132 -0.0278
v 0.0004 -0.9132 -0.0556
v -0.0929 -0.9132 0.0539
v 0.0004 -0.9132 0.1078
v 0.0937 -0.9132 0.0539
v 0.0937 -0.9132 -0.0539
v -0.0478 -0.9132 0.0278
v 0.0004 -0.9132 0.0556
v 0.0486 -0.9132 0.0278
v 0.0486 -0.9132 -0.0278
v 0.0004 1.0625 -0.0556
v -0.0478 1.0625 -0.0278
v -0.0478 1.0625 0.0278
v 0.0004 1.0625 0.0556
v 0.0486 1.0625 0.0278
v 0.0486 1.0625 -0.0278

# List of vertex normals
vn -0.3090 -0.9511 0.0000
vn -0.8090 -0.5878 0.0000
vn -1.0000 0.0000 0.0000
vn 1.0000 -0.0000 0.0000
vn 0.3090 -0.9511 0.0000
vn 0.8090 -0.5878 0.0000
vn 0.3401 0.9404 0.0000
vn 0.8374 0.5466 0.0000
vn -0.3401 0.9404 0.0000
vn -0.8374 0.5466 0.0000
vn -0.0005 0.1100 -0.9939
vn -0.0178 -0.0000 0.9998
vn 0.1688 0.1735 -0.9703
vn -0.1440 -0.1990 0.9694
vn 0.0000 0.3778 -0.9259
vn -0.3031 -0.3116 0.9006
vn 0.0000 1.0000 0.0000
vn -0.3031 0.3116 -0.9006
vn 0.0000 -0.3778 0.9259
vn -0.1440 0.1990 -0.9694
vn 0.1688 -0.1735 0.9703
vn -0.0178 0.0000 -0.9998
vn -0.0005 -0.1100 0.9939
vn 0.0000 0.0000 -1.0000
vn 0.0000 -1.0000 -0.0000
vn 0.0000 -0.0000 1.0000
vn -0.7525 -0.5028 0.4254
vn -0.4544 -0.6801 0.5754
vn -0.1501 -0.7548 0.6386
vn 0.1501 -0.7547 0.6386
vn 0.4544 -0.6801 0.5754
vn 0.7525 -0.5028 0.4254
vn -0.5454 -0.2253 0.8073
vn -0.2790 -0.2580 0.9250
vn -0.0862 -0.2677 0.9596
vn 0.0861 -0.2677 0.9596
vn 0.2790 -0.2581 0.9250
vn 0.5455 -0.2252 0.8073
vn -0.4796 -0.0000 0.8775
vn -0.2371 -0.0000 0.9715
vn -0.0724 -0.0000 0.9974
vn 0.0724 -0.0000 0.9974
vn 0.2371 -0.0000 0.9715
vn 0.4796 -0.0000 0.8775
vn -0.5454 0.2253 0.8073
vn -0.2790 0.2581 0.9250
vn -0.0862 0.2677 0.9596
vn 0.0861 0.2677 0.9596
vn 0.2790 0.2581 0.9250
vn 0.5455 0.2252 0.8073
vn -0.9677 -0.1925 0.1629
vn 0.9677 -0.1925 0.1629
vn -0.9094 -0.1118 0.4007
vn 0.9094 -0.1118 0.4007
vn -0.8782 -0.0000 0.4783
vn 0.8782 0.0000 0.4783
vn -0.9094 0.1118 0.4007
vn 0.9094 0.1118 0.4007
vn -0.9677 0.1925 0.1629
vn -0.7525 0.5028 0.4254
vn -0.4544 0.6800 0.5754
vn -0.1501 0.7548 0.6386
vn 0.1501 0.7547 0.6386
vn 0.4544 0.6801 0.5754
vn 0.7525 0.5028 0.4254
vn 0.9677 0.1925 0.1629
vn -0.7525 -0.5028 0.4255
vn -0.4544 -0.6800 0.5754
vn -0.2790 -0.2581 0.9250
vn 0.5454 -0.2252 0.8073
vn 0.5454 0.2252 0.8073
vn 0.9094 -0.1118 0.4006
vn 0.8782 0.0000 0.4782
vn 0.9094 0.1118 0.4006
vn 0.9677 0.1925 0.1628
vn 0.1501 -0.7548 0.6386
vn 0.0862 -0.2677 0.9596
vn 0.5000 0.0000 -0.8660
vn 0.5000 -0.0000 0.8660
vn -0.5000 -0.0000 0.8660
vn -0.5000 0.0000 -0.8660
vn 0.0178 0.0000 -0.9998
vn 0.0005 -0.1100 0.9939
vn 0.1440 0.1990 -0.9694
vn -0.1688 -0.1735 0.9703
vn 0.3031 0.3116 -0.9006
vn 0.3031 -0.3116 0.9006
vn -0.1688 0.1735 -0.9703
vn 0.1440 -0.1990 0.9694
vn 0.0005 0.1100 -0.9939
vn 0.0178 -0.0000 0.9998
vn -0.1501 -0.7547 0.6386
vn 0.4544 -0.6801 0.5753
vn -0.5454 -0.2252 0.8073
vn -0.0861 -0.2677 0.9596
vn 0.2790 -0.2580 0.9250
vn 0.5454 -0.2253 0.8073
vn -0.5454 0.2252 0.8073
vn -0.0861 0.2677 0.9596
vn 0.5454 0.2253 0.8073
vn -0.7525 0.5028 0.4255
vn -0.4544 0.6801 0.5754
vn -0.1501 0.7547 0.6386
vn 0.1501 0.7548 0.6386
vn 0.4544 0.6800 0.5754
vn 0.4544 -0.6800 0.5754
vn 0.7525 -0.5028 0.4255
vn 0.0862 0.2677 0.9596
vn 0.5455 -0.2253 0.8073

# List of texture coordinates
vt 0.2766 0.7618
vt 0.3266 0.8118
vt 0.2766 0.8118
vt 0.3266 0.7618
vt 0.2297 0.7678
vt 0.1797 0.8178
vt 0.1797 0.7678
vt 0.2297 0.8178
vt 0.1206 0.8613
vt 0.3327 0.8790
vt 0.2190 0.8637
vt 0.0000 0.0000

# List of polygonal faces
f 1/1/1 3/2/1 4/3/1
f 2/1/2 6/2/2 3/3/2
f 5/1/3 8/2/3 6/3/3
f 10/4/4 12/3/4 9/1/4
f 1/4/5 14/3/5 13/1/5
f 13/4/6 11/3/6 10/1/6
f 15/1/7 17/2/7 18/3/7
f 18/1/8 19/2/8 20/3/8
f 20/1/4 21/2/4 22/3/4
f 24/4/3 26/3/3 23/1/3
f 28/4/9 15/3/9 27/1/9
f 25/4/10 27/3/10 26/1/10
f 14/1/11 16/2/11 28/3/11
f 13/4/12 15/3/12 1/1/12
f 11/1/13 28/2/13 25/3/13
f 10/4/14 27/3/14 13/1/14
f 12/1/15 25/2/15 24/3/15
f 9/4/16 26/3/16 10/1/16
f 12/4/17 23/3/17 9/1/17
f 7/4/17 21/3/17 8/1/17
f 8/4/18 19/3/18 6/1/18
f 7/1/19 20/2/19 22/3/19
f 6/4/20 17/3/20 3/1/20
f 5/1/21 18/2/21 20/3/21
f 3/4/22 16/3/22 4/1/22
f 2/1/23 15/2/23 18/3/23
f 29/1/1 31/2/1 32/3/1
f 30/1/2 34/2/2 31/3/2
f 33/1/3 36/2/3 34/3/3
f 38/4/4 40/3/4 37/1/4
f 29/4/5 42/3/5 41/1/5
f 41/4/6 39/3/6 38/1/6
f 43/1/7 45/2/7 46/3/7
f 46/1/8 47/2/8 48/3/8
f 48/1/4 49/2/4 50/3/4
f 52/4/3 54/3/3 51/1/3
f 56/4/9 43/3/9 55/1/9
f 53/4/10 55/3/10 54/1/10
f 42/1/11 44/2/11 56/3/11
f 41/4/12 43/3/12 29/1/12
f 39/1/13 56/2/13 53/3/13
f 38/4/14 55/3/14 41/1/14
f 40/1/15 53/2/15 52/3/15
f 37/4/16 54/3/16 38/1/16
f 40/4/17 51/3/17 37/1/17
f 35/4/17 49/3/17 36/1/17
f 36/4/18 47/3/18 34/1/18
f 35/1/19 48/2/19 50/3/19
f 34/4/20 45/3/20 31/1/20
f 33/1/21 46/2/21 48/3/21
f 31/4/22 44/3/22 32/1/22
f 30/1/23 43/2/23 46/3/23
f 57/1/1 59/2/1 60/3/1
f 58/1/2 62/2/2 59/3/2
f 61/1/3 64/2/3 62/3/3
f 66/4/4 68/3/4 65/1/4
f 57/4/5 70/3/5 69/1/5
f 69/4/6 67/3/6 66/1/6
f 71/1/7 73/2/7 74/3/7
f 74/1/8 75/2/8 76/3/8
f 76/1/4 77/2/4 78/3/4
f 80/4/3 82/3/3 79/1/3
f 84/4/9 71/3/9 83/1/9
f 81/4/10 83/3/10 82/1/10
f 70/1/11 72/2/11 84/3/11
f 69/4/12 71/3/12 57/1/12
f 67/1/13 84/2/13 81/3/13
f 66/4/14 83/3/14 69/1/14
f 68/1/15 81/2/15 80/3/15
f 65/4/16 82/3/16 66/1/16
f 68/4/17 79/3/17 65/1/17
f 63/4/17 77/3/17 64/1/17
f 64/4/18 75/3/18 62/1/18
f 63/1/19 76/2/19 78/3/19
f 62/4/20 73/3/20 59/1/20
f 61/1/21 74/2/21 76/3/21
f 59/4/22 72/3/22 60/1/22
f 58/1/23 71/2/23 74/3/23
f 86/5/17 88/6/17 85/7/17
f 89/5/24 87/6/24 86/7/24
f 91/5/25 90/6/25 89/7/25
f 85/5/26 92/6/26 91/7/26
f 87/5/3 92/6/3 88/7/3
f 91/7/4 86/8/4 85/6/4
f 93/9/27 95/9/27 96/9/27
f 94/9/28 98/9/28 95/9/28
f 97/9/29 100/9/29 98/9/29
f 101/9/30 100/9/30 99/9/30
f 103/9/31 102/9/31 101/9/31
f 105/9/32 104/9/32 103/9/32
f 96/9/33 107/9/33 108/9/33
f 95/9/34 109/9/34 107/9/34
f 98/9/35 110/9/35 109/9/35
f 102/9/36 110/9/36 100/9/36
f 104/9/37 111/9/37 102/9/37
f 106/9/38 112/9/38 104/9/38
f 108/9/39 114/9/39 115/9/39
f 107/9/40 116/9/40 114/9/40
f 110/9/41 116/9/41 109/9/41
f 110/9/42 118/9/42 117/9/42
f 112/9/43 118/9/43 111/9/43
f 113/9/44 119/9/44 112/9/44
f 114/9/45 122/9/45 115/9/45
f 116/9/46 121/9/46 114/9/46
f 117/9/47 123/9/47 116/9/47
f 117/9/48 125/9/48 124/9/48
f 118/9/49 126/9/49 125/9/49
f 119/9/50 127/9/50 126/9/50
f 128/9/24 130/9/24 131/9/24
f 128/9/24 105/9/24 103/9/24
f 128/9/24 101/9/24 99/9/24
f 128/9/24 97/9/24 94/9/24
f 94/9/24 132/9/24 128/9/24
f 128/9/24 133/9/24 134/9/24
f 128/9/24 135/9/24 136/9/24
f 132/9/51 93/9/51 96/9/51
f 105/9/52 131/9/52 106/9/52
f 132/9/53 96/9/53 108/9/53
f 106/9/54 131/9/54 113/9/54
f 132/9/55 108/9/55 115/9/55
f 113/9/56 131/9/56 120/9/56
f 132/9/57 115/9/57 122/9/57
f 120/9/58 131/9/58 127/9/58
f 132/9/59 122/9/59 133/9/59
f 121/9/60 133/9/60 122/9/60
f 123/9/61 134/9/61 121/9/61
f 124/9/62 135/9/62 123/9/62
f 124/9/63 128/9/63 136/9/63
f 125/9/64 129/9/64 128/9/64
f 126/9/65 130/9/65 129/9/65
f 127/9/66 131/9/66 130/9/66
f 137/10/67 139/10/67 140/10/67
f 138/10/68 142/10/68 139/10/68
f 141/10/29 144/10/29 142/10/29
f 145/10/30 144/10/30 143/10/30
f 147/10/31 146/10/31 145/10/31
f 149/10/32 148/10/32 147/10/32
f 140/10/33 151/10/33 152/10/33
f 139/10/69 153/10/69 151/10/69
f 142/10/35 154/10/35 153/10/35
f 146/10/36 154/10/36 144/10/36
f 148/10/37 155/10/37 146/10/37
f 150/10/70 156/10/70 148/10/70
f 151/10/39 159/10/39 152/10/39
f 151/10/40 160/10/40 158/10/40
f 154/10/41 160/10/41 153/10/41
f 154/10/42 162/10/42 161/10/42
f 156/10/43 162/10/43 155/10/43
f 156/10/44 164/10/44 163/10/44
f 158/10/45 166/10/45 159/10/45
f 160/10/46 165/10/46 158/10/46
f 161/10/47 167/10/47 160/10/47
f 161/10/48 169/10/48 168/10/48
f 162/10/49 170/10/49 169/10/49
f 163/10/71 171/10/71 170/10/71
f 173/10/24 175/10/24 172/10/24
f 175/10/24 147/10/24 172/10/24
f 172/10/24 145/10/24 143/10/24
f 172/10/24 141/10/24 138/10/24
f 138/10/24 176/10/24 172/10/24
f 172/10/24 177/10/24 178/10/24
f 172/10/24 179/10/24 180/10/24
f 176/10/51 137/10/51 140/10/51
f 149/10/52 175/10/52 150/10/52
f 176/10/53 140/10/53 152/10/53
f 150/10/72 175/10/72 157/10/72
f 176/10/55 152/10/55 159/10/55
f 157/10/73 175/10/73 164/10/73
f 176/10/57 159/10/57 166/10/57
f 164/10/74 175/10/74 171/10/74
f 176/10/59 166/10/59 177/10/59
f 165/10/60 177/10/60 166/10/60
f 167/10/61 178/10/61 165/10/61
f 168/10/62 179/10/62 167/10/62
f 168/10/63 172/10/63 180/10/63
f 169/10/64 173/10/64 172/10/64
f 170/10/65 174/10/65 173/10/65
f 171/10/75 175/10/75 174/10/75
f 181/11/27 183/11/27 184/11/27
f 182/11/68 186/11/68 183/11/68
f 185/11/29 188/11/29 186/11/29
f 189/11/76 188/11/76 187/11/76
f 191/11/31 190/11/31 189/11/31
f 193/11/32 192/11/32 191/11/32
f 184/11/33 195/11/33 196/11/33
f 183/11/69 197/11/69 195/11/69
f 186/11/35 198/11/35 197/11/35
f 190/11/77 198/11/77 188/11/77
f 192/11/37 199/11/37 190/11/37
f 194/11/38 200/11/38 192/11/38
f 196/11/39 202/11/39 203/11/39
f 197/11/40 202/11/40 195/11/40
f 197/11/41 205/11/41 204/11/41
f 199/11/42 205/11/42 198/11/42
f 199/11/43 207/11/43 206/11/43
f 201/11/44 207/11/44 200/11/44
f 202/11/45 210/11/45 203/11/45
f 204/11/46 209/11/46 202/11/46
f 205/11/47 211/11/47 204/11/47
f 205/11/48 213/11/48 212/11/48
f 206/11/49 214/11/49 213/11/49
f 207/11/50 215/11/50 214/11/50
f 216/11/24 218/11/24 219/11/24
f 216/11/24 193/11/24 191/11/24
f 216/11/24 189/11/24 187/11/24
f 216/11/24 185/11/24 182/11/24
f 216/11/24 181/11/24 220/11/24
f 216/11/24 221/11/24 222/11/24
f 216/11/24 223/11/24 224/11/24
f 220/11/51 181/11/51 184/11/51
f 193/11/52 219/11/52 194/11/52
f 220/11/53 184/11/53 196/11/53
f 194/11/54 219/11/54 201/11/54
f 220/11/55 196/11/55 203/11/55
f 201/11/56 219/11/56 208/11/56
f 220/11/57 203/11/57 210/11/57
f 208/11/58 219/11/58 215/11/58
f 220/11/59 210/11/59 221/11/59
f 209/11/60 221/11/60 210/11/60
f 211/11/61 222/11/61 209/11/61
f 212/11/62 223/11/62 211/11/62
f 212/11/63 216/11/63 224/11/63
f 213/11/64 217/11/64 216/11/64
f 214/11/65 218/11/65 217/11/65
f 215/11/66 219/11/66 218/11/66
f 226/12/78 228/12/78 225/12/78
f 227/12/4 230/12/4 228/12/4
f 229/12/79 232/12/79 230/12/79
f 231/12/80 234/12/80 232/12/80
f 235/12/81 225/12/81 238/12/81
f 234/12/3 235/12/3 238/12/3
f 228/12/25 232/12/25 225/12/25
f 232/12/25 238/12/25 225/12/25
f 236/12/81 240/12/81 237/12/81
f 241/12/3 239/12/3 236/12/3
f 242/12/80 247/12/80 241/12/80
f 242/12/79 249/12/79 248/12/79
f 244/12/4 249/12/4 243/12/4
f 244/12/78 240/12/78 250/12/78
f 255/12/17 257/12/17 258/12/17
f 255/12/17 259/12/17 260/12/17
f 246/12/78 260/12/78 254/12/78
f 253/12/4 260/12/4 259/12/4
f 253/12/79 258/12/79 252/12/79
f 252/12/80 257/12/80 251/12/80
f 251/12/3 256/12/3 245/12/3
f 245/12/81 255/12/81 246/12/81
f 1/1/1 2/4/1 3/2/1
f 2/1/2 5/4/2 6/2/2
f 5/1/3 7/4/3 8/2/3
f 10/4/4 11/2/4 12/3/4
f 1/4/5 4/2/5 14/3/5
f 13/4/6 14/2/6 11/3/6
f 15/1/7 16/4/7 17/2/7
f 18/1/8 17/4/8 19/2/8
f 20/1/4 19/4/4 21/2/4
f 24/4/3 25/2/3 26/3/3
f 28/4/9 16/2/9 15/3/9
f 25/4/10 28/2/10 27/3/10
f 14/1/82 4/4/82 16/2/82
f 13/4/83 27/2/83 15/3/83
f 11/1/84 14/4/84 28/2/84
f 10/4/85 26/2/85 27/3/85
f 12/1/86 11/4/86 25/2/86
f 9/4/19 23/2/19 26/3/19
f 12/4/17 24/2/17 23/3/17
f 7/4/17 22/2/17 21/3/17
f 8/4/15 21/2/15 19/3/15
f 7/1/87 5/4/87 20/2/87
f 6/4/88 19/2/88 17/3/88
f 5/1/89 2/4/89 18/2/89
f 3/4/90 17/2/90 16/3/90
f 2/1/91 1/4/91 15/2/91
f 29/1/1 30/4/1 31/2/1
f 30/1/2 33/4/2 34/2/2
f 33/1/3 35/4/3 36/2/3
f 38/4/4 39/2/4 40/3/4
f 29/4/5 32/2/5 42/3/5
f 41/4/6 42/2/6 39/3/6
f 43/1/7 44/4/7 45/2/7
f 46/1/8 45/4/8 47/2/8
f 48/1/4 47/4/4 49/2/4
f 52/4/3 53/2/3 54/3/3
f 56/4/9 44/2/9 43/3/9
f 53/4/10 56/2/10 55/3/10
f 42/1/82 32/4/82 44/2/82
f 41/4/83 55/2/83 43/3/83
f 39/1/84 42/4/84 56/2/84
f 38/4/85 54/2/85 55/3/85
f 40/1/86 39/4/86 53/2/86
f 37/4/19 51/2/19 54/3/19
f 40/4/17 52/2/17 51/3/17
f 35/4/17 50/2/17 49/3/17
f 36/4/15 49/2/15 47/3/15
f 35/1/87 33/4/87 48/2/87
f 34/4/88 47/2/88 45/3/88
f 33/1/89 30/4/89 46/2/89
f 31/4/90 45/2/90 44/3/90
f 30/1/91 29/4/91 43/2/91
f 57/1/1 58/4/1 59/2/1
f 58/1/2 61/4/2 62/2/2
f 61/1/3 63/4/3 64/2/3
f 66/4/4 67/2/4 68/3/4
f 57/4/5 60/2/5 70/3/5
f 69/4/6 70/2/6 67/3/6
f 71/1/7 72/4/7 73/2/7
f 74/1/8 73/4/8 75/2/8
f 76/1/4 75/4/4 77/2/4
f 80/4/3 81/2/3 82/3/3
f 84/4/9 72/2/9 71/3/9
f 81/4/10 84/2/10 83/3/10
f 70/1/82 60/4/82 72/2/82
f 69/4/83 83/2/83 71/3/83
f 67/1/84 70/4/84 84/2/84
f 66/4/85 82/2/85 83/3/85
f 68/1/86 67/4/86 81/2/86
f 65/4/19 79/2/19 82/3/19
f 68/4/17 80/2/17 79/3/17
f 63/4/17 78/2/17 77/3/17
f 64/4/15 77/2/15 75/3/15
f 63/1/87 61/4/87 76/2/87
f 62/4/88 75/2/88 73/3/88
f 61/1/89 58/4/89 74/2/89
f 59/4/90 73/2/90 72/3/90
f 58/1/91 57/4/91 71/2/91
f 86/5/17 87/8/17 88/6/17
f 89/5/24 90/8/24 87/6/24
f 91/5/25 92/8/25 90/6/25
f 85/5/26 88/8/26 92/6/26
f 87/5/3 90/8/3 92/6/3
f 91/7/4 89/5/4 86/8/4
f 93/9/27 94/9/27 95/9/27
f 94/9/28 97/9/28 98/9/28
f 97/9/92 99/9/92 100/9/92
f 101/9/76 102/9/76 100/9/76
f 103/9/93 104/9/93 102/9/93
f 105/9/32 106/9/32 104/9/32
f 96/9/94 95/9/94 107/9/94
f 95/9/69 98/9/69 109/9/69
f 98/9/95 100/9/95 110/9/95
f 102/9/36 111/9/36 110/9/36
f 104/9/96 112/9/96 111/9/96
f 106/9/97 113/9/97 112/9/97
f 108/9/39 107/9/39 114/9/39
f 107/9/40 109/9/40 116/9/40
f 110/9/41 117/9/41 116/9/41
f 110/9/42 111/9/42 118/9/42
f 112/9/43 119/9/43 118/9/43
f 113/9/44 120/9/44 119/9/44
f 114/9/98 121/9/98 122/9/98
f 116/9/46 123/9/46 121/9/46
f 117/9/99 124/9/99 123/9/99
f 117/9/48 118/9/48 125/9/48
f 118/9/49 119/9/49 126/9/49
f 119/9/100 120/9/100 127/9/100
f 128/9/24 129/9/24 130/9/24
f 128/9/24 131/9/24 105/9/24
f 128/9/24 103/9/24 101/9/24
f 128/9/24 99/9/24 97/9/24
f 94/9/24 93/9/24 132/9/24
f 128/9/24 132/9/24 133/9/24
f 128/9/24 134/9/24 135/9/24
f 121/9/101 134/9/101 133/9/101
f 123/9/102 135/9/102 134/9/102
f 124/9/103 136/9/103 135/9/103
f 124/9/104 125/9/104 128/9/104
f 125/9/105 126/9/105 129/9/105
f 126/9/65 127/9/65 130/9/65
f 137/10/27 138/10/27 139/10/27
f 138/10/28 141/10/28 142/10/28
f 141/10/92 143/10/92 144/10/92
f 145/10/76 146/10/76 144/10/76
f 147/10/106 148/10/106 146/10/106
f 149/10/107 150/10/107 148/10/107
f 140/10/94 139/10/94 151/10/94
f 139/10/69 142/10/69 153/10/69
f 142/10/95 144/10/95 154/10/95
f 146/10/36 155/10/36 154/10/36
f 148/10/37 156/10/37 155/10/37
f 150/10/97 157/10/97 156/10/97
f 151/10/39 158/10/39 159/10/39
f 151/10/40 153/10/40 160/10/40
f 154/10/41 161/10/41 160/10/41
f 154/10/42 155/10/42 162/10/42
f 156/10/43 163/10/43 162/10/43
f 156/10/44 157/10/44 164/10/44
f 158/10/98 165/10/98 166/10/98
f 160/10/46 167/10/46 165/10/46
f 161/10/99 168/10/99 167/10/99
f 161/10/108 162/10/108 169/10/108
f 162/10/49 163/10/49 170/10/49
f 163/10/100 164/10/100 171/10/100
f 173/10/24 174/10/24 175/10/24
f 175/10/24 149/10/24 147/10/24
f 172/10/24 147/10/24 145/10/24
f 172/10/24 143/10/24 141/10/24
f 138/10/24 137/10/24 176/10/24
f 172/10/24 176/10/24 177/10/24
f 172/10/24 178/10/24 179/10/24
f 165/10/60 178/10/60 177/10/60
f 167/10/102 179/10/102 178/10/102
f 168/10/103 180/10/103 179/10/103
f 168/10/104 169/10/104 172/10/104
f 169/10/105 170/10/105 173/10/105
f 170/10/65 171/10/65 174/10/65
f 181/11/27 182/11/27 183/11/27
f 182/11/28 185/11/28 186/11/28
f 185/11/29 187/11/29 188/11/29
f 189/11/76 190/11/76 188/11/76
f 191/11/106 192/11/106 190/11/106
f 193/11/32 194/11/32 192/11/32
f 184/11/94 183/11/94 195/11/94
f 183/11/69 186/11/69 197/11/69
f 186/11/35 188/11/35 198/11/35
f 190/11/77 199/11/77 198/11/77
f 192/11/37 200/11/37 199/11/37
f 194/11/109 201/11/109 200/11/109
f 196/11/39 195/11/39 202/11/39
f 197/11/40 204/11/40 202/11/40
f 197/11/41 198/11/41 205/11/41
f 199/11/42 206/11/42 205/11/42
f 199/11/43 200/11/43 207/11/43
f 201/11/44 208/11/44 207/11/44
f 202/11/98 209/11/98 210/11/98
f 204/11/46 211/11/46 209/11/46
f 205/11/99 212/11/99 211/11/99
f 205/11/48 206/11/48 213/11/48
f 206/11/49 207/11/49 214/11/49
f 207/11/100 208/11/100 215/11/100
f 216/11/24 217/11/24 218/11/24
f 216/11/24 219/11/24 193/11/24
f 216/11/24 191/11/24 189/11/24
f 216/11/24 187/11/24 185/11/24
f 216/11/24 182/11/24 181/11/24
f 216/11/24 220/11/24 221/11/24
f 216/11/24 222/11/24 223/11/24
f 209/11/60 222/11/60 221/11/60
f 211/11/102 223/11/102 222/11/102
f 212/11/103 224/11/103 223/11/103
f 212/11/104 213/11/104 216/11/104
f 213/11/105 214/11/105 217/11/105
f 214/11/65 215/11/65 218/11/65
f 226/12/78 227/12/78 228/12/78
f 227/12/4 229/12/4 230/12/4
f 229/12/79 231/12/79 232/12/79
f 231/12/80 233/12/80 234/12/80
f 235/12/81 226/12/81 225/12/81
f 234/12/3 233/12/3 235/12/3
f 228/12/25 230/12/25 232/12/25
f 232/12/25 234/12/25 238/12/25
f 236/12/81 239/12/81 240/12/81
f 241/12/3 247/12/3 239/12/3
f 242/12/80 248/12/80 247/12/80
f 242/12/79 243/12/79 249/12/79
f 244/12/4 250/12/4 249/12/4
f 244/12/78 237/12/78 240/12/78
f 255/12/17 256/12/17 257/12/17
f 255/12/17 258/12/17 259/12/17
f 246/12/78 255/12/78 260/12/78
f 253/12/4 254/12/4 260/12/4
f 253/12/79 259/12/79 258/12/79
f 252/12/80 258/12/80 257/12/80
f 251/12/3 257/12/3 256/12/3
f 245/12/81 256/12/81 255/12/81
f 235/12/17 237/12/17 226/12/17
f 233/12/17 236/12/17 235/12/17
f 233/12/17 242/12/17 241/12/17
f 229/12/17 242/12/17 231/12/17
f 227/12/17 243/12/17 229/12/17
f 227/12/17 237/12/17 244/12/17
f 239/12/17 246/12/17 240/12/17
f 247/12/17 245/12/17 239/12/17
f 247/12/17 252/12/17 251/12/17
f 249/12/17 252/12/17 248/12/17
f 250/12/17 253/12/17 249/12/17
f 240/12/17 254/12/17 250/12/17
f 235/12/17 236/12/17 237/12/17
f 233/12/17 241/12/17 236/12/17
f 233/12/17 231/12/17 242/12/17
f 229/12/17 243/12/17 242/12/17
f 227/12/17 244/12/17 243/12/17
f 227/12/17 226/12/17 237/12/17
f 239/12/17 245/12/17 246/12/17
f 247/12/17 251/12/17 245/12/17
f 247/12/17 248/12/17 252/12/17
f 249/12/17 253/12/17 252/12/17
f 250/12/17 254/12/17 253/12/17
f 240/12/17 246/12/17 254/12/17
