# Mesh: traffic_cone

# List of geometric vertices
v 0.0000 -0.1884 -0.1671
v 0.0000 0.2418 -0.0388
v 0.0228 0.2418 -0.0314
v 0.0982 -0.1884 -0.1352
v 0.0369 0.2418 -0.0120
v 0.1589 -0.1884 -0.0516
v 0.0369 0.2418 0.0120
v 0.1589 -0.1884 0.0516
v 0.0228 0.2418 0.0314
v 0.0982 -0.1884 0.1352
v 0.0000 0.2418 0.0388
v 0.0000 -0.1884 0.1671
v -0.0228 0.2418 0.0314
v -0.0982 -0.1884 0.1352
v -0.0369 0.2418 0.0120
v -0.1589 -0.1884 0.0516
v -0.0369 0.2418 -0.0120
v -0.1589 -0.1884 -0.0516
v -0.0228 0.2418 -0.0314
v -0.0982 -0.1884 -0.1352
v 0.0000 -0.1884 -0.2166
v -0.1273 -0.1884 -0.1752
v 0.0000 -0.2418 -0.2166
v -0.1273 -0.2418 -0.1752
v -0.2060 -0.1884 -0.0669
v -0.2060 -0.1884 0.0669
v -0.1273 -0.1884 0.1752
v 0.0000 -0.1884 0.2166
v 0.1273 -0.1884 0.1752
v 0.2060 -0.1884 0.0669
v 0.2060 -0.1884 -0.0669
v 0.1273 -0.1884 -0.1752
v 0.1273 -0.2418 -0.1752
v 0.2060 -0.2418 -0.0669
v 0.2060 -0.2418 0.0669
v 0.1273 -0.2418 0.1752
v 0.0000 -0.2418 0.2166
v -0.1273 -0.2418 0.1752
v -0.2060 -0.2418 0.0669
v -0.2060 -0.2418 -0.0669

# List of vertex normals
vn 0.2973 0.2728 -0.9150
vn 0.7783 0.2728 -0.5655
vn 0.9621 0.2728 0.0000
vn 0.7783 0.2728 0.5655
vn 0.2973 0.2728 0.9150
vn -0.2973 0.2728 0.9150
vn -0.7783 0.2728 0.5655
vn -0.9621 0.2728 0.0000
vn 0.0000 1.0000 0.0000
vn -0.2973 0.2728 -0.9150
vn -0.7783 0.2728 -0.5655
vn -0.3090 0.0000 -0.9511
vn 0.0000 -1.0000 -0.0000
vn -0.8090 0.0000 -0.5878
vn -1.0000 0.0000 0.0000
vn -0.8090 0.0000 0.5878
vn -0.3090 0.0000 0.9511
vn 0.3090 0.0000 0.9511
vn 0.8090 -0.0000 0.5878
vn 1.0000 0.0000 0.0000
vn 0.8090 0.0000 -0.5878
vn 0.3090 0.0000 -0.9511

# List of texture coordinates
vt 0.2046 0.5280
vt 0.2483 0.3365
vt 0.2046 0.3365
vt 0.2148 0.5280
vt 0.2754 0.3365
vt 0.2211 0.5280
vt 0.1609 0.3365
vt 0.1945 0.5280
vt 0.1339 0.3365
vt 0.1882 0.5280
vt 0.1479 0.3128
vt 0.1479 0.3365
vt 0.2613 0.3128
vt 0.2963 0.3128
vt 0.2046 0.3128
vt 0.1129 0.3128
vt 0.1129 0.3365
vt 0.2613 0.3365
vt 0.2963 0.3365

# List of polygonal faces
f 2/1/1 4/2/1 1/3/1
f 3/4/2 6/5/2 4/2/2
f 5/6/3 8/5/3 6/5/3
f 7/6/4 10/2/4 8/5/4
f 10/2/5 11/1/5 12/3/5
f 11/1/6 14/7/6 12/3/6
f 13/8/7 16/9/7 14/7/7
f 15/10/8 18/9/8 16/9/8
f 2/1/9 17/10/9 3/4/9
f 3/4/9 15/10/9 13/8/9
f 13/8/9 9/4/9 3/4/9
f 9/4/9 5/6/9 3/4/9
f 19/8/10 1/3/10 20/7/10
f 17/10/11 20/7/11 18/9/11
f 21/3/12 24/11/12 22/12/12
f 33/13/13 35/14/13 23/15/13
f 23/15/13 36/13/13 37/15/13
f 23/15/13 38/11/13 39/16/13
f 39/16/13 24/11/13 23/15/13
f 22/12/14 40/16/14 25/17/14
f 25/17/15 39/16/15 26/17/15
f 27/12/16 39/16/16 38/11/16
f 27/12/17 37/15/17 28/3/17
f 28/3/18 36/13/18 29/18/18
f 29/18/19 35/14/19 30/19/19
f 30/19/20 34/14/20 31/19/20
f 31/19/21 33/13/21 32/18/21
f 32/18/22 23/15/22 21/3/22
f 2/1/1 3/4/1 4/2/1
f 3/4/2 5/6/2 6/5/2
f 5/6/3 7/6/3 8/5/3
f 7/6/4 9/4/4 10/2/4
f 10/2/5 9/4/5 11/1/5
f 11/1/6 13/8/6 14/7/6
f 13/8/7 15/10/7 16/9/7
f 15/10/8 17/10/8 18/9/8
f 2/1/9 19/8/9 17/10/9
f 3/4/9 17/10/9 15/10/9
f 13/8/9 11/1/9 9/4/9
f 9/4/9 7/6/9 5/6/9
f 19/8/10 2/1/10 1/3/10
f 17/10/11 19/8/11 20/7/11
f 21/3/12 23/15/12 24/11/12
f 33/13/13 34/14/13 35/14/13
f 23/15/13 35/14/13 36/13/13
f 23/15/13 37/15/13 38/11/13
f 39/16/13 40/16/13 24/11/13
f 22/12/14 24/11/14 40/16/14
f 25/17/15 40/16/15 39/16/15
f 27/12/16 26/17/16 39/16/16
f 27/12/17 38/11/17 37/15/17
f 28/3/18 37/15/18 36/13/18
f 29/18/19 36/13/19 35/14/19
f 30/19/20 35/14/20 34/14/20
f 31/19/21 34/14/21 33/13/21
f 32/18/22 33/13/22 23/15/22
f 20/7/9 21/3/9 22/12/9
f 18/9/9 22/12/9 25/17/9
f 18/9/9 26/17/9 16/9/9
f 14/7/9 26/17/9 27/12/9
f 14/7/9 28/3/9 12/3/9
f 10/2/9 28/3/9 29/18/9
f 8/5/9 29/18/9 30/19/9
f 6/5/9 30/19/9 31/19/9
f 4/2/9 31/19/9 32/18/9
f 4/2/9 21/3/9 1/3/9
f 20/7/9 1/3/9 21/3/9
f 18/9/9 20/7/9 22/12/9
f 18/9/9 25/17/9 26/17/9
f 14/7/9 16/9/9 26/17/9
f 14/7/9 27/12/9 28/3/9
f 10/2/9 12/3/9 28/3/9
f 8/5/9 10/2/9 29/18/9
f 6/5/9 8/5/9 30/19/9
f 4/2/9 6/5/9 31/19/9
f 4/2/9 32/18/9 21/3/9
