# Mesh: windmill

# List of geometric vertices
v -0.1476 1.4937 0.3794
v -0.1476 1.4937 0.3342
v 0.0014 1.5797 0.3342
v 0.0014 1.5797 0.3794
v -0.1936 1.5733 0.3342
v -0.0446 1.6593 0.3342
v -0.1936 1.5733 0.3794
v -0.0446 1.6593 0.3794
v -1.5467 0.7278 0.3974
v -1.5467 0.7278 0.3690
v -0.0310 1.3786 0.3117
v -0.0310 1.3786 0.4085
v -1.6702 0.8495 0.3690
v -0.2349 1.7318 0.3117
v -1.6702 0.8495 0.3974
v -0.2349 1.7318 0.4085
v 0.3074 1.5733 0.3794
v 0.3074 1.5733 0.3342
v 0.1584 1.6593 0.3342
v 0.1584 1.6593 0.3794
v 0.2614 1.4937 0.3342
v 0.1124 1.5797 0.3342
v 0.2614 1.4937 0.3794
v 0.1124 1.5797 0.3794
v 1.6702 0.7446 0.3974
v 1.6702 0.7446 0.3690
v 0.3487 1.7318 0.3117
v 0.3487 1.7318 0.4085
v 1.6265 0.5767 0.3690
v 0.1448 1.3786 0.3117
v 1.6265 0.5767 0.3974
v 0.1448 1.3786 0.4085
v 0.0109 1.9275 0.3794
v 0.0109 1.9275 0.3342
v 0.0109 1.7554 0.3342
v 0.0109 1.7554 0.3794
v 0.1029 1.9275 0.3342
v 0.1029 1.7554 0.3342
v 0.1029 1.9275 0.3794
v 0.1029 1.7554 0.3794
v 0.0472 3.5221 0.3974
v 0.0472 3.5221 0.3690
v -0.1470 1.8840 0.3117
v -0.1470 1.8840 0.4085
v 0.2144 3.5682 0.3690
v 0.2608 1.8840 0.3117
v 0.2144 3.5682 0.3974
v 0.2608 1.8840 0.4085
v 0.0569 1.7867 0.1280
v 0.0569 1.7867 0.4748
v 0.1353 1.7582 0.4748
v 0.1353 1.7582 0.1280
v 0.1770 1.6860 0.4748
v 0.1770 1.6860 0.1280
v 0.1625 1.6038 0.4748
v 0.1625 1.6038 0.1280
v 0.0986 1.5502 0.4748
v 0.0986 1.5502 0.1280
v 0.0152 1.5502 0.4748
v 0.0152 1.5502 0.1280
v -0.0487 1.6038 0.4748
v -0.0487 1.6038 0.1280
v -0.0632 1.6860 0.4748
v -0.0632 1.6860 0.1280
v -0.0215 1.7582 0.4748
v 0.0327 1.6936 0.5948
v 0.0569 1.7024 0.5948
v -0.0215 1.7582 0.1280
v 0.0811 1.6936 0.5948
v 0.0199 1.6713 0.5948
v 0.0243 1.6460 0.5948
v 0.0440 1.6295 0.5948
v 0.0698 1.6295 0.5948
v 0.0895 1.6460 0.5948
v 0.0940 1.6713 0.5948
v 0.2896 -3.5682 -0.3229
v 0.2896 -3.5682 0.1426
v -0.1758 -3.5682 0.1426
v -0.1758 -3.5682 -0.3229
v 0.2553 -3.4117 -0.2886
v -0.1415 -3.4117 -0.2886
v -0.1415 -3.4117 0.1083
v 0.2553 -3.4117 0.1083
v -0.1268 1.8545 0.1401
v -0.0548 1.7824 -0.5948
v -0.0548 1.5591 -0.5948
v -0.1268 1.4870 0.1401
v 0.1686 1.7824 -0.5948
v 0.1686 1.5591 -0.5948
v 0.2406 1.8545 0.1401
v 0.2406 1.4870 0.1401
v 0.2459 -3.5446 -0.2791
v 0.2459 -3.5446 0.0988
v -0.1321 -3.5446 0.0988
v -0.1321 -3.5446 -0.2791
v 0.1620 1.6905 -0.1953
v -0.0482 1.6905 -0.1953
v -0.0482 1.6905 0.0149
v 0.1620 1.6905 0.0149

# List of vertex normals
vn 0.5000 -0.8660 0.0000
vn 0.0000 0.0000 -1.0000
vn -0.5000 0.8660 0.0000
vn 0.0000 -0.0000 1.0000
vn 0.8660 0.5000 0.0000
vn -0.8660 -0.5000 0.0000
vn 0.3946 -0.9189 0.0000
vn -0.0253 -0.0240 -0.9994
vn -0.0299 -0.0180 -0.9994
vn -0.0303 -0.0175 -0.9994
vn -0.5237 0.8519 0.0000
vn -0.0049 -0.0046 1.0000
vn -0.0058 -0.0035 1.0000
vn -0.0047 -0.0048 1.0000
vn -0.7020 -0.7122 0.0000
vn 0.5000 0.8660 0.0000
vn -0.5000 -0.8660 0.0000
vn -0.8660 0.5000 0.0000
vn 0.8660 -0.5000 0.0000
vn 0.5985 0.8011 0.0000
vn 0.0334 -0.0099 -0.9994
vn 0.0305 -0.0169 -0.9994
vn 0.0303 -0.0175 -0.9994
vn -0.4759 -0.8795 0.0000
vn 0.0064 -0.0019 1.0000
vn 0.0059 -0.0033 1.0000
vn 0.0065 -0.0017 1.0000
vn 0.9678 -0.2518 0.0000
vn -1.0000 0.0000 0.0000
vn 1.0000 -0.0000 0.0000
vn 0.0000 -1.0000 0.0000
vn 0.0000 1.0000 0.0000
vn -0.9930 0.1177 0.0000
vn -0.0081 0.0339 -0.9994
vn -0.0006 0.0349 -0.9994
vn 0.0000 0.0350 -0.9994
vn 0.9996 0.0276 0.0000
vn -0.0016 0.0065 1.0000
vn -0.0001 0.0067 1.0000
vn -0.0018 0.0065 1.0000
vn -0.2658 0.9640 0.0000
vn 0.3420 0.9397 0.0000
vn 0.9848 -0.1736 0.0000
vn 0.6428 -0.7660 0.0000
vn -0.6428 -0.7660 0.0000
vn -0.9848 -0.1737 0.0000
vn -0.2854 0.7841 0.5512
vn -0.3420 0.9397 0.0000
vn -0.7226 0.4172 0.5512
vn -0.8217 -0.1449 0.5512
vn -0.5363 -0.6392 0.5512
vn -0.5364 -0.6392 0.5512
vn 0.0000 -0.8344 0.5512
vn 0.5363 -0.6392 0.5512
vn 0.8217 -0.1449 0.5512
vn 0.7226 0.4172 0.5512
vn 0.2854 0.7841 0.5512
vn -0.0246 -0.0249 -0.9994
vn -0.0058 -0.0034 1.0000
vn 0.0339 -0.0088 -0.9994
vn 0.0058 -0.0034 1.0000
vn -0.0093 0.0338 -0.9994
vn 0.0000 0.0067 1.0000
vn 0.0000 -1.0000 0.0000
vn 0.0000 1.0000 0.0000
vn 0.9768 0.2141 0.0000
vn 0.0000 0.2141 0.9768
vn -0.9768 0.2141 0.0000
vn 0.0000 0.2141 -0.9768
vn -0.9952 -0.0000 -0.0976
vn 0.0000 0.0000 -1.0000
vn 0.9952 -0.0000 -0.0976
vn 0.0000 -0.0000 1.0000
vn 0.0000 -0.9952 -0.0976
vn 0.0000 0.9952 -0.0976
vn 0.9999 0.0160 0.0000
vn 0.0000 0.0160 0.9999
vn -0.9999 0.0160 -0.0000
vn 0.0000 0.0160 -0.9999

# List of texture coordinates
vt 0.9236 0.0665
vt 0.8736 0.1165
vt 0.8736 0.0665
vt 0.9236 0.1165
vt 0.8986 0.1165
vt 0.9233 0.0959
vt 0.9203 0.0790
vt 0.8901 0.0680
vt 0.8770 0.0790
vt 0.8740 0.0959
vt 0.8826 0.1107
vt 0.9147 0.1107
vt 0.9072 0.0680
vt 0.8933 0.0468
vt 0.9433 0.0968
vt 0.8933 0.0968
vt 0.9433 0.0468

# List of polygonal faces
f 2/1/1 4/2/1 1/3/1
f 5/1/2 3/2/2 2/3/2
f 7/1/3 6/2/3 5/3/3
f 7/3/4 4/4/4 8/2/4
f 4/3/5 6/4/5 8/2/5
f 5/1/6 1/2/6 7/3/6
f 10/1/7 12/2/7 9/3/7
f 10/3/8 14/4/9 11/2/10
f 13/3/11 16/4/11 14/2/11
f 9/1/12 16/2/13 15/3/14
f 11/1/5 16/2/5 12/3/5
f 13/1/15 9/2/15 15/3/15
f 18/1/16 20/2/16 17/3/16
f 21/1/2 19/2/2 18/3/2
f 23/1/17 22/2/17 21/3/17
f 23/3/4 20/4/4 24/2/4
f 19/1/18 24/2/18 20/3/18
f 21/1/19 17/2/19 23/3/19
f 26/1/20 28/2/20 25/3/20
f 26/3/21 30/4/22 27/2/23
f 29/3/24 32/4/24 30/2/24
f 25/1/25 32/2/26 31/3/27
f 27/1/18 32/2/18 28/3/18
f 29/1/28 25/2/28 31/3/28
f 34/1/29 36/2/29 33/3/29
f 37/1/2 35/2/2 34/3/2
f 39/1/30 38/2/30 37/3/30
f 33/1/4 40/2/4 39/3/4
f 35/1/31 40/2/31 36/3/31
f 37/1/32 33/2/32 39/3/32
f 42/1/33 44/2/33 41/3/33
f 42/3/34 46/4/35 43/2/36
f 45/3/37 48/4/37 46/2/37
f 41/1/38 48/2/39 47/3/40
f 43/1/31 48/2/31 44/3/31
f 45/1/41 41/2/41 47/3/41
f 49/3/42 51/4/42 52/2/42
f 51/1/5 54/2/5 52/3/5
f 54/3/43 55/4/43 56/2/43
f 55/1/44 58/2/44 56/3/44
f 57/1/31 60/2/31 58/3/31
f 59/1/45 62/2/45 60/3/45
f 61/1/46 64/2/46 62/3/46
f 65/1/47 67/2/47 50/3/47
f 65/1/48 49/2/48 68/3/48
f 63/1/18 68/2/18 64/3/18
f 49/5/2 54/6/2 56/7/2
f 56/7/2 60/8/2 49/5/2
f 49/5/2 62/9/2 64/10/2
f 49/5/2 64/10/2 68/11/2
f 69/5/4 66/6/4 70/7/4
f 70/7/4 72/8/4 69/5/4
f 69/5/4 73/9/4 74/10/4
f 69/5/4 74/10/4 75/11/4
f 63/1/49 66/2/49 65/3/49
f 63/3/50 71/4/50 70/2/50
f 61/3/51 72/4/52 71/2/52
f 59/3/53 73/4/53 72/2/53
f 55/1/54 73/2/54 57/3/54
f 53/1/55 74/2/55 55/3/55
f 53/3/56 69/4/56 75/2/56
f 51/3/57 67/4/57 69/2/57
f 2/1/1 3/4/1 4/2/1
f 5/1/2 6/4/2 3/2/2
f 7/1/3 8/4/3 6/2/3
f 7/3/4 1/1/4 4/4/4
f 4/3/5 3/1/5 6/4/5
f 5/1/6 2/4/6 1/2/6
f 10/1/7 11/4/7 12/2/7
f 10/3/8 13/1/58 14/4/9
f 13/3/11 15/1/11 16/4/11
f 9/1/12 12/4/59 16/2/13
f 11/1/5 14/4/5 16/2/5
f 13/1/15 10/4/15 9/2/15
f 18/1/16 19/4/16 20/2/16
f 21/1/2 22/4/2 19/2/2
f 23/1/17 24/4/17 22/2/17
f 23/3/4 17/1/4 20/4/4
f 19/1/18 22/4/18 24/2/18
f 21/1/19 18/4/19 17/2/19
f 26/1/20 27/4/20 28/2/20
f 26/3/21 29/1/60 30/4/22
f 29/3/24 31/1/24 32/4/24
f 25/1/25 28/4/61 32/2/26
f 27/1/18 30/4/18 32/2/18
f 29/1/28 26/4/28 25/2/28
f 34/1/29 35/4/29 36/2/29
f 37/1/2 38/4/2 35/2/2
f 39/1/30 40/4/30 38/2/30
f 33/1/4 36/4/4 40/2/4
f 35/1/31 38/4/31 40/2/31
f 37/1/32 34/4/32 33/2/32
f 42/1/33 43/4/33 44/2/33
f 42/3/34 45/1/62 46/4/35
f 45/3/37 47/1/37 48/4/37
f 41/1/38 44/4/63 48/2/39
f 43/1/31 46/4/31 48/2/31
f 45/1/41 42/4/41 41/2/41
f 49/3/42 50/1/42 51/4/42
f 51/1/5 53/4/5 54/2/5
f 54/3/43 53/1/43 55/4/43
f 55/1/44 57/4/44 58/2/44
f 57/1/31 59/4/31 60/2/31
f 59/1/45 61/4/45 62/2/45
f 61/1/46 63/4/46 64/2/46
f 65/1/47 66/4/47 67/2/47
f 65/1/48 50/4/48 49/2/48
f 63/1/18 65/4/18 68/2/18
f 49/5/2 52/12/2 54/6/2
f 56/7/2 58/13/2 60/8/2
f 49/5/2 60/8/2 62/9/2
f 69/5/4 67/12/4 66/6/4
f 70/7/4 71/13/4 72/8/4
f 69/5/4 72/8/4 73/9/4
f 63/1/49 70/4/49 66/2/49
f 63/3/50 61/1/50 71/4/50
f 61/3/51 59/1/51 72/4/52
f 59/3/53 57/1/53 73/4/53
f 55/1/54 74/4/54 73/2/54
f 53/1/55 75/4/55 74/2/55
f 53/3/56 51/1/56 69/4/56
f 51/3/57 50/1/57 67/4/57
f 76/14/64 78/15/64 79/16/64
f 81/17/65 83/16/65 80/14/65
f 76/14/66 83/15/66 77/16/66
f 83/17/67 78/16/67 77/14/67
f 82/17/68 79/16/68 78/14/68
f 80/14/69 79/15/69 81/16/69
f 85/17/70 87/16/70 84/14/70
f 88/17/71 86/16/71 85/14/71
f 88/14/72 91/15/72 89/16/72
f 84/17/73 91/16/73 90/14/73
f 86/17/74 91/16/74 87/14/74
f 88/17/75 84/16/75 90/14/75
f 93/17/64 95/16/64 92/14/64
f 97/17/65 99/16/65 96/14/65
f 96/17/76 93/16/76 92/14/76
f 99/17/77 94/16/77 93/14/77
f 98/17/78 95/16/78 94/14/78
f 92/17/79 97/16/79 96/14/79
f 76/14/64 77/17/64 78/15/64
f 81/17/65 82/15/65 83/16/65
f 76/14/66 80/17/66 83/15/66
f 83/17/67 82/15/67 78/16/67
f 82/17/68 81/15/68 79/16/68
f 80/14/69 76/17/69 79/15/69
f 85/17/70 86/15/70 87/16/70
f 88/17/71 89/15/71 86/16/71
f 88/14/72 90/17/72 91/15/72
f 84/17/73 87/15/73 91/16/73
f 86/17/74 89/15/74 91/16/74
f 88/17/75 85/15/75 84/16/75
f 93/17/64 94/15/64 95/16/64
f 97/17/65 98/15/65 99/16/65
f 96/17/76 99/15/76 93/16/76
f 99/17/77 98/15/77 94/16/77
f 98/17/78 97/15/78 95/16/78
f 92/17/79 95/15/79 97/16/79
