# Mesh: books_shop

# List of geometric vertices
v -2.5639 -0.2291 -2.2406
v -2.7166 -1.4578 -2.2406
v -2.7166 -0.2291 -2.2406
v -2.5639 -0.2291 0.0321
v -2.5639 -1.4578 -2.2406
v -2.7166 -0.2291 0.0321
v -2.5639 -1.4578 0.0321
v -2.7166 -1.3939 -0.0402
v -2.7166 -1.3939 -2.1683
v -2.7166 -1.4578 0.0321
v -2.6899 -1.3939 -2.1683
v -2.7166 -0.2929 -2.1683
v -2.6899 -0.2929 -2.1683
v -2.6899 -1.3939 -0.0402
v -2.6899 -0.2929 -0.0402
v -2.7166 -0.2929 -0.0402
v -0.0148 -0.2291 2.7201
v -0.0148 -1.4578 2.5674
v -0.0148 -1.4578 2.7201
v 2.2579 -0.2291 2.5674
v -0.0148 -0.2291 2.5674
v 2.2579 -0.2291 2.7201
v 2.2579 -1.4578 2.5674
v 2.2579 -1.4578 2.7201
v 0.0576 -1.3939 2.7201
v 2.1856 -1.3939 2.7201
v 0.0576 -1.3939 2.6934
v 2.1856 -0.2929 2.7201
v 0.0576 -0.2929 2.7201
v 0.0576 -0.2929 2.6934
v 2.1856 -1.3939 2.6934
v 2.1856 -0.2929 2.6934
v -2.7593 0.1260 -2.6250
v -2.5803 -0.1615 -2.6250
v -2.8380 0.1205 -2.6250
v -3.1551 -0.1054 -2.6250
v -3.0949 -0.0018 -2.6250
v -2.9835 0.0775 -2.6250
v -2.9137 0.1041 -2.6250
v -2.9137 0.1041 0.4470
v -3.0447 0.0418 0.4470
v -2.8380 0.1205 0.4470
v -3.1322 -0.0515 0.4470
v -3.1629 -0.1615 0.4470
v -2.5803 -0.1615 0.4470
v -2.5791 0.1260 0.4470
v -2.7593 0.1260 0.4470
v -3.0447 0.0418 -2.6250
v -2.9835 0.0775 0.4470
v -3.1322 -0.0515 -2.6250
v -3.0949 -0.0018 0.4470
v -3.1551 -0.1054 0.4470
v -3.1629 -0.1615 -2.6250
v -2.5791 0.1260 -2.6250
v -0.4021 0.1260 2.7554
v -0.4021 -0.1615 2.5764
v -0.4021 0.1205 2.8341
v -0.4021 -0.1054 3.1512
v -0.4021 -0.0018 3.0909
v -0.4021 0.0775 2.9796
v -0.4021 0.1041 2.9098
v 2.6698 0.1041 2.9098
v 2.6698 0.0418 3.0407
v 2.6698 0.1205 2.8341
v 2.6698 -0.0515 3.1282
v 2.6698 -0.1615 3.1589
v 2.6698 -0.1615 2.5764
v 2.6698 0.1260 2.5751
v 2.6698 0.1260 2.7554
v -0.4021 0.0418 3.0407
v 2.6698 0.0775 2.9796
v -0.4021 -0.0515 3.1282
v 2.6698 -0.0018 3.0909
v 2.6698 -0.1054 3.1512
v -0.4021 -0.1615 3.1589
v -0.4021 0.1260 2.5751
v -0.8693 2.0166 2.7384
v -2.7497 2.0166 -3.1589
v 3.1529 2.0166 2.7390
v 3.1629 2.0166 -3.1589
v 3.1629 2.0466 -3.1589
v -2.7497 2.0466 0.8704
v 3.1629 2.0466 2.7390
v -0.8693 2.0466 2.7384
v -2.7497 2.0166 0.8704
v -2.7497 2.0466 -3.1589
v -0.8693 1.9370 2.7384
v -2.7497 1.9370 -3.1589
v 3.1529 1.9370 2.7390
v 3.1629 1.9370 -3.1589
v 3.1629 1.9670 -3.1589
v -2.7497 1.9670 0.8704
v 3.1629 1.9670 2.7390
v -0.8693 1.9670 2.7384
v -2.7497 1.9370 0.8704
v -2.7497 1.9670 -3.1589
v -0.8665 0.5369 2.7308
v -2.7420 0.5369 -3.1513
v 3.1452 0.5369 2.7314
v 3.1452 0.5369 -3.1513
v 3.1452 0.5679 -3.1513
v -2.7420 0.5679 0.8676
v 3.1452 0.5679 2.7314
v -0.8665 0.5679 2.7308
v -2.7420 0.5369 0.8676
v -2.7420 0.5679 -3.1513
v -0.8665 0.4429 2.7308
v -2.7420 0.4429 -3.1513
v 3.1452 0.4429 2.7314
v 3.1452 0.4429 -3.1513
v 3.1452 0.4739 -3.1513
v -2.7420 0.4739 0.8676
v 3.1452 0.4739 2.7314
v -0.8665 0.4739 2.7308
v -2.7420 0.4429 0.8676
v -2.7420 0.4739 -3.1513
v -2.0762 -2.1135 1.0980
v -2.3668 -2.1934 1.3886
v -2.3668 -2.1135 1.3886
v -1.1014 -2.1135 2.0729
v -2.0762 -2.1934 1.0980
v -1.3920 -2.1934 2.3635
v -1.1014 -2.1934 2.0729
v -1.3920 -2.1135 2.3635
v -2.1284 -0.1651 1.1576
v -2.3196 -2.1914 1.3488
v -2.3196 -0.1651 1.3488
v -1.1610 -2.1914 2.1250
v -2.1284 -2.1914 1.1576
v -1.1610 -0.1651 2.1250
v -1.3522 -2.1914 2.3162
v -2.2388 -2.1914 1.4296
v -1.3522 -0.1651 2.3162
v -1.4039 -2.1914 2.2101
v -2.2116 -2.1914 1.4024
v -1.4311 -0.2777 2.2373
v -1.4311 -2.1914 2.2373
v -1.4039 -0.2777 2.2101
v -2.2116 -0.2777 1.4024
v -2.2388 -0.2777 1.4296
v -0.8609 0.3540 2.7154
v -2.7266 0.3540 -3.1359
v 3.1299 0.3540 2.7160
v 3.1299 0.3540 -3.1359
v 3.1299 0.6691 -3.1359
v -2.7266 0.6691 0.8619
v 3.1299 0.6691 2.7160
v -0.8609 0.6691 2.7154
v -2.7266 0.3540 0.8619
v -2.7266 0.6691 -3.1359
v -0.8609 -2.1935 2.7154
v -2.7266 -2.1935 -3.1359
v 3.1299 -2.1935 2.7160
v 3.1299 -2.1935 -3.1359
v 3.1299 -1.8784 -3.1359
v -2.7266 -1.8784 0.8619
v 3.1299 -1.8784 2.7160
v -0.8609 -1.8784 2.7154
v -2.7266 -2.1935 0.8619
v -2.7266 -1.8784 -3.1359
v -0.8425 -2.1862 2.6816
v -2.6833 -2.1862 -3.0916
v 3.0949 -2.1862 2.6821
v 3.0949 -2.1862 -3.0916
v 3.1569 1.7961 2.7357
v -0.8593 2.1935 2.7351
v -0.8593 1.7961 2.7351
v 3.1569 1.7961 -3.1536
v 3.1569 2.1935 2.7357
v -2.7369 1.7961 -3.1536
v 3.1569 2.1935 -3.1536
v -2.7369 1.7961 0.8698
v -2.7369 2.1935 -3.1536
v -2.7369 2.1935 0.8698
v 2.6035 2.1935 2.2579
v -0.7095 2.0698 2.2574
v -0.7095 2.1935 2.2574
v 2.6035 2.0698 -2.6003
v -2.2584 2.0698 -2.6003
v -2.2584 2.0698 0.7187
v 2.6035 2.1935 -2.6003
v 2.6035 2.0698 2.2579
v -2.2584 2.1935 -2.6003
v -2.2584 2.1935 0.7187
v -2.6833 -2.1862 0.8528
v 3.0949 1.7961 2.6821
v -0.8425 1.7961 2.6816
v 3.0949 0.6676 2.6821
v -0.8425 0.6676 2.6816
v 3.0949 1.7961 -3.0916
v -2.6833 0.6676 -3.0916
v 3.0949 0.6676 -3.0916
v -2.6833 1.7961 0.8529
v -2.6833 1.7961 -3.0916
v -2.6833 0.6676 0.8529

# List of vertex normals
vn 0.0000 0.0000 -1.0000
vn 1.0000 0.0000 0.0000
vn 0.0000 -0.0000 1.0000
vn -1.0000 0.0000 0.0000
vn 0.0000 -1.0000 -0.0000
vn 0.0000 1.0000 0.0000
vn 0.0001 -0.0002 -1.0000
vn -0.0700 0.9975 0.0000
vn -0.2112 0.9774 0.0000
vn -0.3558 0.9346 0.0000
vn -0.5046 0.8633 0.0000
vn -0.6554 0.7552 0.0000
vn -0.7998 0.6002 0.0000
vn -0.9200 0.3918 0.0000
vn -0.9906 0.1370 0.0000
vn 1.0000 -0.0043 -0.0000
vn -1.0000 0.0001 0.0000
vn 1.0000 -0.0001 0.0000
vn 0.0000 0.9975 0.0700
vn 0.0000 0.9774 0.2112
vn 0.0000 0.9346 0.3558
vn 0.0000 0.8633 0.5046
vn 0.0000 0.7553 0.6554
vn 0.0000 0.6002 0.7998
vn 0.0000 0.3919 0.9200
vn 0.0000 0.1370 0.9906
vn 0.0000 -0.0043 -1.0000
vn -0.7048 0.0000 0.7094
vn 0.9485 -0.3166 0.0016
vn -0.0001 0.0000 1.0000
vn 0.9486 -0.3166 0.0016
vn -0.7071 0.0000 -0.7071
vn 0.7071 0.0000 -0.7071
vn 0.7071 0.0000 0.7071
vn -0.7071 -0.0000 0.7071
vn 0.7086 0.0011 -0.7056
vn 0.7086 0.0012 -0.7056
vn 0.0001 0.0000 -1.0000
vn 0.7048 0.0000 -0.7094
vn -0.9200 0.3919 0.0000
vn -1.0000 0.0000 0.0001
vn 0.7042 -0.0008 -0.7100
vn 0.6875 -0.0237 -0.7258

# List of texture coordinates
vt 0.6855 0.4120
vt 0.6860 0.4070
vt 0.6863 0.4127
vt 0.6784 0.4120
vt 0.6852 0.4077
vt 0.6777 0.4127
vt 0.6781 0.4077
vt 0.6769 0.4066
vt 0.6863 0.4066
vt 0.6773 0.4070
vt 0.6864 0.4065
vt 0.6867 0.4131
vt 0.6728 0.2121
vt 0.6289 0.2371
vt 0.6289 0.2121
vt 0.6772 0.4132
vt 0.6773 0.4131
vt 0.6768 0.4065
vt 0.6868 0.4132
vt 0.6773 0.4002
vt 0.6784 0.4053
vt 0.6777 0.4060
vt 0.6852 0.4010
vt 0.6781 0.4009
vt 0.6860 0.4003
vt 0.6855 0.4053
vt 0.6863 0.4060
vt 0.6773 0.4064
vt 0.6867 0.4063
vt 0.6772 0.4065
vt 0.6863 0.3999
vt 0.6769 0.3999
vt 0.6728 0.1871
vt 0.6864 0.3998
vt 0.6868 0.4065
vt 0.6768 0.3998
vt 0.6720 0.4344
vt 0.6720 0.4062
vt 0.6720 0.4339
vt 0.6720 0.4117
vt 0.6720 0.4219
vt 0.6720 0.4297
vt 0.6720 0.4323
vt 0.9739 0.4323
vt 0.9739 0.4262
vt 0.9739 0.4339
vt 0.9739 0.4170
vt 0.9739 0.4062
vt 0.9739 0.4344
vt 0.6720 0.4262
vt 0.9739 0.4297
vt 0.6720 0.4170
vt 0.9739 0.4219
vt 0.9739 0.4117
vt 0.6734 0.4310
vt 0.6734 0.4030
vt 0.6734 0.4305
vt 0.6734 0.4085
vt 0.6734 0.4186
vt 0.6734 0.4263
vt 0.6734 0.4289
vt 0.9728 0.4289
vt 0.9728 0.4228
vt 0.9728 0.4305
vt 0.9728 0.4137
vt 0.9728 0.4030
vt 0.9728 0.4310
vt 0.6734 0.4228
vt 0.9728 0.4263
vt 0.6734 0.4137
vt 0.9728 0.4186
vt 0.9728 0.4085
vt 0.1924 0.1794
vt 0.1540 0.1515
vt 0.1686 0.1967
vt 0.1449 0.1794
vt 0.1936 0.1467
vt 0.1436 0.1967
vt 0.1436 0.1467
vt 0.6852 0.4242
vt 0.6742 0.4352
vt 0.6742 0.4242
vt 0.6852 0.4352
vt 0.6780 0.4345
vt 0.6818 0.4344
vt 0.6791 0.4345
vt 0.6807 0.4337
vt 0.6802 0.4342
vt 0.6795 0.4336
vt 0.6823 0.4332
vt 0.6828 0.4341
vt 0.6798 0.4327
vt 0.6872 0.4321
vt 0.6830 0.4347
vt 0.6799 0.4325
vt 0.6848 0.4329
vt 0.9773 0.3085
vt 0.8030 0.0165
vt 0.9773 0.0165
vt 0.6790 0.4347
vt 0.6797 0.4319
vt 0.6792 0.4345
vt 0.5164 0.9015
vt 0.4779 0.8735
vt 0.4926 0.9187
vt 0.4688 0.9015
vt 0.4676 0.8687
vt 0.5176 0.9187
vt 0.4676 0.9187
vt 0.5176 0.8687
vt 0.3737 0.9187
vt 0.3352 0.8907
vt 0.3499 0.9360
vt 0.3261 0.9187
vt 0.3749 0.8860
vt 0.3249 0.9360
vt 0.3249 0.8860
vt 0.3362 0.2800
vt 0.2781 0.2800
vt 0.3662 0.2800
vt 0.3222 0.2800
vt 0.5976 0.8889
vt 0.5578 0.8944
vt 0.5578 0.8889
vt 0.5392 0.8889
vt 0.5976 0.8944
vt 0.4808 0.8889
vt 0.5392 0.8944
vt 0.5207 0.8889
vt 0.4808 0.8944
vt 0.5207 0.8944
vt 0.5874 0.8944
vt 0.5546 0.8916
vt 0.5546 0.8944
vt 0.0725 0.1780
vt 0.0690 0.1780
vt 0.0581 0.1780
vt 0.0655 0.1780
vt 0.5874 0.8916
vt 0.4910 0.8944
vt 0.5392 0.8916
vt 0.5239 0.8944
vt 0.4910 0.8916
vt 0.5239 0.8916
vt 0.6728 0.2371
vt 0.6289 0.1871
vt 0.1833 0.1515
vt 0.1936 0.1967
vt 0.8030 0.3085
vt 0.5073 0.8735
vt 0.3646 0.8907
vt 0.3749 0.9360
vt 0.3082 0.2800
vt 0.0799 0.1780
vt 0.5965 0.8889
vt 0.5574 0.8889
vt 0.3662 0.3015
vt 0.3362 0.3230
vt 0.3362 0.3015
vt 0.3222 0.3230
vt 0.3662 0.3230
vt 0.2781 0.3015
vt 0.3222 0.3015
vt 0.3082 0.3230
vt 0.2781 0.3230
vt 0.3082 0.3015
vt 0.4820 0.8889
vt 0.5211 0.8889
vt 0.1044 0.5193
vt 0.5797 0.7260
vt 0.1044 0.7260
vt 0.5797 0.5193

# List of polygonal faces
f 1/1/1 2/2/1 3/3/1
f 4/4/2 5/5/2 1/1/2
f 6/6/3 7/7/3 4/4/3
f 2/2/4 8/8/4 9/9/4
f 5/5/5 10/10/5 2/2/5
f 4/4/6 3/3/6 6/6/6
f 8/8/6 11/11/6 9/9/6
f 2/2/4 12/12/4 3/3/4
f 13/13/4 14/14/4 15/15/4
f 12/12/5 15/16/5 16/17/5
f 16/17/1 14/18/1 8/8/1
f 9/9/3 13/19/3 12/12/3
f 17/20/4 18/21/4 19/22/4
f 20/23/1 18/21/1 21/24/1
f 22/25/2 23/26/2 20/23/2
f 24/27/3 25/28/3 19/22/3
f 18/21/5 24/27/5 19/22/5
f 20/23/6 17/20/6 22/25/6
f 26/29/6 27/30/6 25/28/6
f 17/20/3 28/31/3 22/25/3
f 22/25/3 26/29/3 24/27/3
f 19/22/3 29/32/3 17/20/3
f 30/15/3 31/33/3 32/13/3
f 29/32/5 32/34/5 28/31/5
f 28/31/4 31/35/4 26/29/4
f 25/28/2 30/36/2 29/32/2
f 33/37/1 34/38/1 35/39/1
f 34/38/1 36/40/1 35/39/1
f 36/40/1 37/41/1 35/39/1
f 37/41/1 38/42/1 35/39/1
f 35/39/7 38/42/7 39/43/7
f 40/44/3 41/45/3 42/46/3
f 41/45/3 43/47/3 42/46/3
f 43/47/3 44/48/3 42/46/3
f 42/46/3 45/48/3 46/49/3
f 42/46/3 46/49/3 47/49/3
f 33/37/8 42/46/8 47/49/8
f 39/43/9 42/46/9 35/39/9
f 38/42/10 40/44/10 39/43/10
f 48/50/11 49/51/11 38/42/11
f 37/41/12 41/45/12 48/50/12
f 50/52/13 51/53/13 37/41/13
f 50/52/14 52/54/14 43/47/14
f 53/38/15 52/54/15 36/40/15
f 33/37/6 46/49/6 54/37/6
f 34/38/5 44/48/5 53/38/5
f 34/38/16 46/49/16 45/48/16
f 55/55/4 56/56/4 57/57/4
f 56/56/4 58/58/4 57/57/4
f 58/58/4 59/59/4 57/57/4
f 59/59/4 60/60/4 57/57/4
f 57/57/17 60/60/17 61/61/17
f 62/62/2 63/63/2 64/64/2
f 63/63/2 65/65/2 64/64/2
f 65/65/2 66/66/2 64/64/2
f 64/64/2 67/66/2 68/67/2
f 64/64/18 68/67/18 69/67/18
f 57/57/19 69/67/19 55/55/19
f 61/61/20 64/64/20 57/57/20
f 60/60/21 62/62/21 61/61/21
f 70/68/22 71/69/22 60/60/22
f 59/59/23 63/63/23 70/68/23
f 72/70/24 73/71/24 59/59/24
f 72/70/25 74/72/25 65/65/25
f 75/56/26 74/72/26 58/58/26
f 76/55/6 69/67/6 68/67/6
f 75/56/5 67/66/5 66/66/5
f 76/55/27 67/66/27 56/56/27
f 77/73/5 78/74/5 79/75/5
f 79/75/5 78/74/5 80/76/5
f 81/73/6 82/74/6 83/75/6
f 83/75/6 82/74/6 84/76/6
f 77/77/28 82/78/28 85/79/28
f 85/77/4 86/78/4 78/79/4
f 78/77/1 81/78/1 80/79/1
f 80/77/29 83/78/29 79/79/29
f 79/77/30 84/78/30 77/79/30
f 87/73/5 88/74/5 89/75/5
f 89/75/5 88/74/5 90/76/5
f 91/73/6 92/74/6 93/75/6
f 93/75/6 92/74/6 94/76/6
f 87/77/28 92/78/28 95/79/28
f 95/77/4 96/78/4 88/79/4
f 88/77/1 91/78/1 90/79/1
f 90/77/31 93/78/31 89/79/31
f 89/77/30 94/78/30 87/79/30
f 97/73/5 98/74/5 99/75/5
f 99/75/5 98/74/5 100/76/5
f 101/73/6 102/74/6 103/75/6
f 103/75/6 102/74/6 104/76/6
f 97/77/28 102/78/28 105/79/28
f 105/77/4 106/78/4 98/79/4
f 98/77/1 101/78/1 100/79/1
f 100/77/2 103/78/2 99/79/2
f 99/77/30 104/78/30 97/79/30
f 107/73/5 108/74/5 109/75/5
f 109/75/5 108/74/5 110/76/5
f 111/73/6 112/74/6 113/75/6
f 113/75/6 112/74/6 114/76/6
f 107/77/28 112/78/28 115/79/28
f 115/77/4 116/78/4 108/79/4
f 108/77/1 111/78/1 110/79/1
f 110/77/2 113/78/2 109/79/2
f 109/77/30 114/78/30 107/79/30
f 117/80/32 118/81/32 119/82/32
f 120/80/33 121/81/33 117/82/33
f 120/82/34 122/83/34 123/81/34
f 124/82/35 118/83/35 122/81/35
f 121/80/5 122/81/5 118/82/5
f 124/82/6 117/83/6 119/81/6
f 125/84/32 126/85/32 127/86/32
f 125/84/33 128/87/33 129/88/33
f 130/89/34 131/90/34 128/87/34
f 131/90/36 132/91/37 126/85/36
f 129/88/5 131/90/5 126/85/5
f 130/89/6 127/86/6 133/92/6
f 132/91/6 134/93/6 135/94/6
f 131/90/35 136/95/35 137/96/35
f 138/97/35 135/98/35 134/99/35
f 136/95/5 139/100/5 138/101/5
f 136/95/32 134/93/32 137/96/32
f 132/91/34 139/100/34 140/102/34
f 141/103/5 142/104/5 143/105/5
f 143/105/5 142/104/5 144/106/5
f 145/103/6 146/104/6 147/105/6
f 147/105/6 146/104/6 148/106/6
f 149/107/28 148/108/28 146/109/28
f 149/110/4 150/109/4 142/107/4
f 142/110/1 145/109/1 144/107/1
f 144/110/2 147/109/2 143/107/2
f 143/110/30 148/109/30 141/107/30
f 151/111/5 152/112/5 153/113/5
f 153/113/5 152/112/5 154/114/5
f 155/111/6 156/112/6 157/113/6
f 157/113/6 156/112/6 158/114/6
f 151/115/28 156/116/28 159/117/28
f 159/115/4 160/116/4 152/117/4
f 152/115/1 155/116/1 154/117/1
f 154/115/2 157/116/2 153/117/2
f 153/115/30 158/116/30 151/117/30
f 161/118/5 162/119/5 163/120/5
f 163/120/5 162/119/5 164/121/5
f 165/122/30 166/123/30 167/124/30
f 168/125/2 169/126/2 165/122/2
f 170/127/1 171/128/1 168/125/1
f 172/129/4 173/130/4 170/127/4
f 167/124/28 174/131/28 172/129/28
f 175/132/38 176/133/38 177/134/38
f 176/135/6 178/136/6 179/137/6
f 176/135/6 179/137/6 180/138/6
f 181/128/4 182/139/4 175/132/4
f 183/140/3 178/141/3 181/128/3
f 184/142/2 179/143/2 183/140/2
f 184/142/39 176/133/39 180/144/39
f 1/1/1 5/5/1 2/2/1
f 4/4/2 7/7/2 5/5/2
f 6/6/3 10/10/3 7/7/3
f 2/2/4 10/10/4 8/8/4
f 5/5/5 7/7/5 10/10/5
f 4/4/6 1/1/6 3/3/6
f 8/8/6 14/18/6 11/11/6
f 2/2/4 9/9/4 12/12/4
f 13/13/4 11/145/4 14/14/4
f 12/12/5 13/19/5 15/16/5
f 16/17/1 15/16/1 14/18/1
f 9/9/3 11/11/3 13/19/3
f 17/20/4 21/24/4 18/21/4
f 20/23/1 23/26/1 18/21/1
f 22/25/2 24/27/2 23/26/2
f 24/27/3 26/29/3 25/28/3
f 18/21/5 23/26/5 24/27/5
f 20/23/6 21/24/6 17/20/6
f 26/29/6 31/35/6 27/30/6
f 17/20/3 29/32/3 28/31/3
f 22/25/3 28/31/3 26/29/3
f 19/22/3 25/28/3 29/32/3
f 30/15/3 27/146/3 31/33/3
f 29/32/5 30/36/5 32/34/5
f 28/31/4 32/34/4 31/35/4
f 25/28/2 27/30/2 30/36/2
f 33/37/1 54/37/1 34/38/1
f 34/38/1 53/38/1 36/40/1
f 36/40/1 50/52/1 37/41/1
f 37/41/1 48/50/1 38/42/1
f 40/44/3 49/51/3 41/45/3
f 41/45/3 51/53/3 43/47/3
f 43/47/3 52/54/3 44/48/3
f 42/46/3 44/48/3 45/48/3
f 33/37/8 35/39/8 42/46/8
f 39/43/9 40/44/9 42/46/9
f 38/42/10 49/51/10 40/44/10
f 48/50/11 41/45/11 49/51/11
f 37/41/12 51/53/12 41/45/12
f 50/52/13 43/47/13 51/53/13
f 50/52/40 36/40/40 52/54/40
f 53/38/15 44/48/15 52/54/15
f 33/37/6 47/49/6 46/49/6
f 34/38/5 45/48/5 44/48/5
f 34/38/16 54/37/16 46/49/16
f 55/55/4 76/55/4 56/56/4
f 56/56/4 75/56/4 58/58/4
f 58/58/41 72/70/41 59/59/41
f 59/59/4 70/68/4 60/60/4
f 62/62/2 71/69/2 63/63/2
f 63/63/2 73/71/2 65/65/2
f 65/65/2 74/72/2 66/66/2
f 64/64/2 66/66/2 67/66/2
f 57/57/19 64/64/19 69/67/19
f 61/61/20 62/62/20 64/64/20
f 60/60/21 71/69/21 62/62/21
f 70/68/22 63/63/22 71/69/22
f 59/59/23 73/71/23 63/63/23
f 72/70/24 65/65/24 73/71/24
f 72/70/25 58/58/25 74/72/25
f 75/56/26 66/66/26 74/72/26
f 76/55/6 55/55/6 69/67/6
f 75/56/5 56/56/5 67/66/5
f 76/55/27 68/67/27 67/66/27
f 77/73/5 85/147/5 78/74/5
f 81/73/6 86/147/6 82/74/6
f 77/77/28 84/148/28 82/78/28
f 85/77/4 82/148/4 86/78/4
f 78/77/1 86/148/1 81/78/1
f 80/77/2 81/148/2 83/78/2
f 79/77/30 83/148/30 84/78/30
f 87/73/5 95/147/5 88/74/5
f 91/73/6 96/147/6 92/74/6
f 87/77/28 94/148/28 92/78/28
f 95/77/4 92/148/4 96/78/4
f 88/77/1 96/148/1 91/78/1
f 90/77/2 91/148/2 93/78/2
f 89/77/30 93/148/30 94/78/30
f 97/73/5 105/147/5 98/74/5
f 101/73/6 106/147/6 102/74/6
f 97/77/28 104/148/28 102/78/28
f 105/77/4 102/148/4 106/78/4
f 98/77/1 106/148/1 101/78/1
f 100/77/2 101/148/2 103/78/2
f 99/77/30 103/148/30 104/78/30
f 107/73/5 115/147/5 108/74/5
f 111/73/6 116/147/6 112/74/6
f 107/77/28 114/148/28 112/78/28
f 115/77/4 112/148/4 116/78/4
f 108/77/1 116/148/1 111/78/1
f 110/77/2 111/148/2 113/78/2
f 109/77/30 113/148/30 114/78/30
f 117/80/32 121/83/32 118/81/32
f 120/80/33 123/83/33 121/81/33
f 120/82/34 124/80/34 122/83/34
f 124/82/35 119/80/35 118/83/35
f 121/80/5 123/83/5 122/81/5
f 124/82/6 120/80/6 117/83/6
f 125/84/32 129/88/32 126/85/32
f 125/84/33 130/89/33 128/87/33
f 130/89/34 133/92/34 131/90/34
f 131/90/42 137/96/42 132/91/43
f 129/88/5 128/87/5 131/90/5
f 130/89/6 125/84/6 127/86/6
f 132/91/6 137/96/6 134/93/6
f 131/90/35 133/92/35 136/95/35
f 138/97/35 139/149/35 135/98/35
f 136/95/5 140/102/5 139/100/5
f 136/95/32 138/101/32 134/93/32
f 132/91/34 135/94/34 139/100/34
f 141/103/5 149/150/5 142/104/5
f 145/103/6 150/150/6 146/104/6
f 149/107/28 141/110/28 148/108/28
f 149/110/4 146/108/4 150/109/4
f 142/110/1 150/108/1 145/109/1
f 144/110/2 145/108/2 147/109/2
f 143/110/30 147/108/30 148/109/30
f 151/111/5 159/151/5 152/112/5
f 155/111/6 160/151/6 156/112/6
f 151/115/28 158/152/28 156/116/28
f 159/115/4 156/152/4 160/116/4
f 152/115/1 160/152/1 155/116/1
f 154/115/2 155/152/2 157/116/2
f 153/115/30 157/152/30 158/116/30
f 161/118/5 185/153/5 162/119/5
f 165/122/30 169/126/30 166/123/30
f 168/125/2 171/128/2 169/126/2
f 170/127/1 173/130/1 171/128/1
f 172/129/4 174/131/4 173/130/4
f 167/124/28 166/123/28 174/131/28
f 175/132/38 182/139/38 176/133/38
f 176/135/6 182/154/6 178/136/6
f 181/128/4 178/141/4 182/139/4
f 183/140/3 179/143/3 178/141/3
f 184/142/2 180/144/2 179/143/2
f 184/142/39 177/134/39 176/133/39
f 6/6/4 12/12/4 16/17/4
f 10/10/4 16/17/4 8/8/4
f 133/92/35 140/102/35 136/95/35
f 126/85/35 140/102/35 127/86/35
f 186/155/5 167/124/5 187/156/5
f 188/157/30 187/158/30 189/159/30
f 188/157/2 190/160/2 186/161/2
f 191/162/1 190/160/1 192/163/1
f 191/162/4 193/164/4 194/165/4
f 195/166/28 161/118/28 189/159/28
f 190/125/5 165/122/5 186/155/5
f 190/125/5 170/127/5 168/125/5
f 194/167/5 172/129/5 170/127/5
f 193/168/5 167/124/5 172/129/5
f 166/123/6 175/132/6 177/134/6
f 169/126/6 181/128/6 175/132/6
f 173/130/6 181/128/6 171/128/6
f 174/131/6 183/140/6 173/130/6
f 166/123/6 184/142/6 174/131/6
f 195/169/28 187/170/28 193/171/28
f 162/119/4 195/166/4 191/162/4
f 162/119/1 192/163/1 164/121/1
f 164/121/2 188/157/2 163/120/2
f 163/120/30 189/159/30 161/118/30
f 6/6/4 3/3/4 12/12/4
f 10/10/4 6/6/4 16/17/4
f 133/92/35 127/86/35 140/102/35
f 126/85/35 132/91/35 140/102/35
f 186/155/5 165/122/5 167/124/5
f 188/157/30 186/161/30 187/158/30
f 188/157/2 192/163/2 190/160/2
f 191/162/1 194/165/1 190/160/1
f 191/162/4 195/166/4 193/164/4
f 195/166/28 185/153/28 161/118/28
f 190/125/5 168/125/5 165/122/5
f 190/125/5 194/167/5 170/127/5
f 194/167/5 193/168/5 172/129/5
f 193/168/5 187/156/5 167/124/5
f 166/123/6 169/126/6 175/132/6
f 169/126/6 171/128/6 181/128/6
f 173/130/6 183/140/6 181/128/6
f 174/131/6 184/142/6 183/140/6
f 166/123/6 177/134/6 184/142/6
f 195/169/28 189/172/28 187/170/28
f 162/119/4 185/153/4 195/166/4
f 162/119/1 191/162/1 192/163/1
f 164/121/2 192/163/2 188/157/2
f 163/120/30 188/157/30 189/159/30
