# Mesh: coffee

# List of geometric vertices
v -4.7787 -0.1504 3.1909
v -4.7787 -0.1504 2.5468
v -4.7787 -0.1898 2.5468
v -4.7787 -0.1898 3.1909
v -4.7393 -0.1504 2.5468
v -4.7393 -0.1898 2.5468
v -4.7393 -0.1504 3.1909
v -4.7393 -0.1898 3.1909
v -2.3257 -0.1504 3.1909
v -2.3257 -0.1504 2.5468
v -2.3257 -0.1898 2.5468
v -2.3257 -0.1898 3.1909
v -2.2863 -0.1504 2.5468
v -2.2863 -0.1898 2.5468
v -2.2863 -0.1504 3.1909
v -2.2863 -0.1898 3.1909
v -4.7804 -0.0063 3.1734
v -4.7804 0.4691 2.5365
v -4.7804 0.4259 2.5116
v -4.7804 -0.0495 3.1485
v -2.2815 -0.0063 3.1734
v -4.7804 -0.1929 3.2234
v -2.2815 -0.1929 3.2234
v -2.2815 0.4691 2.5365
v -2.2815 0.4259 2.5116
v -4.7804 -0.2361 3.1985
v -2.2815 -0.0495 3.1485
v -2.2815 -0.2197 3.2698
v -4.7804 -0.2197 3.2698
v -4.7804 -0.2629 3.2448
v -2.2815 -0.2629 3.2448
v -2.2815 -0.2361 3.1985
v -1.0957 -0.0000 2.6186
v -1.0957 -0.0000 2.4320
v -1.0957 -1.8373 2.4320
v -1.0957 -1.8373 2.6186
v 0.4792 -0.0000 2.4320
v 0.4792 -1.8373 2.4320
v 0.4792 -0.0000 2.6186
v 0.4792 -1.8373 2.6186
v 4.3062 0.5465 1.7966
v 4.3062 0.5465 0.7468
v 4.3062 -0.0858 0.7468
v 4.3062 -0.0858 1.7966
v 5.0854 0.0231 0.7468
v 5.0854 -0.0858 0.7468
v 5.0854 0.0231 1.7966
v 5.0854 -0.0858 1.7966
v 4.3062 0.5465 -1.3975
v 4.3062 0.5465 -2.4473
v 4.3062 -0.0858 -2.4473
v 4.3062 -0.0858 -1.3975
v 5.0854 0.0231 -2.4473
v 5.0854 -0.0858 -2.4473
v 5.0854 0.0231 -1.3975
v 5.0854 -0.0858 -1.3975
v 4.3062 0.5465 0.1935
v 4.3062 0.5465 -0.8564
v 4.3062 -0.0858 -0.8564
v 4.3062 -0.0858 0.1935
v 5.0854 0.0231 -0.8564
v 5.0854 -0.0858 -0.8564
v 5.0854 0.0231 0.1935
v 5.0854 -0.0858 0.1935
v 1.6717 -0.1504 3.1909
v 1.6717 -0.1504 2.5468
v 1.6717 -0.1898 2.5468
v 1.6717 -0.1898 3.1909
v 1.7110 -0.1504 2.5468
v 1.7110 -0.1898 2.5468
v 1.7110 -0.1504 3.1909
v 1.7110 -0.1898 3.1909
v 4.1246 -0.1504 3.1909
v 4.1246 -0.1504 2.5468
v 4.1246 -0.1898 2.5468
v 4.1246 -0.1898 3.1909
v 4.1640 -0.1504 2.5468
v 4.1640 -0.1898 2.5468
v 4.1640 -0.1504 3.1909
v 4.1640 -0.1898 3.1909
v 1.6699 -0.0063 3.1734
v 1.6699 0.4691 2.5365
v 1.6699 0.4259 2.5116
v 1.6699 -0.0495 3.1485
v 4.1688 -0.0063 3.1734
v 1.6699 -0.1929 3.2234
v 4.1688 -0.1929 3.2234
v 4.1688 0.4691 2.5365
v 4.1688 0.4259 2.5116
v 1.6699 -0.2361 3.1985
v 4.1688 -0.0495 3.1485
v 4.1688 -0.2197 3.2698
v 1.6699 -0.2197 3.2698
v 1.6699 -0.2629 3.2448
v 4.1688 -0.2629 3.2448
v 4.1688 -0.2361 3.1985
v 4.4415 -0.1701 -1.5324
v 4.3057 -0.1701 -1.5324
v 4.3057 -1.2200 -1.5324
v 4.4415 -1.2200 -1.5324
v 4.3057 -0.1701 -2.3237
v 4.3057 -1.2200 -2.3237
v 4.4415 -0.1701 -2.3237
v 4.4415 -1.2200 -2.3237
v 4.4415 -0.1701 0.0658
v 4.3057 -0.1701 0.0658
v 4.3057 -1.2200 0.0658
v 4.4415 -1.2200 0.0658
v 4.3057 -0.1701 -0.7256
v 4.3057 -1.2200 -0.7256
v 4.4415 -0.1701 -0.7256
v 4.4415 -1.2200 -0.7256
v 4.4415 -0.1701 1.6712
v 4.3057 -0.1701 1.6712
v 4.3057 -1.2200 1.6712
v 4.4415 -1.2200 1.6712
v 4.3057 -0.1701 0.8799
v 4.3057 -1.2200 0.8799
v 4.4415 -0.1701 0.8799
v 4.4415 -1.2200 0.8799
v -4.4440 -0.1701 2.5812
v -4.4440 -0.1701 2.4454
v -4.4440 -1.2200 2.4454
v -4.4440 -1.2200 2.5812
v -2.6180 -0.1701 2.4454
v -2.6180 -1.2200 2.4454
v -2.6180 -0.1701 2.5812
v -2.6180 -1.2200 2.5812
v 1.9956 -0.1701 2.5812
v 1.9956 -0.1701 2.4454
v 1.9956 -1.2200 2.4454
v 1.9956 -1.2200 2.5812
v 3.8216 -0.1701 2.4454
v 3.8216 -1.2200 2.4454
v 3.8216 -0.1701 2.5812
v 3.8216 -1.2200 2.5812
v -2.0547 0.0827 2.8132
v -2.0547 0.0827 2.1760
v -2.0547 -1.8377 2.1760
v -2.0547 -1.8377 2.8132
v -1.3717 0.0827 2.1760
v -1.3717 -1.8377 2.1760
v -1.3717 0.0827 2.8132
v -1.3717 -1.8377 2.8132
v -1.3717 0.7472 2.8132
v -1.3717 0.7472 2.1760
v -2.0547 0.7472 2.1760
v -2.0547 0.7472 2.8132
v 0.7387 0.0827 2.1760
v 0.7387 0.0827 2.8132
v 1.4364 0.0827 2.1760
v 1.4364 -1.8357 2.1760
v 0.7387 -1.8357 2.1760
v 0.7387 0.7472 2.8132
v 0.7387 0.7472 2.1760
v 1.4364 0.7472 2.1760
v 1.4364 0.7472 2.8132
v 1.4364 0.0827 2.8132
v 0.7387 -1.8357 2.8132
v 1.4364 -1.8357 2.8132
v 4.4689 0.8062 -3.2698
v 4.4689 0.8062 2.6068
v -5.0854 0.8062 2.6068
v -5.0854 0.8062 -3.2698
v -5.0854 1.8377 -3.2698
v -5.0854 1.8377 2.6068
v -5.0316 1.8377 2.5548
v -5.0316 1.8377 -3.2178
v 4.4689 1.8377 -3.2698
v 4.4689 1.8377 2.6068
v -5.0316 1.5281 2.5548
v -5.0316 1.5281 -3.2178
v 4.4151 1.8377 2.5548
v 4.4151 1.8377 -3.2178
v 4.4151 1.5281 -3.2178
v 4.4151 1.5281 2.5548
v 4.4689 -1.8368 -3.2698
v 4.4689 -1.8368 2.6068
v -5.0854 -1.8368 2.6068
v -5.0854 -1.8368 -3.2698
v 4.4689 -1.5756 -3.2698
v -5.0854 -1.5756 -3.2698
v -5.0854 -1.5756 2.6068
v 4.4689 -1.5756 2.6068
v 4.4162 -1.8368 -3.2186
v 4.4162 -1.8368 2.5557
v -5.0327 -1.8368 2.5557
v -5.0327 -1.8368 -3.2186
v -5.0327 1.8377 -3.2186
v -5.0327 1.8377 2.5557
v -4.5975 1.8377 2.1872
v -4.5975 1.8377 -2.8501
v 4.4162 1.8377 -3.2186
v 4.4162 1.8377 2.5557
v -4.5975 1.6309 2.1872
v -4.5975 1.6309 -2.8501
v 3.9810 1.8377 2.1872
v 3.9810 1.8377 -2.8501
v 3.9810 1.6309 -2.8501
v 3.9810 1.6309 2.1872

# List of vertex normals
vn -1.0000 0.0000 0.0000
vn 0.0000 0.0000 -1.0000
vn 1.0000 0.0000 0.0000
vn 0.0000 0.0000 1.0000
vn 0.0000 -1.0000 -0.0000
vn 0.0000 1.0000 0.0000
vn 0.0000 0.2588 0.9659
vn 0.0000 0.5000 -0.8660
vn 0.0000 -0.5000 0.8660
vn 0.0000 -0.8660 -0.5000
vn 0.0000 -0.8013 -0.5982
vn 0.0000 -0.2588 -0.9659
vn 0.0000 0.8013 0.5982
vn 0.0000 0.8660 0.5000
vn 0.5576 0.8301 0.0000

# List of texture coordinates
vt 0.6723 0.3982
vt 0.6723 0.3935
vt 0.6770 0.3982
vt 0.6770 0.3935
vt 0.9678 0.3982
vt 0.9678 0.3935
vt 0.9725 0.3982
vt 0.9725 0.3935
vt 0.6721 0.4156
vt 0.6721 0.4676
vt 0.6721 0.4104
vt 0.9731 0.3931
vt 0.9731 0.4156
vt 0.9731 0.4728
vt 0.6721 0.4728
vt 0.6721 0.3931
vt 0.6721 0.3899
vt 0.9731 0.3847
vt 0.9731 0.3899
vt 0.6721 0.3879
vt 0.6721 0.3847
vt 0.9731 0.4104
vt 0.0000 0.0000
vt 0.7330 0.3079
vt 0.9799 0.0143
vt 0.9799 0.3079
vt 0.6783 0.4396
vt 0.6875 0.4488
vt 0.6783 0.4488
vt 0.6875 0.4396
vt 0.9731 0.3879
vt 0.4560 0.2120
vt 0.4560 0.0146
vt 0.5463 0.0146
vt 0.5463 0.2120
vt 0.4561 0.2120
vt 0.4561 0.0146
vt 0.5464 0.2120
vt 0.5464 0.0146
vt 0.4561 0.2118
vt 0.4561 0.0143
vt 0.7140 0.2118
vt 0.7140 0.0143
vt 0.4563 0.2118
vt 0.4563 0.0143
vt 0.7142 0.2118
vt 0.7142 0.0143
vt 0.1806 0.8423
vt 0.1806 0.8364
vt 0.1785 0.8364
vt 0.1870 0.8423
vt 0.1870 0.8364
vt 0.1892 0.8364
vt 0.2373 0.8882
vt 0.9850 0.8734
vt 0.0170 0.7689
vt 0.9850 0.7689
vt 0.2413 0.8793
vt 0.1913 0.9293
vt 0.1913 0.8793
vt 0.2413 0.9293
vt 0.3916 0.4595
vt 0.3676 0.4595
vt 0.3916 0.4689
vt 0.3676 0.4689
vt 0.1714 0.8848
vt 0.1714 0.8842
vt 0.3687 0.1189
vt 0.3905 0.1189
vt 0.1932 0.8848
vt 0.1932 0.8842
vt 0.9731 0.4676
vt 0.7330 0.0143
vt 0.0170 0.8734
vt 0.1785 0.8423
vt 0.1806 0.8443
vt 0.1785 0.8443
vt 0.1892 0.8423
vt 0.1870 0.8443
vt 0.1892 0.8443
vt 0.1702 0.8848
vt 0.1943 0.8848

# List of polygonal faces
f 2/1/1 4/2/1 1/1/1
f 5/3/2 3/2/2 2/1/2
f 7/3/3 6/4/3 5/3/3
f 1/1/4 8/4/4 7/3/4
f 3/2/5 8/4/5 4/2/5
f 5/3/6 1/1/6 7/3/6
f 10/5/1 12/6/1 9/5/1
f 13/7/2 11/6/2 10/5/2
f 15/7/3 14/8/3 13/7/3
f 9/5/4 16/8/4 15/7/4
f 11/6/5 16/8/5 12/6/5
f 13/7/6 9/5/6 15/7/6
f 17/9/1 19/10/1 20/11/1
f 17/9/7 23/12/7 21/13/7
f 24/14/8 19/10/8 18/15/8
f 20/11/1 22/16/1 17/9/1
f 29/17/9 31/18/9 28/19/9
f 29/17/1 26/20/1 30/21/1
f 26/20/10 31/18/10 30/21/10
f 19/10/11 27/22/11 20/11/11
f 27/22/12 26/20/12 20/11/12
f 24/14/13 17/9/13 21/13/13
f 23/12/14 29/17/14 28/19/14
f 34/23/1 36/23/1 33/23/1
f 37/23/2 35/23/2 34/23/2
f 39/23/3 38/23/3 37/23/3
f 33/24/4 40/25/4 39/26/4
f 35/23/5 40/23/5 36/23/5
f 37/23/6 33/23/6 39/23/6
f 41/27/1 43/28/1 44/29/1
f 45/30/2 43/29/2 42/27/2
f 47/30/3 46/29/3 45/27/3
f 47/27/4 44/28/4 48/29/4
f 43/30/5 48/29/5 44/27/5
f 47/27/15 42/28/15 41/29/15
f 50/30/1 52/29/1 49/27/1
f 53/30/2 51/29/2 50/27/2
f 55/30/3 54/29/3 53/27/3
f 55/27/4 52/28/4 56/29/4
f 51/30/5 56/29/5 52/27/5
f 55/27/15 50/28/15 49/29/15
f 58/30/1 60/29/1 57/27/1
f 61/30/2 59/29/2 58/27/2
f 63/30/3 62/29/3 61/27/3
f 63/27/4 60/28/4 64/29/4
f 59/30/5 64/29/5 60/27/5
f 61/30/15 57/29/15 63/27/15
f 66/1/1 68/2/1 65/1/1
f 69/3/2 67/2/2 66/1/2
f 71/3/3 70/4/3 69/3/3
f 65/1/4 72/4/4 71/3/4
f 67/2/5 72/4/5 68/2/5
f 69/3/6 65/1/6 71/3/6
f 74/5/1 76/6/1 73/5/1
f 77/7/2 75/6/2 74/5/2
f 79/7/3 78/8/3 77/7/3
f 73/5/4 80/8/4 79/7/4
f 75/6/5 80/8/5 76/6/5
f 77/7/6 73/5/6 79/7/6
f 81/9/7 87/12/7 85/13/7
f 88/14/8 83/10/8 82/15/8
f 93/17/9 95/18/9 92/19/9
f 90/20/10 95/18/10 94/21/10
f 83/10/11 91/22/11 84/11/11
f 91/22/12 90/20/12 84/11/12
f 88/14/13 81/9/13 85/13/13
f 87/12/14 93/17/14 92/19/14
f 92/19/3 96/31/3 87/12/3
f 98/32/4 100/33/4 97/32/4
f 98/32/1 102/34/1 99/33/1
f 103/35/2 102/34/2 101/35/2
f 99/33/5 104/34/5 100/33/5
f 101/35/6 97/32/6 103/35/6
f 106/36/4 108/37/4 105/36/4
f 109/38/1 107/37/1 106/36/1
f 111/38/2 110/39/2 109/38/2
f 108/37/5 110/39/5 112/39/5
f 109/38/6 105/36/6 111/38/6
f 114/32/4 116/33/4 113/32/4
f 117/35/1 115/33/1 114/32/1
f 119/35/2 118/34/2 117/35/2
f 115/33/5 120/34/5 116/33/5
f 117/35/6 113/32/6 119/35/6
f 112/39/3 105/36/3 108/37/3
f 116/33/3 119/35/3 113/32/3
f 104/34/3 97/32/3 100/33/3
f 122/40/1 124/41/1 121/40/1
f 125/42/2 123/41/2 122/40/2
f 125/42/3 128/43/3 126/43/3
f 123/41/5 128/43/5 124/41/5
f 125/42/6 121/40/6 127/42/6
f 128/43/4 121/40/4 124/41/4
f 130/44/1 132/45/1 129/44/1
f 133/46/2 131/45/2 130/44/2
f 135/46/3 134/47/3 133/46/3
f 131/45/5 136/47/5 132/45/5
f 133/46/6 129/44/6 135/46/6
f 136/47/4 129/44/4 132/45/4
f 143/48/3 142/49/3 141/48/3
f 139/50/5 144/49/5 140/50/5
f 141/48/5 150/51/5 143/48/5
f 153/52/5 160/53/5 159/52/5
f 149/51/1 159/52/1 150/51/1
f 162/54/5 164/54/5 161/54/5
f 169/54/3 162/54/3 161/54/3
f 170/55/4 163/56/4 162/57/4
f 163/54/1 165/54/1 164/54/1
f 161/54/2 165/54/2 169/54/2
f 167/54/3 172/54/3 168/54/3
f 170/54/6 167/54/6 166/54/6
f 172/54/6 176/54/6 175/54/6
f 173/54/2 171/54/2 167/54/2
f 168/54/4 175/54/4 174/54/4
f 173/54/1 175/54/1 176/54/1
f 178/58/5 180/59/5 177/60/5
f 182/58/6 184/59/6 181/60/6
f 181/58/3 178/59/3 177/60/3
f 184/58/4 179/59/4 178/60/4
f 179/60/1 182/61/1 180/59/1
f 177/58/2 182/59/2 181/60/2
f 186/62/5 188/63/5 185/62/5
f 193/64/3 186/62/3 185/62/3
f 194/64/4 187/63/4 186/62/4
f 187/63/1 189/65/1 188/63/1
f 185/62/2 189/65/2 193/64/2
f 191/66/3 196/67/3 192/66/3
f 196/68/6 200/69/6 199/69/6
f 197/70/2 195/67/2 191/66/2
f 192/66/4 199/71/4 198/70/4
f 198/70/1 200/71/1 197/70/1
f 2/1/1 3/2/1 4/2/1
f 5/3/2 6/4/2 3/2/2
f 7/3/3 8/4/3 6/4/3
f 1/1/4 4/2/4 8/4/4
f 3/2/5 6/4/5 8/4/5
f 5/3/6 2/1/6 1/1/6
f 10/5/1 11/6/1 12/6/1
f 13/7/2 14/8/2 11/6/2
f 15/7/3 16/8/3 14/8/3
f 9/5/4 12/6/4 16/8/4
f 11/6/5 14/8/5 16/8/5
f 13/7/6 10/5/6 9/5/6
f 17/9/1 18/15/1 19/10/1
f 17/9/7 22/16/7 23/12/7
f 24/14/8 25/72/8 19/10/8
f 20/11/1 26/20/1 22/16/1
f 29/17/9 30/21/9 31/18/9
f 29/17/1 22/16/1 26/20/1
f 26/20/10 32/31/10 31/18/10
f 19/10/11 25/72/11 27/22/11
f 27/22/12 32/31/12 26/20/12
f 24/14/13 18/15/13 17/9/13
f 23/12/14 22/16/14 29/17/14
f 34/23/1 35/23/1 36/23/1
f 37/23/2 38/23/2 35/23/2
f 39/23/3 40/23/3 38/23/3
f 33/24/4 36/73/4 40/25/4
f 35/23/5 38/23/5 40/23/5
f 37/23/6 34/23/6 33/23/6
f 41/27/1 42/30/1 43/28/1
f 45/30/2 46/28/2 43/29/2
f 47/30/3 48/28/3 46/29/3
f 47/27/4 41/30/4 44/28/4
f 43/30/5 46/28/5 48/29/5
f 47/27/15 45/30/15 42/28/15
f 50/30/1 51/28/1 52/29/1
f 53/30/2 54/28/2 51/29/2
f 55/30/3 56/28/3 54/29/3
f 55/27/4 49/30/4 52/28/4
f 51/30/5 54/28/5 56/29/5
f 55/27/15 53/30/15 50/28/15
f 58/30/1 59/28/1 60/29/1
f 61/30/2 62/28/2 59/29/2
f 63/30/3 64/28/3 62/29/3
f 63/27/4 57/30/4 60/28/4
f 59/30/5 62/28/5 64/29/5
f 61/30/15 58/28/15 57/29/15
f 66/1/1 67/2/1 68/2/1
f 69/3/2 70/4/2 67/2/2
f 71/3/3 72/4/3 70/4/3
f 65/1/4 68/2/4 72/4/4
f 67/2/5 70/4/5 72/4/5
f 69/3/6 66/1/6 65/1/6
f 74/5/1 75/6/1 76/6/1
f 77/7/2 78/8/2 75/6/2
f 79/7/3 80/8/3 78/8/3
f 73/5/4 76/6/4 80/8/4
f 75/6/5 78/8/5 80/8/5
f 77/7/6 74/5/6 73/5/6
f 81/9/7 86/16/7 87/12/7
f 88/14/8 89/72/8 83/10/8
f 93/17/9 94/21/9 95/18/9
f 90/20/10 96/31/10 95/18/10
f 83/10/11 89/72/11 91/22/11
f 91/22/12 96/31/12 90/20/12
f 88/14/13 82/15/13 81/9/13
f 87/12/14 86/16/14 93/17/14
f 92/19/3 95/18/3 96/31/3
f 98/32/4 99/33/4 100/33/4
f 98/32/1 101/35/1 102/34/1
f 103/35/2 104/34/2 102/34/2
f 99/33/5 102/34/5 104/34/5
f 101/35/6 98/32/6 97/32/6
f 106/36/4 107/37/4 108/37/4
f 109/38/1 110/39/1 107/37/1
f 111/38/2 112/39/2 110/39/2
f 108/37/5 107/37/5 110/39/5
f 109/38/6 106/36/6 105/36/6
f 114/32/4 115/33/4 116/33/4
f 117/35/1 118/34/1 115/33/1
f 119/35/2 120/34/2 118/34/2
f 115/33/5 118/34/5 120/34/5
f 117/35/6 114/32/6 113/32/6
f 112/39/3 111/38/3 105/36/3
f 116/33/3 120/34/3 119/35/3
f 104/34/3 103/35/3 97/32/3
f 122/40/1 123/41/1 124/41/1
f 125/42/2 126/43/2 123/41/2
f 125/42/3 127/42/3 128/43/3
f 123/41/5 126/43/5 128/43/5
f 125/42/6 122/40/6 121/40/6
f 128/43/4 127/42/4 121/40/4
f 130/44/1 131/45/1 132/45/1
f 133/46/2 134/47/2 131/45/2
f 135/46/3 136/47/3 134/47/3
f 131/45/5 134/47/5 136/47/5
f 133/46/6 130/44/6 129/44/6
f 136/47/4 135/46/4 129/44/4
f 143/48/3 144/49/3 142/49/3
f 139/50/5 142/49/5 144/49/5
f 141/48/5 149/51/5 150/51/5
f 153/52/5 152/53/5 160/53/5
f 149/51/1 153/52/1 159/52/1
f 162/54/5 163/54/5 164/54/5
f 169/54/3 170/54/3 162/54/3
f 170/55/4 166/74/4 163/56/4
f 163/54/1 166/54/1 165/54/1
f 161/54/2 164/54/2 165/54/2
f 167/54/3 171/54/3 172/54/3
f 170/54/6 173/54/6 167/54/6
f 172/54/6 171/54/6 176/54/6
f 173/54/2 176/54/2 171/54/2
f 168/54/4 172/54/4 175/54/4
f 173/54/1 174/54/1 175/54/1
f 178/58/5 179/61/5 180/59/5
f 182/58/6 183/61/6 184/59/6
f 181/58/3 184/61/3 178/59/3
f 184/58/4 183/61/4 179/59/4
f 179/60/1 183/58/1 182/61/1
f 177/58/2 180/61/2 182/59/2
f 186/62/5 187/63/5 188/63/5
f 193/64/3 194/64/3 186/62/3
f 194/64/4 190/65/4 187/63/4
f 187/63/1 190/65/1 189/65/1
f 185/62/2 188/63/2 189/65/2
f 191/66/3 195/67/3 196/67/3
f 196/68/6 195/68/6 200/69/6
f 197/70/2 200/71/2 195/67/2
f 192/66/4 196/67/4 199/71/4
f 198/70/1 199/71/1 200/71/1
f 21/13/3 25/72/3 24/14/3
f 27/22/3 23/12/3 32/31/3
f 28/19/3 32/31/3 23/12/3
f 81/9/1 83/10/1 84/11/1
f 84/11/1 86/16/1 81/9/1
f 85/13/3 89/72/3 88/14/3
f 93/17/1 90/20/1 94/21/1
f 91/22/3 87/12/3 96/31/3
f 138/75/1 140/50/1 137/75/1
f 141/48/2 139/50/2 138/75/2
f 137/75/4 144/49/4 143/48/4
f 146/76/6 148/77/6 145/76/6
f 148/77/4 143/48/4 145/76/4
f 146/76/2 138/75/2 147/77/2
f 147/77/1 137/75/1 148/77/1
f 151/78/2 153/52/2 149/51/2
f 143/48/4 154/79/4 145/76/4
f 146/76/2 149/51/2 141/48/2
f 145/76/6 155/79/6 146/76/6
f 156/80/3 158/78/3 151/78/3
f 150/51/4 157/80/4 154/79/4
f 155/79/2 151/78/2 149/51/2
f 154/79/6 156/80/6 155/79/6
f 150/51/4 160/53/4 158/78/4
f 158/78/3 152/53/3 151/78/3
f 165/54/6 167/54/6 168/54/6
f 169/54/6 168/54/6 174/54/6
f 169/54/6 173/54/6 170/54/6
f 189/81/6 191/66/6 192/66/6
f 194/82/6 191/66/6 190/81/6
f 193/82/6 192/66/6 198/70/6
f 193/82/6 197/70/6 194/82/6
f 21/13/3 27/22/3 25/72/3
f 27/22/3 21/13/3 23/12/3
f 28/19/3 31/18/3 32/31/3
f 81/9/1 82/15/1 83/10/1
f 84/11/1 90/20/1 86/16/1
f 85/13/3 91/22/3 89/72/3
f 93/17/1 86/16/1 90/20/1
f 91/22/3 85/13/3 87/12/3
f 138/75/1 139/50/1 140/50/1
f 141/48/2 142/49/2 139/50/2
f 137/75/4 140/50/4 144/49/4
f 146/76/6 147/77/6 148/77/6
f 148/77/4 137/75/4 143/48/4
f 146/76/2 141/48/2 138/75/2
f 147/77/1 138/75/1 137/75/1
f 151/78/2 152/53/2 153/52/2
f 143/48/4 150/51/4 154/79/4
f 146/76/2 155/79/2 149/51/2
f 145/76/6 154/79/6 155/79/6
f 156/80/3 157/80/3 158/78/3
f 150/51/4 158/78/4 157/80/4
f 155/79/2 156/80/2 151/78/2
f 154/79/6 157/80/6 156/80/6
f 150/51/4 159/52/4 160/53/4
f 158/78/3 160/53/3 152/53/3
f 165/54/6 166/54/6 167/54/6
f 169/54/6 165/54/6 168/54/6
f 169/54/6 174/54/6 173/54/6
f 189/81/6 190/81/6 191/66/6
f 194/82/6 197/70/6 191/66/6
f 193/82/6 189/81/6 192/66/6
f 193/82/6 198/70/6 197/70/6
