# Mesh: drug_store

# List of geometric vertices
v -2.9414 1.7058 2.0181
v -2.9414 1.7058 1.9403
v -2.9414 0.9167 1.9403
v -2.9414 0.9167 2.0181
v 2.9414 1.7058 1.9403
v 2.9414 0.9167 1.9403
v 2.9414 1.7058 2.0181
v 2.9414 0.9167 2.0181
v -2.8845 0.2426 2.7748
v -2.8845 0.5220 1.9472
v -2.8845 0.1252 1.9472
v -2.8845 0.1252 2.7748
v 2.8845 0.5220 1.9472
v 2.8845 0.1252 1.9472
v 2.8845 0.2426 2.7748
v 2.8845 0.1252 2.7748
v -2.1485 -0.1056 2.0316
v -2.1485 -0.1056 1.9804
v -2.1485 -1.2845 1.9804
v -2.1485 -1.2845 2.0316
v -1.2860 -0.1056 1.9804
v -1.2860 -1.2845 1.9804
v -1.2860 -0.1056 2.0316
v -1.2860 -1.2845 2.0316
v 1.2831 -0.1056 2.0316
v 1.2831 -0.1056 1.9804
v 1.2831 -1.2845 1.9804
v 1.2831 -1.2845 2.0316
v 2.1456 -0.1056 1.9804
v 2.1456 -1.2845 1.9804
v 2.1456 -0.1056 2.0316
v 2.1456 -1.2845 2.0316
v -2.9156 -1.5439 2.0199
v -2.9156 -1.5439 -2.7511
v -2.9156 -1.7058 -2.7511
v -2.9156 -1.7058 2.0199
v 2.9156 -1.5439 -2.7511
v 2.9156 -1.7058 -2.7511
v 2.9156 -1.5439 2.0199
v 2.9156 -1.7058 2.0199
v -0.5795 0.0505 2.0561
v -0.5795 0.0504 1.8935
v -0.5795 -1.7017 1.8935
v -0.5795 -1.7017 2.0561
v 0.5795 0.0504 1.8935
v 0.5795 -1.7017 1.8935
v 0.5795 0.0505 2.0561
v 0.5795 -1.7017 2.0561
v 0.4886 -1.7019 2.0561
v -0.4886 -1.7019 2.0561
v 0.4886 -1.7019 2.0272
v -0.4886 -1.7019 2.0272
v -0.4886 -0.0387 2.0561
v 0.4886 -0.0387 2.0561
v 0.4886 -0.0387 2.0272
v -0.4886 -0.0387 2.0272
v -2.8871 0.6230 1.9966
v -2.8871 0.6230 -2.7278
v -2.8871 -1.7046 -2.7278
v -2.8871 -1.7046 1.9966
v 2.8871 0.6230 -2.7278
v 2.8871 -1.7046 -2.7278
v 2.8871 0.6230 1.9966
v 2.8871 -1.7046 1.9966
v 2.9446 0.6230 2.0436
v -2.9446 0.6230 2.0436
v 2.9446 0.9229 2.0436
v -2.9446 0.9229 2.0436
v 2.9446 0.6230 -2.7748
v -2.9446 0.6230 -2.7748
v 2.6069 0.9229 1.7673
v -2.6069 0.9229 1.7673
v 2.9446 0.9229 -2.7748
v -2.9446 0.9229 -2.7748
v 2.6069 0.7654 1.7673
v -2.6069 0.7654 1.7673
v 2.6069 0.9229 -2.4985
v -2.6069 0.9229 -2.4985
v 2.6069 0.7654 -2.4985
v -2.6069 0.7654 -2.4985

# List of vertex normals
vn -1.0000 0.0000 0.0000
vn 0.0000 0.0000 -1.0000
vn 1.0000 -0.0000 0.0000
vn 0.0000 -0.0000 1.0000
vn 0.0000 -1.0000 0.0000
vn 0.0000 1.0000 0.0000
vn 0.0000 0.9474 0.3199

# List of texture coordinates
vt 0.2922 0.4736
vt 0.2717 0.4990
vt 0.2675 0.4535
vt 0.2952 0.4763
vt 0.2906 0.4767
vt 0.3174 0.4535
vt 0.2933 0.4785
vt 0.0354 0.7259
vt 0.9595 0.6020
vt 0.9595 0.7259
vt 0.3146 0.4990
vt 0.6728 0.4264
vt 0.6728 0.4197
vt 0.9729 0.4423
vt 0.6728 0.4423
vt 0.9729 0.4264
vt 0.9729 0.4197
vt 0.5085 0.2208
vt 0.5189 0.2303
vt 0.4992 0.2303
vt 0.5095 0.2198
vt 0.5097 0.2216
vt 0.5003 0.2110
vt 0.5107 0.2205
vt 0.4010 0.2462
vt 0.5691 0.0165
vt 0.5691 0.2462
vt 0.5200 0.2110
vt 0.5097 0.2002
vt 0.5010 0.2110
vt 0.4992 0.1917
vt 0.5110 0.2014
vt 0.5090 0.2016
vt 0.5204 0.1917
vt 0.5102 0.2023
vt 0.4013 0.2453
vt 0.5675 0.0181
vt 0.5675 0.2453
vt 0.5192 0.2110
vt 0.4086 0.8793
vt 0.4586 0.9293
vt 0.4086 0.9293
vt 0.4586 0.8793
vt 0.7016 0.8570
vt 0.6995 0.8550
vt 0.7007 0.8567
vt 0.6998 0.8567
vt 0.7001 0.8560
vt 0.6968 0.8551
vt 0.6989 0.8560
vt 0.6994 0.8550
vt 0.6987 0.8572
vt 0.6950 0.8544
vt 0.6995 0.8544
vt 0.8029 0.3096
vt 0.9758 0.0152
vt 0.9758 0.3096
vt 0.7006 0.8566
vt 0.6983 0.8577
vt 0.6986 0.8572
vt 0.6948 0.8544
vt 0.7009 0.8568
vt 0.3903 0.2230
vt 0.3323 0.2810
vt 0.3323 0.2230
vt 0.4450 0.8753
vt 0.3870 0.9333
vt 0.3870 0.8753
vt 0.4450 0.9333
vt 0.6774 0.1624
vt 0.6194 0.2204
vt 0.6194 0.1624
vt 0.0354 0.6020
vt 0.4010 0.0165
vt 0.4013 0.0181
vt 0.8029 0.0152
vt 0.3903 0.2810
vt 0.6774 0.2204

# List of polygonal faces
f 2/1/1 4/2/1 1/3/1
f 5/4/2 3/5/2 2/1/2
f 7/6/3 6/7/3 5/4/3
f 1/8/4 8/9/4 7/10/4
f 3/5/5 8/11/5 4/2/5
f 5/4/6 1/3/6 7/6/6
f 9/12/1 11/13/1 12/13/1
f 13/14/2 11/13/2 10/15/2
f 15/16/3 14/17/3 13/14/3
f 9/12/4 16/17/4 15/16/4
f 11/13/5 16/17/5 12/13/5
f 13/14/7 9/12/7 15/16/7
f 18/18/1 20/19/1 17/20/1
f 21/21/2 19/22/2 18/18/2
f 23/23/3 22/24/3 21/21/3
f 17/25/4 24/26/4 23/27/4
f 19/22/5 24/28/5 20/19/5
f 21/21/6 17/20/6 23/23/6
f 26/29/1 28/30/1 25/31/1
f 29/32/2 27/33/2 26/29/2
f 31/34/3 30/35/3 29/32/3
f 25/36/4 32/37/4 31/38/4
f 27/33/5 32/39/5 28/30/5
f 29/32/6 25/31/6 31/34/6
f 33/40/1 35/41/1 36/42/1
f 37/43/2 35/42/2 34/40/2
f 39/43/3 38/42/3 37/40/3
f 33/43/4 40/42/4 39/40/4
f 35/43/5 40/42/5 36/40/5
f 37/43/6 33/42/6 39/40/6
f 42/44/1 44/45/1 41/46/1
f 45/47/2 43/48/2 42/44/2
f 45/47/3 48/49/3 46/50/3
f 48/49/2 50/51/2 44/45/2
f 43/48/5 48/49/5 44/45/5
f 45/47/6 41/46/6 47/52/6
f 49/53/6 52/54/6 50/51/6
f 56/55/4 51/56/4 55/57/4
f 53/58/5 55/59/5 54/60/5
f 54/60/1 51/61/1 49/53/1
f 50/51/3 56/62/3 53/58/3
f 58/63/1 60/64/1 57/65/1
f 61/63/2 59/64/2 58/65/2
f 63/63/3 62/64/3 61/65/3
f 57/63/4 64/64/4 63/65/4
f 59/63/5 64/64/5 60/65/5
f 63/66/5 66/67/5 57/68/5
f 65/66/4 68/67/4 66/68/4
f 61/66/5 65/67/5 63/68/5
f 58/66/5 69/67/5 61/68/5
f 58/68/5 66/69/5 70/67/5
f 69/66/3 67/67/3 65/68/3
f 70/66/2 73/67/2 69/68/2
f 66/66/1 74/67/1 70/68/1
f 71/66/2 76/67/2 72/68/2
f 79/70/6 76/71/6 75/72/6
f 77/66/1 75/67/1 71/68/1
f 78/66/4 79/67/4 77/68/4
f 72/66/3 80/67/3 78/68/3
f 2/1/1 3/5/1 4/2/1
f 5/4/2 6/7/2 3/5/2
f 7/6/3 8/11/3 6/7/3
f 1/8/4 4/73/4 8/9/4
f 3/5/5 6/7/5 8/11/5
f 5/4/6 2/1/6 1/3/6
f 9/12/1 10/15/1 11/13/1
f 13/14/2 14/17/2 11/13/2
f 15/16/3 16/17/3 14/17/3
f 9/12/4 12/13/4 16/17/4
f 11/13/5 14/17/5 16/17/5
f 13/14/7 10/15/7 9/12/7
f 18/18/1 19/22/1 20/19/1
f 21/21/2 22/24/2 19/22/2
f 23/23/3 24/28/3 22/24/3
f 17/25/4 20/74/4 24/26/4
f 19/22/5 22/24/5 24/28/5
f 21/21/6 18/18/6 17/20/6
f 26/29/1 27/33/1 28/30/1
f 29/32/2 30/35/2 27/33/2
f 31/34/3 32/39/3 30/35/3
f 25/36/4 28/75/4 32/37/4
f 27/33/5 30/35/5 32/39/5
f 29/32/6 26/29/6 25/31/6
f 33/40/1 34/43/1 35/41/1
f 37/43/2 38/41/2 35/42/2
f 39/43/3 40/41/3 38/42/3
f 33/43/4 36/41/4 40/42/4
f 35/43/5 38/41/5 40/42/5
f 37/43/6 34/41/6 33/42/6
f 42/44/1 43/48/1 44/45/1
f 45/47/2 46/50/2 43/48/2
f 45/47/3 47/52/3 48/49/3
f 48/49/2 49/53/2 50/51/2
f 43/48/5 46/50/5 48/49/5
f 45/47/6 42/44/6 41/46/6
f 49/53/6 51/61/6 52/54/6
f 56/55/4 52/76/4 51/56/4
f 53/58/5 56/62/5 55/59/5
f 54/60/1 55/59/1 51/61/1
f 50/51/3 52/54/3 56/62/3
f 58/63/1 59/77/1 60/64/1
f 61/63/2 62/77/2 59/64/2
f 63/63/3 64/77/3 62/64/3
f 57/63/4 60/77/4 64/64/4
f 59/63/5 62/77/5 64/64/5
f 63/66/5 65/69/5 66/67/5
f 65/66/4 67/69/4 68/67/4
f 61/66/5 69/69/5 65/67/5
f 58/66/5 70/69/5 69/67/5
f 58/68/5 57/66/5 66/69/5
f 69/66/3 73/69/3 67/67/3
f 70/66/2 74/69/2 73/67/2
f 66/66/1 68/69/1 74/67/1
f 71/66/2 75/69/2 76/67/2
f 79/70/6 80/78/6 76/71/6
f 77/66/1 79/69/1 75/67/1
f 78/66/4 80/69/4 79/67/4
f 72/66/3 76/69/3 80/67/3
f 47/52/4 53/58/4 54/60/4
f 48/49/4 54/60/4 49/53/4
f 44/45/4 53/58/4 41/46/4
f 68/68/6 71/69/6 72/67/6
f 73/66/6 71/67/6 67/68/6
f 74/66/6 77/67/6 73/68/6
f 74/68/6 72/69/6 78/67/6
f 47/52/4 41/46/4 53/58/4
f 48/49/4 47/52/4 54/60/4
f 44/45/4 50/51/4 53/58/4
f 68/68/6 67/66/6 71/69/6
f 73/66/6 77/69/6 71/67/6
f 74/66/6 78/69/6 77/67/6
f 74/68/6 68/66/6 72/69/6
