# Mesh: house_4

# List of geometric vertices
v -5.1642 -1.8661 2.6713
v -5.1642 -1.8661 1.7789
v -5.1642 -1.9553 1.7789
v -5.1642 -1.9553 2.6713
v -3.3795 -1.8661 1.7789
v -3.3795 -1.9553 1.7789
v -3.3795 -1.8661 2.6713
v -3.3795 -1.9553 2.6713
v -4.7181 -0.4773 1.8364
v -4.7181 -0.4773 1.7020
v -4.7181 -1.9497 1.7020
v -4.7181 -1.9497 1.8364
v -3.8257 -0.4773 1.7020
v -3.8257 -1.9497 1.7020
v -3.8257 -0.4773 1.8364
v -3.8257 -1.9497 1.8364
v -3.8707 -1.9042 1.8364
v -4.6731 -1.9042 1.8364
v -3.8707 -1.9042 1.8146
v -4.6731 -1.9042 1.8146
v -4.6731 -0.5227 1.8364
v -3.8707 -0.5227 1.8364
v -3.8707 -0.5227 1.8146
v -4.6731 -0.5227 1.8146
v 6.4980 -0.1605 0.4537
v 6.4980 -0.1605 -0.4526
v 6.2749 -0.1605 -0.4526
v 6.2749 -0.1605 0.4537
v 6.4980 -2.0657 -0.1052
v 6.2749 -2.0657 -0.1052
v 6.4980 -2.0657 0.1062
v 6.2749 -2.0657 0.1062
v 6.4980 -0.1605 3.1105
v 6.4980 -0.1605 2.2041
v 6.2749 -0.1605 2.2041
v 6.2749 -0.1605 3.1105
v 6.4980 -2.0657 2.5516
v 6.2749 -2.0657 2.5516
v 6.4980 -2.0657 2.7630
v 6.2749 -2.0657 2.7630
v 2.1752 -0.1041 2.7897
v 2.1752 -0.1041 -0.1227
v 1.9522 -0.1041 -0.1227
v 1.9522 -0.1041 2.7897
v 2.1752 -2.0093 1.2278
v 1.9522 -2.0093 1.2278
v 2.1752 -2.0093 1.4392
v 1.9522 -2.0093 1.4392
v 1.9296 0.0568 3.1146
v 1.9296 0.0568 -0.4549
v 1.9296 -0.1663 -0.4549
v 1.9296 -0.1663 3.1146
v 6.5018 0.0568 -0.4549
v 6.5018 -0.1663 -0.4549
v 6.5018 0.0568 3.1146
v 6.5018 -0.1663 3.1146
v -1.7764 0.0567 2.8149
v -1.7764 0.0567 1.4784
v -1.7764 -0.1664 1.4784
v -1.7764 -0.1664 2.8149
v -0.0734 0.0567 1.4784
v -0.0734 -0.1664 1.4784
v -0.0734 0.0567 2.8149
v -0.0734 -0.1664 2.8149
v -0.9464 -0.1987 2.4835
v -0.9464 -0.1987 2.4431
v -0.9464 -1.8814 2.4431
v -0.9464 -1.8814 2.4835
v -0.9061 -0.1987 2.4431
v -0.9061 -1.8814 2.4431
v -0.9061 -0.1987 2.4835
v -0.9061 -1.8814 2.4835
v -1.6084 -0.1637 2.4858
v -1.6084 -0.1637 2.3514
v -1.6084 -1.9056 2.3514
v -1.6084 -1.9056 2.4858
v -0.2595 -0.1637 2.3514
v -0.2595 -1.9056 2.3514
v -0.2595 -0.1637 2.4858
v -0.2595 -1.9056 2.4858
v -0.3045 -1.8601 2.4858
v -1.5634 -1.8601 2.4858
v -0.3045 -1.8601 2.4640
v -1.5634 -1.8601 2.4640
v -1.5634 -0.2092 2.4858
v -0.3045 -0.2092 2.4858
v -0.3045 -0.2092 2.4640
v -1.5634 -0.2092 2.4640
v -0.9464 1.8124 2.4835
v -0.9464 1.8124 2.4431
v -0.9464 0.0780 2.4431
v -0.9464 0.0780 2.4835
v -0.9061 1.8124 2.4431
v -0.9061 0.0780 2.4431
v -0.9061 1.8124 2.4835
v -0.9061 0.0780 2.4835
v -1.6084 1.8474 2.4858
v -1.6084 1.8474 2.3514
v -1.6084 0.0538 2.3514
v -1.6084 0.0538 2.4858
v -0.2595 1.8474 2.3514
v -0.2595 0.0538 2.3514
v -0.2595 1.8474 2.4858
v -0.2595 0.0538 2.4858
v -0.3045 0.0993 2.4858
v -1.5634 0.0993 2.4858
v -0.3045 0.0993 2.4640
v -1.5634 0.0993 2.4640
v -1.5634 1.8019 2.4858
v -0.3045 1.8019 2.4858
v -0.3045 1.8019 2.4640
v -1.5634 1.8019 2.4640
v -4.0653 1.8124 2.2675
v -4.0653 1.8124 2.2271
v -4.0653 0.0780 2.2271
v -4.0653 0.0780 2.2675
v -4.0250 1.8124 2.2271
v -4.0250 0.0780 2.2271
v -4.0250 1.8124 2.2675
v -4.0250 0.0780 2.2675
v -4.7275 1.8124 2.2675
v -4.7275 1.8124 2.2271
v -4.7275 0.0780 2.2271
v -4.7275 0.0780 2.2675
v -4.6872 1.8124 2.2271
v -4.6872 0.0780 2.2271
v -4.6872 1.8124 2.2675
v -4.6872 0.0780 2.2675
v -5.3895 1.8474 2.2698
v -5.3895 1.8474 2.1354
v -5.3895 0.0538 2.1354
v -5.3895 0.0538 2.2698
v -3.3780 1.8474 2.1354
v -3.3780 0.0538 2.1354
v -3.3780 1.8474 2.2698
v -3.3780 0.0538 2.2698
v -3.4230 0.0993 2.2698
v -5.3445 0.0993 2.2698
v -3.4230 0.0993 2.2479
v -5.3445 0.0993 2.2479
v -5.3445 1.8019 2.2698
v -3.4230 1.8019 2.2698
v -3.4230 1.8019 2.2479
v -5.3445 1.8019 2.2479
v -5.6530 1.1317 0.0910
v -5.6127 1.1317 0.0910
v -5.6127 0.5516 0.0910
v -5.6530 0.5516 0.0910
v -5.6127 1.1317 0.1313
v -5.6127 0.5516 0.1313
v -5.6530 1.1317 0.1313
v -5.6530 0.5516 0.1313
v -5.6554 1.1667 -0.5710
v -5.5210 1.1667 -0.5710
v -5.5210 0.5275 -0.5710
v -5.6554 0.5275 -0.5710
v -5.5210 1.1667 0.7779
v -5.5210 0.5275 0.7779
v -5.6554 1.1667 0.7779
v -5.6554 0.5275 0.7778
v -5.6554 0.5730 0.7329
v -5.6554 0.5730 -0.5260
v -5.6335 0.5730 0.7329
v -5.6335 0.5730 -0.5260
v -5.6554 1.1212 -0.5260
v -5.6554 1.1212 0.7329
v -5.6335 1.1212 0.7329
v -5.6335 1.1212 -0.5260
v -5.6530 1.1317 -2.4784
v -5.6127 1.1317 -2.4784
v -5.6127 0.5516 -2.4784
v -5.6530 0.5516 -2.4784
v -5.6127 1.1317 -2.4380
v -5.6127 0.5516 -2.4380
v -5.6530 1.1317 -2.4380
v -5.6530 0.5516 -2.4380
v -5.6554 1.1667 -3.1403
v -5.5210 1.1667 -3.1403
v -5.5210 0.5275 -3.1403
v -5.6554 0.5275 -3.1403
v -5.5210 1.1667 -1.7915
v -5.5210 0.5275 -1.7915
v -5.6554 1.1667 -1.7915
v -5.6554 0.5275 -1.7915
v -5.6554 0.5730 -1.8365
v -5.6554 0.5730 -3.0953
v -5.6335 0.5730 -1.8365
v -5.6335 0.5730 -3.0953
v -5.6554 1.1212 -3.0953
v -5.6554 1.1212 -1.8365
v -5.6335 1.1212 -1.8365
v -5.6335 1.1212 -3.0953
v -6.5018 0.0567 4.0216
v -6.5018 0.0567 0.9063
v -6.5018 -0.1664 0.9063
v -6.5018 -0.1664 4.0216
v -2.4845 0.0567 0.9063
v -2.4845 -0.1664 0.9063
v -2.4845 0.0567 4.0216
v -2.4845 -0.1664 4.0216
v -5.6104 2.0657 3.1175
v -5.6104 2.0657 -4.0216
v -5.6104 -1.9500 -4.0216
v -5.6104 -0.1648 1.7804
v -5.6104 -1.9500 1.7804
v -5.6104 -0.1648 3.1175
v -5.3874 -0.1648 3.1175
v -5.3874 1.8480 3.1175
v 1.5287 2.0657 3.1175
v 1.5287 1.8480 3.1175
v 1.5287 2.0657 -4.0216
v 1.5287 -1.9500 -4.0216
v -3.3912 -1.9500 1.7804
v -3.3912 -1.9500 2.4495
v 1.5287 -1.9500 2.4495
v -3.3912 -0.1648 1.7804
v -3.3912 -0.1648 2.4495
v -5.3874 -0.1648 2.4495
v 1.5287 1.8480 2.4495
v 1.5287 1.8366 2.4495
v -5.3873 1.8466 2.4495
v -5.3873 0.0569 2.4495
v -5.3873 0.0569 2.2293
v -5.3873 1.8466 2.2293
v -5.3874 1.8480 2.4495
v -3.3795 1.8466 2.4495
v -3.3795 1.8466 2.2293
v -3.3795 0.0569 2.2293
v -3.3795 0.0569 2.4495

# List of vertex normals
vn -1.0000 0.0000 0.0000
vn 0.0000 0.0000 -1.0000
vn 1.0000 0.0000 0.0000
vn 0.0000 0.0000 1.0000
vn 0.0000 -1.0000 0.0000
vn 0.0000 1.0000 0.0000
vn 0.0000 -0.1794 -0.9838
vn 0.0000 -0.1794 0.9838
vn 0.0000 -0.5783 -0.8158
vn 0.0000 -0.5783 0.8158
vn -0.0001 -0.0000 1.0000
vn -0.0028 -0.0000 1.0000
vn 0.0033 -0.0000 1.0000

# List of texture coordinates
vt 0.8370 0.1605
vt 0.8236 0.1739
vt 0.8236 0.1605
vt 0.8370 0.1739
vt 0.5348 0.8909
vt 0.4848 0.9409
vt 0.4848 0.8909
vt 0.7819 0.5191
vt 0.9164 0.2876
vt 0.9164 0.5191
vt 0.4638 0.5953
vt 0.3788 0.6803
vt 0.3788 0.5953
vt 0.4638 0.6803
vt 0.4900 0.9028
vt 0.4652 0.9235
vt 0.4877 0.9037
vt 0.4888 0.8986
vt 0.5106 0.9257
vt 0.4863 0.9008
vt 0.5152 0.8758
vt 0.4652 0.8773
vt 0.4750 0.4617
vt 0.5250 0.5103
vt 0.4750 0.5103
vt 0.4101 0.6550
vt 0.4089 0.6601
vt 0.4076 0.6572
vt 0.5094 0.8988
vt 0.4594 0.9488
vt 0.4594 0.8988
vt 0.8964 0.0385
vt 0.8849 0.0500
vt 0.8849 0.0385
vt 0.8964 0.0500
vt 0.8319 0.4254
vt 0.8006 0.4567
vt 0.8006 0.4254
vt 0.8319 0.4567
vt 0.4892 0.8741
vt 0.4054 0.9579
vt 0.4054 0.8741
vt 0.5256 0.8992
vt 0.4823 0.8742
vt 0.5039 0.9117
vt 0.5256 0.8742
vt 0.5039 0.8617
vt 0.4823 0.8992
vt 0.5431 0.8859
vt 0.4998 0.8859
vt 0.5431 0.9109
vt 0.5215 0.9234
vt 0.4998 0.9109
vt 0.5250 0.4750
vt 0.4750 0.5250
vt 0.4750 0.4750
vt 0.4762 0.8891
vt 0.4262 0.9391
vt 0.4262 0.8891
vt 0.5217 0.5125
vt 0.5000 0.4750
vt 0.4783 0.4875
vt 0.4783 0.5125
vt 0.5000 0.5250
vt 0.5217 0.4875
vt 0.5762 0.9004
vt 0.5675 0.8622
vt 0.5566 0.9098
vt 0.5458 0.8622
vt 0.5323 0.8792
vt 0.5371 0.9004
vt 0.5250 0.5250
vt 0.5348 0.9409
vt 0.7819 0.2876
vt 0.5250 0.4617
vt 0.4113 0.6591
vt 0.5094 0.9488
vt 0.4892 0.9579
vt 0.5215 0.8734
vt 0.4762 0.9391
vt 0.5810 0.8792
vt 0.4965 0.7203
vt 0.5021 0.6887
vt 0.4588 0.6887
vt 0.4890 0.6777
vt 0.4558 0.7055
vt 0.4805 0.7262
vt 0.4644 0.7203
vt 0.5051 0.7055
vt 0.4719 0.6777

# List of polygonal faces
f 2/1/1 4/2/1 1/3/1
f 5/1/2 3/2/2 2/3/2
f 5/3/3 8/4/3 6/2/3
f 1/1/4 8/2/4 7/3/4
f 3/1/5 8/2/5 4/3/5
f 5/1/6 1/2/6 7/3/6
f 10/5/1 12/6/1 9/7/1
f 13/5/2 11/6/2 10/7/2
f 15/5/3 14/6/3 13/7/3
f 11/5/5 16/6/5 12/7/5
f 13/5/6 9/6/6 15/7/6
f 17/5/6 20/6/6 18/7/6
f 24/8/4 19/9/4 23/10/4
f 21/5/5 23/6/5 22/7/5
f 22/5/1 19/6/1 17/7/1
f 18/5/3 24/6/3 21/7/3
f 26/11/6 28/12/6 25/13/6
f 26/13/7 30/14/7 27/12/7
f 31/11/5 30/12/5 29/13/5
f 25/11/8 32/12/8 31/13/8
f 27/11/1 32/12/1 28/13/1
f 31/13/3 26/14/3 25/12/3
f 34/11/6 36/12/6 33/13/6
f 34/13/7 38/14/7 35/12/7
f 39/11/5 38/12/5 37/13/5
f 33/11/8 40/12/8 39/13/8
f 36/13/1 38/14/1 40/12/1
f 37/11/3 33/12/3 39/13/3
f 41/13/6 43/14/6 44/12/6
f 45/11/9 43/12/9 42/13/9
f 47/11/5 46/12/5 45/13/5
f 41/11/10 48/12/10 47/13/10
f 44/13/1 46/14/1 48/12/1
f 45/11/3 41/12/3 47/13/3
f 50/15/1 52/16/1 49/17/1
f 53/18/2 51/19/2 50/15/2
f 55/20/3 54/21/3 53/18/3
f 49/17/4 56/22/4 55/20/4
f 51/23/5 56/24/5 52/25/5
f 53/26/6 49/27/6 55/28/6
f 58/29/1 60/30/1 57/31/1
f 61/29/2 59/30/2 58/31/2
f 63/29/3 62/30/3 61/31/3
f 57/29/4 64/30/4 63/31/4
f 59/29/5 64/30/5 60/31/5
f 61/29/6 57/30/6 63/31/6
f 66/32/1 68/33/1 65/34/1
f 69/32/2 67/33/2 66/34/2
f 71/32/3 70/33/3 69/34/3
f 65/32/4 72/33/4 71/34/4
f 67/32/5 72/33/5 68/34/5
f 69/32/6 65/33/6 71/34/6
f 74/32/1 76/33/1 73/34/1
f 77/32/2 75/33/2 74/34/2
f 77/34/3 80/35/3 78/33/3
f 75/32/5 80/33/5 76/34/5
f 77/32/6 73/33/6 79/34/6
f 81/32/6 84/33/6 82/34/6
f 88/36/4 83/37/4 87/38/4
f 85/32/5 87/33/5 86/34/5
f 86/32/1 83/33/1 81/34/1
f 82/32/3 88/33/3 85/34/3
f 90/32/1 92/33/1 89/34/1
f 93/32/2 91/33/2 90/34/2
f 95/32/3 94/33/3 93/34/3
f 89/32/4 96/33/4 95/34/4
f 91/32/5 96/33/5 92/34/5
f 93/32/6 89/33/6 95/34/6
f 98/32/1 100/33/1 97/34/1
f 101/32/2 99/33/2 98/34/2
f 103/32/3 102/33/3 101/34/3
f 99/32/5 104/33/5 100/34/5
f 101/32/6 97/33/6 103/34/6
f 105/32/6 108/33/6 106/34/6
f 112/36/4 107/37/4 111/38/4
f 109/32/5 111/33/5 110/34/5
f 110/32/1 107/33/1 105/34/1
f 106/32/3 112/33/3 109/34/3
f 114/32/1 116/33/1 113/34/1
f 117/32/2 115/33/2 114/34/2
f 119/32/3 118/33/3 117/34/3
f 113/32/4 120/33/4 119/34/4
f 115/32/5 120/33/5 116/34/5
f 117/32/6 113/33/6 119/34/6
f 122/32/1 124/33/1 121/34/1
f 125/32/2 123/33/2 122/34/2
f 127/32/3 126/33/3 125/34/3
f 121/32/4 128/33/4 127/34/4
f 123/32/5 128/33/5 124/34/5
f 125/32/6 121/33/6 127/34/6
f 129/34/1 131/35/1 132/33/1
f 133/32/2 131/33/2 130/34/2
f 135/32/3 134/33/3 133/34/3
f 131/32/5 136/33/5 132/34/5
f 133/32/6 129/33/6 135/34/6
f 137/32/6 140/33/6 138/34/6
f 144/36/4 139/37/4 143/38/4
f 141/32/5 143/33/5 142/34/5
f 142/32/1 139/33/1 137/34/1
f 141/34/3 140/35/3 144/33/3
f 146/32/2 148/33/2 145/34/2
f 146/34/3 150/35/3 147/33/3
f 151/32/4 150/33/4 149/34/4
f 145/32/1 152/33/1 151/34/1
f 147/32/5 152/33/5 148/34/5
f 149/32/6 145/33/6 151/34/6
f 154/32/2 156/33/2 153/34/2
f 157/32/3 155/33/3 154/34/3
f 159/32/4 158/33/4 157/34/4
f 155/32/5 160/33/5 156/34/5
f 157/32/6 153/33/6 159/34/6
f 161/32/6 164/33/6 162/34/6
f 167/38/1 164/39/1 163/37/1
f 165/32/5 167/33/5 166/34/5
f 166/32/2 163/33/2 161/34/2
f 162/32/4 168/33/4 165/34/4
f 170/32/2 172/33/2 169/34/2
f 170/34/3 174/35/3 171/33/3
f 175/32/4 174/33/4 173/34/4
f 169/32/1 176/33/1 175/34/1
f 171/32/5 176/33/5 172/34/5
f 173/32/6 169/33/6 175/34/6
f 178/32/2 180/33/2 177/34/2
f 178/34/3 182/35/3 179/33/3
f 183/32/4 182/33/4 181/34/4
f 179/32/5 184/33/5 180/34/5
f 183/34/6 178/35/6 177/33/6
f 185/32/6 188/33/6 186/34/6
f 192/36/1 187/37/1 191/38/1
f 189/32/5 191/33/5 190/34/5
f 190/32/2 187/33/2 185/34/2
f 186/32/4 192/33/4 189/34/4
f 194/40/1 196/41/1 193/42/1
f 197/40/2 195/41/2 194/42/2
f 199/40/3 198/41/3 197/42/3
f 193/40/4 200/41/4 199/42/4
f 195/40/5 200/41/5 196/42/5
f 197/40/6 193/41/6 199/42/6
f 202/43/1 204/44/1 201/45/1
f 203/46/1 205/47/1 204/44/1
f 201/45/1 204/44/1 206/48/1
f 206/49/4 208/50/4 201/51/4
f 209/52/4 208/50/4 210/53/4
f 211/54/6 201/55/6 209/56/6
f 211/57/2 203/58/2 202/59/2
f 213/60/5 203/61/5 212/62/5
f 213/60/5 215/63/5 214/64/5
f 205/54/4 216/55/4 204/56/4
f 216/61/5 218/63/5 204/65/5
f 206/60/5 218/63/5 207/64/5
f 209/66/3 219/67/3 211/68/3
f 211/68/3 220/69/3 215/70/3
f 211/68/3 215/70/3 212/71/3
f 216/54/1 214/55/1 217/56/1
f 222/54/3 224/55/3 221/56/3
f 221/54/5 227/55/5 226/56/5
f 223/54/4 227/55/4 224/56/4
f 229/54/6 223/55/6 222/56/6
f 210/54/5 225/55/5 219/56/5
f 229/56/1 227/72/1 228/55/1
f 207/54/3 225/55/3 208/56/3
f 2/1/1 3/4/1 4/2/1
f 5/1/2 6/4/2 3/2/2
f 5/3/3 7/1/3 8/4/3
f 1/1/4 4/4/4 8/2/4
f 3/1/5 6/4/5 8/2/5
f 5/1/6 2/4/6 1/2/6
f 10/5/1 11/73/1 12/6/1
f 13/5/2 14/73/2 11/6/2
f 15/5/3 16/73/3 14/6/3
f 11/5/5 14/73/5 16/6/5
f 13/5/6 10/73/6 9/6/6
f 17/5/6 19/73/6 20/6/6
f 24/8/4 20/74/4 19/9/4
f 21/5/5 24/73/5 23/6/5
f 22/5/1 23/73/1 19/6/1
f 18/5/3 20/73/3 24/6/3
f 26/11/6 27/14/6 28/12/6
f 26/13/7 29/11/7 30/14/7
f 31/11/5 32/14/5 30/12/5
f 25/11/8 28/14/8 32/12/8
f 27/11/1 30/14/1 32/12/1
f 31/13/3 29/11/3 26/14/3
f 34/11/6 35/14/6 36/12/6
f 34/13/7 37/11/7 38/14/7
f 39/11/5 40/14/5 38/12/5
f 33/11/8 36/14/8 40/12/8
f 36/13/1 35/11/1 38/14/1
f 37/11/3 34/14/3 33/12/3
f 41/13/6 42/11/6 43/14/6
f 45/11/9 46/14/9 43/12/9
f 47/11/5 48/14/5 46/12/5
f 41/11/10 44/14/10 48/12/10
f 44/13/1 43/11/1 46/14/1
f 45/11/3 42/14/3 41/12/3
f 50/15/1 51/19/1 52/16/1
f 53/18/2 54/21/2 51/19/2
f 55/20/3 56/22/3 54/21/3
f 49/17/4 52/16/4 56/22/4
f 51/23/5 54/75/5 56/24/5
f 53/26/6 50/76/6 49/27/6
f 58/29/1 59/77/1 60/30/1
f 61/29/2 62/77/2 59/30/2
f 63/29/3 64/77/3 62/30/3
f 57/29/4 60/77/4 64/30/4
f 59/29/5 62/77/5 64/30/5
f 61/29/6 58/77/6 57/30/6
f 66/32/1 67/35/1 68/33/1
f 69/32/2 70/35/2 67/33/2
f 71/32/3 72/35/3 70/33/3
f 65/32/4 68/35/4 72/33/4
f 67/32/5 70/35/5 72/33/5
f 69/32/6 66/35/6 65/33/6
f 74/32/1 75/35/1 76/33/1
f 77/32/2 78/35/2 75/33/2
f 77/34/3 79/32/3 80/35/3
f 75/32/5 78/35/5 80/33/5
f 77/32/6 74/35/6 73/33/6
f 81/32/6 83/35/6 84/33/6
f 88/36/4 84/39/4 83/37/4
f 85/32/5 88/35/5 87/33/5
f 86/32/1 87/35/1 83/33/1
f 82/32/3 84/35/3 88/33/3
f 90/32/1 91/35/1 92/33/1
f 93/32/2 94/35/2 91/33/2
f 95/32/3 96/35/3 94/33/3
f 89/32/4 92/35/4 96/33/4
f 91/32/5 94/35/5 96/33/5
f 93/32/6 90/35/6 89/33/6
f 98/32/1 99/35/1 100/33/1
f 101/32/2 102/35/2 99/33/2
f 103/32/3 104/35/3 102/33/3
f 99/32/5 102/35/5 104/33/5
f 101/32/6 98/35/6 97/33/6
f 105/32/6 107/35/6 108/33/6
f 112/36/4 108/39/4 107/37/4
f 109/32/5 112/35/5 111/33/5
f 110/32/1 111/35/1 107/33/1
f 106/32/3 108/35/3 112/33/3
f 114/32/1 115/35/1 116/33/1
f 117/32/2 118/35/2 115/33/2
f 119/32/3 120/35/3 118/33/3
f 113/32/4 116/35/4 120/33/4
f 115/32/5 118/35/5 120/33/5
f 117/32/6 114/35/6 113/33/6
f 122/32/1 123/35/1 124/33/1
f 125/32/2 126/35/2 123/33/2
f 127/32/3 128/35/3 126/33/3
f 121/32/4 124/35/4 128/33/4
f 123/32/5 126/35/5 128/33/5
f 125/32/6 122/35/6 121/33/6
f 129/34/1 130/32/1 131/35/1
f 133/32/2 134/35/2 131/33/2
f 135/32/3 136/35/3 134/33/3
f 131/32/5 134/35/5 136/33/5
f 133/32/6 130/35/6 129/33/6
f 137/32/6 139/35/6 140/33/6
f 144/36/4 140/39/4 139/37/4
f 141/32/5 144/35/5 143/33/5
f 142/32/1 143/35/1 139/33/1
f 141/34/3 138/32/3 140/35/3
f 146/32/2 147/35/2 148/33/2
f 146/34/3 149/32/3 150/35/3
f 151/32/4 152/35/4 150/33/4
f 145/32/1 148/35/1 152/33/1
f 147/32/5 150/35/5 152/33/5
f 149/32/6 146/35/6 145/33/6
f 154/32/2 155/35/2 156/33/2
f 157/32/3 158/35/3 155/33/3
f 159/32/4 160/35/4 158/33/4
f 155/32/5 158/35/5 160/33/5
f 157/32/6 154/35/6 153/33/6
f 161/32/6 163/35/6 164/33/6
f 167/38/1 168/36/1 164/39/1
f 165/32/5 168/35/5 167/33/5
f 166/32/2 167/35/2 163/33/2
f 162/32/4 164/35/4 168/33/4
f 170/32/2 171/35/2 172/33/2
f 170/34/3 173/32/3 174/35/3
f 175/32/4 176/35/4 174/33/4
f 169/32/1 172/35/1 176/33/1
f 171/32/5 174/35/5 176/33/5
f 173/32/6 170/35/6 169/33/6
f 178/32/2 179/35/2 180/33/2
f 178/34/3 181/32/3 182/35/3
f 183/32/4 184/35/4 182/33/4
f 179/32/5 182/35/5 184/33/5
f 183/34/6 181/32/6 178/35/6
f 185/32/6 187/35/6 188/33/6
f 192/36/1 188/39/1 187/37/1
f 189/32/5 192/35/5 191/33/5
f 190/32/2 191/35/2 187/33/2
f 186/32/4 188/35/4 192/33/4
f 194/40/1 195/78/1 196/41/1
f 197/40/2 198/78/2 195/41/2
f 199/40/3 200/78/3 198/41/3
f 193/40/4 196/78/4 200/41/4
f 195/40/5 198/78/5 200/41/5
f 197/40/6 194/78/6 193/41/6
f 202/43/1 203/46/1 204/44/1
f 206/49/4 207/79/4 208/50/4
f 209/52/4 201/51/4 208/50/4
f 211/54/6 202/72/6 201/55/6
f 211/57/2 212/80/2 203/58/2
f 213/60/5 205/65/5 203/61/5
f 213/60/5 212/62/5 215/63/5
f 205/54/4 213/72/4 216/55/4
f 216/61/5 217/62/5 218/63/5
f 206/60/5 204/65/5 218/63/5
f 209/66/3 210/81/3 219/67/3
f 211/68/3 219/67/3 220/69/3
f 216/54/1 213/72/1 214/55/1
f 222/54/3 223/72/3 224/55/3
f 221/54/5 224/72/5 227/55/5
f 223/54/4 228/72/4 227/55/4
f 229/54/6 228/72/6 223/55/6
f 210/54/5 208/72/5 225/55/5
f 229/56/1 226/54/1 227/72/1
f 207/54/3 218/72/3 225/55/3
f 16/5/4 18/6/4 12/7/4
f 15/7/4 21/73/4 22/6/4
f 15/5/4 17/6/4 16/7/4
f 12/5/4 21/6/4 9/7/4
f 80/32/4 82/33/4 76/34/4
f 73/32/4 86/33/4 79/34/4
f 79/32/4 81/33/4 80/34/4
f 73/34/4 82/35/4 85/33/4
f 104/32/4 106/33/4 100/34/4
f 97/32/4 110/33/4 103/34/4
f 103/32/4 105/33/4 104/34/4
f 97/34/4 106/35/4 109/33/4
f 132/34/4 137/35/4 138/33/4
f 129/32/4 142/33/4 135/34/4
f 135/32/4 137/33/4 136/34/4
f 129/34/4 138/35/4 141/33/4
f 160/32/1 162/33/1 156/34/1
f 153/32/1 166/33/1 159/34/1
f 159/32/1 161/33/1 160/34/1
f 153/34/1 162/35/1 165/33/1
f 184/32/1 186/33/1 180/34/1
f 183/34/1 189/35/1 190/33/1
f 184/34/1 190/35/1 185/33/1
f 177/34/1 186/35/1 189/33/1
f 225/65/11 221/62/12 219/60/4
f 219/60/4 226/63/4 220/64/4
f 217/82/4 215/83/4 229/84/4
f 220/85/4 229/84/4 215/83/4
f 217/82/4 222/86/13 218/87/4
f 218/87/4 222/86/13 225/88/11
f 16/5/4 17/73/4 18/6/4
f 15/7/4 9/5/4 21/73/4
f 15/5/4 22/73/4 17/6/4
f 12/5/4 18/73/4 21/6/4
f 80/32/4 81/35/4 82/33/4
f 73/32/4 85/35/4 86/33/4
f 79/32/4 86/35/4 81/33/4
f 73/34/4 76/32/4 82/35/4
f 104/32/4 105/35/4 106/33/4
f 97/32/4 109/35/4 110/33/4
f 103/32/4 110/35/4 105/33/4
f 97/34/4 100/32/4 106/35/4
f 132/34/4 136/32/4 137/35/4
f 129/32/4 141/35/4 142/33/4
f 135/32/4 142/35/4 137/33/4
f 129/34/4 132/32/4 138/35/4
f 160/32/1 161/35/1 162/33/1
f 153/32/1 165/35/1 166/33/1
f 159/32/1 166/35/1 161/33/1
f 153/34/1 156/32/1 162/35/1
f 184/32/1 185/35/1 186/33/1
f 183/34/1 177/32/1 189/35/1
f 184/34/1 183/32/1 190/35/1
f 177/34/1 180/32/1 186/35/1
f 225/65/11 222/61/13 221/62/12
f 219/60/4 221/62/12 226/63/4
f 217/82/4 214/89/4 215/83/4
f 220/85/4 226/90/4 229/84/4
f 217/82/4 229/84/4 222/86/13
