# Mesh: music_store

# List of geometric vertices
v -2.8867 0.2162 2.7174
v -2.8867 0.2162 1.6594
v -2.8867 -0.6350 1.6594
v -2.8867 -0.6350 2.7174
v 2.8867 0.2162 1.6594
v 2.8867 -0.6350 1.6594
v 2.8867 0.2162 2.7174
v 2.8867 -0.6350 2.7174
v 2.6377 0.2162 2.5240
v -2.6377 0.2162 2.5240
v 2.6377 0.0223 2.5240
v -2.6377 0.0223 2.5240
v 2.6377 0.2162 1.6731
v -2.6377 0.2162 1.6731
v 2.6377 0.0223 1.6731
v -2.6377 0.0223 1.6731
v -2.2386 1.8338 2.3436
v -2.2386 1.9945 2.0401
v -2.2386 1.7662 2.0401
v -2.2386 1.7662 2.3436
v -1.1957 1.9945 2.0401
v -1.1957 1.7662 2.0401
v -1.1957 1.8338 2.3436
v -1.1957 1.7662 2.3436
v 1.1928 1.8338 2.3436
v 1.1928 1.9945 2.0401
v 1.1928 1.7662 2.0401
v 1.1928 1.7662 2.3436
v 2.2357 1.9945 2.0401
v 2.2357 1.7662 2.0401
v 2.2357 1.8338 2.3436
v 2.2357 1.7662 2.3436
v -0.5215 1.8338 2.3436
v -0.5215 1.9945 2.0401
v -0.5215 1.7662 2.0401
v -0.5215 1.7662 2.3436
v 0.5215 1.9945 2.0401
v 0.5215 1.7662 2.0401
v 0.5215 1.8338 2.3436
v 0.5215 1.7662 2.3436
v -0.4289 1.6440 2.0891
v -0.4289 1.6440 2.0378
v -0.4289 0.4651 2.0378
v -0.4289 0.4651 2.0891
v 0.4335 1.6440 2.0378
v 0.4335 0.4651 2.0378
v 0.4335 1.6440 2.0891
v 0.4335 0.4651 2.0891
v 1.2831 1.6440 2.0891
v 1.2831 1.6440 2.0378
v 1.2831 0.4651 2.0378
v 1.2831 0.4651 2.0891
v 2.1456 1.6440 2.0378
v 2.1456 0.4651 2.0378
v 2.1456 1.6440 2.0891
v 2.1456 0.4651 2.0891
v -2.1485 1.6440 2.0891
v -2.1485 1.6440 2.0378
v -2.1485 0.4651 2.0378
v -2.1485 0.4651 2.0891
v -1.2860 1.6440 2.0378
v -1.2860 0.4651 2.0378
v -1.2860 1.6440 2.0891
v -1.2860 0.4651 2.0891
v -2.1485 -0.9609 2.0891
v -2.1485 -0.9609 2.0378
v -2.1485 -2.1398 2.0378
v -2.1485 -2.1398 2.0891
v -1.2860 -0.9609 2.0378
v -1.2860 -2.1398 2.0378
v -1.2860 -0.9609 2.0891
v -1.2860 -2.1398 2.0891
v -0.4298 -0.9609 2.0891
v -0.4298 -0.9609 2.0378
v -0.4298 -2.1398 2.0378
v -0.4298 -2.1398 2.0891
v 0.4327 -0.9609 2.0378
v 0.4327 -2.1398 2.0378
v 0.4327 -0.9609 2.0891
v 0.4327 -2.1398 2.0891
v -2.9156 -2.3992 2.0773
v -2.9156 -2.3992 -2.6937
v -2.9156 -2.5611 -2.6937
v -2.9156 -2.5611 2.0773
v 2.9156 -2.3992 -2.6937
v 2.9156 -2.5611 -2.6937
v 2.9156 -2.3992 2.0773
v 2.9156 -2.5611 2.0773
v 1.1322 -0.8063 2.1135
v 1.1322 -0.8063 1.9509
v 1.1322 -2.5584 1.9509
v 1.1322 -2.5584 2.1135
v 2.2912 -0.8063 1.9509
v 2.2912 -2.5584 1.9509
v 2.2912 -0.8063 2.1135
v 2.2912 -2.5584 2.1135
v 2.2004 -2.5586 2.1135
v 1.2231 -2.5586 2.1135
v 2.2004 -2.5586 2.0847
v 1.2231 -2.5586 2.0847
v 1.2231 -0.8955 2.1135
v 2.2004 -0.8955 2.1135
v 2.2004 -0.8955 2.0847
v 1.2231 -0.8955 2.0847
v -2.8871 2.2613 2.0540
v -2.8871 2.2613 -2.6704
v -2.8871 -2.5599 -2.6704
v -2.8871 -2.5599 2.0540
v 2.8871 2.2613 -2.6704
v 2.8871 -2.5599 -2.6704
v 2.8871 2.2613 2.0540
v 2.8871 -2.5599 2.0540
v 2.9446 2.2613 2.1010
v -2.9446 2.2613 2.1010
v 2.9446 2.5611 2.1010
v -2.9446 2.5611 2.1010
v 2.9446 2.2613 -2.7174
v -2.9446 2.2613 -2.7174
v 2.6069 2.5611 1.8247
v -2.6069 2.5611 1.8247
v 2.9446 2.5611 -2.7174
v -2.9446 2.5611 -2.7174
v 2.6069 2.4037 1.8247
v -2.6069 2.4037 1.8247
v 2.6069 2.5611 -2.4411
v -2.6069 2.5611 -2.4411
v 2.6069 2.4037 -2.4411
v -2.6069 2.4037 -2.4411

# List of vertex normals
vn -1.0000 0.0000 0.0000
vn 0.0000 0.0000 -1.0000
vn 1.0000 -0.0000 0.0000
vn 0.0000 0.0000 1.0000
vn 0.0000 -1.0000 -0.0000
vn 0.0000 1.0000 0.0000
vn 0.0000 0.8837 0.4681

# List of texture coordinates
vt 0.9349 0.6255
vt 0.8849 0.6755
vt 0.8849 0.6255
vt 0.0730 0.7264
vt 0.9223 0.6011
vt 0.9223 0.7264
vt 0.9349 0.6755
vt 0.8036 0.4068
vt 0.8536 0.4568
vt 0.8036 0.4568
vt 0.8536 0.4068
vt 0.3529 0.5168
vt 0.3619 0.5250
vt 0.3448 0.5250
vt 0.3537 0.5159
vt 0.3539 0.5174
vt 0.3458 0.5083
vt 0.3548 0.5165
vt 0.5675 0.2455
vt 0.4010 0.0178
vt 0.5675 0.0178
vt 0.3628 0.5083
vt 0.3712 0.5008
vt 0.3802 0.5090
vt 0.3631 0.5090
vt 0.3720 0.4999
vt 0.3722 0.5015
vt 0.3641 0.4924
vt 0.3731 0.5006
vt 0.4013 0.2451
vt 0.5678 0.0174
vt 0.5678 0.2451
vt 0.3811 0.4924
vt 0.3721 0.4831
vt 0.3642 0.4924
vt 0.3631 0.4750
vt 0.3732 0.4843
vt 0.3714 0.4843
vt 0.3805 0.4760
vt 0.3724 0.4851
vt 0.4008 0.2448
vt 0.5674 0.0171
vt 0.5674 0.2448
vt 0.3801 0.4924
vt 0.3537 0.4992
vt 0.3448 0.5083
vt 0.3459 0.4917
vt 0.3547 0.4998
vt 0.3530 0.5000
vt 0.3616 0.4917
vt 0.3541 0.5010
vt 0.4012 0.2452
vt 0.5677 0.0176
vt 0.5677 0.2452
vt 0.3631 0.5083
vt 0.3537 0.4825
vt 0.3448 0.4917
vt 0.3459 0.4750
vt 0.3547 0.4832
vt 0.3530 0.4833
vt 0.3616 0.4750
vt 0.3541 0.4843
vt 0.4014 0.2456
vt 0.5680 0.0180
vt 0.5680 0.2456
vt 0.3631 0.4917
vt 0.5016 0.8793
vt 0.4516 0.9293
vt 0.4516 0.8793
vt 0.5016 0.9293
vt 0.5211 0.9051
vt 0.5061 0.8905
vt 0.5147 0.9028
vt 0.5077 0.9028
vt 0.5100 0.8981
vt 0.4999 0.9063
vt 0.5018 0.8976
vt 0.4857 0.8910
vt 0.5049 0.8902
vt 0.4722 0.8863
vt 0.5061 0.8856
vt 0.5141 0.9025
vt 0.4989 0.9063
vt 0.8033 0.3092
vt 0.9748 0.0174
vt 0.9748 0.3092
vt 0.4970 0.9104
vt 0.4711 0.8856
vt 0.5160 0.9034
vt 0.2855 0.4047
vt 0.3355 0.4547
vt 0.2855 0.4547
vt 0.3355 0.4047
vt 0.4391 0.8852
vt 0.3891 0.9352
vt 0.3891 0.8852
vt 0.4391 0.9352
vt 0.7203 0.1215
vt 0.6703 0.1715
vt 0.6703 0.1215
vt 0.0730 0.6011
vt 0.4010 0.2455
vt 0.4013 0.0174
vt 0.4008 0.0171
vt 0.4012 0.0176
vt 0.4014 0.0180
vt 0.8033 0.0174
vt 0.7203 0.1715

# List of polygonal faces
f 2/1/1 4/2/1 1/3/1
f 5/1/2 3/2/2 2/3/2
f 7/1/3 6/2/3 5/3/3
f 1/4/4 8/5/4 7/6/4
f 3/1/5 8/2/5 4/3/5
f 9/1/2 12/2/2 10/3/2
f 15/1/6 12/2/6 11/3/6
f 9/3/1 15/7/1 11/2/1
f 14/1/4 15/2/4 13/3/4
f 10/1/3 16/2/3 14/3/3
f 17/8/1 19/9/1 20/10/1
f 21/11/2 19/10/2 18/8/2
f 23/11/3 22/10/3 21/8/3
f 17/11/4 24/10/4 23/8/4
f 19/11/5 24/10/5 20/8/5
f 21/11/7 17/10/7 23/8/7
f 25/8/1 27/9/1 28/10/1
f 29/11/2 27/10/2 26/8/2
f 31/11/3 30/10/3 29/8/3
f 31/8/4 28/9/4 32/10/4
f 27/11/5 32/10/5 28/8/5
f 29/11/7 25/10/7 31/8/7
f 33/8/1 35/9/1 36/10/1
f 37/11/2 35/10/2 34/8/2
f 39/11/3 38/10/3 37/8/3
f 33/11/4 40/10/4 39/8/4
f 35/11/5 40/10/5 36/8/5
f 37/11/7 33/10/7 39/8/7
f 42/12/1 44/13/1 41/14/1
f 45/15/2 43/16/2 42/12/2
f 47/17/3 46/18/3 45/15/3
f 47/19/4 44/20/4 48/21/4
f 43/16/5 48/22/5 44/13/5
f 45/15/6 41/14/6 47/17/6
f 50/23/1 52/24/1 49/25/1
f 53/26/2 51/27/2 50/23/2
f 55/28/3 54/29/3 53/26/3
f 49/30/4 56/31/4 55/32/4
f 51/27/5 56/33/5 52/24/5
f 53/26/6 49/25/6 55/28/6
f 58/34/1 60/35/1 57/36/1
f 61/37/2 59/38/2 58/34/2
f 63/39/3 62/40/3 61/37/3
f 57/41/4 64/42/4 63/43/4
f 59/38/5 64/44/5 60/35/5
f 61/37/6 57/36/6 63/39/6
f 66/45/1 68/46/1 65/47/1
f 69/48/2 67/49/2 66/45/2
f 71/50/3 70/51/3 69/48/3
f 65/52/4 72/53/4 71/54/4
f 67/49/5 72/55/5 68/46/5
f 69/48/6 65/47/6 71/50/6
f 74/56/1 76/57/1 73/58/1
f 77/59/2 75/60/2 74/56/2
f 79/61/3 78/62/3 77/59/3
f 73/63/4 80/64/4 79/65/4
f 75/60/5 80/66/5 76/57/5
f 77/59/6 73/58/6 79/61/6
f 82/67/1 84/68/1 81/69/1
f 85/67/2 83/68/2 82/69/2
f 85/69/3 88/70/3 86/68/3
f 81/67/4 88/68/4 87/69/4
f 83/67/5 88/68/5 84/69/5
f 85/67/6 81/68/6 87/69/6
f 90/71/1 92/72/1 89/73/1
f 93/74/2 91/75/2 90/71/2
f 95/76/3 94/77/3 93/74/3
f 96/78/2 98/79/2 92/72/2
f 91/75/5 96/78/5 92/72/5
f 93/74/6 89/73/6 95/76/6
f 97/80/6 100/81/6 98/79/6
f 95/76/4 101/82/4 102/83/4
f 96/78/4 102/83/4 97/80/4
f 92/72/4 101/82/4 89/73/4
f 104/84/4 99/85/4 103/86/4
f 101/82/5 103/87/5 102/83/5
f 102/83/1 99/88/1 97/80/1
f 98/79/3 104/89/3 101/82/3
f 105/90/1 107/91/1 108/92/1
f 109/93/2 107/92/2 106/90/2
f 111/93/3 110/92/3 109/90/3
f 105/93/4 112/92/4 111/90/4
f 107/93/5 112/92/5 108/90/5
f 111/94/5 114/95/5 105/96/5
f 113/94/4 116/95/4 114/96/4
f 111/96/5 117/97/5 113/95/5
f 106/94/5 117/95/5 109/96/5
f 105/94/5 118/95/5 106/96/5
f 117/94/3 115/95/3 113/96/3
f 118/94/2 121/95/2 117/96/2
f 114/94/1 122/95/1 118/96/1
f 119/94/2 124/95/2 120/96/2
f 127/98/6 124/99/6 123/100/6
f 125/94/1 123/95/1 119/96/1
f 126/94/4 127/95/4 125/96/4
f 120/94/3 128/95/3 126/96/3
f 2/1/1 3/7/1 4/2/1
f 5/1/2 6/7/2 3/2/2
f 7/1/3 8/7/3 6/2/3
f 1/4/4 4/101/4 8/5/4
f 3/1/5 6/7/5 8/2/5
f 9/1/2 11/7/2 12/2/2
f 15/1/6 16/7/6 12/2/6
f 9/3/1 13/1/1 15/7/1
f 14/1/4 16/7/4 15/2/4
f 10/1/3 12/7/3 16/2/3
f 17/8/1 18/11/1 19/9/1
f 21/11/2 22/9/2 19/10/2
f 23/11/3 24/9/3 22/10/3
f 17/11/4 20/9/4 24/10/4
f 19/11/5 22/9/5 24/10/5
f 21/11/7 18/9/7 17/10/7
f 25/8/1 26/11/1 27/9/1
f 29/11/2 30/9/2 27/10/2
f 31/11/3 32/9/3 30/10/3
f 31/8/4 25/11/4 28/9/4
f 27/11/5 30/9/5 32/10/5
f 29/11/7 26/9/7 25/10/7
f 33/8/1 34/11/1 35/9/1
f 37/11/2 38/9/2 35/10/2
f 39/11/3 40/9/3 38/10/3
f 33/11/4 36/9/4 40/10/4
f 35/11/5 38/9/5 40/10/5
f 37/11/7 34/9/7 33/10/7
f 42/12/1 43/16/1 44/13/1
f 45/15/2 46/18/2 43/16/2
f 47/17/3 48/22/3 46/18/3
f 47/19/4 41/102/4 44/20/4
f 43/16/5 46/18/5 48/22/5
f 45/15/6 42/12/6 41/14/6
f 50/23/1 51/27/1 52/24/1
f 53/26/2 54/29/2 51/27/2
f 55/28/3 56/33/3 54/29/3
f 49/30/4 52/103/4 56/31/4
f 51/27/5 54/29/5 56/33/5
f 53/26/6 50/23/6 49/25/6
f 58/34/1 59/38/1 60/35/1
f 61/37/2 62/40/2 59/38/2
f 63/39/3 64/44/3 62/40/3
f 57/41/4 60/104/4 64/42/4
f 59/38/5 62/40/5 64/44/5
f 61/37/6 58/34/6 57/36/6
f 66/45/1 67/49/1 68/46/1
f 69/48/2 70/51/2 67/49/2
f 71/50/3 72/55/3 70/51/3
f 65/52/4 68/105/4 72/53/4
f 67/49/5 70/51/5 72/55/5
f 69/48/6 66/45/6 65/47/6
f 74/56/1 75/60/1 76/57/1
f 77/59/2 78/62/2 75/60/2
f 79/61/3 80/66/3 78/62/3
f 73/63/4 76/106/4 80/64/4
f 75/60/5 78/62/5 80/66/5
f 77/59/6 74/56/6 73/58/6
f 82/67/1 83/70/1 84/68/1
f 85/67/2 86/70/2 83/68/2
f 85/69/3 87/67/3 88/70/3
f 81/67/4 84/70/4 88/68/4
f 83/67/5 86/70/5 88/68/5
f 85/67/6 82/70/6 81/68/6
f 90/71/1 91/75/1 92/72/1
f 93/74/2 94/77/2 91/75/2
f 95/76/3 96/78/3 94/77/3
f 96/78/2 97/80/2 98/79/2
f 91/75/5 94/77/5 96/78/5
f 93/74/6 90/71/6 89/73/6
f 97/80/6 99/88/6 100/81/6
f 95/76/4 89/73/4 101/82/4
f 96/78/4 95/76/4 102/83/4
f 92/72/4 98/79/4 101/82/4
f 104/84/4 100/107/4 99/85/4
f 101/82/5 104/89/5 103/87/5
f 102/83/1 103/87/1 99/88/1
f 98/79/3 100/81/3 104/89/3
f 105/90/1 106/93/1 107/91/1
f 109/93/2 110/91/2 107/92/2
f 111/93/3 112/91/3 110/92/3
f 105/93/4 108/91/4 112/92/4
f 107/93/5 110/91/5 112/92/5
f 111/94/5 113/97/5 114/95/5
f 113/94/4 115/97/4 116/95/4
f 111/96/5 109/94/5 117/97/5
f 106/94/5 118/97/5 117/95/5
f 105/94/5 114/97/5 118/95/5
f 117/94/3 121/97/3 115/95/3
f 118/94/2 122/97/2 121/95/2
f 114/94/1 116/97/1 122/95/1
f 119/94/2 123/97/2 124/95/2
f 127/98/6 128/108/6 124/99/6
f 125/94/1 127/97/1 123/95/1
f 126/94/4 128/97/4 127/95/4
f 120/94/3 124/97/3 128/95/3
f 7/1/6 10/2/6 1/3/6
f 5/1/6 9/2/6 7/3/6
f 2/1/6 13/2/6 5/3/6
f 2/3/6 10/7/6 14/2/6
f 115/94/6 120/95/6 116/96/6
f 121/94/6 119/95/6 115/96/6
f 122/94/6 125/95/6 121/96/6
f 116/94/6 126/95/6 122/96/6
f 7/1/6 9/7/6 10/2/6
f 5/1/6 13/7/6 9/2/6
f 2/1/6 14/7/6 13/2/6
f 2/3/6 1/1/6 10/7/6
f 115/94/6 119/97/6 120/95/6
f 121/94/6 125/97/6 119/95/6
f 122/94/6 126/97/6 125/95/6
f 116/94/6 120/97/6 126/95/6
