# Mesh: skyscraper_big

# List of geometric vertices
v 0.9405 -5.9749 -3.0715
v 3.4121 -5.9749 -3.0715
v 3.4121 -6.5098 -3.0715
v 0.9405 -6.5098 -3.0715
v -0.9405 -5.9749 -3.0715
v -0.9405 -6.5098 -3.0715
v 0.9405 5.7950 -3.0715
v 3.4121 5.7950 -3.0715
v 3.4121 -5.9749 2.7027
v 3.4121 -6.5098 2.7027
v 0.9405 -6.5098 2.7027
v -3.4121 -5.9749 -3.0715
v -3.4121 -6.5098 -3.0715
v -0.9405 5.7950 -3.0715
v -0.9405 -6.5098 2.7027
v 0.9405 6.2154 -3.0715
v 3.4121 6.2154 -3.0715
v 3.4121 5.7950 2.7027
v 0.9405 -5.9749 2.7027
v -3.4121 -5.9749 2.7027
v -3.4121 -6.5098 2.7027
v -3.4121 5.7950 -3.0715
v -0.9405 6.2154 -3.0715
v 0.9405 -6.5098 3.0715
v 0.7874 -6.5098 3.0715
v 0.7874 -6.5098 3.0392
v -0.7874 -6.5098 3.0392
v -0.7874 -6.5098 3.0715
v -0.9405 -6.5098 3.0715
v 3.4121 6.2154 2.7027
v 0.9882 6.2154 -3.2274
v 3.5852 6.2154 -3.2274
v 1.2598 5.0388 2.7027
v 3.0971 5.0388 2.7027
v 0.9405 5.7950 2.7027
v 1.2598 3.9889 2.7027
v 1.2598 3.2015 2.7027
v 1.2598 2.1516 2.7027
v 1.2598 1.3642 2.7027
v 1.2598 0.3143 2.7027
v 1.2598 -0.4731 2.7027
v 1.2598 -1.5229 2.7027
v 1.2598 -2.3103 2.7027
v 1.2598 -5.1408 2.7027
v 1.2598 -4.0910 2.7027
v 1.2598 -3.3602 2.7027
v 3.0971 -3.3602 2.7027
v 3.0971 -4.0910 2.7027
v 3.0971 -5.1408 2.7027
v 3.0971 -2.3103 2.7027
v 3.0971 -1.5229 2.7027
v 3.0971 3.9889 2.7027
v 3.0971 3.2015 2.7027
v 3.0971 2.1516 2.7027
v 3.0971 1.3642 2.7027
v 3.0971 0.3143 2.7027
v 3.0971 -0.4731 2.7027
v 0.9405 -5.9749 3.0715
v -0.9405 -5.9749 2.7027
v -3.4121 5.7950 2.7027
v -3.4121 6.2154 -3.0715
v -0.9882 6.2154 -3.2274
v -0.9405 -5.9749 3.0715
v 0.7874 -5.9749 3.0715
v -0.7874 -5.9749 3.0715
v 0.9405 6.2154 2.7027
v 3.5852 6.2154 2.8399
v 0.9882 6.5098 -3.2274
v 3.5852 6.5098 -3.2274
v 0.9405 5.7950 3.0715
v -3.0971 5.0388 2.7027
v -1.2598 5.0388 2.7027
v -0.9405 5.7950 2.7027
v -3.0971 3.9889 2.7027
v -3.0971 3.2015 2.7027
v -3.0971 2.1516 2.7027
v -3.0971 1.3642 2.7027
v -3.0971 0.3143 2.7027
v -3.0971 -0.4731 2.7027
v -3.0971 -5.1421 2.7027
v -3.0971 -4.0923 2.7027
v -3.0971 -3.3602 2.7027
v -3.0971 -2.3103 2.7027
v -3.0971 -1.5229 2.7027
v -1.2598 -5.1421 2.7027
v -1.2598 -4.0923 2.7027
v -1.2598 -3.3602 2.7027
v -1.2598 3.9889 2.7027
v -1.2598 3.2015 2.7027
v -1.2598 2.1516 2.7027
v -1.2598 1.3642 2.7027
v -1.2598 0.3143 2.7027
v -1.2598 -0.4731 2.7027
v -1.2598 -1.5229 2.7027
v -1.2598 -2.3103 2.7027
v -3.4121 6.2154 2.7027
v -3.5852 6.2154 -3.2274
v -0.9882 6.5098 -3.2274
v -0.9405 5.7950 3.0715
v -0.7874 -4.4101 3.0715
v -0.5249 -2.9465 3.0715
v -0.5249 -2.3166 3.0715
v -0.5249 -1.0909 3.0715
v -0.5249 5.0366 3.0715
v 0.5249 5.0366 3.0715
v -0.5249 4.4066 3.0715
v -0.5249 3.2125 3.0715
v -0.5249 2.5826 3.0715
v -0.5249 1.3576 3.0715
v -0.5249 0.7277 3.0715
v -0.5249 -0.4609 3.0715
v 0.7874 -4.4101 3.0715
v 0.5249 4.4066 3.0715
v 0.5249 3.2125 3.0715
v 0.5249 2.5826 3.0715
v 0.5249 1.3576 3.0715
v 0.5249 0.7277 3.0715
v 0.5249 -0.4609 3.0715
v 0.5249 -1.0909 3.0715
v 0.5249 -2.3166 3.0715
v 0.5249 -2.9465 3.0715
v 0.9405 6.2154 3.0715
v 0.9882 6.2154 2.8399
v 3.5852 6.5098 2.8399
v 0.9129 6.5098 -2.9815
v 3.3121 6.5098 -2.9815
v -0.9405 6.2154 2.7027
v -3.5852 6.2154 2.8399
v -3.5852 6.5098 -3.2274
v -0.9129 6.5098 -2.9815
v -0.9405 6.2154 3.0715
v 0.9882 6.2154 3.2274
v 0.9882 6.5098 2.8399
v 3.3121 6.5098 2.6236
v 0.9129 6.3178 -2.9815
v 3.3121 6.3178 -2.9815
v -0.9882 6.2154 2.8399
v -3.5852 6.5098 2.8399
v -3.3121 6.5098 -2.9815
v -0.9129 6.3178 -2.9815
v -0.9882 6.2154 3.2274
v 0.9882 6.5098 3.2274
v 0.8329 6.5098 2.6236
v 3.3121 6.3178 2.6236
v 0.8329 6.3178 2.6236
v -0.9882 6.5098 2.8399
v -3.3121 6.5098 2.6236
v -3.3121 6.3178 -2.9815
v -0.8418 6.3178 2.6236
v -0.9882 6.5098 3.2274
v 0.8329 6.5098 2.9815
v -0.8418 6.5098 2.6236
v -3.3121 6.3178 2.6236
v -0.8418 6.3178 2.9815
v 0.8329 6.3178 2.9815
v -0.8418 6.5098 2.9815
v 0.7874 -4.4101 3.0392
v -0.7874 -4.4101 3.0392
v -0.5249 5.0366 3.0400
v -0.5249 4.4066 3.0400
v 0.5249 4.4066 3.0400
v 0.5249 5.0366 3.0400
v -0.5249 3.2125 3.0400
v -0.5249 2.5826 3.0400
v 0.5249 2.5826 3.0400
v 0.5249 3.2125 3.0400
v -0.5249 1.3576 3.0400
v -0.5249 0.7277 3.0400
v 0.5249 0.7277 3.0400
v 0.5249 1.3576 3.0400
v -0.5249 -0.4609 3.0400
v -0.5249 -1.0909 3.0400
v 0.5249 -1.0909 3.0400
v 0.5249 -0.4609 3.0400
v -0.5249 -2.3166 3.0400
v -0.5249 -2.9465 3.0400
v 0.5249 -2.9465 3.0400
v 0.5249 -2.3166 3.0400
v -3.0971 5.0388 2.6652
v -3.0971 3.9889 2.6652
v -1.2598 3.9889 2.6652
v -1.2598 5.0388 2.6652
v -3.0971 3.2015 2.6652
v -3.0971 2.1516 2.6652
v -1.2598 2.1516 2.6652
v -1.2598 3.2015 2.6652
v -3.0971 1.3642 2.6652
v -3.0971 0.3143 2.6652
v -1.2598 0.3143 2.6652
v -1.2598 1.3642 2.6652
v -3.0971 -0.4731 2.6652
v -3.0971 -1.5229 2.6652
v -1.2598 -1.5229 2.6652
v -1.2598 -0.4731 2.6652
v -3.0971 -2.3103 2.6652
v -3.0971 -3.3602 2.6652
v -1.2598 -3.3602 2.6652
v -1.2598 -2.3103 2.6652
v -3.0971 -4.0923 2.6652
v -3.0971 -5.1421 2.6652
v -1.2598 -5.1421 2.6652
v -1.2598 -4.0923 2.6652
v 1.2598 5.0388 2.6652
v 1.2598 3.9889 2.6652
v 3.0971 3.9889 2.6652
v 3.0971 5.0388 2.6652
v 1.2598 3.2015 2.6652
v 1.2598 2.1516 2.6652
v 3.0971 2.1516 2.6652
v 3.0971 3.2015 2.6652
v 1.2598 1.3642 2.6652
v 1.2598 0.3143 2.6652
v 3.0971 0.3143 2.6652
v 3.0971 1.3642 2.6652
v 1.2598 -0.4731 2.6652
v 1.2598 -1.5229 2.6652
v 3.0971 -1.5229 2.6652
v 3.0971 -0.4731 2.6652
v 1.2598 -2.3103 2.6652
v 1.2598 -3.3602 2.6652
v 3.0971 -3.3602 2.6652
v 3.0971 -2.3103 2.6652
v 1.2598 -4.0910 2.6652
v 1.2598 -5.1408 2.6652
v 3.0971 -5.1408 2.6652
v 3.0971 -4.0910 2.6652

# List of vertex normals
vn 0.0000 -1.0000 0.0000
vn 1.0000 0.0000 0.0000
vn 0.0000 1.0000 0.0000
vn 0.0000 0.0000 1.0000
vn -1.0000 0.0000 0.0000
vn 0.0000 0.0000 -1.0000
vn -0.0000 -1.0000 0.0001
vn 0.0000 1.0000 0.0001

# List of texture coordinates
vt 0.4750 0.4750
vt 0.5250 0.5250
vt 0.4750 0.5250
vt 0.5250 0.4750
vt 0.9882 0.3532
vt 0.7164 0.7155
vt 0.7164 0.3532
vt 0.1139 0.6496
vt 0.0755 0.6216
vt 0.0902 0.6669
vt 0.0664 0.6496
vt 0.1152 0.6169
vt 0.0652 0.6669
vt 0.0652 0.6169
vt 0.8014 0.8010
vt 0.7514 0.8510
vt 0.7514 0.8010
vt 0.1152 0.6669
vt 0.5754 0.7446
vt 0.9908 0.9820
vt 0.5754 0.9820
vt 0.5754 0.7479
vt 0.9908 0.9853
vt 0.5754 0.9853
vt 0.5754 0.7467
vt 0.9908 0.9841
vt 0.5754 0.9841
vt 0.5754 0.7471
vt 0.9908 0.9845
vt 0.5754 0.9845
vt 0.5754 0.7459
vt 0.9908 0.9833
vt 0.5754 0.9833
vt 0.5740 0.7486
vt 0.9894 0.9860
vt 0.5740 0.9860
vt 0.5743 0.7446
vt 0.9897 0.9820
vt 0.5743 0.9820
vt 0.5743 0.7479
vt 0.9897 0.9853
vt 0.5743 0.9853
vt 0.5743 0.7467
vt 0.9897 0.9841
vt 0.5743 0.9841
vt 0.5743 0.7471
vt 0.9897 0.9845
vt 0.5743 0.9845
vt 0.5743 0.7459
vt 0.9897 0.9833
vt 0.5743 0.9833
vt 0.5750 0.7488
vt 0.9910 0.9865
vt 0.5750 0.9865
vt 0.9882 0.7155
vt 0.1049 0.6216
vt 0.8014 0.8510
vt 0.9908 0.7446
vt 0.9908 0.7479
vt 0.9908 0.7467
vt 0.9908 0.7471
vt 0.9908 0.7459
vt 0.9894 0.7486
vt 0.9897 0.7446
vt 0.9897 0.7479
vt 0.9897 0.7467
vt 0.9897 0.7471
vt 0.9897 0.7459
vt 0.9910 0.7488
vt 0.1152 0.6419
vt 0.0902 0.6169
vt 0.1078 0.6595
vt 0.0725 0.6242
vt 0.0725 0.6595
vt 0.5000 0.4750
vt 0.4823 0.4823
vt 0.4769 0.4904
vt 0.5096 0.4769
vt 0.5177 0.4823
vt 0.5231 0.4904
vt 0.5250 0.5000
vt 0.5231 0.5096
vt 0.5177 0.5177
vt 0.5096 0.5231
vt 0.5000 0.5250
vt 0.4750 0.5000
vt 0.4823 0.5177
vt 0.4904 0.5231
vt 0.5166 0.5187
vt 0.5234 0.5089
vt 0.5116 0.5221
vt 0.5248 0.4970
vt 0.5206 0.4858
vt 0.5248 0.5030
vt 0.5060 0.5243
vt 0.4884 0.5221
vt 0.5166 0.4813
vt 0.5060 0.4757
vt 0.4884 0.4779
vt 0.4834 0.4813
vt 0.4794 0.4858
vt 0.4752 0.4970
vt 0.4752 0.5030
vt 0.4766 0.5089
vt 0.4834 0.5187
vt 0.4940 0.5243
vt 0.4904 0.4769
vt 0.4769 0.5096
vt 0.5206 0.5142
vt 0.5234 0.4911
vt 0.5116 0.4779
vt 0.4940 0.4757
vt 0.4766 0.4911
vt 0.4794 0.5142
vt 0.0997 0.6650
vt 0.1133 0.6514
vt 0.0671 0.6323
vt 0.0671 0.6514
vt 0.0806 0.6188
vt 0.0997 0.6188
vt 0.1078 0.6242
vt 0.1133 0.6323
vt 0.0806 0.6650
vt 0.1027 0.6635
vt 0.0837 0.6660
vt 0.0966 0.6660
vt 0.1143 0.6483
vt 0.1143 0.6354
vt 0.1118 0.6544
vt 0.0966 0.6177
vt 0.1118 0.6294
vt 0.0837 0.6177
vt 0.0660 0.6354
vt 0.0660 0.6483
vt 0.0685 0.6294
vt 0.0685 0.6544
vt 0.0777 0.6635
vt 0.9138 0.2517
vt 0.8638 0.3017
vt 0.8638 0.2517
vt 0.9138 0.3017
vt 0.0652 0.6419
vt 0.1027 0.6202
vt 0.0777 0.6202

# List of polygonal faces
f 16/1/1 62/2/1 31/3/1
f 32/4/2 124/3/2 67/1/2
f 68/4/3 126/3/3 69/1/3
f 98/4/3 125/3/3 68/1/3
f 123/1/4 124/2/4 133/3/4
f 124/1/3 126/2/3 134/3/3
f 128/4/5 129/3/5 97/1/5
f 98/1/3 139/2/3 130/3/3
f 131/1/1 132/2/1 141/3/1
f 123/4/2 142/3/2 132/1/2
f 133/1/3 134/2/3 143/3/3
f 126/4/5 144/3/5 134/1/5
f 137/4/4 138/3/4 128/1/4
f 138/4/3 139/3/3 129/1/3
f 141/4/5 146/3/5 137/1/5
f 132/4/4 150/3/4 141/1/4
f 134/4/6 145/3/6 143/1/6
f 146/4/3 147/3/3 138/1/3
f 147/4/2 148/3/2 139/1/2
f 143/4/5 155/3/5 151/1/5
f 152/4/6 153/3/6 147/1/6
f 156/4/2 149/3/2 152/1/2
f 151/4/6 154/3/6 156/1/6
f 26/5/4 158/6/4 27/7/4
f 65/8/2 27/9/2 100/10/2
f 100/10/2 27/9/2 158/11/2
f 100/12/1 157/13/1 112/14/1
f 26/8/5 64/9/5 157/10/5
f 157/10/5 64/9/5 112/11/5
f 160/15/4 162/16/4 159/17/4
f 106/12/2 159/13/2 104/14/2
f 104/12/1 162/13/1 105/14/1
f 105/12/5 161/13/5 113/14/5
f 113/12/3 160/13/3 106/14/3
f 164/15/4 166/16/4 163/17/4
f 107/14/2 164/18/2 163/13/2
f 107/12/1 166/13/1 114/14/1
f 114/12/5 165/13/5 115/14/5
f 115/12/3 164/13/3 108/14/3
f 168/15/4 170/16/4 167/17/4
f 110/12/2 167/13/2 109/14/2
f 109/12/1 170/13/1 116/14/1
f 117/14/5 170/18/5 169/13/5
f 117/12/3 168/13/3 110/14/3
f 172/15/4 174/16/4 171/17/4
f 103/12/2 171/13/2 111/14/2
f 111/12/1 174/13/1 118/14/1
f 119/14/5 174/18/5 173/13/5
f 119/12/3 172/13/3 103/14/3
f 176/15/4 178/16/4 175/17/4
f 101/12/2 175/13/2 102/14/2
f 102/12/1 178/13/1 120/14/1
f 120/12/5 177/13/5 121/14/5
f 121/12/3 176/13/3 101/14/3
f 180/19/4 182/20/4 179/21/4
f 74/4/2 179/3/2 71/1/2
f 71/4/1 182/3/1 72/1/1
f 72/4/5 181/3/5 88/1/5
f 88/4/3 180/3/3 74/1/3
f 184/22/4 186/23/4 183/24/4
f 76/4/2 183/3/2 75/1/2
f 75/4/7 186/3/7 89/1/7
f 90/1/5 186/2/5 185/3/5
f 90/4/3 184/3/3 76/1/3
f 188/25/4 190/26/4 187/27/4
f 77/1/2 188/2/2 187/3/2
f 77/4/1 190/3/1 91/1/1
f 91/4/5 189/3/5 92/1/5
f 92/4/3 188/3/3 78/1/3
f 192/28/4 194/29/4 191/30/4
f 84/4/2 191/3/2 79/1/2
f 79/4/1 194/3/1 93/1/1
f 93/4/5 193/3/5 94/1/5
f 94/4/3 192/3/3 84/1/3
f 196/31/4 198/32/4 195/33/4
f 82/4/2 195/3/2 83/1/2
f 83/4/1 198/3/1 95/1/1
f 95/4/5 197/3/5 87/1/5
f 87/4/3 196/3/3 82/1/3
f 200/34/4 202/35/4 199/36/4
f 80/4/2 199/3/2 81/1/2
f 81/4/1 202/3/1 86/1/1
f 86/4/5 201/3/5 85/1/5
f 85/4/3 200/3/3 80/1/3
f 204/37/4 206/38/4 203/39/4
f 36/4/2 203/3/2 33/1/2
f 33/4/1 206/3/1 34/1/1
f 34/4/5 205/3/5 52/1/5
f 52/4/3 204/3/3 36/1/3
f 208/40/4 210/41/4 207/42/4
f 38/4/2 207/3/2 37/1/2
f 37/4/1 210/3/1 53/1/1
f 54/1/5 210/2/5 209/3/5
f 54/4/3 208/3/3 38/1/3
f 212/43/4 214/44/4 211/45/4
f 39/1/2 212/2/2 211/3/2
f 39/4/1 214/3/1 55/1/1
f 55/4/5 213/3/5 56/1/5
f 56/4/3 212/3/3 40/1/3
f 216/46/4 218/47/4 215/48/4
f 42/4/2 215/3/2 41/1/2
f 41/4/1 218/3/1 57/1/1
f 57/4/5 217/3/5 51/1/5
f 51/4/3 216/3/3 42/1/3
f 220/49/4 222/50/4 219/51/4
f 46/4/2 219/3/2 43/1/2
f 43/4/1 222/3/1 50/1/1
f 50/4/5 221/3/5 47/1/5
f 47/4/3 220/3/3 46/1/3
f 224/52/4 226/53/4 223/54/4
f 44/4/2 223/3/2 45/1/2
f 45/4/1 226/3/1 48/1/1
f 48/4/5 225/3/5 49/1/5
f 49/4/3 224/3/3 44/1/3
f 16/1/1 23/4/1 62/2/1
f 32/4/2 69/2/2 124/3/2
f 68/4/3 125/2/3 126/3/3
f 98/4/3 130/2/3 125/3/3
f 123/1/4 67/4/4 124/2/4
f 124/1/3 69/4/3 126/2/3
f 128/4/5 138/2/5 129/3/5
f 98/1/3 129/4/3 139/2/3
f 131/1/1 122/4/1 132/2/1
f 123/4/2 133/2/2 142/3/2
f 133/1/3 124/4/3 134/2/3
f 126/4/5 136/2/5 144/3/5
f 137/4/4 146/2/4 138/3/4
f 138/4/3 147/2/3 139/3/3
f 141/4/5 150/2/5 146/3/5
f 132/4/4 142/2/4 150/3/4
f 134/4/6 144/2/6 145/3/6
f 146/4/3 152/2/3 147/3/3
f 147/4/2 153/2/2 148/3/2
f 143/4/5 145/2/5 155/3/5
f 152/4/6 149/2/6 153/3/6
f 156/4/2 154/2/2 149/3/2
f 151/4/6 155/2/6 154/3/6
f 26/5/4 157/55/4 158/6/4
f 65/8/2 28/56/2 27/9/2
f 100/12/1 158/18/1 157/13/1
f 26/8/5 25/56/5 64/9/5
f 160/15/4 161/57/4 162/16/4
f 106/12/2 160/18/2 159/13/2
f 104/12/1 159/18/1 162/13/1
f 105/12/5 162/18/5 161/13/5
f 113/12/3 161/18/3 160/13/3
f 164/15/4 165/57/4 166/16/4
f 107/14/2 108/12/2 164/18/2
f 107/12/1 163/18/1 166/13/1
f 114/12/5 166/18/5 165/13/5
f 115/12/8 165/18/8 164/13/8
f 168/15/4 169/57/4 170/16/4
f 110/12/2 168/18/2 167/13/2
f 109/12/1 167/18/1 170/13/1
f 117/14/5 116/12/5 170/18/5
f 117/12/3 169/18/3 168/13/3
f 172/15/4 173/57/4 174/16/4
f 103/12/2 172/18/2 171/13/2
f 111/12/1 171/18/1 174/13/1
f 119/14/5 118/12/5 174/18/5
f 119/12/3 173/18/3 172/13/3
f 176/15/4 177/57/4 178/16/4
f 101/12/2 176/18/2 175/13/2
f 102/12/1 175/18/1 178/13/1
f 120/12/5 178/18/5 177/13/5
f 121/12/3 177/18/3 176/13/3
f 180/19/4 181/58/4 182/20/4
f 74/4/2 180/2/2 179/3/2
f 71/4/1 179/2/1 182/3/1
f 72/4/5 182/2/5 181/3/5
f 88/4/3 181/2/3 180/3/3
f 184/22/4 185/59/4 186/23/4
f 76/4/2 184/2/2 183/3/2
f 75/4/1 183/2/1 186/3/1
f 90/1/5 89/4/5 186/2/5
f 90/4/3 185/2/3 184/3/3
f 188/25/4 189/60/4 190/26/4
f 77/1/2 78/4/2 188/2/2
f 77/4/1 187/2/1 190/3/1
f 91/4/5 190/2/5 189/3/5
f 92/4/3 189/2/3 188/3/3
f 192/28/4 193/61/4 194/29/4
f 84/4/2 192/2/2 191/3/2
f 79/4/1 191/2/1 194/3/1
f 93/4/5 194/2/5 193/3/5
f 94/4/3 193/2/3 192/3/3
f 196/31/4 197/62/4 198/32/4
f 82/4/2 196/2/2 195/3/2
f 83/4/1 195/2/1 198/3/1
f 95/4/5 198/2/5 197/3/5
f 87/4/3 197/2/3 196/3/3
f 200/34/4 201/63/4 202/35/4
f 80/4/2 200/2/2 199/3/2
f 81/4/1 199/2/1 202/3/1
f 86/4/5 202/2/5 201/3/5
f 85/4/3 201/2/3 200/3/3
f 204/37/4 205/64/4 206/38/4
f 36/4/2 204/2/2 203/3/2
f 33/4/1 203/2/1 206/3/1
f 34/4/5 206/2/5 205/3/5
f 52/4/3 205/2/3 204/3/3
f 208/40/4 209/65/4 210/41/4
f 38/4/2 208/2/2 207/3/2
f 37/4/1 207/2/1 210/3/1
f 54/1/5 53/4/5 210/2/5
f 54/4/3 209/2/3 208/3/3
f 212/43/4 213/66/4 214/44/4
f 39/1/2 40/4/2 212/2/2
f 39/4/1 211/2/1 214/3/1
f 55/4/5 214/2/5 213/3/5
f 56/4/3 213/2/3 212/3/3
f 216/46/4 217/67/4 218/47/4
f 42/4/2 216/2/2 215/3/2
f 41/4/1 215/2/1 218/3/1
f 57/4/5 218/2/5 217/3/5
f 51/4/3 217/2/3 216/3/3
f 220/49/4 221/68/4 222/50/4
f 46/4/2 220/2/2 219/3/2
f 43/4/1 219/2/1 222/3/1
f 50/4/5 222/2/5 221/3/5
f 47/4/3 221/2/3 220/3/3
f 224/52/4 225/69/4 226/53/4
f 44/4/2 224/2/2 223/3/2
f 45/4/1 223/2/1 226/3/1
f 48/4/5 226/2/5 225/3/5
f 49/4/3 225/2/3 224/3/3
f 2/12/6 4/13/6 1/14/6
f 1/12/6 6/13/6 5/14/6
f 7/1/6 2/2/6 1/3/6
f 9/12/2 3/13/2 2/14/2
f 3/4/1 11/3/1 4/1/1
f 5/12/6 13/13/6 12/14/6
f 7/4/6 5/3/6 14/1/6
f 4/4/1 15/3/1 6/1/1
f 7/12/6 17/13/6 8/14/6
f 18/4/2 2/3/2 8/1/2
f 19/12/4 10/13/4 9/14/4
f 12/12/5 21/13/5 20/14/5
f 14/4/6 12/3/6 22/1/6
f 6/4/1 21/3/1 13/1/1
f 14/12/6 16/13/6 7/14/6
f 24/70/1 26/71/1 11/72/1
f 11/72/1 27/73/1 15/10/1
f 27/73/1 29/74/1 15/10/1
f 8/12/2 30/13/2 18/14/2
f 17/1/1 31/2/1 32/3/1
f 33/75/4 18/76/4 35/77/4
f 36/78/4 35/77/4 37/79/4
f 38/80/4 35/77/4 39/81/4
f 40/82/4 35/77/4 41/83/4
f 42/84/4 35/77/4 43/85/4
f 19/86/4 45/87/4 35/77/4
f 35/77/4 46/88/4 43/85/4
f 46/89/4 48/90/4 47/91/4
f 44/92/4 9/93/4 49/94/4
f 48/90/4 9/93/4 47/91/4
f 50/95/4 9/93/4 51/96/4
f 18/97/4 52/98/4 9/93/4
f 36/75/4 53/99/4 52/98/4
f 9/93/4 53/99/4 54/100/4
f 38/101/4 55/102/4 54/100/4
f 9/93/4 55/102/4 56/103/4
f 40/104/4 57/105/4 56/103/4
f 9/93/4 57/105/4 51/96/4
f 50/95/4 42/106/4 43/85/4
f 19/12/2 24/13/2 11/14/2
f 59/14/4 21/18/4 15/13/4
f 22/4/5 20/3/5 60/1/5
f 22/12/6 23/13/6 14/14/6
f 15/12/5 63/13/5 59/14/5
f 64/12/4 24/13/4 58/14/4
f 63/12/4 28/13/4 65/14/4
f 35/14/4 30/18/4 66/13/4
f 17/4/1 67/3/1 30/1/1
f 31/4/6 69/3/6 32/1/6
f 19/14/2 70/18/2 58/13/2
f 72/78/4 60/107/4 71/79/4
f 74/80/4 60/107/4 75/81/4
f 76/82/4 60/107/4 77/83/4
f 78/84/4 60/107/4 79/85/4
f 20/76/4 81/86/4 60/107/4
f 60/107/4 82/108/4 83/87/4
f 60/107/4 84/88/4 79/85/4
f 85/95/4 20/89/4 59/109/4
f 86/85/4 59/109/4 87/105/4
f 73/90/4 88/92/4 59/109/4
f 74/110/4 89/97/4 88/92/4
f 59/109/4 89/97/4 90/111/4
f 76/98/4 91/112/4 90/111/4
f 59/109/4 91/112/4 92/99/4
f 78/100/4 93/113/4 92/99/4
f 59/109/4 93/113/4 94/102/4
f 84/103/4 95/114/4 94/102/4
f 59/109/4 95/114/4 87/105/4
f 87/105/4 81/106/4 86/85/4
f 60/12/5 61/13/5 22/14/5
f 61/4/1 62/3/1 23/1/1
f 62/4/6 68/3/6 31/1/6
f 59/12/5 99/13/5 73/14/5
f 100/115/4 102/116/4 103/70/4
f 104/117/4 70/118/4 99/74/4
f 106/73/4 99/74/4 107/119/4
f 108/71/4 99/74/4 109/120/4
f 110/121/4 99/74/4 111/122/4
f 111/122/4 100/115/4 103/70/4
f 100/115/4 63/123/4 65/10/4
f 70/124/4 112/125/4 58/126/4
f 106/127/4 114/128/4 113/129/4
f 108/121/4 116/130/4 115/131/4
f 110/132/4 118/73/4 117/71/4
f 103/133/4 120/134/4 119/135/4
f 121/136/4 100/137/4 112/125/4
f 120/134/4 112/125/4 119/135/4
f 118/73/4 112/125/4 117/71/4
f 116/130/4 112/125/4 115/131/4
f 114/128/4 112/125/4 113/129/4
f 105/72/4 113/129/4 112/125/4
f 64/10/4 58/126/4 112/125/4
f 70/14/2 66/18/2 122/13/2
f 30/4/1 123/3/1 66/1/1
f 73/12/4 96/13/4 60/14/4
f 61/1/1 128/2/1 97/3/1
f 62/1/6 129/2/6 98/3/6
f 99/12/5 127/13/5 73/14/5
f 70/12/4 131/13/4 99/14/4
f 122/1/1 123/2/1 132/3/1
f 125/4/4 136/3/4 126/1/4
f 96/1/1 137/2/1 128/3/1
f 130/4/4 135/3/4 125/1/4
f 131/4/1 137/3/1 127/1/1
f 144/138/3 135/139/3 145/140/3
f 139/4/4 140/3/4 130/1/4
f 145/138/3 140/139/3 149/140/3
f 133/4/3 151/3/3 142/1/3
f 153/140/3 140/141/3 148/139/3
f 149/138/3 155/139/3 145/140/3
f 146/1/3 156/2/3 152/3/3
f 150/1/3 151/2/3 156/3/3
f 2/12/6 3/18/6 4/13/6
f 1/12/6 4/18/6 6/13/6
f 7/1/6 8/4/6 2/2/6
f 9/12/2 10/18/2 3/13/2
f 3/4/1 10/2/1 11/3/1
f 5/12/6 6/18/6 13/13/6
f 7/4/6 1/2/6 5/3/6
f 4/4/1 11/2/1 15/3/1
f 7/12/6 16/18/6 17/13/6
f 18/4/2 9/2/2 2/3/2
f 19/12/4 11/18/4 10/13/4
f 12/12/5 13/18/5 21/13/5
f 14/4/6 5/2/6 12/3/6
f 6/4/1 15/2/1 21/3/1
f 14/12/6 23/18/6 16/13/6
f 24/70/1 25/121/1 26/71/1
f 11/72/1 26/71/1 27/73/1
f 27/73/1 28/142/1 29/74/1
f 8/12/2 17/18/2 30/13/2
f 17/1/1 16/4/1 31/2/1
f 33/75/4 34/107/4 18/76/4
f 36/78/4 33/75/4 35/77/4
f 38/80/4 37/79/4 35/77/4
f 40/82/4 39/81/4 35/77/4
f 42/84/4 41/83/4 35/77/4
f 19/86/4 44/108/4 45/87/4
f 35/77/4 45/87/4 46/88/4
f 46/89/4 45/109/4 48/90/4
f 44/92/4 19/110/4 9/93/4
f 48/90/4 49/94/4 9/93/4
f 50/95/4 47/91/4 9/93/4
f 18/97/4 34/111/4 52/98/4
f 36/75/4 37/112/4 53/99/4
f 9/93/4 52/98/4 53/99/4
f 38/101/4 39/113/4 55/102/4
f 9/93/4 54/100/4 55/102/4
f 40/104/4 41/114/4 57/105/4
f 9/93/4 56/103/4 57/105/4
f 50/95/4 51/96/4 42/106/4
f 19/12/2 58/18/2 24/13/2
f 59/14/4 20/12/4 21/18/4
f 22/4/5 12/2/5 20/3/5
f 22/12/6 61/18/6 23/13/6
f 15/12/5 29/18/5 63/13/5
f 64/12/4 25/18/4 24/13/4
f 63/12/4 29/18/4 28/13/4
f 35/14/4 18/12/4 30/18/4
f 17/4/1 32/2/1 67/3/1
f 31/4/6 68/2/6 69/3/6
f 19/14/2 35/12/2 70/18/2
f 72/78/4 73/75/4 60/107/4
f 74/80/4 71/79/4 60/107/4
f 76/82/4 75/81/4 60/107/4
f 78/84/4 77/83/4 60/107/4
f 20/76/4 80/77/4 81/86/4
f 60/107/4 81/86/4 82/108/4
f 60/107/4 83/87/4 84/88/4
f 85/95/4 80/91/4 20/89/4
f 86/85/4 85/95/4 59/109/4
f 73/90/4 72/94/4 88/92/4
f 74/110/4 75/93/4 89/97/4
f 59/109/4 88/92/4 89/97/4
f 76/98/4 77/75/4 91/112/4
f 59/109/4 90/111/4 91/112/4
f 78/100/4 79/101/4 93/113/4
f 59/109/4 92/99/4 93/113/4
f 84/103/4 83/104/4 95/114/4
f 59/109/4 94/102/4 95/114/4
f 87/105/4 82/96/4 81/106/4
f 60/12/5 96/18/5 61/13/5
f 61/4/1 97/2/1 62/3/1
f 62/4/6 98/2/6 68/3/6
f 59/12/5 63/18/5 99/13/5
f 100/115/4 101/72/4 102/116/4
f 104/117/4 105/142/4 70/118/4
f 106/73/4 104/117/4 99/74/4
f 108/71/4 107/119/4 99/74/4
f 110/121/4 109/120/4 99/74/4
f 111/122/4 99/74/4 100/115/4
f 100/115/4 99/74/4 63/123/4
f 70/124/4 105/72/4 112/125/4
f 106/127/4 107/70/4 114/128/4
f 108/121/4 109/143/4 116/130/4
f 110/132/4 111/144/4 118/73/4
f 103/133/4 102/142/4 120/134/4
f 121/136/4 101/74/4 100/137/4
f 120/134/4 121/136/4 112/125/4
f 118/73/4 119/135/4 112/125/4
f 116/130/4 117/71/4 112/125/4
f 114/128/4 115/131/4 112/125/4
f 70/14/2 35/12/2 66/18/2
f 30/4/1 67/2/1 123/3/1
f 73/12/4 127/18/4 96/13/4
f 61/1/1 96/4/1 128/2/1
f 62/1/6 97/4/6 129/2/6
f 99/12/5 131/18/5 127/13/5
f 70/12/4 122/18/4 131/13/4
f 122/1/1 66/4/1 123/2/1
f 125/4/4 135/2/4 136/3/4
f 96/1/1 127/4/1 137/2/1
f 130/4/4 140/2/4 135/3/4
f 131/4/1 141/2/1 137/3/1
f 144/138/3 136/141/3 135/139/3
f 139/4/4 148/2/4 140/3/4
f 145/138/3 135/141/3 140/139/3
f 133/4/3 143/2/3 151/3/3
f 153/140/3 149/138/3 140/141/3
f 149/138/3 154/141/3 155/139/3
f 146/1/3 150/4/3 156/2/3
f 150/1/3 142/4/3 151/2/3
