# Mesh: skyscraper_small

# List of geometric vertices
v -3.4121 -1.8691 2.3794
v 3.4121 -1.8691 2.3794
v 3.4121 -2.1315 2.3794
v -3.4121 -2.1315 2.3794
v 3.4121 -1.9431 3.4293
v 3.4121 -2.1315 3.4293
v -3.4121 -1.9431 3.4293
v -3.4121 -2.1315 3.4293
v 0.9647 -1.8836 -3.4293
v 3.4121 -1.8836 -3.4293
v 3.4121 -4.4433 -3.4293
v 0.9647 -4.4433 -3.4293
v -0.9647 -1.8836 -3.4293
v -0.9647 -4.4433 -3.4293
v 0.9647 4.0799 -3.4293
v 3.4121 4.0799 -3.4293
v 3.4121 -1.8836 2.3450
v 3.4121 -4.4433 2.3450
v 0.9647 -4.4433 2.3450
v -3.4121 -1.8836 -3.4293
v -3.4121 -4.4433 -3.4293
v -0.9647 4.0799 -3.4293
v -0.9647 -4.4433 2.3450
v 0.9647 4.4433 -3.4293
v 3.4121 4.4433 -3.4292
v 3.4121 4.0799 2.3450
v 3.0971 -2.3777 2.3450
v 3.0971 -3.4276 2.3450
v 1.2598 -3.4276 2.3450
v 1.2598 -2.3777 2.3450
v 0.9647 -1.8836 2.3450
v -3.4121 -1.8836 2.3450
v -3.4121 -4.4433 2.3450
v -3.4121 4.0799 -3.4293
v -0.9647 4.4433 -3.4293
v 0.9647 -4.4433 2.6996
v 0.7874 -4.4433 2.6996
v 0.7874 -4.4433 2.6603
v -0.7874 -4.4433 2.6603
v -0.7874 -4.4433 2.6996
v -0.9647 -4.4433 2.6996
v 3.4121 4.4433 2.3450
v -3.4121 4.4433 2.3450
v -0.9647 4.4433 2.3450
v -0.7341 4.4433 2.0391
v -3.0268 4.4433 2.0391
v 1.2598 3.4307 2.3450
v 3.0971 3.4307 2.3450
v 0.9647 4.0799 2.3450
v 1.2598 2.3809 2.3450
v 1.2598 1.5935 2.3450
v 1.2598 0.5436 2.3450
v 1.2598 -0.2438 2.3450
v 1.2598 -1.2937 2.3450
v 3.0971 -1.2937 2.3450
v 3.0971 -0.2438 2.3450
v 3.0971 0.5436 2.3450
v 3.0971 2.3809 2.3450
v 3.0971 1.5935 2.3450
v 0.9647 -1.8836 2.6996
v -1.2598 -3.4135 2.3450
v -3.0971 -3.4135 2.3450
v -1.2598 -2.3636 2.3450
v -0.9647 -1.8836 2.3450
v -3.0971 -2.3636 2.3450
v -3.4121 4.0799 2.3450
v -3.4121 4.4433 -3.4293
v -0.9647 4.4433 2.6996
v -0.7341 4.4433 2.3536
v -0.9647 -1.8836 2.6996
v -0.7874 -2.3435 2.6996
v 0.7874 -2.3435 2.6996
v 0.9647 4.4433 2.3450
v 0.9647 4.0799 2.6996
v -3.0971 3.4307 2.3450
v -1.2598 3.4307 2.3450
v -0.9647 4.0799 2.3450
v -3.0971 2.3809 2.3450
v -3.0971 1.5935 2.3450
v -3.0971 -1.2937 2.3450
v -3.0971 -0.2438 2.3450
v -3.0971 0.5436 2.3450
v -1.2598 -1.2937 2.3450
v -1.2598 -0.2438 2.3450
v -1.2598 0.5436 2.3450
v -1.2598 2.3809 2.3450
v -1.2598 1.5935 2.3450
v 0.9647 4.4433 2.6996
v 0.7599 4.4433 2.3536
v 0.7599 4.4433 2.0391
v -0.9647 4.0799 2.6996
v -0.5249 3.4242 2.6996
v 0.5249 3.4242 2.6996
v -0.5249 2.7942 2.6996
v -0.5249 1.6056 2.6996
v -0.5249 0.9757 2.6996
v -0.5249 -0.2500 2.6996
v -0.5249 -0.8799 2.6996
v 0.5249 -0.8799 2.6996
v 0.5249 -0.2500 2.6996
v 0.5249 0.9757 2.6996
v 0.5249 2.7942 2.6996
v 0.5249 1.6056 2.6996
v 0.7874 -2.3435 2.6603
v -0.7874 -2.3435 2.6603
v -0.5249 3.4242 2.6611
v -0.5249 2.7942 2.6611
v 0.5249 2.7942 2.6611
v 0.5249 3.4242 2.6611
v -0.5249 1.6056 2.6611
v -0.5249 0.9757 2.6611
v 0.5249 0.9757 2.6611
v 0.5249 1.6056 2.6611
v -0.5249 -0.2500 2.6611
v -0.5249 -0.8799 2.6611
v 0.5249 -0.8799 2.6611
v 0.5249 -0.2500 2.6611
v -3.0971 3.4307 2.3026
v -3.0971 2.3809 2.3026
v -1.2598 2.3809 2.3026
v -1.2598 3.4307 2.3026
v -3.0971 1.5935 2.3026
v -3.0971 0.5436 2.3026
v -1.2598 0.5436 2.3026
v -1.2598 1.5935 2.3026
v -3.0971 -0.2438 2.3026
v -3.0971 -1.2937 2.3026
v -1.2598 -1.2937 2.3026
v -1.2598 -0.2438 2.3026
v -3.0971 -2.3636 2.3026
v -3.0971 -3.4135 2.3026
v -1.2598 -3.4135 2.3026
v -1.2598 -2.3636 2.3026
v 1.2598 3.4307 2.3026
v 1.2598 2.3809 2.3026
v 3.0971 2.3809 2.3026
v 3.0971 3.4307 2.3026
v 1.2598 1.5935 2.3026
v 1.2598 0.5436 2.3026
v 3.0971 0.5436 2.3026
v 3.0971 1.5935 2.3026
v 1.2598 -0.2438 2.3026
v 1.2598 -1.2937 2.3026
v 3.0971 -1.2937 2.3026
v 3.0971 -0.2438 2.3026
v 1.2598 -2.3777 2.3026
v 1.2598 -3.4276 2.3026
v 3.0971 -3.4276 2.3026
v 3.0971 -2.3777 2.3026
v -0.7341 4.2530 2.0391
v -3.0268 4.2530 2.0391
v -0.7341 4.2530 2.3536
v 0.7599 4.2530 2.3536
v 0.7599 4.2530 2.0391
v -3.0268 4.4433 -3.0833
v -0.8558 4.4433 -3.0833
v 3.0268 4.4433 2.0391
v 3.0268 4.4433 -3.0833
v 0.8558 4.4433 -3.0833
v 3.0268 4.2530 2.0391
v 3.0268 4.2530 -3.0833
v 0.8558 4.2530 -3.0833
v -0.8558 4.2530 -3.0833
v -3.0268 4.2530 -3.0833

# List of vertex normals
vn 0.0000 0.0000 -1.0000
vn 1.0000 0.0000 0.0000
vn -0.0000 0.0000 1.0000
vn -1.0000 0.0000 0.0000
vn 0.0000 -1.0000 -0.0000
vn -0.0000 0.9975 0.0704
vn 0.0000 1.0000 0.0000
vn -0.9065 0.4223 0.0000

# List of texture coordinates
vt 0.5250 0.4750
vt 0.4750 0.5250
vt 0.4750 0.4750
vt 0.5250 0.5250
vt 0.8350 0.2558
vt 0.7850 0.3058
vt 0.7850 0.2558
vt 0.9890 0.3520
vt 0.7144 0.7182
vt 0.7144 0.3520
vt 0.0852 0.4500
vt 0.0899 0.4507
vt 0.0906 0.4504
vt 0.0928 0.4490
vt 0.0925 0.4493
vt 0.0920 0.4495
vt 0.7711 0.8788
vt 0.7714 0.8812
vt 0.7696 0.8795
vt 0.1026 0.5071
vt 0.1008 0.5074
vt 0.1003 0.5075
vt 0.1026 0.5092
vt 0.1006 0.5090
vt 0.1097 0.5089
vt 0.1075 0.5087
vt 0.1023 0.5068
vt 0.7731 0.8785
vt 0.7841 0.8790
vt 0.7736 0.8787
vt 0.1038 0.5072
vt 0.1048 0.5067
vt 0.1047 0.5054
vt 0.1153 0.5069
vt 0.1175 0.5063
vt 0.1113 0.5060
vt 0.1097 0.5067
vt 0.1043 0.5065
vt 0.7683 0.8796
vt 0.7735 0.8778
vt 0.7702 0.8797
vt 0.0989 0.5077
vt 0.1014 0.5076
vt 0.1019 0.5072
vt 0.1047 0.5057
vt 0.1061 0.5057
vt 0.1016 0.5052
vt 0.1004 0.5052
vt 0.0995 0.5075
vt 0.5783 0.7523
vt 0.9909 0.9881
vt 0.5783 0.9881
vt 0.4055 0.4380
vt 0.4055 0.4384
vt 0.4053 0.4383
vt 0.4089 0.4371
vt 0.4091 0.4368
vt 0.4085 0.4368
vt 0.4085 0.4371
vt 0.4054 0.4379
vt 0.5783 0.7499
vt 0.9909 0.9858
vt 0.5783 0.9858
vt 0.4053 0.4377
vt 0.4054 0.4378
vt 0.4080 0.4375
vt 0.4081 0.4372
vt 0.4079 0.4372
vt 0.4079 0.4374
vt 0.4054 0.4376
vt 0.5783 0.7476
vt 0.9909 0.9834
vt 0.5783 0.9834
vt 0.4046 0.4374
vt 0.4051 0.4377
vt 0.4051 0.4376
vt 0.4079 0.4376
vt 0.4080 0.4374
vt 0.4080 0.4372
vt 0.4082 0.4375
vt 0.4048 0.4372
vt 0.5783 0.7520
vt 0.9909 0.9879
vt 0.5783 0.9879
vt 0.1073 0.4465
vt 0.1075 0.4466
vt 0.1075 0.4464
vt 0.1102 0.4466
vt 0.1107 0.4466
vt 0.1093 0.4460
vt 0.1090 0.4461
vt 0.1074 0.4463
vt 0.5772 0.7523
vt 0.9899 0.9881
vt 0.5772 0.9881
vt 0.4073 0.4371
vt 0.4083 0.4376
vt 0.4033 0.4354
vt 0.4029 0.4357
vt 0.4032 0.4360
vt 0.4033 0.4358
vt 0.4074 0.4374
vt 0.5772 0.7499
vt 0.9899 0.9858
vt 0.5772 0.9858
vt 0.4067 0.4359
vt 0.4068 0.4363
vt 0.4070 0.4367
vt 0.4035 0.4357
vt 0.4034 0.4359
vt 0.4033 0.4360
vt 0.4031 0.4358
vt 0.4066 0.4363
vt 0.5772 0.7476
vt 0.9899 0.9834
vt 0.5772 0.9834
vt 0.4075 0.4346
vt 0.4069 0.4350
vt 0.4069 0.4354
vt 0.4027 0.4357
vt 0.4028 0.4359
vt 0.4025 0.4364
vt 0.4021 0.4362
vt 0.4073 0.4351
vt 0.5772 0.7489
vt 0.9899 0.9847
vt 0.5772 0.9847
vt 0.1081 0.4436
vt 0.1093 0.4429
vt 0.1099 0.4430
vt 0.1048 0.4440
vt 0.1048 0.4445
vt 0.1050 0.4442
vt 0.1048 0.4438
vt 0.1085 0.4437
vt 0.1021 0.4768
vt 0.0998 0.4757
vt 0.0997 0.4767
vt 0.1034 0.4769
vt 0.1012 0.4771
vt 0.1032 0.4778
vt 0.1027 0.4771
vt 0.1019 0.4780
vt 0.1025 0.4778
vt 0.0906 0.4767
vt 0.0905 0.4776
vt 0.0982 0.4777
vt 0.1009 0.4779
vt 0.0874 0.4793
vt 0.0988 0.4791
vt 0.8350 0.3058
vt 0.9890 0.7182
vt 0.0870 0.4501
vt 0.0912 0.4500
vt 0.7763 0.8807
vt 0.7801 0.8781
vt 0.7704 0.8772
vt 0.9909 0.7523
vt 0.9909 0.7499
vt 0.9909 0.7476
vt 0.9909 0.7520
vt 0.9899 0.7523
vt 0.9899 0.7499
vt 0.9899 0.7476
vt 0.9899 0.7489
vt 0.0884 0.4800
vt 0.0907 0.4476
vt 0.0928 0.4463
vt 0.0938 0.4469
vt 0.0962 0.4461
vt 0.0963 0.4467
vt 0.3906 0.4380
vt 0.3905 0.4380
vt 0.3926 0.4389
vt 0.1042 0.4436
vt 0.0852 0.4466
vt 0.3820 0.4377
vt 0.4038 0.4354
vt 0.3895 0.4374
vt 0.0981 0.4467
vt 0.0985 0.4466
vt 0.3930 0.4378
vt 0.3943 0.4389
vt 0.4046 0.4368
vt 0.3930 0.4373
vt 0.0870 0.4788
vt 0.0859 0.4786
vt 0.0850 0.4778
vt 0.4019 0.4353
vt 0.3874 0.4388
vt 0.1042 0.4452
vt 0.1071 0.4443
vt 0.1118 0.4428
vt 0.1070 0.4466
vt 0.1071 0.4461
vt 0.3952 0.4377
vt 0.3958 0.4392
vt 0.4038 0.4377
vt 0.3949 0.4379
vt 0.0886 0.4788
vt 0.0879 0.4787
vt 0.1088 0.4439
vt 0.1078 0.4456
vt 0.1091 0.4458
vt 0.0962 0.4752
vt 0.0971 0.4764
vt 0.1035 0.4764
vt 0.0993 0.4775
vt 0.4097 0.4385
vt 0.4086 0.4340
vt 0.4010 0.4364
vt 0.1121 0.4466
vt 0.4046 0.4386
vt 0.4038 0.4373
vt 0.0902 0.4791
vt 0.0892 0.4784
vt 0.1135 0.4463
vt 0.1136 0.4429
vt 0.1033 0.4783
vt 0.1041 0.4783
vt 0.1130 0.4473
vt 0.4099 0.4364
vt 0.4088 0.4377
vt 0.0990 0.4785
vt 0.0902 0.4783
vt 0.1053 0.4781
vt 0.1053 0.4766
vt 0.4120 0.4363
vt 0.1180 0.4455
vt 0.1154 0.4475
vt 0.1152 0.4451
vt 0.1203 0.4451
vt 0.1224 0.4434
vt 0.1215 0.4452
vt 0.1196 0.4452
vt 0.1166 0.4457
vt 0.1181 0.4432
vt 0.1238 0.4437
vt 0.1275 0.4447
vt 0.1274 0.4469
vt 0.1352 0.4443
vt 0.1065 0.4785
vt 0.1043 0.4763
vt 0.1064 0.4761
vt 0.0898 0.4783
vt 0.0888 0.4787
vt 0.8429 0.2621
vt 0.8336 0.2615
vt 0.8450 0.2609
vt 0.8453 0.2600
vt 0.8345 0.2610
vt 0.8439 0.2587
vt 0.8347 0.2596
vt 0.8466 0.2608
vt 0.0904 0.4780
vt 0.0895 0.4785
vt 0.4010 0.4347
vt 0.4102 0.4375
vt 0.1183 0.4470
vt 0.8325 0.2630
vt 0.8468 0.2600

# List of polygonal faces
f 2/1/1 4/2/1 1/3/1
f 5/1/2 3/2/2 2/3/2
f 7/1/3 6/2/3 5/3/3
f 7/3/4 4/4/4 8/2/4
f 4/3/5 6/4/5 8/2/5
f 5/5/6 1/6/6 7/7/6
f 38/8/3 105/9/3 39/10/3
f 40/11/2 105/12/2 71/13/2
f 71/13/5 104/14/5 72/15/5
f 38/16/4 72/15/4 104/14/4
f 107/17/3 109/18/3 106/19/3
f 94/20/2 106/21/2 92/22/2
f 92/22/5 109/23/5 93/24/5
f 102/25/4 109/23/4 108/26/4
f 102/25/7 107/27/7 94/20/7
f 111/28/3 113/29/3 110/30/3
f 96/31/2 110/32/2 95/33/2
f 95/33/5 113/34/5 103/35/5
f 103/35/4 112/36/4 101/37/4
f 101/37/7 111/38/7 96/31/7
f 115/39/3 117/40/3 114/41/3
f 98/42/2 114/43/2 97/44/2
f 97/44/5 117/45/5 100/46/5
f 100/46/4 116/47/4 99/48/4
f 99/48/7 115/49/7 98/42/7
f 119/50/3 121/51/3 118/52/3
f 78/53/2 118/54/2 75/55/2
f 75/55/5 121/56/5 76/57/5
f 76/57/4 120/58/4 86/59/4
f 86/59/7 119/60/7 78/53/7
f 123/61/3 125/62/3 122/63/3
f 82/64/2 122/53/2 79/65/2
f 79/65/5 125/66/5 87/67/5
f 87/67/4 124/68/4 85/69/4
f 85/69/7 123/70/7 82/64/7
f 127/71/3 129/72/3 126/73/3
f 80/74/2 126/75/2 81/76/2
f 81/76/5 129/77/5 84/78/5
f 84/78/4 128/79/4 83/80/4
f 83/80/7 127/81/7 80/74/7
f 131/82/3 133/83/3 130/84/3
f 62/85/2 130/86/2 65/87/2
f 65/87/5 133/88/5 63/89/5
f 63/89/4 132/90/4 61/91/4
f 61/91/7 131/92/7 62/85/7
f 135/93/3 137/94/3 134/95/3
f 50/96/2 134/67/2 47/97/2
f 47/97/5 137/98/5 48/99/5
f 48/99/4 136/100/4 58/101/4
f 58/101/7 135/102/7 50/96/7
f 139/103/3 141/104/3 138/105/3
f 52/106/2 138/107/2 51/108/2
f 51/108/5 141/109/5 59/110/5
f 59/110/4 140/111/4 57/112/4
f 57/112/7 139/113/7 52/106/7
f 143/114/3 145/115/3 142/116/3
f 54/117/2 142/118/2 53/119/2
f 53/119/5 145/120/5 56/121/5
f 56/121/4 144/122/4 55/123/4
f 55/123/7 143/124/7 54/117/7
f 147/125/3 149/126/3 146/127/3
f 29/128/2 146/129/2 30/130/2
f 30/130/5 149/131/5 27/132/5
f 27/132/4 148/133/4 28/134/4
f 29/128/7 148/133/7 147/135/7
f 45/136/1 151/137/1 46/138/1
f 69/139/2 150/140/2 45/136/2
f 89/141/1 152/142/1 69/139/1
f 90/143/4 153/144/4 89/141/4
f 46/138/2 164/145/2 155/146/2
f 157/147/1 154/148/1 90/143/1
f 158/149/4 160/150/4 157/147/4
f 2/1/1 3/4/1 4/2/1
f 5/1/2 6/4/2 3/2/2
f 7/1/3 8/4/3 6/2/3
f 7/3/4 1/1/4 4/4/4
f 4/3/5 3/1/5 6/4/5
f 5/5/6 2/151/6 1/6/6
f 38/8/3 104/152/3 105/9/3
f 40/11/2 39/153/2 105/12/2
f 71/13/5 105/12/5 104/14/5
f 38/16/4 37/154/4 72/15/4
f 107/17/3 108/155/3 109/18/3
f 94/20/2 107/27/2 106/21/2
f 92/22/5 106/21/5 109/23/5
f 102/25/4 93/24/4 109/23/4
f 102/25/7 108/26/7 107/27/7
f 111/28/3 112/156/3 113/29/3
f 96/31/2 111/38/2 110/32/2
f 95/33/5 110/32/5 113/34/5
f 103/35/4 113/34/4 112/36/4
f 101/37/7 112/36/7 111/38/7
f 115/39/3 116/157/3 117/40/3
f 98/42/2 115/49/2 114/43/2
f 97/44/5 114/43/5 117/45/5
f 100/46/4 117/45/4 116/47/4
f 99/48/7 116/47/7 115/49/7
f 119/50/3 120/158/3 121/51/3
f 78/53/2 119/60/2 118/54/2
f 75/55/5 118/54/5 121/56/5
f 76/57/4 121/56/4 120/58/4
f 86/59/7 120/58/7 119/60/7
f 123/61/3 124/159/3 125/62/3
f 82/64/2 123/70/2 122/53/2
f 79/65/5 122/53/5 125/66/5
f 87/67/4 125/66/4 124/68/4
f 85/69/7 124/68/7 123/70/7
f 127/71/3 128/160/3 129/72/3
f 80/74/2 127/81/2 126/75/2
f 81/76/5 126/75/5 129/77/5
f 84/78/4 129/77/4 128/79/4
f 83/80/7 128/79/7 127/81/7
f 131/82/3 132/161/3 133/83/3
f 62/85/2 131/92/2 130/86/2
f 65/87/5 130/86/5 133/88/5
f 63/89/4 133/88/4 132/90/4
f 61/91/7 132/90/7 131/92/7
f 135/93/3 136/162/3 137/94/3
f 50/96/2 135/102/2 134/67/2
f 47/97/5 134/67/5 137/98/5
f 48/99/4 137/98/4 136/100/4
f 58/101/7 136/100/7 135/102/7
f 139/103/3 140/163/3 141/104/3
f 52/106/2 139/113/2 138/107/2
f 51/108/5 138/107/5 141/109/5
f 59/110/4 141/109/4 140/111/4
f 57/112/7 140/111/7 139/113/7
f 143/114/3 144/164/3 145/115/3
f 54/117/2 143/124/2 142/118/2
f 53/119/5 142/118/5 145/120/5
f 56/121/4 145/120/4 144/122/4
f 55/123/7 144/122/7 143/124/7
f 147/125/3 148/165/3 149/126/3
f 29/128/2 147/135/2 146/129/2
f 30/130/5 146/129/5 149/131/5
f 27/132/4 149/131/4 148/133/4
f 29/128/7 28/134/7 148/133/7
f 45/136/1 150/140/1 151/137/1
f 69/139/2 152/142/2 150/140/2
f 89/141/1 153/144/1 152/142/1
f 90/143/4 154/148/4 153/144/4
f 46/138/2 151/137/2 164/145/2
f 157/147/1 160/150/1 154/148/1
f 158/149/4 161/166/4 160/150/4
f 10/167/1 12/168/1 9/169/1
f 9/169/1 14/170/1 13/171/1
f 16/172/1 9/173/1 15/174/1
f 10/167/2 18/175/2 11/176/2
f 11/177/5 19/178/5 12/179/5
f 13/171/1 21/180/1 20/181/1
f 15/174/1 13/182/1 22/183/1
f 12/179/5 23/184/5 14/185/5
f 15/186/1 25/187/1 16/188/1
f 26/189/2 10/190/2 16/172/2
f 17/191/3 28/134/3 18/175/3
f 19/192/3 28/134/3 29/128/3
f 27/132/3 31/193/3 30/130/3
f 31/193/3 29/128/3 30/130/3
f 20/181/4 33/194/4 32/195/4
f 22/183/1 20/196/1 34/197/1
f 14/185/5 33/198/5 21/199/5
f 22/200/1 24/201/1 15/186/1
f 36/202/5 38/16/5 19/192/5
f 19/192/5 39/153/5 23/203/5
f 39/153/5 41/204/5 23/203/5
f 26/205/2 25/187/2 42/206/2
f 44/207/7 46/138/7 43/208/7
f 48/99/3 49/209/3 47/97/3
f 50/96/3 49/209/3 51/108/3
f 52/106/3 49/209/3 53/119/3
f 53/119/3 31/210/3 54/117/3
f 55/123/3 31/210/3 17/211/3
f 56/121/3 17/211/3 57/112/3
f 26/189/3 58/101/3 17/211/3
f 50/96/3 59/110/3 58/101/3
f 17/211/3 59/110/3 57/112/3
f 56/121/3 52/106/3 53/119/3
f 31/193/2 36/202/2 19/192/2
f 62/85/3 23/203/3 61/91/3
f 61/91/3 64/212/3 63/89/3
f 32/195/3 62/85/3 65/87/3
f 64/212/3 65/87/3 63/89/3
f 66/213/4 20/196/4 32/214/4
f 34/215/1 35/216/1 22/200/1
f 44/207/7 69/139/7 45/136/7
f 64/212/4 41/204/4 70/217/4
f 41/204/3 71/13/3 70/217/3
f 60/218/3 71/13/3 72/15/3
f 72/15/3 36/202/3 60/218/3
f 26/205/3 73/219/3 49/220/3
f 49/221/2 60/218/2 31/193/2
f 75/55/3 77/222/3 66/213/3
f 78/53/3 66/213/3 79/65/3
f 32/214/3 81/76/3 66/213/3
f 66/213/3 82/64/3 79/65/3
f 80/74/3 64/223/3 83/80/3
f 84/78/3 64/223/3 85/69/3
f 77/222/3 86/59/3 64/223/3
f 78/53/3 87/67/3 86/59/3
f 64/223/3 87/67/3 85/69/3
f 85/69/3 81/76/3 84/78/3
f 66/224/4 67/225/8 34/215/4
f 88/226/7 69/139/7 68/227/7
f 73/219/7 89/141/7 88/226/7
f 64/223/4 91/228/4 77/222/4
f 92/229/3 74/230/3 91/231/3
f 94/232/3 91/231/3 95/233/3
f 96/234/3 91/231/3 97/235/3
f 97/235/3 70/217/3 98/236/3
f 98/236/3 60/218/3 99/237/3
f 100/238/3 60/218/3 101/239/3
f 74/230/3 102/240/3 60/218/3
f 94/232/3 103/241/3 102/240/3
f 60/218/3 103/241/3 101/239/3
f 100/238/3 96/234/3 97/235/3
f 73/219/2 74/242/2 49/220/2
f 77/243/3 43/208/3 66/224/3
f 77/243/4 68/227/4 44/207/4
f 74/242/3 68/227/3 91/244/3
f 43/208/7 155/146/7 67/225/7
f 35/216/7 155/146/7 156/245/7
f 73/219/7 157/147/7 90/143/7
f 42/206/7 158/149/7 157/147/7
f 35/216/7 159/246/7 24/201/7
f 24/201/7 158/149/7 25/187/7
f 160/247/7 162/248/7 154/249/7
f 150/250/7 162/248/7 163/251/7
f 151/252/7 163/251/7 164/253/7
f 150/250/7 153/254/7 154/249/7
f 155/146/3 163/255/3 156/245/3
f 156/245/3 162/256/3 159/246/3
f 159/246/3 161/166/3 158/149/3
f 10/167/1 11/176/1 12/168/1
f 9/169/1 12/168/1 14/170/1
f 16/172/1 10/190/1 9/173/1
f 10/167/2 17/191/2 18/175/2
f 11/177/5 18/257/5 19/178/5
f 13/171/1 14/170/1 21/180/1
f 15/174/1 9/173/1 13/182/1
f 12/179/5 19/178/5 23/184/5
f 15/186/1 24/201/1 25/187/1
f 26/189/2 17/211/2 10/190/2
f 17/191/3 27/132/3 28/134/3
f 19/192/3 18/175/3 28/134/3
f 27/132/3 17/191/3 31/193/3
f 31/193/3 19/192/3 29/128/3
f 20/181/4 21/180/4 33/194/4
f 22/183/1 13/182/1 20/196/1
f 14/185/5 23/184/5 33/198/5
f 22/200/1 35/216/1 24/201/1
f 36/202/5 37/154/5 38/16/5
f 19/192/5 38/16/5 39/153/5
f 39/153/5 40/11/5 41/204/5
f 26/205/2 16/188/2 25/187/2
f 44/207/7 45/136/7 46/138/7
f 48/99/3 26/189/3 49/209/3
f 50/96/3 47/97/3 49/209/3
f 52/106/3 51/108/3 49/209/3
f 53/119/3 49/209/3 31/210/3
f 55/123/3 54/117/3 31/210/3
f 56/121/3 55/123/3 17/211/3
f 26/189/3 48/99/3 58/101/3
f 50/96/3 51/108/3 59/110/3
f 17/211/3 58/101/3 59/110/3
f 56/121/3 57/112/3 52/106/3
f 31/193/2 60/218/2 36/202/2
f 62/85/3 33/194/3 23/203/3
f 61/91/3 23/203/3 64/212/3
f 32/195/3 33/194/3 62/85/3
f 64/212/3 32/195/3 65/87/3
f 66/213/4 34/197/4 20/196/4
f 34/215/1 67/225/1 35/216/1
f 44/207/7 68/227/7 69/139/7
f 64/212/4 23/203/4 41/204/4
f 41/204/3 40/11/3 71/13/3
f 60/218/3 70/217/3 71/13/3
f 72/15/3 37/154/3 36/202/3
f 26/205/3 42/206/3 73/219/3
f 49/221/2 74/230/2 60/218/2
f 75/55/3 76/57/3 77/222/3
f 78/53/3 75/55/3 66/213/3
f 32/214/3 80/74/3 81/76/3
f 66/213/3 81/76/3 82/64/3
f 80/74/3 32/214/3 64/223/3
f 84/78/3 83/80/3 64/223/3
f 77/222/3 76/57/3 86/59/3
f 78/53/3 79/65/3 87/67/3
f 64/223/3 86/59/3 87/67/3
f 85/69/3 82/64/3 81/76/3
f 66/224/4 43/208/4 67/225/8
f 88/226/7 89/141/7 69/139/7
f 73/219/7 90/143/7 89/141/7
f 64/223/4 70/258/4 91/228/4
f 92/229/3 93/259/3 74/230/3
f 94/232/3 92/229/3 91/231/3
f 96/234/3 95/233/3 91/231/3
f 97/235/3 91/231/3 70/217/3
f 98/236/3 70/217/3 60/218/3
f 100/238/3 99/237/3 60/218/3
f 74/230/3 93/259/3 102/240/3
f 94/232/3 95/233/3 103/241/3
f 60/218/3 102/240/3 103/241/3
f 100/238/3 101/239/3 96/234/3
f 73/219/2 88/226/2 74/242/2
f 77/243/3 44/207/3 43/208/3
f 77/243/4 91/244/4 68/227/4
f 74/242/3 88/226/3 68/227/3
f 43/208/7 46/138/7 155/146/7
f 35/216/7 67/225/8 155/146/7
f 73/219/7 42/206/7 157/147/7
f 42/206/7 25/187/7 158/149/7
f 35/216/7 156/245/7 159/246/7
f 24/201/7 159/246/7 158/149/7
f 160/247/7 161/260/7 162/248/7
f 150/250/7 154/249/7 162/248/7
f 151/252/7 150/250/7 163/251/7
f 150/250/7 152/261/7 153/254/7
f 155/146/3 164/145/3 163/255/3
f 156/245/3 163/255/3 162/256/3
f 159/246/3 162/256/3 161/166/3
