# Mesh: super_market

# List of geometric vertices
v 5.5526 -0.2999 1.0751
v 5.4510 -0.2999 1.0751
v 5.4510 -1.3617 1.0751
v 5.5526 -1.3617 1.0751
v 5.4510 -0.2999 -1.0169
v 5.4510 -1.3617 -1.0169
v 5.5526 -0.2999 -1.0169
v 5.5526 -1.3617 -1.0169
v -5.3488 -0.1936 1.7411
v -5.3488 -0.1936 1.6395
v -5.3488 -1.4679 1.6395
v -5.3488 -1.4679 1.7411
v -3.2568 -0.1936 1.6395
v -3.2568 -1.4679 1.6395
v -3.2568 -0.1936 1.7411
v -3.2568 -1.4679 1.7411
v 2.7852 -0.1936 1.7411
v 2.7852 -0.1936 1.6395
v 2.7852 -1.4679 1.6395
v 2.7852 -1.4679 1.7411
v 4.8772 -0.1936 1.6395
v 4.8772 -1.4679 1.6395
v 4.8772 -0.1936 1.7411
v 4.8772 -1.4679 1.7411
v 0.0239 -0.1516 2.5465
v 0.0239 -0.1516 2.4115
v 0.0239 -1.9888 2.4115
v 0.0239 -1.9888 2.5465
v 1.5988 -0.1516 2.4115
v 1.5988 -1.9888 2.4115
v 1.5988 -0.1516 2.5465
v 1.5988 -1.9888 2.5465
v -2.0845 -0.1516 2.5465
v -2.0845 -0.1516 2.4115
v -2.0845 -1.9888 2.4115
v -2.0845 -1.9888 2.5465
v -0.5097 -0.1516 2.4115
v -0.5097 -1.9888 2.4115
v -0.5097 -0.1516 2.5465
v -0.5097 -1.9888 2.5465
v 6.2343 0.1615 -3.0608
v 6.2343 0.1615 -2.9484
v 6.2343 0.0491 -2.9484
v 6.2343 0.0491 -3.0608
v 5.1836 0.1615 -2.9484
v 5.1836 0.0491 -2.9484
v 5.1836 0.1615 -3.0608
v 5.1836 0.0491 -3.0608
v 6.2341 0.1615 1.3364
v 6.2341 0.1615 1.4487
v 6.2341 0.0491 1.4487
v 6.2341 0.0491 1.3364
v 5.1835 0.1615 1.4487
v 5.1835 0.0491 1.4487
v 5.1835 0.1615 1.3364
v 5.1835 0.0491 1.3364
v 6.2343 0.1615 1.3364
v 6.1219 0.1615 1.3364
v 6.1219 0.0491 1.3364
v 6.2343 0.0491 1.3364
v 6.1219 0.1615 -2.9484
v 6.1219 0.0491 -2.9484
v 6.2343 0.1615 -2.9484
v 6.2343 0.0491 -2.9484
v 6.0213 0.1615 1.3364
v 5.9090 0.1615 1.3364
v 5.9090 0.0491 1.3364
v 6.0213 0.0491 1.3364
v 5.9090 0.1615 -2.9484
v 5.9090 0.0491 -2.9484
v 6.0213 0.1615 -2.9484
v 6.0213 0.0491 -2.9484
v 5.8084 0.1615 1.3364
v 5.6960 0.1615 1.3364
v 5.6960 0.0491 1.3364
v 5.8084 0.0491 1.3364
v 5.6960 0.1615 -2.9484
v 5.6960 0.0491 -2.9484
v 5.8084 0.1615 -2.9484
v 5.8084 0.0491 -2.9484
v 5.5984 0.1615 1.3364
v 5.4860 0.1615 1.3364
v 5.4860 0.0491 1.3364
v 5.5984 0.0491 1.3364
v 5.4860 0.1615 -2.9484
v 5.4860 0.0491 -2.9484
v 5.5984 0.1615 -2.9484
v 5.5984 0.0491 -2.9484
v -2.7854 0.1615 2.4607
v -2.8978 0.1615 2.4607
v -2.8978 0.0491 2.4607
v -2.7854 0.0491 2.4607
v -2.8978 0.1615 1.4101
v -2.8978 0.0491 1.4101
v -2.7854 0.1615 1.4101
v -2.7854 0.0491 1.4101
v -5.7205 0.1615 2.4606
v -5.8329 0.1615 2.4606
v -5.8329 0.0491 2.4606
v -5.7205 0.0491 2.4606
v -5.8329 0.1615 1.4100
v -5.8329 0.0491 1.4100
v -5.7205 0.1615 1.4100
v -5.7205 0.0491 1.4100
v -5.7205 0.1615 2.4608
v -5.7205 0.1615 2.3484
v -5.7205 0.0491 2.3484
v -5.7205 0.0491 2.4607
v -2.8978 0.1615 2.3484
v -2.8978 0.0491 2.3484
v -2.8978 0.1615 2.4608
v -2.8978 0.0491 2.4607
v -5.7205 0.1615 2.2478
v -5.7205 0.1615 2.1354
v -5.7205 0.0491 2.1354
v -5.7205 0.0491 2.2478
v -2.8978 0.1615 2.1354
v -2.8978 0.0491 2.1354
v -2.8978 0.1615 2.2478
v -2.8978 0.0491 2.2478
v -5.7205 0.1615 2.0349
v -5.7205 0.1615 1.9225
v -5.7205 0.0491 1.9225
v -5.7205 0.0491 2.0349
v -2.8978 0.1615 1.9225
v -2.8978 0.0491 1.9225
v -2.8978 0.1615 2.0349
v -2.8978 0.0491 2.0349
v -5.7205 0.1615 1.8249
v -5.7205 0.1615 1.7125
v -5.7205 0.0491 1.7125
v -5.7205 0.0491 1.8249
v -2.8978 0.1615 1.7125
v -2.8978 0.0491 1.7125
v -2.8978 0.1615 1.8249
v -2.8978 0.0491 1.8249
v 5.3607 0.1615 2.4607
v 5.2483 0.1615 2.4607
v 5.2483 0.0491 2.4607
v 5.3607 0.0491 2.4607
v 5.2483 0.1615 1.4101
v 5.2483 0.0491 1.4101
v 5.3607 0.1615 1.4101
v 5.3607 0.0491 1.4101
v 2.4256 0.1615 2.4606
v 2.3132 0.1615 2.4606
v 2.3132 0.0491 2.4606
v 2.4256 0.0491 2.4606
v 2.3132 0.1615 1.4100
v 2.3132 0.0491 1.4100
v 2.4256 0.1615 1.4100
v 2.4256 0.0491 1.4100
v 2.4256 0.1615 2.4607
v 2.4256 0.1615 2.3484
v 2.4256 0.0491 2.3484
v 2.4256 0.0491 2.4607
v 5.2483 0.1615 2.3484
v 5.2483 0.0491 2.3484
v 5.2483 0.1615 2.4607
v 5.2483 0.0491 2.4607
v 2.4256 0.1615 2.2478
v 2.4256 0.1615 2.1354
v 2.4256 0.0491 2.1354
v 2.4256 0.0491 2.2478
v 5.2483 0.1615 2.1354
v 5.2483 0.0491 2.1354
v 5.2483 0.1615 2.2478
v 5.2483 0.0491 2.2478
v 2.4256 0.1615 2.0349
v 2.4256 0.1615 1.9225
v 2.4256 0.0491 1.9225
v 2.4256 0.0491 2.0349
v 5.2483 0.1615 1.9225
v 5.2483 0.0491 1.9225
v 5.2483 0.1615 2.0349
v 5.2483 0.0491 2.0349
v 2.4256 0.1615 1.8249
v 2.4256 0.1615 1.7125
v 2.4256 0.0491 1.7125
v 2.4256 0.0491 1.8249
v 5.2483 0.1615 1.7125
v 5.2483 0.0491 1.7125
v 5.2483 0.1615 1.8249
v 5.2483 0.0491 1.8249
v 5.6021 -0.2852 -1.7284
v 5.4663 -0.2852 -1.7284
v 5.4663 -1.9852 -1.7284
v 5.6021 -1.9852 -1.7284
v 5.4663 -0.2852 -2.6429
v 5.4663 -1.9852 -2.6429
v 5.6021 -0.2852 -2.6429
v 5.6021 -1.9852 -2.6429
v -2.6003 0.1508 3.4785
v -2.6003 0.1508 2.4415
v -2.6003 0.0691 2.4415
v -2.6003 0.0691 3.4785
v 2.1034 0.1508 2.4415
v 2.1034 0.0691 2.4415
v 2.1034 0.1508 3.4785
v 2.1034 0.0691 3.4785
v -2.6089 0.3511 2.5203
v -2.6089 0.3511 -2.7290
v -2.6089 -1.9891 -2.7290
v -2.6089 -1.9891 2.5203
v 2.1119 0.3511 -2.7290
v 2.1119 -1.9891 -2.7290
v 2.1119 0.3511 2.5203
v 2.1119 -1.9891 2.5203
v -2.6089 1.6848 2.5203
v 2.1119 1.6848 2.5203
v 2.2176 1.6848 2.6241
v -2.7145 1.6848 2.6241
v 2.2176 1.8064 2.6241
v -2.7145 1.8064 2.6241
v 2.1119 1.6848 -2.7290
v 2.2175 1.6848 -2.8328
v -2.6089 1.6848 -2.7290
v -2.7145 1.6848 -2.8328
v 2.3249 1.8064 2.7299
v -2.8218 1.8064 2.7299
v 2.2175 1.8064 -2.8328
v -2.7145 1.8064 -2.8328
v 2.3249 1.9891 2.7299
v -2.8218 1.9891 2.7299
v 2.3249 1.8064 -2.9386
v -2.8218 1.8064 -2.9386
v 1.9141 1.9891 2.3261
v -2.4111 1.9891 2.3261
v 2.3249 1.9891 -2.9386
v -2.8218 1.9891 -2.9386
v 1.9141 1.8388 2.3261
v -2.4111 1.8388 2.3261
v 1.9141 1.9891 -2.5348
v -2.4111 1.9891 -2.5348
v 1.9141 1.8388 -2.5348
v -2.4111 1.8388 -2.5348
v 2.1119 1.2121 2.5203
v -2.6089 1.2121 2.5203
v -2.6089 0.5811 2.5203
v 2.1119 0.5811 2.5203
v 2.1119 1.2121 -2.7290
v 2.1119 0.5811 -2.7290
v -2.6089 1.2121 -2.7290
v -2.6089 0.5811 -2.7290
v -2.6089 1.4222 2.5203
v -2.6089 1.4222 -2.7290
v 2.1119 1.4222 -2.7290
v 2.1119 1.4222 2.5203
v 5.5782 -1.9884 -3.3202
v 5.5782 -1.9884 1.7766
v -6.0757 -1.9884 1.7766
v -6.0757 -1.9884 -3.3202
v 5.5782 -1.8382 -3.3202
v -6.0757 -1.8382 -3.3202
v -6.0757 -1.8382 1.7766
v 5.5782 -1.8382 1.7766
v 5.5255 -1.9884 -3.2690
v 5.5255 -1.9884 1.7254
v -6.0230 -1.9884 1.7254
v -6.0230 -1.9884 -3.2690
v 5.5255 0.6401 -3.2690
v 5.5255 0.6401 1.7254
v -6.0230 0.6401 1.7254
v -6.0230 0.6401 -3.2690
v -6.1290 0.6401 1.8300
v -6.1290 0.6401 -3.3736
v -6.1290 0.7644 1.8300
v -6.1290 0.7644 -3.3736
v 5.6315 0.6401 1.8300
v 5.6315 0.6401 -3.3736
v -6.2343 0.7644 1.9349
v -6.2343 0.7644 -3.4785
v 5.6315 0.7644 1.8300
v 5.6315 0.7644 -3.3736
v -6.2343 0.9519 1.9349
v -6.2343 0.9519 -3.4785
v 5.7367 0.7644 1.9349
v 5.7367 0.7644 -3.4785
v -5.8151 0.9519 1.5166
v -5.8151 0.9519 -3.0602
v 5.7367 0.9519 1.9349
v 5.7367 0.9519 -3.4785
v -5.8151 0.7977 1.5166
v -5.8151 0.7977 -3.0602
v 5.3176 0.9519 1.5166
v 5.3176 0.9519 -3.0602
v 5.3176 0.7977 -3.0602
v 5.3176 0.7977 1.5166

# List of vertex normals
vn 0.0000 -0.0000 1.0000
vn -1.0000 -0.0000 0.0000
vn 0.0000 0.0000 -1.0000
vn 1.0000 0.0000 0.0000
vn 0.0000 -1.0000 -0.0000
vn 0.0000 1.0000 0.0000

# List of texture coordinates
vt 0.4560 0.2122
vt 0.4560 0.0143
vt 0.7143 0.2122
vt 0.7143 0.0143
vt 0.7337 0.3076
vt 0.7337 0.0152
vt 0.9794 0.3076
vt 0.9794 0.0152
vt 0.0644 0.4668
vt 0.0801 0.4825
vt 0.0644 0.4825
vt 0.0801 0.4668
vt 0.7329 0.3080
vt 0.7329 0.0142
vt 0.8587 0.3080
vt 0.8587 0.0142
vt 0.0756 0.5174
vt 0.0756 0.5172
vt 0.0877 0.5174
vt 0.0877 0.5172
vt 0.5361 0.5665
vt 0.5507 0.5665
vt 0.2482 0.9294
vt 0.2331 0.9298
vt 0.2331 0.9294
vt 0.2334 0.9294
vt 0.2479 0.9294
vt 0.2482 0.9298
vt 0.2328 0.9298
vt 0.2486 0.9298
vt 0.2328 0.9303
vt 0.2486 0.9303
vt 0.2473 0.9303
vt 0.2340 0.9299
vt 0.2340 0.9303
vt 0.3805 0.1447
vt 0.3938 0.1447
vt 0.2473 0.9299
vt 0.3250 0.9386
vt 0.2891 0.9386
vt 0.2891 0.9391
vt 0.3250 0.9391
vt 0.3717 0.3761
vt 0.3362 0.3761
vt 0.3717 0.3842
vt 0.3362 0.3842
vt 0.2675 0.9448
vt 0.2675 0.9451
vt 0.3036 0.9448
vt 0.3036 0.9451
vt 0.2672 0.9451
vt 0.2672 0.9457
vt 0.3040 0.9451
vt 0.3040 0.9457
vt 0.2685 0.9457
vt 0.2685 0.9452
vt 0.3739 0.1523
vt 0.4081 0.1523
vt 0.3027 0.9457
vt 0.3027 0.9452
vt 0.5361 0.5694
vt 0.5507 0.5694
vt 0.0132 0.8839
vt 0.9900 0.7534
vt 0.9900 0.8839
vt 0.5507 0.5750
vt 0.5507 0.5722
vt 0.5361 0.5722
vt 0.5361 0.5750
vt 0.1734 0.9268
vt 0.1734 0.9254
vt 0.1879 0.9268
vt 0.1879 0.9254
vt 0.1734 0.9225
vt 0.1879 0.9197
vt 0.1879 0.9225
vt 0.1734 0.9197
vt 0.5361 0.5778
vt 0.5507 0.5764
vt 0.5507 0.5778
vt 0.5361 0.5764
vt 0.2678 0.9448
vt 0.3033 0.9448
vt 0.0132 0.7534

# List of polygonal faces
f 2/1/1 4/2/1 1/1/1
f 5/3/2 3/2/2 2/1/2
f 7/3/3 6/4/3 5/3/3
f 7/3/4 4/2/4 8/4/4
f 3/2/5 8/4/5 4/2/5
f 5/3/6 1/1/6 7/3/6
f 10/1/2 12/2/2 9/1/2
f 13/3/3 11/2/3 10/1/3
f 13/3/4 16/4/4 14/4/4
f 9/1/1 16/4/1 15/3/1
f 11/2/5 16/4/5 12/2/5
f 13/3/6 9/1/6 15/3/6
f 18/1/2 20/2/2 17/1/2
f 21/3/3 19/2/3 18/1/3
f 23/3/4 22/4/4 21/3/4
f 17/1/1 24/4/1 23/3/1
f 19/2/5 24/4/5 20/2/5
f 21/3/6 17/1/6 23/3/6
f 26/5/2 28/6/2 25/5/2
f 29/7/3 27/6/3 26/5/3
f 31/7/4 30/8/4 29/7/4
f 25/5/1 32/8/1 31/7/1
f 27/6/5 32/8/5 28/6/5
f 29/7/6 25/5/6 31/7/6
f 34/5/2 36/6/2 33/5/2
f 37/7/3 35/6/3 34/5/3
f 39/7/4 38/8/4 37/7/4
f 33/5/1 40/8/1 39/7/1
f 35/6/5 40/8/5 36/6/5
f 39/7/6 34/5/6 33/5/6
f 41/9/4 43/10/4 44/11/4
f 45/12/1 43/11/1 42/9/1
f 47/12/2 46/11/2 45/9/2
f 41/12/3 48/11/3 47/9/3
f 44/9/5 46/10/5 48/11/5
f 45/12/6 41/11/6 47/9/6
f 50/12/4 52/11/4 49/9/4
f 53/12/1 51/11/1 50/9/1
f 53/9/2 56/10/2 54/11/2
f 49/12/3 56/11/3 55/9/3
f 51/12/5 56/11/5 52/9/5
f 53/12/6 49/11/6 55/9/6
f 58/12/1 60/11/1 57/9/1
f 61/12/2 59/11/2 58/9/2
f 63/12/3 62/11/3 61/9/3
f 63/9/4 60/10/4 64/11/4
f 59/12/5 64/11/5 60/9/5
f 61/12/6 57/11/6 63/9/6
f 66/12/1 68/11/1 65/9/1
f 69/12/2 67/11/2 66/9/2
f 71/12/3 70/11/3 69/9/3
f 71/9/4 68/10/4 72/11/4
f 67/12/5 72/11/5 68/9/5
f 69/12/6 65/11/6 71/9/6
f 74/12/1 76/11/1 73/9/1
f 77/12/2 75/11/2 74/9/2
f 79/12/3 78/11/3 77/9/3
f 79/9/4 76/10/4 80/11/4
f 75/12/5 80/11/5 76/9/5
f 77/12/6 73/11/6 79/9/6
f 82/12/1 84/11/1 81/9/1
f 85/12/2 83/11/2 82/9/2
f 87/12/3 86/11/3 85/9/3
f 87/9/4 84/10/4 88/11/4
f 83/12/5 88/11/5 84/9/5
f 85/12/6 81/11/6 87/9/6
f 90/12/1 92/11/1 89/9/1
f 93/12/2 91/11/2 90/9/2
f 95/12/3 94/11/3 93/9/3
f 95/9/4 92/10/4 96/11/4
f 91/12/5 96/11/5 92/9/5
f 93/12/6 89/11/6 95/9/6
f 98/12/1 100/11/1 97/9/1
f 101/12/2 99/11/2 98/9/2
f 103/12/3 102/11/3 101/9/3
f 103/9/4 100/10/4 104/11/4
f 99/12/5 104/11/5 100/9/5
f 101/12/6 97/11/6 103/9/6
f 106/12/2 108/11/2 105/9/2
f 109/12/3 107/11/3 106/9/3
f 109/9/4 112/10/4 110/11/4
f 105/12/1 112/11/1 111/9/1
f 107/12/5 112/11/5 108/9/5
f 109/12/6 105/11/6 111/9/6
f 114/12/2 116/11/2 113/9/2
f 117/12/3 115/11/3 114/9/3
f 117/9/4 120/10/4 118/11/4
f 113/12/1 120/11/1 119/9/1
f 115/12/5 120/11/5 116/9/5
f 119/9/6 114/10/6 113/11/6
f 122/12/2 124/11/2 121/9/2
f 125/12/3 123/11/3 122/9/3
f 125/9/4 128/10/4 126/11/4
f 121/12/1 128/11/1 127/9/1
f 123/12/5 128/11/5 124/9/5
f 125/12/6 121/11/6 127/9/6
f 130/12/2 132/11/2 129/9/2
f 133/12/3 131/11/3 130/9/3
f 133/9/4 136/10/4 134/11/4
f 129/12/1 136/11/1 135/9/1
f 131/12/5 136/11/5 132/9/5
f 133/12/6 129/11/6 135/9/6
f 138/12/1 140/11/1 137/9/1
f 141/12/2 139/11/2 138/9/2
f 143/12/3 142/11/3 141/9/3
f 143/9/4 140/10/4 144/11/4
f 139/12/5 144/11/5 140/9/5
f 141/12/6 137/11/6 143/9/6
f 146/12/1 148/11/1 145/9/1
f 149/12/2 147/11/2 146/9/2
f 151/12/3 150/11/3 149/9/3
f 151/9/4 148/10/4 152/11/4
f 147/12/5 152/11/5 148/9/5
f 149/12/6 145/11/6 151/9/6
f 154/12/2 156/11/2 153/9/2
f 157/12/3 155/11/3 154/9/3
f 157/9/4 160/10/4 158/11/4
f 153/12/1 160/11/1 159/9/1
f 155/12/5 160/11/5 156/9/5
f 157/12/6 153/11/6 159/9/6
f 162/12/2 164/11/2 161/9/2
f 165/12/3 163/11/3 162/9/3
f 165/9/4 168/10/4 166/11/4
f 161/12/1 168/11/1 167/9/1
f 163/12/5 168/11/5 164/9/5
f 165/12/6 161/11/6 167/9/6
f 170/12/2 172/11/2 169/9/2
f 173/12/3 171/11/3 170/9/3
f 173/9/4 176/10/4 174/11/4
f 169/12/1 176/11/1 175/9/1
f 171/12/5 176/11/5 172/9/5
f 173/12/6 169/11/6 175/9/6
f 178/12/2 180/11/2 177/9/2
f 181/12/3 179/11/3 178/9/3
f 181/9/4 184/10/4 182/11/4
f 177/12/1 184/11/1 183/9/1
f 179/12/5 184/11/5 180/9/5
f 181/12/6 177/11/6 183/9/6
f 186/13/1 188/14/1 185/13/1
f 189/15/2 187/14/2 186/13/2
f 191/15/3 190/16/3 189/15/3
f 187/14/5 192/16/5 188/14/5
f 189/15/6 185/13/6 191/15/6
f 188/14/4 191/15/4 185/13/4
f 194/17/2 196/18/2 193/17/2
f 197/19/3 195/18/3 194/17/3
f 199/19/4 198/20/4 197/19/4
f 193/17/1 200/20/1 199/19/1
f 195/18/5 200/20/5 196/18/5
f 199/19/6 194/17/6 193/17/6
f 203/21/5 208/22/5 204/21/5
f 211/23/1 214/24/1 212/25/1
f 217/26/5 216/23/5 215/27/5
f 213/28/5 220/29/5 214/24/5
f 211/23/4 221/28/4 213/28/4
f 218/25/3 221/28/3 216/23/3
f 212/25/2 222/24/2 218/25/2
f 219/30/1 224/31/1 220/29/1
f 221/28/5 219/30/5 213/28/5
f 221/28/5 226/29/5 225/30/5
f 214/24/5 226/29/5 222/24/5
f 225/30/4 223/32/4 219/30/4
f 226/29/3 229/32/3 225/30/3
f 220/29/2 230/31/2 226/29/2
f 227/33/3 232/34/3 228/35/3
f 232/36/6 235/37/6 236/36/6
f 233/33/2 231/38/2 227/33/2
f 234/35/1 235/38/1 233/33/1
f 228/35/4 236/34/4 234/35/4
f 250/39/5 252/40/5 249/39/5
f 254/41/6 256/42/6 253/42/6
f 253/42/4 250/39/4 249/39/4
f 256/42/1 251/40/1 250/39/1
f 255/41/2 252/40/2 251/40/2
f 249/39/3 254/41/3 253/42/3
f 258/43/5 260/44/5 257/43/5
f 261/45/4 258/43/4 257/43/4
f 262/45/1 259/44/1 258/43/1
f 259/44/2 264/46/2 260/44/2
f 257/43/3 264/46/3 261/45/3
f 265/47/2 268/48/2 266/47/2
f 269/49/1 267/48/1 265/47/1
f 266/47/3 274/50/3 270/49/3
f 270/49/4 273/50/4 269/49/4
f 271/51/2 276/52/2 272/51/2
f 277/53/1 275/52/1 271/51/1
f 272/51/3 282/54/3 278/53/3
f 278/53/4 281/54/4 277/53/4
f 279/55/4 284/56/4 280/55/4
f 284/57/6 288/58/6 287/58/6
f 285/59/3 283/56/3 279/55/3
f 280/55/1 287/60/1 286/59/1
f 286/59/2 288/60/2 285/59/2
f 2/1/1 3/2/1 4/2/1
f 5/3/2 6/4/2 3/2/2
f 7/3/3 8/4/3 6/4/3
f 7/3/4 1/1/4 4/2/4
f 3/2/5 6/4/5 8/4/5
f 5/3/6 2/1/6 1/1/6
f 10/1/2 11/2/2 12/2/2
f 13/3/3 14/4/3 11/2/3
f 13/3/4 15/3/4 16/4/4
f 9/1/1 12/2/1 16/4/1
f 11/2/5 14/4/5 16/4/5
f 13/3/6 10/1/6 9/1/6
f 18/1/2 19/2/2 20/2/2
f 21/3/3 22/4/3 19/2/3
f 23/3/4 24/4/4 22/4/4
f 17/1/1 20/2/1 24/4/1
f 19/2/5 22/4/5 24/4/5
f 21/3/6 18/1/6 17/1/6
f 26/5/2 27/6/2 28/6/2
f 29/7/3 30/8/3 27/6/3
f 31/7/4 32/8/4 30/8/4
f 25/5/1 28/6/1 32/8/1
f 27/6/5 30/8/5 32/8/5
f 29/7/6 26/5/6 25/5/6
f 34/5/2 35/6/2 36/6/2
f 37/7/3 38/8/3 35/6/3
f 39/7/4 40/8/4 38/8/4
f 33/5/1 36/6/1 40/8/1
f 35/6/5 38/8/5 40/8/5
f 39/7/6 37/7/6 34/5/6
f 41/9/4 42/12/4 43/10/4
f 45/12/1 46/10/1 43/11/1
f 47/12/2 48/10/2 46/11/2
f 41/12/3 44/10/3 48/11/3
f 44/9/5 43/12/5 46/10/5
f 45/12/6 42/10/6 41/11/6
f 50/12/4 51/10/4 52/11/4
f 53/12/1 54/10/1 51/11/1
f 53/9/2 55/12/2 56/10/2
f 49/12/3 52/10/3 56/11/3
f 51/12/5 54/10/5 56/11/5
f 53/12/6 50/10/6 49/11/6
f 58/12/1 59/10/1 60/11/1
f 61/12/2 62/10/2 59/11/2
f 63/12/3 64/10/3 62/11/3
f 63/9/4 57/12/4 60/10/4
f 59/12/5 62/10/5 64/11/5
f 61/12/6 58/10/6 57/11/6
f 66/12/1 67/10/1 68/11/1
f 69/12/2 70/10/2 67/11/2
f 71/12/3 72/10/3 70/11/3
f 71/9/4 65/12/4 68/10/4
f 67/12/5 70/10/5 72/11/5
f 69/12/6 66/10/6 65/11/6
f 74/12/1 75/10/1 76/11/1
f 77/12/2 78/10/2 75/11/2
f 79/12/3 80/10/3 78/11/3
f 79/9/4 73/12/4 76/10/4
f 75/12/5 78/10/5 80/11/5
f 77/12/6 74/10/6 73/11/6
f 82/12/1 83/10/1 84/11/1
f 85/12/2 86/10/2 83/11/2
f 87/12/3 88/10/3 86/11/3
f 87/9/4 81/12/4 84/10/4
f 83/12/5 86/10/5 88/11/5
f 85/12/6 82/10/6 81/11/6
f 90/12/1 91/10/1 92/11/1
f 93/12/2 94/10/2 91/11/2
f 95/12/3 96/10/3 94/11/3
f 95/9/4 89/12/4 92/10/4
f 91/12/5 94/10/5 96/11/5
f 93/12/6 90/10/6 89/11/6
f 98/12/1 99/10/1 100/11/1
f 101/12/2 102/10/2 99/11/2
f 103/12/3 104/10/3 102/11/3
f 103/9/4 97/12/4 100/10/4
f 99/12/5 102/10/5 104/11/5
f 101/12/6 98/10/6 97/11/6
f 106/12/2 107/10/2 108/11/2
f 109/12/3 110/10/3 107/11/3
f 109/9/4 111/12/4 112/10/4
f 105/12/1 108/10/1 112/11/1
f 107/12/5 110/10/5 112/11/5
f 109/12/6 106/10/6 105/11/6
f 114/12/2 115/10/2 116/11/2
f 117/12/3 118/10/3 115/11/3
f 117/9/4 119/12/4 120/10/4
f 113/12/1 116/10/1 120/11/1
f 115/12/5 118/10/5 120/11/5
f 119/9/6 117/12/6 114/10/6
f 122/12/2 123/10/2 124/11/2
f 125/12/3 126/10/3 123/11/3
f 125/9/4 127/12/4 128/10/4
f 121/12/1 124/10/1 128/11/1
f 123/12/5 126/10/5 128/11/5
f 125/12/6 122/10/6 121/11/6
f 130/12/2 131/10/2 132/11/2
f 133/12/3 134/10/3 131/11/3
f 133/9/4 135/12/4 136/10/4
f 129/12/1 132/10/1 136/11/1
f 131/12/5 134/10/5 136/11/5
f 133/12/6 130/10/6 129/11/6
f 138/12/1 139/10/1 140/11/1
f 141/12/2 142/10/2 139/11/2
f 143/12/3 144/10/3 142/11/3
f 143/9/4 137/12/4 140/10/4
f 139/12/5 142/10/5 144/11/5
f 141/12/6 138/10/6 137/11/6
f 146/12/1 147/10/1 148/11/1
f 149/12/2 150/10/2 147/11/2
f 151/12/3 152/10/3 150/11/3
f 151/9/4 145/12/4 148/10/4
f 147/12/5 150/10/5 152/11/5
f 149/12/6 146/10/6 145/11/6
f 154/12/2 155/10/2 156/11/2
f 157/12/3 158/10/3 155/11/3
f 157/9/4 159/12/4 160/10/4
f 153/12/1 156/10/1 160/11/1
f 155/12/5 158/10/5 160/11/5
f 157/12/6 154/10/6 153/11/6
f 162/12/2 163/10/2 164/11/2
f 165/12/3 166/10/3 163/11/3
f 165/9/4 167/12/4 168/10/4
f 161/12/1 164/10/1 168/11/1
f 163/12/5 166/10/5 168/11/5
f 165/12/6 162/10/6 161/11/6
f 170/12/2 171/10/2 172/11/2
f 173/12/3 174/10/3 171/11/3
f 173/9/4 175/12/4 176/10/4
f 169/12/1 172/10/1 176/11/1
f 171/12/5 174/10/5 176/11/5
f 173/12/6 170/10/6 169/11/6
f 178/12/2 179/10/2 180/11/2
f 181/12/3 182/10/3 179/11/3
f 181/9/4 183/12/4 184/10/4
f 177/12/1 180/10/1 184/11/1
f 179/12/5 182/10/5 184/11/5
f 181/12/6 178/10/6 177/11/6
f 186/13/1 187/14/1 188/14/1
f 189/15/2 190/16/2 187/14/2
f 191/15/3 192/16/3 190/16/3
f 187/14/5 190/16/5 192/16/5
f 189/15/6 186/13/6 185/13/6
f 188/14/4 192/16/4 191/15/4
f 194/17/2 195/18/2 196/18/2
f 197/19/3 198/20/3 195/18/3
f 199/19/4 200/20/4 198/20/4
f 193/17/1 196/18/1 200/20/1
f 195/18/5 198/20/5 200/20/5
f 199/19/6 197/19/6 194/17/6
f 203/21/5 206/22/5 208/22/5
f 211/23/1 213/28/1 214/24/1
f 217/26/5 218/25/5 216/23/5
f 213/28/5 219/30/5 220/29/5
f 211/23/4 216/23/4 221/28/4
f 218/25/3 222/24/3 221/28/3
f 212/25/2 214/24/2 222/24/2
f 219/30/1 223/32/1 224/31/1
f 221/28/5 225/30/5 219/30/5
f 221/28/5 222/24/5 226/29/5
f 214/24/5 220/29/5 226/29/5
f 225/30/4 229/32/4 223/32/4
f 226/29/3 230/31/3 229/32/3
f 220/29/2 224/31/2 230/31/2
f 227/33/3 231/38/3 232/34/3
f 232/36/6 231/37/6 235/37/6
f 233/33/2 235/38/2 231/38/2
f 234/35/1 236/34/1 235/38/1
f 228/35/4 232/34/4 236/34/4
f 250/39/5 251/40/5 252/40/5
f 254/41/6 255/41/6 256/42/6
f 253/42/4 256/42/4 250/39/4
f 256/42/1 255/41/1 251/40/1
f 255/41/2 254/41/2 252/40/2
f 249/39/3 252/40/3 254/41/3
f 258/43/5 259/44/5 260/44/5
f 261/45/4 262/45/4 258/43/4
f 262/45/1 263/46/1 259/44/1
f 259/44/2 263/46/2 264/46/2
f 257/43/3 260/44/3 264/46/3
f 265/47/2 267/48/2 268/48/2
f 269/49/1 273/50/1 267/48/1
f 266/47/3 268/48/3 274/50/3
f 270/49/4 274/50/4 273/50/4
f 271/51/2 275/52/2 276/52/2
f 277/53/1 281/54/1 275/52/1
f 272/51/3 276/52/3 282/54/3
f 278/53/4 282/54/4 281/54/4
f 279/55/4 283/56/4 284/56/4
f 284/57/6 283/57/6 288/58/6
f 285/59/3 288/60/3 283/56/3
f 280/55/1 284/56/1 287/60/1
f 286/59/2 287/60/2 288/60/2
f 202/61/2 204/21/2 201/61/2
f 205/62/3 203/21/3 202/61/3
f 207/62/4 206/22/4 205/62/4
f 201/61/1 208/22/1 207/62/1
f 210/27/5 212/25/5 209/26/5
f 215/27/5 211/23/5 210/27/5
f 209/26/5 218/25/5 217/26/5
f 223/32/6 228/35/6 224/31/6
f 229/32/6 227/33/6 223/32/6
f 230/31/6 233/33/6 229/32/6
f 230/31/6 228/35/6 234/35/6
f 238/63/1 240/64/1 237/65/1
f 237/66/4 242/67/4 241/66/4
f 241/66/3 244/68/3 243/69/3
f 238/69/2 244/68/2 239/68/2
f 246/70/2 238/71/2 245/70/2
f 247/72/3 243/71/3 246/70/3
f 247/72/4 237/73/4 241/73/4
f 245/70/1 237/73/1 248/72/1
f 239/74/1 207/75/1 240/76/1
f 240/76/4 205/75/4 242/76/4
f 242/67/3 202/61/3 244/68/3
f 244/74/2 201/77/2 239/74/2
f 209/78/1 248/79/1 210/80/1
f 210/80/4 247/79/4 215/80/4
f 215/80/3 246/81/3 217/78/3
f 217/78/2 245/81/2 209/78/2
f 264/82/5 265/47/5 266/47/5
f 262/83/5 265/47/5 263/82/5
f 264/82/5 270/49/5 261/83/5
f 261/83/5 269/49/5 262/83/5
f 267/48/5 272/51/5 268/48/5
f 273/50/5 271/51/5 267/48/5
f 268/48/5 278/53/5 274/50/5
f 273/50/5 278/53/5 277/53/5
f 276/52/6 279/55/6 280/55/6
f 275/52/6 285/59/6 279/55/6
f 276/52/6 286/59/6 282/54/6
f 281/54/6 286/59/6 285/59/6
f 202/61/2 203/21/2 204/21/2
f 205/62/3 206/22/3 203/21/3
f 207/62/4 208/22/4 206/22/4
f 201/61/1 204/21/1 208/22/1
f 210/27/5 211/23/5 212/25/5
f 215/27/5 216/23/5 211/23/5
f 209/26/5 212/25/5 218/25/5
f 223/32/6 227/33/6 228/35/6
f 229/32/6 233/33/6 227/33/6
f 230/31/6 234/35/6 233/33/6
f 230/31/6 224/31/6 228/35/6
f 238/63/1 239/84/1 240/64/1
f 237/66/4 240/67/4 242/67/4
f 241/66/3 242/67/3 244/68/3
f 238/69/2 243/69/2 244/68/2
f 246/70/2 243/71/2 238/71/2
f 247/72/3 241/73/3 243/71/3
f 247/72/4 248/72/4 237/73/4
f 245/70/1 238/71/1 237/73/1
f 239/74/1 201/77/1 207/75/1
f 240/76/4 207/75/4 205/75/4
f 242/67/3 205/62/3 202/61/3
f 244/74/2 202/77/2 201/77/2
f 209/78/1 245/81/1 248/79/1
f 210/80/4 248/79/4 247/79/4
f 215/80/3 247/79/3 246/81/3
f 217/78/2 246/81/2 245/81/2
f 264/82/5 263/82/5 265/47/5
f 262/83/5 269/49/5 265/47/5
f 264/82/5 266/47/5 270/49/5
f 261/83/5 270/49/5 269/49/5
f 267/48/5 271/51/5 272/51/5
f 273/50/5 277/53/5 271/51/5
f 268/48/5 272/51/5 278/53/5
f 273/50/5 274/50/5 278/53/5
f 276/52/6 275/52/6 279/55/6
f 275/52/6 281/54/6 285/59/6
f 276/52/6 280/55/6 286/59/6
f 281/54/6 282/54/6 286/59/6
