# Mesh: road_split_line

# List of geometric vertices
v -0.0945 0.0525 1.0499
v -0.0945 0.0525 -1.0499
v -0.0945 -0.0525 -1.0499
v -0.0945 -0.0525 1.0499
v 0.0945 0.0525 -1.0499
v 0.0945 -0.0525 -1.0499
v 0.0945 0.0525 1.0499
v 0.0945 -0.0525 1.0499

# List of vertex normals
vn -1.0000 0.0000 0.0000
vn 0.0000 0.0000 -1.0000
vn 1.0000 0.0000 0.0000
vn 0.0000 0.0000 1.0000
vn 0.0000 -1.0000 -0.0000
vn 0.0000 1.0000 0.0000

# List of texture coordinates
vt 0.2933 0.3889
vt 0.2433 0.4389
vt 0.2433 0.3889
vt 0.2933 0.4389

# List of polygonal faces
f 2/1/1 4/2/1 1/3/1
f 5/1/2 3/2/2 2/3/2
f 7/1/3 6/2/3 5/3/3
f 1/1/4 8/2/4 7/3/4
f 3/1/5 8/2/5 4/3/5
f 5/1/6 1/2/6 7/3/6
f 2/1/1 3/4/1 4/2/1
f 5/1/2 6/4/2 3/2/2
f 7/1/3 8/4/3 6/2/3
f 1/1/4 4/4/4 8/2/4
f 3/1/5 6/4/5 8/2/5
f 5/1/6 2/4/6 1/2/6
