# Mesh: road_intersection_2

# List of geometric vertices
v -5.2493 -0.0525 5.2493
v 5.2493 -0.0525 5.2493
v 5.2493 -0.0525 -5.2493
v -5.2493 -0.0525 -5.2493
v -5.2493 0.0525 -3.6745
v -5.2493 0.0525 -5.2493
v -5.2493 -0.0525 -5.2493
v -5.2493 -0.0525 -3.6745
v -3.6745 0.0525 -5.2493
v -3.6745 -0.0525 -5.2493
v -3.6745 0.0525 -3.6745
v -3.6745 -0.0525 -3.6745
v -5.2493 0.0525 5.2493
v -5.2493 0.0525 3.6745
v -5.2493 -0.0525 3.6745
v -5.2493 -0.0525 5.2493
v -3.6745 0.0525 3.6745
v -3.6745 -0.0525 3.6745
v -3.6745 0.0525 5.2493
v -3.6745 -0.0525 5.2493
v 3.6745 0.0525 -3.6745
v 3.6745 0.0525 -5.2493
v 3.6745 -0.0525 -5.2493
v 3.6745 -0.0525 -3.6745
v 5.2493 0.0525 -5.2493
v 5.2493 0.0525 -3.6745
v 5.2493 -0.0525 -3.6745
v 3.6745 0.0525 5.2493
v 3.6745 0.0525 3.6745
v 3.6745 -0.0525 3.6745
v 3.6745 -0.0525 5.2493
v 5.2493 0.0525 3.6745
v 5.2493 -0.0525 3.6745
v 5.2493 0.0525 5.2493

# List of vertex normals
vn 0.0000 1.0000 0.0000
vn -1.0000 0.0000 0.0000
vn 0.0000 0.0000 -1.0000
vn 1.0000 0.0000 0.0000
vn 0.0000 0.0000 1.0000
vn 0.0000 -1.0000 -0.0000

# List of texture coordinates
vt 0.5250 0.4750
vt 0.4750 0.5250
vt 0.4750 0.4750
vt 0.2363 0.4874
vt 0.2863 0.5374
vt 0.2363 0.5374
vt 0.2863 0.4874
vt 0.5250 0.5250

# List of polygonal faces
f 2/1/1 4/2/1 1/3/1
f 5/4/2 7/5/2 8/6/2
f 9/7/3 7/6/3 6/4/3
f 9/4/4 12/5/4 10/6/4
f 5/7/5 12/6/5 11/4/5
f 7/7/6 12/6/6 8/4/6
f 9/7/1 5/6/1 11/4/1
f 13/4/2 15/5/2 16/6/2
f 17/7/3 15/6/3 14/4/3
f 17/4/4 20/5/4 18/6/4
f 13/7/5 20/6/5 19/4/5
f 15/7/6 20/6/6 16/4/6
f 17/7/1 13/6/1 19/4/1
f 21/4/2 23/5/2 24/6/2
f 25/7/3 23/6/3 22/4/3
f 25/4/4 27/5/4 3/6/4
f 21/7/5 27/6/5 26/4/5
f 23/7/6 27/6/6 24/4/6
f 25/7/1 21/6/1 26/4/1
f 28/4/2 30/5/2 31/6/2
f 32/7/3 30/6/3 29/4/3
f 32/4/4 2/5/4 33/6/4
f 28/7/5 2/6/5 34/4/5
f 30/7/6 2/6/6 31/4/6
f 32/7/1 28/6/1 34/4/1
f 2/1/1 3/8/1 4/2/1
f 5/4/2 6/7/2 7/5/2
f 9/7/3 10/5/3 7/6/3
f 9/4/4 11/7/4 12/5/4
f 5/7/5 8/5/5 12/6/5
f 7/7/6 10/5/6 12/6/6
f 9/7/1 6/5/1 5/6/1
f 13/4/2 14/7/2 15/5/2
f 17/7/3 18/5/3 15/6/3
f 17/4/4 19/7/4 20/5/4
f 13/7/5 16/5/5 20/6/5
f 15/7/6 18/5/6 20/6/6
f 17/7/1 14/5/1 13/6/1
f 21/4/2 22/7/2 23/5/2
f 25/7/3 3/5/3 23/6/3
f 25/4/4 26/7/4 27/5/4
f 21/7/5 24/5/5 27/6/5
f 23/7/6 3/5/6 27/6/6
f 25/7/1 22/5/1 21/6/1
f 28/4/2 29/7/2 30/5/2
f 32/7/3 33/5/3 30/6/3
f 32/4/4 34/7/4 2/5/4
f 28/7/5 31/5/5 2/6/5
f 30/7/6 33/5/6 2/6/6
f 32/7/1 29/5/1 28/6/1
