# Mesh: road_corner_1

# List of geometric vertices
v 3.6745 0.0525 3.6745
v 3.6745 -0.0525 5.2493
v 3.6745 0.0525 5.2493
v 5.2493 0.0525 3.6745
v 3.6745 -0.0525 3.6745
v 5.2493 0.0525 5.2493
v 5.2493 -0.0525 3.6745
v 5.2493 -0.0525 5.2493
v -5.2493 0.0525 -3.6745
v -5.2493 -0.0525 5.2493
v -5.2493 0.0525 5.2493
v -3.6745 0.0525 -3.6745
v -5.2493 -0.0525 -3.6745
v -3.6745 0.0525 5.2493
v -3.6745 -0.0525 -3.6745
v -3.6745 -0.0525 5.2493
v -5.2493 0.0525 -5.2493
v 5.2493 0.0525 -5.2493
v -5.2493 -0.0525 -5.2493
v 5.2493 0.0525 -3.6745
v 5.2493 -0.0525 -5.2493
v 5.2493 -0.0525 -3.6745
v 3.4646 -0.0525 2.3097
v 3.4646 -0.0525 1.8816
v 3.4646 -0.0525 2.7297
v -5.2493 -0.0525 -3.4646
v 3.4646 -0.0525 5.2493
v 2.7297 -0.0525 5.0394
v 2.3097 -0.0525 5.0394
v 2.7297 -0.0525 3.4646
v 1.8898 -0.0525 5.0394
v 1.4698 -0.0525 5.0394
v 1.0499 -0.0525 5.0394
v 0.6299 -0.0525 5.0394
v 0.2100 -0.0525 5.0394
v -0.2100 -0.0525 5.0394
v -0.6299 -0.0525 5.0394
v -1.0499 -0.0525 5.0394
v -1.4698 -0.0525 5.0394
v -1.8898 -0.0525 5.0394
v -1.4698 -0.0525 3.4646
v -2.3097 -0.0525 5.0394
v -2.7297 -0.0525 5.0394
v -3.4646 -0.0525 5.2493
v 5.2493 -0.0525 -3.4646
v 5.0394 -0.0525 -0.2100
v 5.0394 -0.0525 0.2100
v -0.2100 -0.0525 3.4646
v 0.2100 -0.0525 3.4646
v 0.6299 -0.0525 3.4646
v 1.0499 -0.0525 3.4646
v 1.8898 -0.0525 3.4646
v 1.4698 -0.0525 3.4646
v 2.3097 -0.0525 3.4646
v -0.6299 -0.0525 3.4646
v -1.0499 -0.0525 3.4646
v 3.4646 -0.0525 -2.7297
v 3.4646 -0.0525 -2.3097
v 3.4646 -0.0525 -1.8898
v 3.4646 -0.0525 -1.4698
v 3.4646 -0.0525 -1.0499
v 3.4646 -0.0525 -0.6299
v 3.4646 -0.0525 -0.2100
v 3.4646 -0.0525 0.2100
v 3.4646 -0.0525 0.6299
v 3.4646 -0.0525 1.0499
v 3.4646 -0.0525 1.4698
v 5.2493 -0.0525 3.6745
v 3.1496 -0.0525 3.4646
v 3.1496 -0.0525 5.0394
v -1.8898 -0.0525 3.4646
v -2.3097 -0.0525 3.4646
v -3.1496 -0.0525 5.0394
v -2.7297 -0.0525 3.4646
v -3.1496 -0.0525 3.4646
v 3.4646 -0.0525 -3.1496
v 5.0394 -0.0525 -2.7297
v 5.0394 -0.0525 -3.1496
v 5.0394 -0.0525 -1.8898
v 5.0394 -0.0525 -2.3097
v 5.0394 -0.0525 -1.0499
v 5.0394 -0.0525 -1.4698
v 5.0394 -0.0525 -0.6299
v 5.0394 -0.0525 0.6299
v 5.0394 -0.0525 1.4698
v 5.0394 -0.0525 1.0499
v 5.0394 -0.0525 1.8898
v 3.4646 -0.0525 3.1496
v 5.0394 -0.0525 2.7297
v 5.2493 -0.0525 3.4646
v 3.4646 -0.0525 3.4646
v -3.4646 -0.0525 -3.4646
v -3.6745 -0.0525 -3.4646
v 5.0394 -0.0525 3.1496
v 5.0394 -0.0525 2.3097

# List of vertex normals
vn -1.0000 0.0000 0.0000
vn 0.0000 0.0000 -1.0000
vn 1.0000 0.0000 0.0000
vn 0.0000 0.0000 1.0000
vn 0.0000 -1.0000 -0.0000
vn 0.0000 1.0000 0.0000

# List of texture coordinates
vt 0.2584 0.4161
vt 0.2084 0.4661
vt 0.2084 0.4161
vt 0.5003 0.4844
vt 0.5004 0.4844
vt 0.2584 0.4661
vt 0.4837 0.4750
vt 0.4906 0.4963
vt 0.4750 0.4757
vt 0.5079 0.4760
vt 0.5003 0.4784
vt 0.5002 0.4785
vt 0.4998 0.4820
vt 0.5001 0.4785
vt 0.5000 0.4785
vt 0.4999 0.4785
vt 0.4996 0.4785
vt 0.4991 0.4786
vt 0.4989 0.4786
vt 0.4989 0.4799
vt 0.4972 0.4791
vt 0.4950 0.4786
vt 0.4889 0.4767
vt 0.4968 0.4965
vt 0.5013 0.4838
vt 0.5010 0.4838
vt 0.4994 0.4799
vt 0.4994 0.4800
vt 0.4994 0.4801
vt 0.4994 0.4803
vt 0.4995 0.4809
vt 0.4992 0.4800
vt 0.5026 0.4841
vt 0.5024 0.4842
vt 0.5022 0.4843
vt 0.5020 0.4843
vt 0.5017 0.4843
vt 0.5015 0.4843
vt 0.5012 0.4844
vt 0.5010 0.4844
vt 0.5008 0.4844
vt 0.5006 0.4844
vt 0.5118 0.4756
vt 0.5098 0.4936
vt 0.5024 0.4845
vt 0.5750 0.8869
vt 0.5747 0.8814
vt 0.5793 0.8801
vt 0.5738 0.8833
vt 0.5746 0.8815
vt 0.5739 0.8840
vt 0.5746 0.8816
vt 0.5738 0.8831
vt 0.5745 0.8816
vt 0.5744 0.8816
vt 0.5738 0.8830
vt 0.5743 0.8816
vt 0.5736 0.8830
vt 0.5735 0.8816
vt 0.5740 0.8816
vt 0.5716 0.8821
vt 0.5730 0.8828
vt 0.5727 0.8827
vt 0.5665 0.8812
vt 0.5693 0.8840
vt 0.5680 0.8851
vt 0.5771 0.8870
vt 0.5773 0.8873
vt 0.5774 0.8874
vt 0.5768 0.8873
vt 0.5772 0.8872
vt 0.5773 0.8872
vt 0.5764 0.8874
vt 0.5763 0.8868
vt 0.5766 0.8869
vt 0.5759 0.8874
vt 0.5757 0.8868
vt 0.5760 0.8868
vt 0.5754 0.8874
vt 0.5752 0.8870
vt 0.5754 0.8869
vt 0.5750 0.8874
vt 0.5747 0.8872
vt 0.5749 0.8871
vt 0.5747 0.8875
vt 0.5745 0.8874
vt 0.5748 0.8877
vt 0.5743 0.8878
vt 0.5748 0.8875
vt 0.5768 0.8875
vt 0.5807 0.8939
vt 0.5751 0.8881
vt 0.5823 0.8791
vt 0.5863 0.8786
vt 0.5651 0.8952
vt 0.5714 0.8994
vt 0.5676 0.8979
vt 0.5651 0.8994
vt 0.5581 0.8781
vt 0.5633 0.8798
vt 0.5049 0.4771
vt 0.5007 0.4850
vt 0.4936 0.4821
vt 0.4921 0.4781
vt 0.5006 0.4839
vt 0.4907 0.4922
vt 0.4999 0.4849
vt 0.5063 0.4908
vt 0.4949 0.4809
vt 0.5004 0.4846
vt 0.4983 0.4797
vt 0.4986 0.4798
vt 0.4999 0.4848
vt 0.5027 0.4840
vt 0.5000 0.4846
vt 0.5030 0.4843
vt 0.5003 0.4842
vt 0.5001 0.4844
vt 0.5029 0.4842
vt 0.5028 0.4841
vt 0.5028 0.4842
vt 0.5022 0.4838
vt 0.5005 0.4840
vt 0.5016 0.4838
vt 0.5019 0.4838
vt 0.5007 0.4839
vt 0.4932 0.4949
vt 0.5250 0.4868
vt 0.5742 0.8851
vt 0.5738 0.8832
vt 0.5733 0.8829
vt 0.5733 0.8816
vt 0.5694 0.8816
vt 0.5770 0.8872
vt 0.5766 0.8873
vt 0.5761 0.8874
vt 0.5756 0.8874
vt 0.5752 0.8874
vt 0.5748 0.8874
vt 0.5744 0.8876
vt 0.5743 0.8880
vt 0.5842 0.8966
vt 0.5712 0.8996
vt 0.5651 0.8993

# List of polygonal faces
f 1/1/1 2/2/1 3/3/1
f 4/1/2 5/2/2 1/3/2
f 6/1/3 7/2/3 4/3/3
f 3/1/4 8/2/4 6/3/4
f 5/1/5 8/2/5 2/3/5
f 4/1/6 3/2/6 6/3/6
f 9/1/1 10/2/1 11/3/1
f 12/1/2 13/2/2 9/3/2
f 14/1/3 15/2/3 12/3/3
f 11/1/4 16/2/4 14/3/4
f 13/1/5 16/2/5 10/3/5
f 12/1/6 11/2/6 14/3/6
f 17/1/1 13/2/1 9/3/1
f 18/1/2 19/2/2 17/3/2
f 20/1/3 21/2/3 18/3/3
f 9/1/4 22/2/4 20/3/4
f 19/1/5 22/2/5 13/3/5
f 18/1/6 9/2/6 20/3/6
f 23/4/1 24/4/1 25/5/1
f 1/1/1 5/6/1 2/2/1
f 4/1/2 7/6/2 5/2/2
f 6/1/3 8/6/3 7/2/3
f 3/1/4 2/6/4 8/2/4
f 5/1/5 7/6/5 8/2/5
f 4/1/6 1/6/6 3/2/6
f 9/1/1 13/6/1 10/2/1
f 12/1/2 15/6/2 13/2/2
f 14/1/3 16/6/3 15/2/3
f 11/1/4 10/6/4 16/2/4
f 13/1/5 15/6/5 16/2/5
f 12/1/6 9/6/6 11/2/6
f 17/1/1 19/6/1 13/2/1
f 18/1/2 21/6/2 19/2/2
f 20/1/3 22/6/3 21/2/3
f 9/1/4 13/6/4 22/2/4
f 19/1/5 21/6/5 22/2/5
f 18/1/6 17/6/6 9/2/6
f 16/7/6 26/8/6 10/9/6
f 27/10/6 28/11/6 29/12/6
f 30/13/6 29/12/6 28/11/6
f 27/10/6 31/12/6 32/12/6
f 27/10/6 33/12/6 34/14/6
f 27/10/6 35/14/6 36/15/6
f 27/10/6 37/16/6 38/17/6
f 27/10/6 39/18/6 40/19/6
f 41/20/6 40/19/6 39/18/6
f 27/10/6 42/21/6 43/22/6
f 43/22/6 44/23/6 27/10/6
f 45/24/6 46/25/6 47/26/6
f 48/27/6 35/14/6 49/28/6
f 50/28/6 33/12/6 51/29/6
f 32/12/6 52/30/6 53/29/6
f 30/13/6 25/5/6 54/31/6
f 52/30/6 25/5/6 53/29/6
f 51/29/6 25/5/6 50/28/6
f 49/28/6 25/5/6 48/27/6
f 55/28/6 25/5/6 56/32/6
f 57/33/6 41/20/6 58/34/6
f 59/35/6 41/20/6 60/36/6
f 61/37/6 41/20/6 62/38/6
f 63/39/6 41/20/6 64/40/6
f 65/41/6 41/20/6 66/42/6
f 67/5/6 41/20/6 24/4/6
f 24/4/6 56/32/6 25/5/6
f 55/28/6 38/17/6 37/16/6
f 2/43/6 68/44/6 5/45/6
f 69/46/6 28/47/6 70/48/6
f 52/49/6 29/50/6 54/51/6
f 32/52/6 51/53/6 33/52/6
f 34/54/6 49/53/6 35/54/6
f 36/55/6 55/56/6 37/57/6
f 56/58/6 39/59/6 38/60/6
f 42/61/6 71/62/6 72/63/6
f 73/64/6 74/65/6 75/66/6
f 76/67/6 77/68/6 78/69/6
f 58/70/6 79/71/6 80/72/6
f 60/73/6 81/74/6 82/75/6
f 62/76/6 46/77/6 83/78/6
f 64/79/6 84/80/6 47/81/6
f 66/82/6 85/83/6 86/84/6
f 23/85/6 87/86/6 24/85/6
f 88/87/6 89/88/6 25/89/6
f 5/90/6 90/91/6 91/92/6
f 5/90/6 27/93/6 2/94/6
f 92/95/6 22/96/6 93/97/6
f 13/98/6 93/97/6 22/96/6
f 92/95/6 16/99/6 44/100/6
f 70/101/6 27/10/6 91/102/6
f 75/103/6 44/23/6 73/104/6
f 69/105/6 70/101/6 91/102/6
f 92/106/6 44/23/6 75/103/6
f 94/107/6 91/102/6 90/108/6
f 92/106/6 75/103/6 74/109/6
f 88/110/6 25/5/6 69/105/6
f 74/109/6 43/22/6 42/21/6
f 88/110/6 69/105/6 91/102/6
f 72/111/6 74/109/6 42/21/6
f 94/107/6 88/110/6 91/102/6
f 92/106/6 74/109/6 72/111/6
f 47/26/6 90/108/6 45/24/6
f 92/106/6 72/111/6 71/112/6
f 89/113/6 94/107/6 90/108/6
f 92/106/6 71/112/6 41/20/6
f 92/106/6 41/20/6 76/114/6
f 23/4/6 25/5/6 89/113/6
f 45/24/6 92/106/6 76/114/6
f 95/115/6 23/4/6 89/113/6
f 45/24/6 76/114/6 78/116/6
f 95/115/6 89/113/6 90/108/6
f 85/117/6 24/4/6 87/118/6
f 87/118/6 95/115/6 90/108/6
f 45/24/6 78/116/6 77/119/6
f 77/119/6 57/33/6 58/34/6
f 79/120/6 59/35/6 60/36/6
f 77/119/6 58/34/6 80/121/6
f 79/120/6 60/36/6 82/122/6
f 45/24/6 80/121/6 79/120/6
f 85/117/6 67/5/6 24/4/6
f 45/24/6 77/119/6 80/121/6
f 85/117/6 87/118/6 90/108/6
f 65/41/6 66/42/6 86/123/6
f 86/123/6 85/117/6 90/108/6
f 45/24/6 79/120/6 82/122/6
f 83/124/6 61/37/6 62/38/6
f 45/24/6 82/122/6 81/125/6
f 84/126/6 65/41/6 86/123/6
f 81/125/6 61/37/6 83/124/6
f 84/126/6 86/123/6 90/108/6
f 45/24/6 81/125/6 83/124/6
f 46/25/6 63/39/6 64/40/6
f 45/24/6 83/124/6 46/25/6
f 47/26/6 84/126/6 90/108/6
f 46/25/6 64/40/6 47/26/6
f 16/7/6 93/127/6 26/8/6
f 27/10/6 70/101/6 28/11/6
f 30/13/6 54/31/6 29/12/6
f 27/10/6 29/12/6 31/12/6
f 27/10/6 32/12/6 33/12/6
f 27/10/6 34/14/6 35/14/6
f 27/10/6 36/15/6 37/16/6
f 27/10/6 38/17/6 39/18/6
f 41/20/6 71/112/6 40/19/6
f 27/10/6 40/19/6 42/21/6
f 43/22/6 73/104/6 44/23/6
f 48/27/6 36/15/6 35/14/6
f 50/28/6 34/14/6 33/12/6
f 32/12/6 31/12/6 52/30/6
f 30/13/6 69/105/6 25/5/6
f 52/30/6 54/31/6 25/5/6
f 51/29/6 53/29/6 25/5/6
f 49/28/6 50/28/6 25/5/6
f 55/28/6 48/27/6 25/5/6
f 57/33/6 76/114/6 41/20/6
f 59/35/6 58/34/6 41/20/6
f 61/37/6 60/36/6 41/20/6
f 63/39/6 62/38/6 41/20/6
f 65/41/6 64/40/6 41/20/6
f 67/5/6 66/42/6 41/20/6
f 24/4/6 41/20/6 56/32/6
f 55/28/6 56/32/6 38/17/6
f 2/43/6 8/128/6 68/44/6
f 69/46/6 30/129/6 28/47/6
f 52/49/6 31/52/6 29/50/6
f 32/52/6 53/130/6 51/53/6
f 34/54/6 50/53/6 49/53/6
f 36/55/6 48/56/6 55/56/6
f 56/58/6 41/131/6 39/59/6
f 42/61/6 40/132/6 71/62/6
f 73/64/6 43/133/6 74/65/6
f 76/67/6 57/134/6 77/68/6
f 58/70/6 59/135/6 79/71/6
f 60/73/6 61/136/6 81/74/6
f 62/76/6 63/137/6 46/77/6
f 64/79/6 65/138/6 84/80/6
f 66/82/6 67/139/6 85/83/6
f 23/85/6 95/140/6 87/86/6
f 88/87/6 94/141/6 89/88/6
f 5/90/6 68/142/6 90/91/6
f 5/90/6 91/92/6 27/93/6
f 92/95/6 45/143/6 22/96/6
f 13/98/6 26/144/6 93/97/6
f 92/95/6 93/97/6 16/99/6
