# Mesh: road_lane_4

# List of geometric vertices
v -5.2493 0.0525 5.2493
v -5.2493 0.0525 -5.2493
v -5.2493 -0.0525 -5.2493
v -5.2493 -0.0525 5.2493
v -3.6745 0.0525 -5.2493
v -3.6745 -0.0525 -5.2493
v -3.6745 0.0525 5.2493
v -3.6745 -0.0525 5.2493
v 3.6745 0.0525 5.2493
v 3.6745 0.0525 -5.2493
v 3.6745 -0.0525 -5.2493
v 3.6745 -0.0525 5.2493
v 5.2493 0.0525 -5.2493
v 5.2493 -0.0525 -5.2493
v 5.2493 0.0525 5.2493
v 5.2493 -0.0525 5.2493
v 3.6745 -0.0525 3.5633
v 3.6745 -0.0525 3.5633
v 3.6745 -0.0525 3.6745
v -3.6745 -0.0525 3.6745
v -3.6745 -0.0525 3.5633
v -3.4646 -0.0525 -5.2493
v -3.4646 -0.0525 3.4646
v -0.1050 -0.0525 2.0997
v -0.1050 -0.0525 0.5249
v -0.1050 -0.0525 -0.5249
v -0.1050 -0.0525 -2.0997
v -0.1050 -0.0525 -3.1496
v -0.1050 -0.0525 -4.7244
v 3.4646 -0.0525 -5.2493
v 0.1050 -0.0525 -4.7244
v 0.1050 -0.0525 -3.1496
v 0.1050 -0.0525 -2.0997
v 0.1050 -0.0525 -0.5249
v 0.1050 -0.0525 0.5249
v 0.1050 -0.0525 2.0997
v 3.4646 -0.0525 3.4646
v 3.6745 0.0525 5.2493
v 3.6745 -0.0525 5.2493
v -3.6745 0.0525 3.6745
v 3.6745 0.0525 3.6745

# List of vertex normals
vn -1.0000 0.0000 0.0000
vn 0.0000 0.0000 -1.0000
vn 1.0000 0.0000 0.0000
vn 0.0000 0.0000 1.0000
vn 0.0000 -1.0000 -0.0000
vn 0.0000 1.0000 0.0000
vn 0.0003 1.0000 0.0000

# List of texture coordinates
vt 0.2677 0.4657
vt 0.2177 0.5157
vt 0.2177 0.4657
vt 0.2677 0.5157
vt 0.4958 0.4750
vt 0.4750 0.5030
vt 0.4750 0.4813
vt 0.4972 0.4814
vt 0.4854 0.5030
vt 0.4906 0.4945
vt 0.4894 0.4972
vt 0.5250 0.5030
vt 0.4920 0.4958
vt 0.5002 0.4898
vt 0.5160 0.4942
vt 0.5014 0.4903
vt 0.5034 0.4900
vt 0.5043 0.4888
vt 0.5067 0.4873
vt 0.5057 0.4867
vt 0.5003 0.4818
vt 0.5030 0.4888
vt 0.5005 0.4894
vt 0.5014 0.4900
vt 0.4967 0.4894
vt 0.4967 0.4863
vt 0.4979 0.4888
vt 0.5498 0.8897
vt 0.5475 0.8888
vt 0.5501 0.8894
vt 0.5530 0.8899
vt 0.5511 0.8900
vt 0.5539 0.8887
vt 0.5553 0.8867
vt 0.5563 0.8873
vt 0.5402 0.8945
vt 0.5416 0.8957
vt 0.5656 0.8942
vt 0.5701 0.8957
vt 0.5390 0.8971
vt 0.5463 0.8862
vt 0.5474 0.8877
vt 0.5468 0.8814
vt 0.5465 0.8853
vt 0.5205 0.4958
vt 0.5463 0.8893
vt 0.5510 0.8902
vt 0.5526 0.8888
vt 0.5499 0.8818

# List of polygonal faces
f 2/1/1 4/2/1 1/3/1
f 5/1/2 3/2/2 2/3/2
f 7/1/3 6/2/3 5/3/3
f 1/1/4 8/2/4 7/3/4
f 3/1/5 8/2/5 4/3/5
f 5/1/6 1/2/6 7/3/6
f 10/1/1 12/2/1 9/3/1
f 13/1/2 11/2/2 10/3/2
f 15/1/3 14/2/3 13/3/3
f 9/1/4 16/2/4 15/3/4
f 11/1/5 16/2/5 12/3/5
f 13/1/6 9/2/6 15/3/6
f 7/1/4 39/2/4 38/3/4
f 40/1/1 8/2/1 7/3/1
f 41/1/2 20/2/2 40/3/2
f 38/1/3 19/2/3 41/3/3
f 8/1/5 19/2/5 39/3/5
f 40/1/6 38/2/6 41/3/6
f 2/1/1 3/4/1 4/2/1
f 5/1/2 6/4/2 3/2/2
f 7/1/3 8/4/3 6/2/3
f 1/1/4 4/4/4 8/2/4
f 3/1/5 6/4/5 8/2/5
f 5/1/6 2/4/6 1/2/6
f 10/1/1 11/4/1 12/2/1
f 13/1/2 14/4/2 11/2/2
f 15/1/3 16/4/3 14/2/3
f 9/1/4 12/4/4 16/2/4
f 11/1/5 14/4/5 16/2/5
f 13/1/6 10/4/6 9/2/6
f 7/1/4 8/4/4 39/2/4
f 40/1/1 20/4/1 8/2/1
f 41/1/2 19/4/2 20/2/2
f 38/1/3 39/4/3 19/2/3
f 8/1/5 20/4/5 19/2/5
f 40/1/6 7/4/6 38/2/6
f 14/5/6 17/6/6 16/7/6
f 11/8/6 18/6/7 17/6/6
f 16/7/6 19/6/6 4/9/6
f 4/9/6 20/10/6 21/11/6
f 21/11/6 3/12/6 4/9/6
f 23/13/6 25/14/6 22/15/6
f 22/15/6 26/16/6 27/17/6
f 22/15/6 28/18/6 29/19/6
f 22/15/6 31/20/6 30/21/6
f 28/18/6 33/17/6 32/22/6
f 26/16/6 35/23/6 34/24/6
f 24/25/6 37/26/6 36/27/6
f 35/23/6 37/26/6 34/24/6
f 33/17/6 37/26/6 32/22/6
f 32/22/6 30/21/6 31/20/6
f 25/28/6 36/29/6 35/30/6
f 27/31/6 34/32/6 33/31/6
f 28/33/6 31/34/6 29/35/6
f 20/36/6 23/37/6 22/38/6
f 22/38/6 6/39/6 21/40/6
f 20/36/6 22/38/6 21/40/6
f 37/41/6 20/36/6 19/42/6
f 11/43/6 37/41/6 19/42/6
f 11/43/6 19/42/6 18/44/7
f 14/5/6 11/8/6 17/6/6
f 16/7/6 17/6/6 19/6/6
f 4/9/6 19/6/6 20/10/6
f 21/11/6 6/45/6 3/12/6
f 23/13/6 24/25/6 25/14/6
f 22/15/6 25/14/6 26/16/6
f 22/15/6 27/17/6 28/18/6
f 22/15/6 29/19/6 31/20/6
f 28/18/6 27/17/6 33/17/6
f 26/16/6 25/14/6 35/23/6
f 24/25/6 23/13/6 37/26/6
f 35/23/6 36/27/6 37/26/6
f 33/17/6 34/24/6 37/26/6
f 32/22/6 37/26/6 30/21/6
f 25/28/6 24/46/6 36/29/6
f 27/31/6 26/47/6 34/32/6
f 28/33/6 32/48/6 31/34/6
f 37/41/6 23/37/6 20/36/6
f 11/43/6 30/49/6 37/41/6
