# Mesh: tile_intersection_2

# List of geometric vertices
v -5.2493 -0.0525 5.2493
v 5.2493 -0.0525 5.2493
v 5.2493 -0.0525 -5.2493
v -5.2493 -0.0525 -5.2493
v -5.2493 0.0525 -3.6745
v -5.2493 0.0525 -5.2493
v -5.2493 -0.0525 -5.2493
v -5.2493 -0.0525 -3.6745
v 5.2493 0.0525 -5.2493
v 5.2493 -0.0525 -5.2493
v 5.2493 0.0525 -3.6745
v 5.2493 -0.0525 -3.6745
v -5.2493 0.0525 5.2493
v -5.2493 0.0525 3.6745
v -5.2493 -0.0525 3.6745
v -5.2493 -0.0525 5.2493
v -3.6745 0.0525 3.6745
v -3.6745 -0.0525 3.6745
v -3.6745 0.0525 5.2493
v -3.6745 -0.0525 5.2493
v 3.6745 0.0525 5.2493
v 3.6745 0.0525 3.6745
v 3.6745 -0.0525 3.6745
v 3.6745 -0.0525 5.2493
v 5.2493 0.0525 3.6745
v 5.2493 -0.0525 3.6745
v 5.2493 0.0525 5.2493

# List of vertex normals
vn 0.0000 1.0000 0.0000
vn -1.0000 0.0000 0.0000
vn 0.0000 0.0000 -1.0000
vn 1.0000 0.0000 0.0000
vn 0.0000 0.0000 1.0000
vn 0.0000 -1.0000 -0.0000

# List of texture coordinates
vt 0.5250 0.4750
vt 0.4750 0.5250
vt 0.4750 0.4750
vt 0.2770 0.3913
vt 0.2270 0.4413
vt 0.2270 0.3913
vt 0.2770 0.4413
vt 0.5250 0.5250

# List of polygonal faces
f 2/1/1 4/2/1 1/3/1
f 6/4/2 8/5/2 5/6/2
f 9/4/3 7/5/3 6/6/3
f 11/4/4 10/5/4 9/6/4
f 5/4/5 12/5/5 11/6/5
f 7/4/6 12/5/6 8/6/6
f 9/4/1 5/5/1 11/6/1
f 14/4/2 16/5/2 13/6/2
f 17/4/3 15/5/3 14/6/3
f 17/6/4 20/7/4 18/5/4
f 13/4/5 20/5/5 19/6/5
f 15/4/6 20/5/6 16/6/6
f 17/4/1 13/5/1 19/6/1
f 22/4/2 24/5/2 21/6/2
f 25/4/3 23/5/3 22/6/3
f 25/6/4 2/7/4 26/5/4
f 21/4/5 2/5/5 27/6/5
f 23/4/6 2/5/6 24/6/6
f 25/4/1 21/5/1 27/6/1
f 2/1/1 3/8/1 4/2/1
f 6/4/2 7/7/2 8/5/2
f 9/4/3 10/7/3 7/5/3
f 11/4/4 12/7/4 10/5/4
f 5/4/5 8/7/5 12/5/5
f 7/4/6 10/7/6 12/5/6
f 9/4/1 6/7/1 5/5/1
f 14/4/2 15/7/2 16/5/2
f 17/4/3 18/7/3 15/5/3
f 17/6/4 19/4/4 20/7/4
f 13/4/5 16/7/5 20/5/5
f 15/4/6 18/7/6 20/5/6
f 17/4/1 14/7/1 13/5/1
f 22/4/2 23/7/2 24/5/2
f 25/4/3 26/7/3 23/5/3
f 25/6/4 27/4/4 2/7/4
f 21/4/5 24/7/5 2/5/5
f 23/4/6 26/7/6 2/5/6
f 25/4/1 22/7/1 21/5/1
